<?xml version="1.0" encoding="utf-8"?>
<!-- Generator: Adobe Illustrator 16.0.3, SVG Export Plug-In . SVG Version: 6.00 Build 0)  -->
<!DOCTYPE svg PUBLIC "-//W3C//DTD SVG 1.1//EN" "http://www.w3.org/Graphics/SVG/1.1/DTD/svg11.dtd">
<svg version="1.1" id="Capa_1" xmlns="http://www.w3.org/2000/svg" xmlns:xlink="http://www.w3.org/1999/xlink" x="0px" y="0px"
	 width="456.545px" height="277.778px" viewBox="0 0 456.545 277.778" enable-background="new 0 0 456.545 277.778"
	 xml:space="preserve">
<g>
	<path fill-rule="evenodd" clip-rule="evenodd" fill="#1C1C1C" d="M377.778,250.45c-0.011,8.079-0.021,16.157-0.03,24.236
		c-0.001,0.56-0.041,1.123,0.007,1.679c0.087,1-0.257,1.508-1.335,1.398c-0.555-0.057-1.119-0.009-1.68-0.009
		c-98.947,0-197.895,0-296.842,0c-3.055,0-3.051-0.001-3.057-3.019c-0.017-8.398-0.038-16.797-0.058-25.195
		c-0.762-0.867-1.227-1.838-1.07-3.029c-0.081-7.111-0.076-14.225-0.053-21.337c0.018-5.587,0.143-5.724,5.827-5.726
		c73.344-0.017,146.688-0.006,220.031-0.01c1.199,0,2.399,0.028,3.599-0.018c3.205-0.123,4.241-1.049,4.28-4.174
		c0.087-6.959,0.084-13.918,0.002-20.875c-0.038-3.146-1.063-4.15-4.241-4.204c-5.037-0.085-10.077-0.057-15.116-0.007
		c-1.384,0.014-2.715,0.264-3.829,1.164c-0.92,0.744-1.891,0.795-2.902,0.26c-1.413-0.749-2.826-1.515-4.091-2.498
		c-1.492-1.16-1.469-2.473,0.129-3.438c1.503-0.908,3.14-1.581,4.842-2.061c0.808-0.228,1.612-0.218,2.267,0.366
		c1.433,1.278,3.168,1.394,4.952,1.399c6.238,0.02,12.478-0.062,18.715,0.039c3.546,0.059,4.004,0.509,4.049,4.074
		c0.1,7.997,0.021,15.996,0.039,23.994c0.013,5.357,0.607,5.971,5.887,5.975c18.316,0.011,36.632-0.01,54.947,0.012
		c5.778,0.006,5.878,0.107,5.883,5.908c0.005,7.357,0.065,14.716-0.052,22.074C378.923,248.588,378.483,249.567,377.778,250.45z"/>
	<path fill-rule="evenodd" clip-rule="evenodd" fill="#1C1C1C" d="M80.106,61.705c0.005-7.6,0.011-15.199,0.016-22.799
		c0-0.479-0.009-0.96,0.002-1.44c0.038-1.604,0.04-1.608,1.542-1.649c0.56-0.015,1.12-0.003,1.68-0.003
		c35.918,0,71.836,0.004,107.754-0.007c3.22-0.001,2.778,0.439,2.785-2.797c0.021-9.359,0.007-18.719,0.008-28.079
		c0-0.56,0.021-1.12,0.003-1.68c-0.021-0.682,0.247-1.047,0.97-1.024c0.56,0.017,1.12-0.004,1.68-0.004
		c7.52-0.008,15.039-0.013,22.559-0.025c1.992-0.003,1.991-0.013,2.281-1.943c0.01-0.067,0.081-0.125,0.171-0.254
		c2.237,0.93,4.488,1.866,7.074,2.941c-2.374,1.415-4.418,2.633-6.68,3.981c-0.11-0.548-0.234-0.948-0.263-1.354
		c-0.049-0.697-0.399-0.999-1.077-0.974c-0.24,0.009-0.479,0.004-0.72,0.004c-7.279,0.008-14.56,0.01-21.839,0.029
		c-1.717,0.004-1.751,0.032-1.754,1.677c-0.012,9.28-0.012,18.559,0,27.839c0.002,1.635,0.036,1.637,1.76,1.668
		c0.56,0.01,1.12,0.002,1.68,0.002c58.317,0,116.635,0,174.951,0c3.059,0,3.054,0,3.061,3.017
		c0.017,7.759,0.038,15.518,0.058,23.276c0.909,0.862,0.983,1.961,0.876,3.109c0.514,8.627,0.229,17.262,0.178,25.893
		c-0.016,2.83-0.604,3.284-3.44,3.445c-1.357,0.077-2.718,0.053-4.077,0.053c-94.916,0.002-189.832,0.002-284.748-0.001
		c-1.519-0.001-3.041,0.045-4.556-0.079c-2.378-0.193-2.915-0.675-3.021-3.111c-0.2-4.554-0.086-9.113-0.076-13.672
		c0.011-4.156-0.148-8.314,0.14-12.468C78.954,63.951,79.373,62.783,80.106,61.705z"/>
	<path fill-rule="evenodd" clip-rule="evenodd" fill="#424242" d="M377.793,65.176c0.004-1.023,0.009-2.045,0.014-3.068
		c11.536,2.006,22.306,6.076,32.338,12.09c8.71,5.221,16.389,11.732,23.025,19.377c4.604,5.303,8.632,11.066,11.957,17.311
		c4.149,7.797,7.214,15.96,9.155,24.569c1.731,7.676,2.414,15.435,2.234,23.292c-0.242,10.635-2.354,20.882-6.019,30.854
		c-3,8.162-7.087,15.723-12.165,22.753c-5.368,7.435-11.683,13.96-18.962,19.556c-9.933,7.639-20.929,13.143-32.992,16.498
		c-2.837,0.789-5.732,1.368-8.601,2.044c0.02-1.033,0.039-2.067,0.059-3.101c0.608-1.532,2.082-1.631,3.366-1.939
		c7.573-1.826,14.882-4.352,21.781-8.008c20.729-10.989,35.316-27.422,43.625-49.361c4.298-11.35,6.286-23.143,5.756-35.267
		c-0.507-11.603-2.972-22.812-7.802-33.432c-10.192-22.413-26.683-38.377-49.349-47.925c-4.641-1.955-9.473-3.445-14.409-4.508
		C379.565,66.643,378.555,66.176,377.793,65.176z"/>
	<path fill-rule="evenodd" clip-rule="evenodd" fill="#424242" d="M80.106,61.705c0.001,1.139,0.003,2.276,0.004,3.414
		c-0.886,1.036-2.095,1.389-3.371,1.653C57.3,70.811,40.955,80.359,27.714,95.021C14.879,109.234,7.25,125.949,4.891,145.039
		c-2.82,22.807,2.438,43.703,15.176,62.631c12.44,18.486,29.738,30.512,51.113,36.701c1.383,0.4,2.819,0.656,3.601,2.076
		c0.001,1.031,0.002,2.063,0.003,3.094c-13.866-3.082-26.435-8.982-37.669-17.635c-10.581-8.15-19.007-18.164-25.429-29.902
		c-4.127-7.543-7.197-15.479-9.146-23.818c-1.086-4.645-2.104-9.338-2.188-14.163c-0.063-3.591-0.419-7.183-0.338-10.768
		c0.174-7.687,1.345-15.249,3.445-22.652c3.531-12.446,9.252-23.748,17.359-33.882c5.894-7.367,12.672-13.758,20.351-19.162
		c7.95-5.596,16.601-9.886,25.979-12.557c3.979-1.135,8.045-1.965,12.07-2.944C79.522,61.982,79.81,61.824,80.106,61.705z"/>
	<path fill-rule="evenodd" clip-rule="evenodd" fill="#FEFEFE" d="M326.247,275.354c-15.438,0-30.876,0.005-46.313-0.005
		c-2.842-0.002-2.508,0.331-2.51-2.596c-0.01-15.758-0.008-31.516-0.001-47.273c0.001-2.711-0.278-2.447,2.422-2.447
		c31.036-0.006,62.072-0.004,93.107-0.004c0.16,0,0.32,0.002,0.48,0c2.048-0.02,1.916-0.013,1.916,2.001
		c-0.002,16.078-0.001,32.155-0.001,48.233c0,0.32-0.024,0.642-0.001,0.959c0.061,0.809-0.27,1.186-1.106,1.135
		c-0.638-0.039-1.279-0.003-1.919-0.003C356.964,275.354,341.605,275.354,326.247,275.354z"/>
	<path fill-rule="evenodd" clip-rule="evenodd" fill="#FEFEFE" d="M226.165,275.354c-15.357,0-30.716,0.005-46.073-0.005
		c-2.85-0.002-2.515,0.334-2.517-2.59c-0.01-15.758-0.008-31.516-0.001-47.273c0.001-2.715-0.282-2.453,2.416-2.453
		c30.876-0.006,61.752-0.004,92.628-0.004c0.08,0,0.16,0,0.24,0c2.365,0.003,2.159-0.142,2.159,2.235
		c0.003,15.918,0.001,31.836,0.001,47.754c0,0.399-0.026,0.802,0.001,1.2c0.056,0.801-0.256,1.191-1.101,1.139
		c-0.638-0.039-1.279-0.003-1.919-0.003C256.722,275.354,241.443,275.354,226.165,275.354z"/>
	<path fill-rule="evenodd" clip-rule="evenodd" fill="#FEFEFE" d="M126.209,275.354c-15.518,0-31.036,0.003-46.554-0.003
		c-2.696-0.001-2.409,0.258-2.41-2.459c-0.007-15.758-0.003-31.516-0.003-47.273c0-0.4,0.034-0.804-0.005-1.199
		c-0.098-1,0.255-1.514,1.333-1.397c0.474,0.052,0.959,0.007,1.439,0.007c30.796,0,61.592-0.004,92.388,0.008
		c3.195,0.001,2.763-0.439,2.766,2.814c0.016,15.678,0.011,31.356,0.004,47.034c-0.001,2.721,0.29,2.465-2.403,2.466
		C157.246,275.357,141.728,275.354,126.209,275.354z"/>
	<path fill-rule="evenodd" clip-rule="evenodd" fill="#FEFEFE" d="M302.564,91.019c-23.198,0-46.396,0-69.595,0
		c-0.561,0-1.124-0.04-1.68,0.007c-0.992,0.085-1.414-0.246-1.412-1.328c0.026-16.719,0.026-33.438,0-50.156
		c-0.002-1.076,0.407-1.421,1.406-1.335c0.556,0.048,1.119,0.008,1.68,0.008c46.477,0,92.953-0.003,139.43,0.008
		c3.402,0,2.943-0.475,2.946,2.874c0.018,15.838,0.011,31.678,0.005,47.516c-0.001,2.693,0.256,2.403-2.466,2.404
		C349.44,91.021,326.002,91.019,302.564,91.019z"/>
	<path fill-rule="evenodd" clip-rule="evenodd" fill="#FEFEFE" d="M154.947,91.019c-23.118,0-46.236,0-69.355,0
		c-0.56,0-1.123-0.04-1.679,0.008c-0.998,0.086-1.519-0.255-1.396-1.335c0.045-0.395,0.006-0.799,0.006-1.199
		c0-15.918-0.005-31.837,0.004-47.756c0.002-2.851-0.335-2.518,2.589-2.518c46.557-0.007,93.113-0.007,139.669,0
		c3.062,0,2.702-0.381,2.704,2.64c0.012,15.84,0.006,31.678,0.006,47.517c0,0.16,0,0.32,0,0.48
		c-0.002,2.365,0.143,2.161-2.233,2.161C201.823,91.02,178.385,91.019,154.947,91.019z"/>
	<path fill-rule="evenodd" clip-rule="evenodd" fill="#1E1E1E" d="M314.038,256.553c-0.178,0.152-0.418,0.51-0.601,0.482
		c-0.498-0.074-1.152-0.174-1.414-0.517c-0.419-0.548-0.63-1.284-0.822-1.97c-0.247-0.885-0.685-1.341-1.676-1.291
		c-1.354,0.07-2.716,0.053-4.071,0.008c-0.771-0.027-1.17,0.301-1.392,1.001c-0.217,0.683-0.495,1.347-0.739,2.021
		c-0.271,0.746-0.854,0.966-1.531,0.749c-0.791-0.252-0.469-0.922-0.312-1.408c0.492-1.515,1.037-3.012,1.58-4.51
		c1.005-2.773,2.048-5.531,3.018-8.316c0.292-0.838,0.804-1.061,1.618-1.066c0.853-0.008,1.273,0.332,1.557,1.14
		c1.479,4.211,3.016,8.401,4.525,12.603C313.885,255.775,313.93,256.096,314.038,256.553z"/>
	<path fill-rule="evenodd" clip-rule="evenodd" fill="#1E1E1E" d="M344.901,241.763c0.829-0.092,1.354,0.19,1.648,1.024
		c1.538,4.359,3.13,8.699,4.651,13.063c0.116,0.333-0.168,0.805-0.266,1.212c-0.508-0.125-1.249-0.086-1.476-0.408
		c-0.49-0.699-0.754-1.57-1.04-2.396c-0.246-0.708-0.675-1.028-1.423-0.987c-0.557,0.031-1.122,0.053-1.675-0.005
		c-2.302-0.239-4.339-0.122-4.633,2.891c-0.031,0.315-0.406,0.717-0.72,0.854c-0.324,0.141-0.846,0.13-1.131-0.052
		c-0.188-0.119-0.239-0.7-0.135-1c1.525-4.361,3.085-8.713,4.641-13.064C343.606,242.164,344.014,241.612,344.901,241.763z"/>
	<path fill-rule="evenodd" clip-rule="evenodd" fill="#232323" d="M331.491,249.01c-0.668-0.355-1.251-0.77-1.899-0.99
		c-2.002-0.682-3.521,0.279-3.779,2.372c-0.087,0.708-0.094,1.438-0.032,2.149c0.21,2.43,1.985,3.451,4.242,2.473
		c0.145-0.063,0.267-0.178,0.412-0.24c0.448-0.191,0.934-1.032,1.342-0.238c0.188,0.365-0.145,1.316-0.536,1.611
		c-2.179,1.646-5.736,1.232-6.893-1.129c-1.086-2.218-1.143-4.477,0.021-6.663c1.189-2.235,4.357-3.009,6.455-1.649
		C331.626,247.225,332.067,247.908,331.491,249.01z"/>
	<path fill-rule="evenodd" clip-rule="evenodd" fill="#1F1F1F" d="M316.303,251.59c0-1.434-0.039-2.869,0.025-4.299
		c0.018-0.395,0.262-0.996,0.55-1.104c0.307-0.113,1.056,0.156,1.146,0.419c0.307,0.89,0.614,0.669,1.105,0.194
		c0.752-0.725,1.686-0.96,2.636-0.561c0.322,0.135,0.539,0.701,0.628,1.109c0.029,0.129-0.494,0.525-0.793,0.558
		c-2.552,0.284-3.342,1.083-3.372,3.555c-0.016,1.274,0.047,2.55-0.022,3.821c-0.038,0.684,0.45,1.726-0.88,1.809
		c-0.884,0.055-1.006-0.168-1.024-1.92c-0.013-1.194-0.002-2.389-0.002-3.582C316.301,251.59,316.302,251.59,316.303,251.59z"/>
	<path fill-rule="evenodd" clip-rule="evenodd" fill="#1E1E1E" d="M207.444,241.787c1.067-0.173,1.395,0.463,1.647,1.172
		c1.527,4.277,3.062,8.553,4.552,12.843c0.123,0.356-0.061,0.819-0.102,1.233c-0.578-0.144-1.352-0.107-1.686-0.473
		c-0.45-0.493-0.6-1.283-0.812-1.967c-0.299-0.963-0.832-1.481-1.913-1.334c-0.549,0.076-1.126,0.08-1.674,0.001
		c-2.231-0.321-3.903,0.135-4.239,2.751c-0.045,0.348-0.335,0.777-0.637,0.945c-0.306,0.173-0.846,0.209-1.133,0.043
		c-0.228-0.131-0.382-0.697-0.302-0.998c0.245-0.922,0.621-1.807,0.943-2.707c1.21-3.376,2.428-6.75,3.623-10.131
		C206.032,242.264,206.396,241.488,207.444,241.787z"/>
	<path fill-rule="evenodd" clip-rule="evenodd" fill="#1E1E1E" d="M251.102,256.451c-0.078,0.115-0.246,0.561-0.397,0.555
		c-0.515-0.02-1.244-0.031-1.485-0.352c-0.463-0.613-0.727-1.418-0.929-2.181c-0.251-0.95-0.795-1.295-1.73-1.206
		c-0.475,0.045-0.964,0.058-1.436-0.002c-2.329-0.293-4.267-0.029-4.668,2.869c-0.049,0.352-0.549,0.754-0.932,0.922
		c-0.622,0.273-1.141-0.163-1.065-0.807c0.037-0.313,0.128-0.626,0.233-0.926c1.445-4.053,2.879-8.11,4.355-12.152
		c0.497-1.359,0.884-1.608,2.078-1.385c0.397,0.076,0.946,0.391,1.07,0.728c1.651,4.487,3.241,8.997,4.844,13.502
		C251.066,256.09,251.063,256.174,251.102,256.451z"/>
	<path fill-rule="evenodd" clip-rule="evenodd" fill="#222222" d="M225.514,251.509c0,0.081-0.001,0.16,0,0.239
		c0.042,3.336,1.845,4.438,4.838,2.951c0.214-0.106,0.453-0.387,0.604-0.34c0.286,0.088,0.762,0.45,0.73,0.532
		c-0.189,0.487-0.391,1.095-0.789,1.353c-2.958,1.926-6.938,0.573-7.389-2.964c-0.188-1.472-0.19-2.869,0.311-4.231
		c0.929-2.525,3.896-3.723,6.303-2.567c0.484,0.232,0.981,0.588,1.271,1.021c0.212,0.316,0.094,0.853,0.122,1.291
		c-0.349-0.057-0.709-0.076-1.043-0.18c-0.219-0.068-0.384-0.289-0.598-0.391c-2.326-1.101-4.146-0.025-4.351,2.568
		c-0.02,0.238-0.003,0.479-0.003,0.718C225.519,251.509,225.516,251.509,225.514,251.509z"/>
	<path fill-rule="evenodd" clip-rule="evenodd" fill="#242424" d="M217.938,247.152c1.139-0.407,2.058-0.842,3.025-1.045
		c0.665-0.141,1.246,0.189,1.241,1.062c-0.005,0.88-0.563,0.706-1.146,0.734c-1.913,0.093-3.001,1.226-3.07,3.201
		c-0.056,1.598-0.022,3.198-0.015,4.797c0.004,0.722-0.134,1.259-1.045,1.202c-0.766-0.048-0.892-0.525-0.892-1.141
		c0.001-2.879-0.004-5.758,0.002-8.636c0.001-0.563-0.016-1.159,0.782-1.235C217.661,246.012,217.979,246.477,217.938,247.152z"/>
	<path fill-rule="evenodd" clip-rule="evenodd" fill="#202020" d="M122.298,247.315c0-1.927,0.001-3.678,0-5.43
		c0-0.639,0.195-1.079,0.948-1.077c0.739,0.002,0.965,0.427,0.966,1.07c0.004,1.999,0.009,3.998,0.01,5.996
		c0.001,2.639,0.003,5.277-0.004,7.915c-0.002,0.552,0.058,1.175-0.718,1.292c-0.695,0.104-1.03-0.252-1.124-0.919
		c-0.016-0.116-0.18-0.212-0.249-0.287c-0.726,0.351-1.412,0.782-2.16,1.027c-2.195,0.72-4.188-0.28-5-2.447
		c-0.669-1.785-0.654-3.61-0.075-5.39c0.854-2.625,3.464-3.686,5.991-2.52C121.302,246.74,121.698,246.988,122.298,247.315z"/>
	<path fill-rule="evenodd" clip-rule="evenodd" fill="#1F1F1F" d="M104.537,255.734c0,1.529,0.002,2.639,0,3.748
		c-0.002,0.736,0.053,1.493-1.055,1.459c-1.004-0.032-0.86-0.761-0.865-1.372c-0.017-2.157-0.009-4.315-0.009-6.472
		c0-1.838-0.019-3.677,0.013-5.514c0.01-0.577-0.253-1.37,0.73-1.48c0.958-0.106,0.749,0.828,1.102,1.361
		c0.722-0.391,1.382-0.838,2.106-1.12c2.199-0.856,4.446,0.159,5.252,2.376c0.617,1.697,0.682,3.437,0.113,5.17
		c-0.96,2.926-3.531,4.005-6.264,2.629C105.381,256.38,105.143,256.162,104.537,255.734z"/>
	<path fill-rule="evenodd" clip-rule="evenodd" fill="#1D1D1D" d="M140.607,249.334c0-1.913-0.021-3.826,0.005-5.739
		c0.024-1.8,0.045-1.808,1.92-1.841c0.956-0.017,1.916-0.047,2.869,0.014c2.41,0.152,4.134,1.605,4.386,3.637
		c0.356,2.863-0.758,4.852-3.273,5.619c-0.819,0.25-1.724,0.326-2.586,0.307c-1.078-0.024-1.384,0.444-1.337,1.434
		c0.052,1.113,0.005,2.231-0.002,3.348c-0.005,0.681-0.333,0.997-1.034,0.988c-0.746-0.01-0.955-0.425-0.941-1.07
		c0.002-0.079-0.005-0.158-0.005-0.238C140.608,253.639,140.608,251.486,140.607,249.334z"/>
	<path fill-rule="evenodd" clip-rule="evenodd" fill="#202020" d="M129.643,247.426c0.854-0.431,1.466-0.808,2.125-1.061
		c2.384-0.912,4.7,0.339,4.941,2.86c0.22,2.292,0.099,4.617,0.117,6.928c0.005,0.704-0.413,1.083-1.059,0.901
		c-0.354-0.098-0.743-0.506-0.872-0.863c-0.154-0.424-0.049-0.943-0.05-1.422c-0.002-1.355,0.021-2.711-0.006-4.066
		c-0.041-1.971-0.706-2.843-2.114-2.845c-1.623-0.002-3.012,1.317-3.07,2.992c-0.046,1.354-0.004,2.711-0.012,4.065
		c-0.012,1.967-0.147,2.285-1.01,2.164c-1.577-0.221-0.652-1.506-0.918-2.288c-0.024-0.071-0.003-0.159-0.003-0.238
		c0-3.747,0-7.493,0-11.24c0-0.319-0.013-0.638,0.004-0.956c0.036-0.686-0.175-1.523,0.953-1.547c1.15-0.025,0.96,0.824,0.969,1.504
		C129.657,243.966,129.643,245.616,129.643,247.426z"/>
	<path fill-rule="evenodd" clip-rule="evenodd" fill="#1E1E1E" d="M327.564,72.023c-1.783,0.259-2.02,0.307-2.287-1.041
		c-0.474-2.377-1.924-2.81-3.966-2.529c-0.313,0.043-0.638,0.005-0.958,0.006c-2.296,0.005-2.295,0.006-3.143,2.215
		c-0.144,0.372-0.21,0.873-0.486,1.07c-0.398,0.283-0.956,0.344-1.446,0.5c-0.116-0.405-0.278-0.805-0.327-1.218
		c-0.025-0.21,0.158-0.441,0.238-0.667c1.391-3.902,2.78-7.807,4.173-11.711c0.106-0.3,0.234-0.594,0.348-0.891
		c0.278-0.729,0.867-0.822,1.553-0.833c0.719-0.011,1.218,0.195,1.471,0.922c1.629,4.659,3.271,9.313,4.903,13.97
		C327.655,71.871,327.591,71.954,327.564,72.023z"/>
	<path fill-rule="evenodd" clip-rule="evenodd" fill="#1E1E1E" d="M290.438,71.938c-1.946,0.418-2.15,0.465-2.457-0.878
		c-0.511-2.242-1.778-2.991-3.925-2.606c-0.232,0.041-0.479,0.005-0.719,0.005c-2.589,0.003-2.587,0.003-3.537,2.394
		c-0.147,0.37-0.236,0.898-0.516,1.049c-0.436,0.234-1.011,0.244-1.527,0.244c-0.062,0-0.266-0.711-0.162-1.007
		c1.529-4.368,3.105-8.72,4.654-13.081c0.275-0.776,0.737-1.141,1.594-1.139c0.817,0.003,1.361,0.228,1.648,1.045
		C287.126,62.619,288.782,67.269,290.438,71.938z"/>
	<path fill-rule="evenodd" clip-rule="evenodd" fill="#202020" d="M307.864,64.24c-0.674-0.355-1.261-0.744-1.904-0.986
		c-2.007-0.756-3.714,0.27-4.013,2.395c-0.077,0.548-0.062,1.114-0.034,1.67c0.141,2.872,1.975,3.979,4.56,2.75
		c0.421-0.199,0.804-0.479,1.304-0.783c0.58,0.902,0.39,1.527-0.321,2.09c-2.729,2.157-6.909,0.629-7.442-2.793
		c-0.182-1.16-0.169-2.406,0.033-3.564c0.547-3.129,4.146-4.781,6.839-3.209C307.739,62.309,308.43,62.943,307.864,64.24z"/>
	<path fill-rule="evenodd" clip-rule="evenodd" fill="#2D2D2D" d="M293.257,61.104c0.473,0.215,0.847,0.285,0.866,0.409
		c0.169,1.126,0.56,0.917,1.329,0.418c0.617-0.4,1.452-0.544,2.21-0.626c0.671-0.074,0.958,0.434,0.939,1.092
		c-0.018,0.647-0.415,0.683-0.953,0.724c-2.252,0.174-3.026,1.016-3.076,3.294c-0.035,1.59-0.005,3.182-0.037,4.771
		c-0.012,0.592-0.203,1.08-0.952,1.113c-0.865,0.039-1.12-0.475-1.122-1.188c-0.011-2.942-0.03-5.885,0.038-8.826
		C292.508,61.885,292.995,61.494,293.257,61.104z"/>
	<path fill-rule="evenodd" clip-rule="evenodd" fill="#232323" d="M169.083,64.613c0.001-1.997-0.033-3.994,0.012-5.99
		c0.034-1.504,0.194-1.64,1.655-1.687c1.037-0.034,2.079-0.054,3.114,0.008c2.786,0.165,4.425,1.699,4.601,4.238
		c0.183,2.642-1.547,4.837-4.172,5.295c-0.079,0.014-0.16,0.009-0.238,0.022c-0.902,0.156-2.094,0.029-2.617,0.561
		c-0.451,0.457-0.146,1.666-0.167,2.543c-0.013,0.559-0.005,1.117-0.016,1.676c-0.013,0.676-0.341,1.008-1.04,1.017
		c-0.69,0.009-1.067-0.319-1.093-0.976c-0.044-1.116-0.035-2.234-0.04-3.354C169.078,66.85,169.082,65.73,169.083,64.613z"/>
	<path fill-rule="evenodd" clip-rule="evenodd" fill="#1F1F1F" d="M150.781,70.959c-0.605,0.324-1.204,0.711-1.851,0.983
		c-2.296,0.967-4.579-0.007-5.437-2.325c-0.658-1.779-0.652-3.584-0.025-5.379c0.901-2.574,3.149-3.597,5.727-2.6
		c0.431,0.168,0.844,0.383,1.559,0.71c0-1.552-0.004-2.888,0.002-4.223c0.002-0.477-0.099-1.015,0.089-1.409
		c0.156-0.328,0.65-0.617,1.03-0.67c0.223-0.031,0.627,0.388,0.746,0.686c0.138,0.348,0.063,0.783,0.063,1.181
		c0.002,4.14,0.001,8.28,0.001,12.421c0,0.159,0.015,0.32-0.004,0.477c-0.07,0.58,0.224,1.351-0.757,1.462
		C150.941,72.385,151.259,71.374,150.781,70.959z"/>
	<path fill-rule="evenodd" clip-rule="evenodd" fill="#212121" d="M158.433,62.497c0.727-0.376,1.337-0.758,1.995-1.019
		c1.717-0.683,4.541,0.076,4.779,2.561c0.235,2.454,0.229,4.936,0.236,7.404c0,0.279-0.556,0.703-0.925,0.809
		c-0.651,0.185-1.104-0.23-1.137-0.883c-0.064-1.276-0.042-2.557-0.058-3.834c-0.01-0.879,0.048-1.766-0.052-2.635
		c-0.167-1.448-1.101-2.074-2.522-1.8c-1.413,0.272-2.387,1.351-2.431,2.819c-0.047,1.597,0.002,3.196-0.02,4.795
		c-0.009,0.682,0.193,1.525-0.937,1.565c-1.153,0.042-0.983-0.8-0.986-1.488c-0.013-3.517-0.007-7.034-0.006-10.55
		c0-1.039,0.003-2.078,0.007-3.117c0.002-0.593,0.052-1.121,0.861-1.141c0.886-0.021,1.07,0.495,1.067,1.225
		c-0.007,1.359-0.008,2.719,0.008,4.076C158.317,61.674,158.388,62.061,158.433,62.497z"/>
	<path fill-rule="evenodd" clip-rule="evenodd" fill="#1D1D1D" d="M131.968,64.596c0-2.072,0.023-4.145-0.011-6.217
		c-0.016-0.986,0.325-1.492,1.378-1.451c1.114,0.043,2.234-0.037,3.347,0.022c2.548,0.138,4.267,1.625,4.472,3.799
		c0.271,2.884-0.888,4.786-3.428,5.525c-0.602,0.175-1.251,0.216-1.883,0.255c-1.857,0.116-1.86,0.104-1.88,2.059
		c-0.008,0.797-0.001,1.594-0.004,2.391c-0.002,0.67-0.037,1.284-0.967,1.307c-0.91,0.021-1.028-0.523-1.026-1.232
		C131.974,68.9,131.969,66.748,131.968,64.596z"/>
	<path fill-rule="evenodd" clip-rule="evenodd" fill="#F3F3F3" d="M307.774,244.381c0.766,2.309,1.531,4.617,2.354,7.096
		c-1.497,0.537-2.907,0.254-4.282,0.236c-0.636-0.01-0.712-0.542-0.563-1.047c0.291-0.99,0.614-1.971,0.938-2.951
		c0.371-1.129,0.757-2.252,1.137-3.379C307.496,244.352,307.635,244.366,307.774,244.381z"/>
	<path fill-rule="evenodd" clip-rule="evenodd" fill="#F7F7F7" d="M347.512,251.666c-1.854,0-3.407,0-5.237,0
		c0.847-2.604,1.639-5.037,2.584-7.941C345.813,246.583,346.61,248.967,347.512,251.666z"/>
	<path fill-rule="evenodd" clip-rule="evenodd" fill="#F5F5F5" d="M204.739,251.766c0.864-2.715,1.604-5.037,2.361-7.415
		c0.913,1.106,2.274,5.038,2.528,7.255c-0.38,0.054-0.761,0.146-1.144,0.152C207.384,251.779,206.281,251.766,204.739,251.766z"/>
	<path fill-rule="evenodd" clip-rule="evenodd" fill="#F3F3F3" d="M247.333,251.76c-1.584,0-2.838,0.003-4.092-0.002
		c-0.938-0.002-1.031-0.571-0.803-1.282c0.655-2.038,1.333-4.069,2.128-6.485C245.812,246.6,246.4,249.061,247.333,251.76z"/>
	<path fill-rule="evenodd" clip-rule="evenodd" fill="#FBFBFB" d="M122.288,251.623c0.321,1.537-0.371,2.756-1.927,3.463
		c-1.665,0.755-3.31-0.016-3.639-1.809c-0.195-1.068-0.188-2.228-0.002-3.299c0.264-1.519,1.276-2.198,2.697-2.111
		c1.532,0.092,2.752,1.2,2.867,2.617C122.31,250.799,122.288,251.118,122.288,251.623z"/>
	<path fill-rule="evenodd" clip-rule="evenodd" fill="#FCFCFC" d="M104.543,251.456c-0.324-1.595,0.423-2.766,2.02-3.454
		c1.292-0.557,2.674-0.08,3.186,1.213c0.571,1.441,0.74,2.938,0.108,4.433c-0.499,1.182-1.516,1.899-2.566,1.796
		c-1.229-0.119-2.619-1.434-2.741-2.62C104.509,252.428,104.543,252.024,104.543,251.456z"/>
	<path fill-rule="evenodd" clip-rule="evenodd" fill="#F4F4F4" d="M142.589,246.46c0-0.239-0.036-0.486,0.006-0.719
		c0.146-0.794-0.459-1.856,0.686-2.302c1.249-0.486,3.454,0.261,4.068,1.298c0.695,1.172,0.578,2.729-0.288,3.835
		c-0.647,0.826-2.673,1.472-3.725,1.097c-0.299-0.106-0.652-0.511-0.69-0.813c-0.097-0.788-0.033-1.596-0.033-2.396
		C142.605,246.46,142.597,246.46,142.589,246.46z"/>
	<path fill-rule="evenodd" clip-rule="evenodd" fill="#F5F5F5" d="M318.519,66.924c0.856-2.671,1.615-5.037,2.373-7.403
		c0.13-0.004,0.26-0.009,0.389-0.013c0.722,2.139,1.455,4.273,2.153,6.42c0.167,0.513,0.03,0.978-0.626,0.988
		C321.478,66.939,320.146,66.924,318.519,66.924z"/>
	<path fill-rule="evenodd" clip-rule="evenodd" fill="#F3F3F3" d="M281.258,66.831c0.771-2.646,1.388-5.077,2.624-7.657
		c0.888,2.713,1.67,5.104,2.506,7.657C284.668,66.831,283.113,66.831,281.258,66.831z"/>
	<path fill-rule="evenodd" clip-rule="evenodd" fill="#FDFDFD" d="M171.269,61.706c0-0.237-0.002-0.476,0-0.714
		c0.019-2.187,0.019-2.187,1.187-2.281c2.227-0.18,3.389,0.465,3.718,2.061c0.573,2.782-1.548,4.76-4.24,3.908
		c-0.276-0.086-0.577-0.527-0.618-0.837c-0.092-0.701-0.029-1.423-0.029-2.137C171.28,61.706,171.274,61.706,171.269,61.706z"/>
	<path fill-rule="evenodd" clip-rule="evenodd" fill="#FCFCFC" d="M150.914,66.883c-0.185,0.752-0.195,1.617-0.594,2.229
		c-0.687,1.055-1.776,1.586-3.102,1.368c-1.333-0.218-1.868-1.198-1.98-2.37c-0.097-1.004-0.114-2.07,0.12-3.039
		c0.378-1.565,1.372-2.18,2.777-2.017c1.539,0.179,2.562,1.282,2.619,2.833c0.012,0.318,0.002,0.639,0.002,0.958
		C150.809,66.857,150.861,66.87,150.914,66.883z"/>
	<path fill-rule="evenodd" clip-rule="evenodd" fill="#F4F4F4" d="M135.149,64.92c-0.738,0.006-1.202-0.285-1.194-1.104
		c0.013-1.423-0.044-2.849,0.048-4.266c0.022-0.345,0.479-0.907,0.788-0.945c2.04-0.249,4.019,0.229,4.338,2.524
		c0.279,2.008-1.072,3.579-3.27,3.788C135.625,64.939,135.386,64.92,135.149,64.92z"/>
</g>
</svg>
