<?xml version="1.0" encoding="utf-8"?>
<!-- Generator: Adobe Illustrator 16.0.3, SVG Export Plug-In . SVG Version: 6.00 Build 0)  -->
<!DOCTYPE svg PUBLIC "-//W3C//DTD SVG 1.1//EN" "http://www.w3.org/Graphics/SVG/1.1/DTD/svg11.dtd">
<svg version="1.1" id="Capa_1" xmlns="http://www.w3.org/2000/svg" xmlns:xlink="http://www.w3.org/1999/xlink" x="0px" y="0px"
	 width="802.64px" height="279.5px" viewBox="0 0 802.64 279.5" enable-background="new 0 0 802.64 279.5" xml:space="preserve">
<g>
	<path fill-rule="evenodd" clip-rule="evenodd" d="M166.117,146.837c0.878,0.023,1.756,0.066,2.635,0.066
		c95.197,0.004,190.394,0.004,285.591,0c0.878,0,1.756-0.046,2.634-0.07c0.718,0.024,1.435,0.07,2.152,0.07
		c48.186,0.004,96.37,0.004,144.556,0c0.718,0,1.435-0.046,2.152-0.07c9.425,0.001,18.851,0.003,28.276,0.004
		c0.718,0.023,1.436,0.066,2.153,0.066c48.184,0.004,96.367,0.004,144.551,0c0.718,0,1.436-0.043,2.153-0.066
		c5.837,0.023,11.674,0.04,17.511,0.072c2.466,0.014,2.125-0.313,2.146,2.158c0.014,1.679-0.022,3.359,0.012,5.038
		c0.015,0.713-0.23,1.012-0.958,0.97c-0.718-0.042-1.439-0.008-2.159-0.008c-266.508,0-533.015,0-799.522,0c0-2.721,0-5.44,0-8.161
		c5.753-0.022,11.506-0.046,17.259-0.069c0.717,0.023,1.435,0.066,2.153,0.066c48.184,0.004,96.368,0.004,144.552,0
		C164.682,146.904,165.399,146.861,166.117,146.837z"/>
	<path fill-rule="evenodd" clip-rule="evenodd" fill="#404040" d="M590.931,211.712c-1.191,0-2.066,0-2.941,0
		c-120.304,0-240.607,0-360.911,0c-2.899,0-2.899,0-2.899-2.862c0-12.478,0-24.956,0-37.435c0-0.479,0.008-0.96-0.002-1.439
		c-0.031-1.429-0.034-1.455-1.413-1.462c-3.12-0.017-6.239-0.006-9.359-0.006c-0.48,0-0.961-0.025-1.439,0.006
		c-0.808,0.052-1.146-0.259-1.112-1.106c0.055-1.357,0.056-2.72,0-4.078c-0.036-0.883,0.38-1.078,1.15-1.07
		c2.399,0.024,4.799,0.009,7.199,0.009c7.199,0,14.398,0,21.597,0c0.56,0,1.12,0.003,1.68,0.004c0.604,0.001,0.831,0.308,0.813,0.9
		c-0.048,1.67-0.067,3.341-0.098,5.012c-1.518,0.726-3.124,0.246-4.684,0.3c-2.62,0.091-5.245,0.024-7.979,0.024
		c0,12.345,0,24.538,0,36.716c0.513,0.446,1.096,0.238,1.627,0.238c116.784,0.01,233.568,0.01,350.352,0.006
		c2.461,0,2.173,0.307,2.175-2.141c0.007-11.758,0.003-23.517,0.003-35.275c0-0.56,0.027-1.121-0.006-1.679
		c-0.049-0.812,0.266-1.143,1.109-1.108c1.358,0.055,2.722,0.056,4.079,0c0.886-0.035,1.113,0.388,1.062,1.153
		c-0.022,0.319-0.004,0.641-0.004,0.96c0,14.238,0,28.477,0,42.715C590.931,210.556,590.931,211.02,590.931,211.712z"/>
	<path fill-rule="evenodd" clip-rule="evenodd" fill="#404040" d="M28.323,74.42c0,1.012,0,1.796,0,2.58c0,11.598,0,23.197,0,34.795
		c0,0.479-0.036,0.963,0.007,1.439c0.089,0.978-0.192,1.474-1.308,1.399c-1.354-0.09-2.719-0.037-4.078-0.016
		c-0.619,0.01-0.855-0.293-0.858-0.861c-0.003-0.479-0.004-0.959-0.004-1.439c0-13.998,0-27.996,0-41.994
		c0-0.48,0.005-0.96,0.006-1.439c0-0.49,0.259-0.703,0.731-0.701c0.56,0.002,1.12-0.003,1.68-0.003c120.624,0,241.247,0,361.871,0
		c0.715,0,1.43,0,2.085,0c0.117,0.116,0.178,0.169,0.229,0.23c0.048,0.058,0.123,0.125,0.123,0.188
		c0.005,14.154,0.005,28.308,0.005,42.391c0.589,0.655,1.273,0.374,1.872,0.38c3.359,0.031,6.719,0.002,10.079,0.021
		c1.384,0.009,1.395,0.041,1.417,1.485c0.018,1.2-0.03,2.401,0.016,3.6c0.03,0.786-0.188,1.22-1.056,1.154
		c-0.478-0.036-0.96-0.005-1.439-0.005c-9.119,0-18.238,0-27.356,0c-0.48,0-0.961-0.022-1.44,0.005
		c-0.766,0.044-1.19-0.175-1.154-1.063c0.055-1.357,0.054-2.72,0-4.078c-0.034-0.843,0.295-1.163,1.106-1.11
		c0.479,0.031,0.96,0.005,1.44,0.005c2.64,0,5.279,0.018,7.919-0.004c2.774-0.024,2.368,0.39,2.372-2.418
		c0.016-10.719,0.007-21.438,0.006-32.156c0-0.56-0.005-1.12-0.006-1.68c0-0.488-0.257-0.703-0.73-0.701
		c-0.56,0.002-1.12-0.004-1.68-0.004c-116.464,0-232.928,0-349.393,0C30.069,74.42,29.354,74.42,28.323,74.42z"/>
	<path fill-rule="evenodd" clip-rule="evenodd" fill="#7391BC" d="M416.879,114.647c10.855,10.856,21.514,21.514,32.098,32.097
		c-0.48,0.186-1.277,0.025-2.051,0.025c-42.295,0.01-84.588,0.009-126.882,0.009c-2.639,0-2.639-0.001-2.639-2.645
		c-0.001-3.838-0.002-7.676,0-11.513c0.001-2.493-0.139-2.088,2.225-2.117c0.64-0.009,1.279-0.002,1.919-0.002
		c30.86,0,61.722,0.005,92.583-0.007c3.246-0.001,2.717,0.44,2.74-2.804C416.903,123.384,416.879,119.076,416.879,114.647z"/>
	<path fill-rule="evenodd" clip-rule="evenodd" fill="#2F5596" d="M176.073,146.701c10.71-10.71,21.318-21.318,31.953-31.951
		c0,2.571-0.001,5.266,0,7.959c0,2.158,0.046,4.318-0.021,6.475c-0.03,0.972,0.313,1.297,1.237,1.206
		c0.555-0.054,1.119-0.01,1.679-0.01c31.422,0,62.845,0,94.267,0c2.675,0,2.676,0.001,2.676,2.608
		c0.001,4.158-0.02,8.316,0.016,12.473c0.008,0.889-0.176,1.387-1.183,1.248c-0.393-0.054-0.799-0.008-1.198-0.008
		c-42.456,0-84.912,0-127.368,0C177.414,146.701,176.699,146.701,176.073,146.701z"/>
	<path fill-rule="evenodd" clip-rule="evenodd" fill="#00CB98" d="M782.97,146.837c-0.718,0.023-1.436,0.066-2.153,0.066
		c-48.184,0.004-96.367,0.004-144.551,0c-0.718,0-1.436-0.043-2.153-0.066c0-3.74,0-7.48,0-11.335c49.62,0,99.067,0,148.797,0
		C782.93,139.24,782.95,143.039,782.97,146.837z"/>
	<path fill-rule="evenodd" clip-rule="evenodd" fill="#EDA250" d="M605.836,146.833c-0.718,0.024-1.435,0.07-2.152,0.07
		c-48.186,0.004-96.37,0.004-144.556,0c-0.718,0-1.435-0.046-2.152-0.07c0-3.739,0-7.479,0-11.331c49.624,0,99.066,0,148.795,0
		C605.792,139.238,605.815,143.036,605.836,146.833z"/>
	<path fill-rule="evenodd" clip-rule="evenodd" fill="#00CB98" d="M166.117,146.837c-0.718,0.023-1.435,0.066-2.153,0.066
		c-48.184,0.004-96.368,0.004-144.552,0c-0.718,0-1.436-0.043-2.153-0.066c0-3.74,0-7.48,0-11.335c49.62,0,99.067,0,148.796,0
		C166.076,139.24,166.096,143.039,166.117,146.837z"/>
	<path fill-rule="evenodd" clip-rule="evenodd" fill="#424242" d="M221.791,61.941c-4.874,0-9.747,0.009-14.621-0.005
		c-1.552-0.005-1.562-0.034-1.581-1.565c-0.016-1.198,0.04-2.399-0.017-3.595c-0.041-0.865,0.346-1.093,1.13-1.088
		c3.515,0.021,7.031-0.005,10.546,0.014c1.871,0.01,1.651-0.065,1.65-1.714c-0.003-8.229-0.001-16.458-0.001-24.688
		c0-0.559,0.028-1.12-0.005-1.677c-0.05-0.824,0.292-1.128,1.123-1.093c1.276,0.054,2.561,0.084,3.833-0.007
		c1.124-0.081,1.32,0.436,1.309,1.403c-0.038,3.595-0.015,7.19-0.015,10.786c0,5.113,0.011,10.227-0.006,15.34
		c-0.006,1.878,0.076,1.648,1.718,1.646c3.275-0.004,6.552,0.031,9.827-0.02c1.033-0.016,1.422,0.305,1.35,1.359
		c-0.082,1.193-0.085,2.4,0.001,3.593c0.079,1.093-0.39,1.334-1.38,1.327C231.698,61.921,226.744,61.941,221.791,61.941z"/>
	<path fill-rule="evenodd" clip-rule="evenodd" fill="#424242" d="M381.631,224.196c-3.493,0-6.754,0-10.016,0
		c-0.64,0-1.283-0.042-1.918,0.009c-0.979,0.078-1.472-0.196-1.398-1.311c0.089-1.354,0.037-2.717,0.015-4.076
		c-0.009-0.616,0.286-0.858,0.856-0.863c0.399-0.003,0.799-0.004,1.199-0.004c9.434,0,18.867,0,28.301,0
		c0.32,0,0.641,0.021,0.958-0.003c0.786-0.058,1.167,0.212,1.131,1.08c-0.057,1.356-0.056,2.719,0,4.076
		c0.035,0.854-0.315,1.106-1.116,1.101c-3.117-0.024-6.235-0.027-9.354-0.004c-2.802,0.021-2.402-0.399-2.409,2.378
		c-0.018,7.995-0.006,15.989-0.006,23.984c0,0.56-0.023,1.12,0.005,1.679c0.038,0.756-0.157,1.194-1.053,1.159
		c-1.437-0.056-2.878-0.033-4.316-0.007c-0.614,0.012-0.875-0.258-0.877-0.839c-0.002-0.64-0.004-1.279-0.004-1.919
		C381.631,241.927,381.631,233.218,381.631,224.196z"/>
	<path fill-rule="evenodd" clip-rule="evenodd" fill="#101010" d="M373.135,172.67c0.778-0.402,1.512-0.943,2.333-1.168
		c1.183-0.323,2.465-0.287,3.342,0.716c0.729,0.833,1.241,0.651,1.95,0.051c0.678-0.573,1.498-0.85,2.416-0.908
		c1.513-0.095,3.433,0.803,3.588,3.057c0.165,2.387,0.069,4.79,0.083,7.187c0.003,0.597-0.331,0.837-0.902,0.837
		c-0.505,0-0.906-0.068-1.118-0.648c-0.176-0.48-0.09-0.941-0.094-1.408c-0.014-1.519,0.023-3.037-0.007-4.555
		c-0.038-1.931-0.632-2.714-1.953-2.677c-1.355,0.039-2.693,1.347-2.737,2.801c-0.055,1.837-0.033,3.676-0.003,5.514
		c0.012,0.738-0.323,0.987-1.007,0.981c-0.64-0.004-1.08-0.15-1.068-0.925c0.024-1.519,0.008-3.036,0.008-4.555
		c0-0.399,0.019-0.8-0.006-1.198c-0.1-1.605-0.79-2.553-1.893-2.62c-1.265-0.078-2.75,1.307-2.792,2.716
		c-0.053,1.836-0.055,3.677,0.009,5.513c0.032,0.914-0.42,1.063-1.158,1.069c-0.706,0.007-1-0.295-0.997-1.001
		c0.015-2.876-0.004-5.753,0.012-8.63c0.003-0.591-0.227-1.317,0.775-1.446C373.027,171.229,372.962,172.075,373.135,172.67z"/>
	<path fill-rule="evenodd" clip-rule="evenodd" fill="#0B0B0B" d="M226.278,98.105c0-1.437-0.023-2.874,0.008-4.311
		c0.023-1.067,0.658-1.575,1.47-0.984c0.786,0.571,1.394,0.596,2.152,0.231c1.432-0.688,2.803-0.508,4.068,0.364
		c0.686,0.472,1.272,0.545,1.952,0.041c0.315-0.234,0.689-0.407,1.059-0.545c2.509-0.933,4.786,0.459,4.93,3.133
		c0.12,2.229,0.017,4.469,0.04,6.704c0.007,0.702-0.257,0.996-0.979,0.98c-0.726-0.016-0.987-0.358-0.966-1.033
		c0.015-0.478,0.001-0.958,0-1.437c0-1.356,0.032-2.715-0.008-4.07c-0.055-1.833-0.719-2.725-1.973-2.758
		c-1.44-0.04-2.828,1.318-2.868,2.896c-0.044,1.756-0.018,3.512-0.007,5.269c0.004,0.614-0.076,1.066-0.857,1.139
		c-0.837,0.077-1.162-0.368-1.279-1.052c-0.066-0.386,0.014-0.796,0.016-1.194c0.004-1.438,0.027-2.874-0.001-4.311
		c-0.038-1.961-0.601-2.755-1.888-2.756c-1.409,0-2.783,1.406-2.815,2.963c-0.037,1.755-0.041,3.513,0.006,5.268
		c0.023,0.87-0.368,1.101-1.15,1.079c-0.748-0.02-0.93-0.397-0.917-1.066C226.296,101.139,226.278,99.622,226.278,98.105z"/>
	<path fill-rule="evenodd" clip-rule="evenodd" fill="#0D0D0D" d="M59.934,123.521c-2.155,0.475-2.145,0.471-2.777-1.165
		c-0.458-1.186-0.94-2.362-1.426-3.537c-0.316-0.765-0.828-1.353-1.621-1.657c-1.638-0.63-2.31-0.184-2.329,1.571
		c-0.015,1.358-0.019,2.717,0,4.075c0.012,0.846-0.419,1.102-1.198,1.074c-0.695-0.024-0.98-0.297-0.976-1.02
		c0.021-4.475,0.02-8.949,0-13.424c-0.003-0.62,0.289-0.911,0.829-0.917c1.755-0.019,3.523-0.199,5.262,0.116
		c2.999,0.546,4.409,3.953,2.355,6.183c-1.202,1.304-1.024,2.123-0.321,3.454C58.613,119.936,59.207,121.749,59.934,123.521z
		 M51.769,115.115c1.193,0,2.158,0.136,3.066-0.033c1.292-0.238,1.882-1.121,1.877-2.39c-0.005-1.316-0.522-1.995-1.893-2.34
		c-0.609-0.153-1.251-0.177-1.878-0.251c-0.772-0.091-1.202,0.174-1.181,1.035C51.792,112.403,51.769,113.67,51.769,115.115z"/>
	<path fill-rule="evenodd" clip-rule="evenodd" fill="#070707" d="M682,116.341c1.727,1.843,2.217,4.163,3.178,6.248
		c0.208,0.452,0.419,0.987-0.195,1.188c-0.58,0.189-1.294,0.314-1.737-0.348c-0.218-0.326-0.345-0.717-0.489-1.087
		c-0.346-0.889-0.67-1.785-1.017-2.673c-0.941-2.41-1.384-2.689-4.231-2.634c-0.353,1.798-0.1,3.633-0.152,5.452
		c-0.022,0.778-0.011,1.446-1.101,1.393c-1.009-0.05-1.114-0.695-1.114-1.459c-0.002-4.159,0.007-8.318-0.007-12.478
		c-0.003-0.981,0.398-1.475,1.417-1.451c1.278,0.028,2.562-0.043,3.838,0.033c2.133,0.126,3.569,1.132,3.992,2.839
		c0.445,1.799-0.039,3.317-1.638,4.389C682.55,115.883,682.375,116.043,682,116.341z M677.335,112.604c0,0.159-0.001,0.318,0,0.479
		c0.008,2.34,0.05,2.377,2.386,2.136c0.159-0.017,0.321-0.012,0.476-0.045c1.422-0.299,2.345-1.415,2.209-2.662
		c-0.195-1.792-1.417-2.537-3.964-2.416c-1.1,0.052-1.1,0.052-1.106,2.27C677.334,112.445,677.335,112.524,677.335,112.604z"/>
	<path fill-rule="evenodd" clip-rule="evenodd" fill="#0B0B0B" d="M487.678,111.547c1.963,2.049,2.448,4.679,3.47,7.069
		c-1.921,0.664-1.919,0.663-2.525-0.771c-0.556-1.314-1.145-2.614-1.66-3.943c-0.247-0.636-0.639-1.122-1.203-1.432
		c-1.555-0.851-2.544-0.267-2.573,1.498c-0.019,1.117,0.006,2.234,0.007,3.353c0,0.39,0.021,0.762-0.134,1.159
		c-0.285,0.73-0.857,0.584-1.392,0.572c-0.493-0.012-0.657-0.352-0.671-0.793c-0.005-0.159-0.004-0.319-0.004-0.479
		c0-4.23,0.02-8.461-0.015-12.69c-0.008-1.018,0.335-1.462,1.386-1.41c1.274,0.063,2.557-0.034,3.827,0.058
		c2.005,0.145,3.441,1.194,3.857,2.684c0.532,1.904-0.051,3.343-1.892,4.686C488.03,111.201,487.922,111.322,487.678,111.547z
		 M482.994,107.848c0,0.635-0.002,1.271,0.001,1.905c0.001,0.359,0.162,0.619,0.537,0.634c0.947,0.037,1.911,0.175,2.833-0.134
		c1.035-0.347,1.759-1.339,1.763-2.314c0.006-1.167-0.666-2.016-1.889-2.388C483.491,104.717,482.99,105.071,482.994,107.848z"/>
	<path fill-rule="evenodd" clip-rule="evenodd" fill="#101010" d="M507.34,117.935c0,1.547-0.015,2.814,0.005,4.081
		c0.012,0.78-0.456,0.921-1.085,0.901c-0.6-0.018-1.07-0.095-1.065-0.91c0.027-4.307,0.004-8.613,0.023-12.921
		c0.005-1.05,0.959-1.569,1.73-0.811c0.607,0.599,0.81,0.81,1.662,0.359c3.035-1.604,5.767-0.183,6.361,3.193
		c0.167,0.947,0.157,1.902,0.048,2.859c-0.422,3.659-3.379,5.319-6.715,3.759C508.093,118.347,507.891,118.228,507.34,117.935z
		 M507.333,113.49c0,0.396-0.023,0.793,0.005,1.187c0.094,1.283,1.267,2.448,2.609,2.613c1.395,0.172,2.274-0.498,2.806-1.978
		c0.481-1.343,0.321-2.649-0.095-3.936c-0.407-1.258-1.48-1.799-2.819-1.544C508.136,110.158,507.335,111.326,507.333,113.49z"/>
	<path fill-rule="evenodd" clip-rule="evenodd" fill="#101010" d="M213.06,5.792c0.607-0.982,0.162-2.127,0.296-3.206
		c0.078-0.626-0.136-1.255,0.08-1.891c0.191-0.562,0.556-0.705,1.086-0.695c0.558,0.011,0.917,0.216,0.944,0.814
		c0.014,0.319,0.009,0.639,0.009,0.958c0,4.316,0.011,8.632-0.012,12.949c-0.003,0.573,0.322,1.338-0.59,1.597
		c-1.191,0.337-1.083-0.772-1.417-1.363c-0.192,0.108-0.333,0.181-0.467,0.265c-3.656,2.304-6.861,0.81-7.32-3.454
		c-0.1-0.933-0.066-1.871,0.217-2.823c0.958-3.209,2.99-4.324,6.187-3.264C212.377,5.781,212.653,5.933,213.06,5.792z
		 M213.549,11.209c0-0.678,0.032-1.16-0.006-1.637c-0.095-1.183-1.191-2.238-2.523-2.468c-1.406-0.242-2.319,0.239-2.886,1.532
		c-0.467,1.066-0.408,2.189-0.27,3.299c0.32,2.569,2.382,3.446,4.485,1.969C213.39,13.174,213.761,12.229,213.549,11.209z"/>
	<path fill-rule="evenodd" clip-rule="evenodd" fill="#101010" d="M366.121,278.006c-0.482,0.304-0.926,0.641-1.418,0.884
		c-2.559,1.261-5.072,0.277-5.984-2.382c-0.55-1.604-0.622-3.243-0.077-4.894c0.865-2.619,2.909-3.775,5.59-3.11
		c1.738,0.431,1.749,0.431,1.774-1.343c0.014-0.959-0.047-1.92-0.01-2.877c0.025-0.673,0.237-1.221,1.106-1.23
		c0.904-0.01,1.034,0.497,1.032,1.229c-0.012,4.556,0.001,9.111-0.014,13.668c-0.002,0.585,0.245,1.325-0.757,1.461
		C366.226,279.568,366.436,278.583,366.121,278.006z M366.203,274.205c0-0.609,0.02-1.01-0.004-1.408
		c-0.079-1.331-1.172-2.433-2.603-2.645c-1.457-0.214-2.469,0.399-2.934,1.839c-0.299,0.927-0.246,1.888-0.17,2.849
		c0.085,1.088,0.371,2.114,1.425,2.587c1.208,0.543,2.313,0.125,3.34-0.65C366.23,276.042,366.304,275.062,366.203,274.205z"/>
	<path fill-rule="evenodd" clip-rule="evenodd" fill="#101010" d="M76.047,114.251c1.095-0.764,2.185-1.516,3.646-1.463
		c1.51,0.055,2.63,0.667,3.294,1.978c1.189,2.347,1.199,4.75-0.032,7.077c-0.971,1.836-2.991,2.426-5.424,1.727
		c-1.272-0.365-1.35-0.324-1.412,0.919c-0.032,0.637-0.063,1.284,0.011,1.914c0.107,0.903-0.157,1.338-1.137,1.33
		c-0.913-0.007-1.013-0.514-1.01-1.236c0.014-4.153,0.006-8.306,0.008-12.459c0-0.559-0.066-1.133,0.756-1.228
		c0.93-0.107,1.024,0.507,1.121,1.163C75.878,114.044,75.951,114.107,76.047,114.251z M75.917,118.31
		c0,0.396-0.028,0.794,0.005,1.188c0.102,1.242,1.317,2.408,2.663,2.581c1.39,0.179,2.271-0.3,2.76-1.676
		c0.517-1.452,0.53-2.955-0.078-4.392c-0.584-1.382-1.683-1.853-3.063-1.301C76.716,115.305,75.598,116.033,75.917,118.31z"/>
	<path fill-rule="evenodd" clip-rule="evenodd" fill="#0B0B0B" d="M701.525,114.38c1.181-0.953,2.234-1.574,3.604-1.585
		c1.84-0.015,3.092,0.885,3.737,2.46c0.736,1.795,0.836,3.707,0.131,5.578c-1.046,2.775-3.438,3.748-6.153,2.516
		c-0.286-0.13-0.557-0.291-0.934-0.489c-0.535,1.077-0.168,2.189-0.26,3.249c-0.065,0.758,0.241,1.654-1.084,1.622
		c-1.158-0.026-0.966-0.791-0.967-1.49c-0.002-3.986-0.008-7.974,0.007-11.96c0.003-0.58-0.276-1.325,0.728-1.466
		C701.5,112.651,701.28,113.581,701.525,114.38z M701.495,118.124c0,0.605-0.028,1.007,0.006,1.403
		c0.107,1.248,1.539,2.553,2.933,2.698c1.026,0.108,2.065-0.608,2.536-1.796c0.58-1.467,0.518-2.965-0.036-4.405
		c-0.535-1.388-1.977-1.891-3.352-1.256C702.069,115.467,701.088,116.498,701.495,118.124z"/>
	<path fill-rule="evenodd" clip-rule="evenodd" fill="#0D0D0D" d="M195.683,98.186c0,1.489-0.024,2.992,0.01,4.494
		c0.017,0.709-0.257,1.013-0.961,1.039c-0.757,0.027-1.217-0.169-1.214-1.043c0.015-4.396,0.014-8.792,0-13.187
		c-0.002-0.807,0.347-1.168,1.146-1.16c1.199,0.014,2.4-0.044,3.596,0.012c2.753,0.129,4.497,1.741,4.628,4.161
		c0.174,3.205-1.609,4.891-4.245,5.388C197.709,98.066,196.73,97.76,195.683,98.186z M195.516,93.214
		c0,0.714-0.002,1.427,0.001,2.141c0.002,0.546,0.266,0.884,0.805,1.006c2.763,0.626,4.953-1.543,4.324-4.283
		c-0.354-1.541-1.853-2.351-3.992-2.156c-1.105,0.101-1.128,0.148-1.137,2.341C195.516,92.58,195.517,92.897,195.516,93.214z"/>
	<path fill-rule="evenodd" clip-rule="evenodd" fill="#0B0B0B" d="M270.348,14.593c1.663,0,3.326,0.011,4.988-0.005
		c0.599-0.006,1.125-0.001,1.173,0.803c0.058,0.969-0.578,0.959-1.252,0.957c-2.238-0.007-4.477,0.003-6.714-0.007
		c-0.539-0.002-1.173,0.164-1.469-0.499c-0.31-0.695,0.068-1.227,0.51-1.72c1.169-1.304,2.325-2.62,3.51-3.909
		c1.145-1.245,2.106-2.577,2.388-4.301c0.325-1.983-1.057-3.406-3.066-3.172c-1.028,0.12-1.862,0.769-2.82,1.115
		c-0.465-1.111-0.196-1.879,0.791-2.239c0.889-0.325,1.79-0.616,2.776-0.672c3.257-0.186,5.774,2.026,4.338,6.202
		c-0.743,2.157-2.435,3.705-3.856,5.412c-0.45,0.541-0.972,1.021-1.46,1.529C270.239,14.256,270.293,14.425,270.348,14.593z"/>
	<path fill-rule="evenodd" clip-rule="evenodd" fill="#0B0B0B" d="M151.867,111.383c-0.396-1.248-0.058-1.951,0.948-2.284
		c0.904-0.299,1.795-0.609,2.786-0.619c3.666-0.034,5.562,2.629,4.258,6.092c-0.833,2.213-2.5,3.851-3.983,5.613
		c-0.45,0.534-1.178,0.857-1.305,1.756c1.487,0.389,2.997,0.091,4.483,0.18c0.398,0.023,0.808-0.046,1.196,0.021
		c0.47,0.082,0.573,0.474,0.568,0.904c-0.005,0.451-0.154,0.8-0.657,0.804c-2.638,0.017-5.276,0.06-7.913,0
		c-1.06-0.023-1.351-0.93-0.56-1.911c1.147-1.425,2.411-2.756,3.635-4.117c1.069-1.188,2.046-2.376,2.34-4.062
		c0.444-2.543-1.042-4.047-3.524-3.344C153.383,110.63,152.681,111.031,151.867,111.383z"/>
	<path fill-rule="evenodd" clip-rule="evenodd" fill="#0B0B0B" d="M439.258,180.689c1.446,0,2.866,0,4.287,0
		c0.399,0,0.799-0.009,1.199,0.003c0.649,0.021,0.744,0.471,0.734,0.987c-0.008,0.47-0.246,0.743-0.722,0.744
		c-2.637,0.011-5.275,0.05-7.912-0.009c-0.925-0.021-1.258-0.927-0.591-1.77c1.136-1.434,2.368-2.794,3.618-4.13
		c1.214-1.296,2.253-2.661,2.563-4.468c0.342-1.987-1.006-3.426-3.002-3.224c-1.053,0.106-1.869,0.819-2.886,1.075
		c-0.466-1.134-0.13-1.885,0.995-2.252c0.679-0.222,1.368-0.463,2.071-0.545c1.737-0.205,3.433,0.007,4.522,1.546
		c1.109,1.567,0.905,3.293,0.169,4.984c-0.877,2.015-2.472,3.495-3.813,5.165C440.065,179.33,439.309,179.628,439.258,180.689z"/>
	<path fill-rule="evenodd" clip-rule="evenodd" fill="#070707" d="M340.64,176.782c0,1.633,0.038,3.064-0.017,4.493
		c-0.025,0.663-0.304,1.204-1.16,1.17c-0.646-0.026-1.048-0.167-1.045-0.93c0.016-4.459,0.012-8.917,0.004-13.375
		c-0.002-0.843,0.452-1.094,1.208-1.081c1.194,0.02,2.391-0.038,3.582,0.022c2.637,0.134,4.43,1.788,4.626,4.2
		c0.207,2.538-1.574,4.848-4.142,5.276C342.77,176.713,341.815,176.702,340.64,176.782z M340.397,171.743c0.001,0,0.002,0,0.003,0
		c0,0.87-0.011,1.74,0.004,2.609c0.008,0.451,0.241,0.731,0.722,0.736c0.474,0.005,0.954,0.047,1.422-0.007
		c1.901-0.219,3.066-1.466,3.087-3.263c0.021-1.896-0.996-2.949-3.069-3.175c-1.992-0.218-2.148-0.08-2.168,1.912
		C340.393,170.951,340.397,171.347,340.397,171.743z"/>
	<path fill-rule="evenodd" clip-rule="evenodd" fill="#101010" d="M193.668,10.69c0-1.356-0.01-2.712,0.005-4.067
		c0.005-0.441-0.229-1.003,0.388-1.23c0.539-0.198,1.242-0.307,1.511,0.25c0.38,0.788,0.736,0.551,1.266,0.266
		c0.628-0.337,1.282-0.596,2.03-0.629c2.189-0.099,3.779,1.016,3.98,3.204c0.211,2.294,0.111,4.617,0.143,6.927
		c0.01,0.729-0.419,0.937-1.078,0.945c-0.813,0.012-1.121-0.329-1.098-1.152c0.046-1.673,0.024-3.349,0.008-5.024
		c-0.005-0.555,0.011-1.135-0.141-1.658c-0.35-1.208-1.44-1.721-2.644-1.334c-1.562,0.502-2.223,1.428-2.241,3.198
		c-0.017,1.595-0.026,3.191,0.005,4.785c0.015,0.764-0.177,1.21-1.054,1.189c-0.784-0.018-1.14-0.263-1.103-1.125
		c0.065-1.513,0.018-3.03,0.018-4.545C193.666,10.69,193.667,10.69,193.668,10.69z"/>
	<path fill-rule="evenodd" clip-rule="evenodd" fill="#101010" d="M249.807,103.716c-3.314-0.01-5.088-1.772-5.251-5.417
		c-0.147-3.28,2.159-5.556,5.398-5.668c3.542-0.123,5.282,2.183,5.352,5.313C255.384,101.507,253.246,103.714,249.807,103.716z
		 M246.748,98.246c-0.066,1.355,0.26,2.581,1.457,3.341c1.492,0.947,3.853,0.265,4.569-1.24c0.959-2.015,0.205-5.136-1.393-5.738
		c-0.148-0.056-0.312-0.067-0.469-0.101C248.29,93.951,246.742,95.339,246.748,98.246z"/>
	<path fill-rule="evenodd" clip-rule="evenodd" fill="#101010" d="M394.755,182.444c-3.374-0.025-5.083-1.854-5.226-5.44
		c-0.132-3.295,2.173-5.54,5.421-5.646c3.5-0.114,5.266,2.167,5.327,5.339C400.346,180.257,398.203,182.449,394.755,182.444z
		 M398.128,176.822c-0.017-0.152-0.049-0.471-0.089-0.787c-0.257-2.032-1.182-2.902-3.083-2.902c-1.826,0.001-2.987,1.005-3.2,2.859
		c-0.082,0.709-0.098,1.453,0.024,2.152c0.301,1.73,1.453,2.594,3.227,2.542C397.083,180.626,398.097,179.425,398.128,176.822z"/>
	<path fill-rule="evenodd" clip-rule="evenodd" fill="#0B0B0B" d="M346.288,273.874c0-1.437-0.019-2.874,0.007-4.31
		c0.018-1.076,0.705-1.678,1.406-1.104c0.96,0.787,1.668,0.426,2.589,0.132c2.866-0.914,5.054,0.635,5.213,3.713
		c0.102,1.99-0.003,3.989,0.043,5.983c0.02,0.839-0.315,1.131-1.118,1.128c-0.878-0.003-1.062-0.494-1.054-1.232
		c0.016-1.516,0.007-3.032,0.002-4.549c-0.001-0.558,0.034-1.124-0.045-1.673c-0.197-1.371-1.22-2.063-2.564-1.79
		c-1.36,0.276-2.391,1.423-2.426,2.828c-0.044,1.755-0.04,3.512,0.003,5.267c0.02,0.805-0.234,1.158-1.078,1.155
		c-0.918-0.003-1.005-0.514-0.989-1.24C346.311,276.747,346.288,275.309,346.288,273.874z"/>
	<path fill-rule="evenodd" clip-rule="evenodd" fill="#0D0D0D" d="M561.112,119.076c-3.332-0.037-5.065-1.94-5.048-5.543
		c0.017-3.435,2.096-5.472,5.47-5.538c3.378-0.066,5.198,2.103,5.206,5.425C566.749,117.012,564.602,119.115,561.112,119.076z
		 M558.214,113.551c-0.01,2.064,0.474,3.052,1.753,3.582c1.782,0.737,3.682,0.001,4.377-1.696c0.896-2.188,0.03-4.823-1.807-5.539
		c-0.69-0.27-1.337-0.336-2.074-0.07C558.764,110.437,558.224,111.262,558.214,113.551z"/>
	<path fill-rule="evenodd" clip-rule="evenodd" fill="#0D0D0D" d="M362.995,182.442c-3.385,0.012-5.16-1.838-5.188-5.404
		c-0.027-3.474,2.001-5.571,5.33-5.676c3.462-0.108,5.267,1.98,5.345,5.283C368.566,180.247,366.441,182.43,362.995,182.442z
		 M359.951,177.012c0.013,1.487,0.19,2.882,1.849,3.512c1.795,0.681,3.693-0.104,4.326-1.806c0.797-2.145,0.003-4.696-1.708-5.411
		c-0.745-0.311-1.474-0.417-2.302-0.087C360.463,173.878,359.947,174.686,359.951,177.012z"/>
	<path fill-rule="evenodd" clip-rule="evenodd" fill="#0D0D0D" d="M217.935,103.714c-3.35-0.018-5.105-1.908-5.101-5.489
		c0.004-3.458,2.058-5.515,5.415-5.59c3.352-0.076,5.218,1.974,5.261,5.371C223.555,101.596,221.412,103.734,217.935,103.714z
		 M221.357,98.336c0.023-1.662-0.307-3.016-1.823-3.736c-1.599-0.761-3.547-0.064-4.242,1.484c-0.948,2.114-0.212,5.002,1.449,5.688
		c1.658,0.684,3.243,0.17,4.153-1.276C221.353,99.767,221.274,98.97,221.357,98.336z"/>
	<path fill-rule="evenodd" clip-rule="evenodd" fill="#0D0D0D" d="M527.589,114.001c0.299,2.734,0.997,3.395,3.521,3.362
		c0.887-0.011,1.738-0.132,2.535-0.559c0.368-0.197,0.821-0.263,1.008,0.201c0.147,0.366,0.061,0.817-0.313,1.068
		c-0.393,0.263-0.808,0.524-1.25,0.669c-0.521,0.169-1.078,0.269-1.625,0.301c-1.95,0.114-3.94,0.096-5.118-1.787
		c-1.299-2.075-1.407-4.356-0.395-6.59c0.937-2.066,3.325-3.044,5.866-2.55c1.879,0.364,3.209,1.98,3.359,4.082
		c0.091,1.267-0.135,1.556-1.423,1.587c-1.593,0.038-3.188,0.002-4.782,0.014C528.505,113.804,528.012,113.685,527.589,114.001z
		 M533.232,112.29c-0.185-1.857-1.093-2.605-2.498-2.748c-1.284-0.131-2.304,0.41-2.986,1.518c-0.439,0.714-0.199,1.201,0.644,1.221
		C529.956,112.315,531.522,112.29,533.232,112.29z"/>
	<path fill-rule="evenodd" clip-rule="evenodd" fill="#0D0D0D" d="M494.783,113.795c0.373,3.013,1.438,3.868,4.178,3.541
		c0.698-0.084,1.371-0.386,2.054-0.593c0.322-0.099,0.654-0.146,0.836,0.195c0.197,0.372,0.169,0.762-0.143,1.087
		c-0.109,0.113-0.227,0.238-0.366,0.305c-2.402,1.149-5.942,1.035-7.401-0.652c-1.713-1.98-1.858-6.011-0.132-8.019
		c1.39-1.616,3.263-1.943,5.244-1.528c1.921,0.403,2.987,1.728,3.343,3.627c0.277,1.479-0.164,2.013-1.712,2.032
		C498.776,113.814,496.868,113.795,494.783,113.795z M500.2,112.195c-0.154-1.97-1.013-2.778-2.746-2.672
		c-1.578,0.097-2.373,0.971-2.403,2.672C496.766,112.195,498.48,112.195,500.2,112.195z"/>
	<path fill-rule="evenodd" clip-rule="evenodd" fill="#0D0D0D" d="M742.5,118.595c0.318,2.98,1.025,3.603,3.625,3.579
		c0.911-0.009,1.717-0.297,2.535-0.611c0.412-0.159,0.811-0.154,0.964,0.33c0.127,0.397,0.007,0.773-0.341,1.063
		c-2.601,2.173-7.507,0.867-8.642-2.303c-1.019-2.85-0.01-6.032,2.324-7.327c3.062-1.699,6.923,0.266,7.168,3.647
		c0.087,1.181-0.242,1.591-1.45,1.612C746.695,118.622,744.705,118.595,742.5,118.595z M747.939,116.861
		c-0.245-1.862-0.778-2.434-2.373-2.542c-1.618-0.109-2.575,0.718-2.973,2.618c1.158,0.322,2.342,0.114,3.507,0.141
		C746.713,117.09,747.367,117.258,747.939,116.861z"/>
	<path fill-rule="evenodd" clip-rule="evenodd" fill="#0D0D0D" d="M267.324,98.565c0.19,2.782,0.91,3.456,3.486,3.443
		c0.903-0.005,1.732-0.211,2.538-0.586c0.399-0.187,0.834-0.202,1.021,0.239c0.15,0.358,0.078,0.77-0.272,1.083
		c-2.263,2.029-7.243,1.019-8.509-1.733c-0.987-2.144-0.872-6.216,2.069-7.819c2.981-1.625,6.73,0.054,7.222,3.307
		c0.207,1.37-0.212,1.884-1.602,1.935C271.294,98.504,269.302,98.294,267.324,98.565z M272.684,96.807
		c-0.204-1.941-0.734-2.526-2.329-2.649c-1.597-0.123-2.576,0.703-3.021,2.633C269.128,97.018,270.901,96.992,272.684,96.807z"/>
	<path fill-rule="evenodd" clip-rule="evenodd" fill="#0D0D0D" d="M243.24,11.067c0.374,3.011,1.437,3.867,4.176,3.54
		c0.698-0.083,1.371-0.384,2.054-0.592c0.321-0.098,0.653-0.15,0.836,0.193c0.199,0.372,0.17,0.762-0.14,1.086
		c-0.109,0.115-0.226,0.239-0.365,0.305c-2.4,1.15-5.942,1.037-7.402-0.649c-1.714-1.979-1.861-6.009-0.135-8.018
		c1.389-1.617,3.262-1.946,5.243-1.531c1.921,0.402,2.989,1.725,3.345,3.625c0.278,1.483-0.161,2.015-1.708,2.034
		C247.236,11.085,245.328,11.067,243.24,11.067z M243.315,9.459c1.911,0,3.623,0,5.341,0c-0.158-1.94-0.682-2.533-2.279-2.669
		C244.785,6.654,243.804,7.468,243.315,9.459z"/>
	<path fill-rule="evenodd" clip-rule="evenodd" fill="#101010" d="M716.721,123.878c-3.384,0.024-5.211-1.85-5.236-5.372
		c-0.026-3.549,1.92-5.65,5.272-5.696c3.268-0.044,5.426,2.023,5.494,5.265C722.325,121.517,720.097,123.855,716.721,123.878z
		 M720.056,118.359c0.072-3.16-2.276-4.629-4.872-3.51c-1.317,0.567-1.994,2.795-1.55,4.666c0.268,1.126,0.706,2.063,1.948,2.493
		C717.519,122.678,720.117,121.711,720.056,118.359z"/>
	<path fill-rule="evenodd" clip-rule="evenodd" fill="#0B0B0B" d="M398.954,279.408c-3.894,0.029-5.955-2.608-5.271-6.746
		c0.551-3.329,3.568-5.153,6.78-4.099c1.706,0.56,3.186,2.652,3.063,4.414c-0.061,0.873-0.624,1.179-1.478,1.16
		c-1.679-0.035-3.358-0.033-5.037-0.001c-1.125,0.021-1.356,0.372-1.097,1.479c0.294,1.26,0.987,1.935,2.318,2.046
		c1.19,0.1,2.395,0.135,3.509-0.484c0.431-0.239,1.018-0.367,1.234,0.188c0.169,0.435-0.171,0.904-0.597,1.174
		C401.335,279.2,400.176,279.433,398.954,279.408z M395.568,272.626c1.752,0,3.249,0.024,4.744-0.009
		c1.029-0.022,1.334-0.639,0.807-1.53c-0.248-0.418-0.594-0.694-1.052-0.906C398.193,269.314,396.668,270.036,395.568,272.626z"/>
	<path fill-rule="evenodd" clip-rule="evenodd" fill="#0B0B0B" d="M689.248,118.828c0.044,2.638,0.692,3.289,3.174,3.347
		c1.074,0.025,2.047-0.245,3.008-0.66c0.34-0.147,0.657-0.015,0.843,0.251c0.216,0.308-0.139,0.573-0.192,0.87
		c-0.012,0.066-0.087,0.136-0.149,0.178c-1.855,1.261-3.875,1.36-5.943,0.724c-1.791-0.552-2.701-1.916-2.949-3.705
		c-0.12-0.862-0.154-1.768-0.035-2.626c0.465-3.354,3.469-5.212,6.7-4.211c1.723,0.534,3.184,2.539,3.132,4.376
		c-0.023,0.865-0.537,1.246-1.406,1.229c-1.358-0.025-2.719-0.029-4.077,0.003C690.648,118.62,689.912,118.417,689.248,118.828z
		 M688.89,117.092c1.756,0,3.254,0.022,4.75-0.008c0.945-0.02,1.271-0.542,0.884-1.344c-0.247-0.51-0.626-0.858-1.173-1.104
		C691.463,113.791,689.946,114.52,688.89,117.092z"/>
	<path fill-rule="evenodd" clip-rule="evenodd" fill="#0B0B0B" d="M412.312,177.159c-0.06,2.81,0.61,3.516,3.077,3.578
		c1.068,0.026,2.054-0.198,3.01-0.645c0.318-0.147,0.64-0.069,0.858,0.202c0.255,0.316-0.071,0.579-0.152,0.857
		c-0.04,0.137-0.176,0.266-0.299,0.355c-1.56,1.146-5.717,1.556-7.575-0.496c-1.781-1.966-1.737-6.256,0.123-8.177
		c1.584-1.637,3.502-1.738,5.532-1.177c1.998,0.552,2.539,2.26,2.938,3.994c0.209,0.907-0.301,1.453-1.331,1.494
		c-1.278,0.051-2.559,0.013-3.838,0.013C413.87,177.16,413.083,177.159,412.312,177.159z M411.897,175.659c0.646,0,1.031,0,1.418,0
		c1.109,0,2.221,0.023,3.329-0.009c0.957-0.027,1.281-0.528,0.899-1.332c-0.244-0.513-0.62-0.863-1.166-1.111
		C414.498,172.353,412.976,173.077,411.897,175.659z"/>
	<path fill-rule="evenodd" clip-rule="evenodd" fill="#0D0D0D" d="M124.799,118.275c-0.229-4.18,3.316-6.406,7.515-5.14
		c0.3,0.091,0.598,0.224,0.862,0.393c1.846,1.177,2.676,3.785,2.051,6.393c-0.517,2.154-2.091,3.641-4.269,3.91
		C126.633,124.365,124.547,121.774,124.799,118.275z M126.798,118.447c-0.069,3.221,2.431,4.379,4.67,3.467
		c1.313-0.535,2.191-2.504,1.845-4.26c-0.244-1.235-0.562-2.462-2.015-2.952C128.925,113.9,126.625,115.394,126.798,118.447z"/>
	<path fill-rule="evenodd" clip-rule="evenodd" fill="#0B0B0B" d="M63.477,118.785c0.438,2.947,1.15,3.573,3.937,3.361
		c0.625-0.047,1.245-0.23,1.852-0.404c0.428-0.121,0.932-0.588,1.228-0.014c0.266,0.514,0.032,1.021-0.543,1.386
		c-2.148,1.359-6.098,0.97-7.488-0.879c-1.903-2.529-1.524-6.41,0.573-8.24c1.593-1.39,3.462-1.483,5.378-0.86
		c1.718,0.56,2.456,1.906,2.615,3.626c0.146,1.573-0.042,1.796-1.629,1.83c-1.905,0.04-3.811,0.049-5.715,0.078
		C63.614,118.669,63.545,118.744,63.477,118.785z M63.469,117.092c1.608,0,3.183,0.022,4.757-0.009
		c0.853-0.017,1.066-0.431,0.705-1.218c-0.507-1.104-1.639-1.699-2.924-1.539C64.534,114.509,63.875,115.189,63.469,117.092z"/>
	<path fill-rule="evenodd" clip-rule="evenodd" fill="#0B0B0B" d="M423.946,266.504c-1.203,0.735-1.944,1.178-2.673,1.639
		c-0.296,0.187-0.585,0.266-0.854,0.009c-0.339-0.323-0.276-0.699-0.055-1.064c0.477-0.787,1.324-1.126,2.021-1.644
		c0.634-0.47,1.268-0.985,1.982-1.291c1.16-0.494,1.718-0.051,1.725,1.282c0.016,3.347,0,6.694,0.007,10.041
		c0.004,2.001,0.013,2.001,1.968,2.18c0.233,0.021,0.493-0.017,0.693,0.076c0.433,0.202,0.416,0.623,0.392,1.028
		c-0.022,0.361-0.208,0.616-0.566,0.619c-2.47,0.017-4.939,0.016-7.41,0.012c-0.504-0.001-0.67-0.319-0.666-0.779
		c0.005-0.524,0.132-0.892,0.767-0.968c0.836-0.102,1.905,0.456,2.464-0.312c0.559-0.767,0.182-1.851,0.194-2.792
		C423.967,272.004,423.946,269.468,423.946,266.504z"/>
	<path fill-rule="evenodd" clip-rule="evenodd" fill="#0B0B0B" d="M295.04,91.17c-1.028,0.036-1.595,0.97-2.47,1.321
		c-0.329,0.133-0.59,0.193-0.853-0.076c-0.259-0.267-0.266-0.668-0.084-0.863c1.299-1.398,2.724-2.666,4.612-3.191
		c0.861-0.239,1.188,0.127,1.196,1.205c0.019,2.948,0.006,5.896,0.006,8.845c0,0.717,0.044,1.438-0.01,2.15
		c-0.076,0.993,0.248,1.521,1.327,1.406c0.394-0.042,0.805-0.054,1.192,0.015c0.475,0.083,0.558,0.481,0.556,0.907
		c-0.001,0.445-0.124,0.802-0.639,0.803c-2.47,0.009-4.939,0.012-7.41-0.006c-0.515-0.004-0.603-0.402-0.602-0.832
		c0.001-0.433,0.125-0.779,0.594-0.882c0.153-0.033,0.318-0.001,0.477-0.013c2.358-0.179,2.359-0.179,2.361-2.463
		c0.002-2.231,0.011-4.463-0.007-6.694C295.283,92.261,295.449,91.682,295.04,91.17z"/>
	<path fill-rule="evenodd" clip-rule="evenodd" fill="#0B0B0B" d="M96.076,118.814c0.565,3.034,1.339,3.633,4.273,3.329
		c0.723-0.074,1.39-0.307,2.046-0.602c0.197-0.088,0.434-0.173,0.648,0.031c0.282,0.268,0.216,0.625,0.113,0.885
		c-0.105,0.265-0.368,0.504-0.62,0.664c-2.169,1.391-6.094,0.944-7.464-0.927c-1.813-2.476-1.501-6.157,0.463-8.078
		c1.403-1.372,3.887-1.721,5.791-0.88c1.776,0.784,2.306,2.27,2.377,4.051c0.036,0.89-0.303,1.329-1.237,1.313
		c-1.671-0.027-3.344-0.016-5.016-0.002C96.987,118.604,96.491,118.467,96.076,118.814z M101.661,117.09
		c-0.307-2.008-0.767-2.56-2.167-2.76c-1.357-0.194-2.837,0.564-3.339,1.773c-0.192,0.463-0.206,0.977,0.528,0.982
		C98.334,117.099,99.986,117.09,101.661,117.09z"/>
	<path fill-rule="evenodd" clip-rule="evenodd" fill="#070707" d="M228.024,11.04c0,1.437,0.031,2.875-0.011,4.31
		c-0.029,1.004-0.897,1.447-1.528,0.686c-0.621-0.749-0.972-0.803-1.66-0.247c-0.294,0.237-0.706,0.367-1.085,0.452
		c-2.544,0.572-4.524-0.735-4.738-3.332c-0.183-2.221-0.083-4.466-0.106-6.7c-0.005-0.555,0.208-0.906,0.826-0.918
		c0.586-0.012,1.159,0.008,1.278,0.739c0.075,0.462,0.079,0.938,0.082,1.408c0.009,1.676-0.064,3.356,0.023,5.028
		c0.099,1.876,1.479,2.642,3.171,1.817c1.217-0.593,2.028-1.375,1.857-2.971c-0.178-1.657-0.023-3.349-0.045-5.024
		c-0.009-0.683,0.214-1.011,0.953-1.01c0.709,0.001,1.002,0.258,0.991,0.973C228.007,7.847,228.024,9.443,228.024,11.04z"/>
	<path fill-rule="evenodd" clip-rule="evenodd" fill="#070707" d="M380.679,274.07c0,1.357,0.009,2.715-0.005,4.071
		c-0.004,0.448,0.157,1.022-0.444,1.207c-0.458,0.141-1.051,0.159-1.261-0.367c-0.324-0.811-0.758-0.677-1.257-0.272
		c-0.806,0.652-1.745,0.738-2.714,0.686c-1.722-0.095-3.108-1.132-3.274-2.915c-0.228-2.455-0.129-4.94-0.152-7.412
		c-0.004-0.476,0.312-0.693,0.772-0.708c0.572-0.02,1.164-0.032,1.295,0.706c0.082,0.46,0.093,0.936,0.096,1.404
		c0.011,1.676-0.061,3.355,0.022,5.028c0.095,1.895,1.455,2.685,3.145,1.864c1.2-0.584,2.076-1.334,1.886-2.955
		c-0.186-1.574-0.039-3.188-0.041-4.784c-0.001-0.647-0.077-1.271,0.916-1.287c0.914-0.015,1.04,0.444,1.025,1.185
		C380.659,271.037,380.679,272.553,380.679,274.07z"/>
	<path fill-rule="evenodd" clip-rule="evenodd" fill="#070707" d="M589.084,117.328c0.958,0,1.675-0.052,2.379,0.019
		c0.509,0.051,0.862,0.367,0.831,0.971c-0.033,0.655-0.469,0.751-0.982,0.751c-2.239,0.003-4.479-0.004-6.718,0.006
		c-0.541,0.002-0.933-0.1-0.934-0.763c-0.001-0.694,0.281-1.026,1.006-0.992c0.717,0.034,1.436,0.007,2.286,0.007
		c0-3.715,0-7.366,0-11.188c-0.926,0.607-1.768,1.183-2.636,1.712c-0.167,0.103-0.486,0.108-0.657,0.016
		c-0.321-0.177-0.3-0.569-0.217-0.855c0.085-0.291,0.267-0.616,0.505-0.789c1.097-0.796,2.178-1.634,3.36-2.284
		c1.2-0.659,1.761-0.278,1.77,1.071c0.021,3.199,0.007,6.398,0.007,9.599C589.084,115.398,589.084,116.188,589.084,117.328z"/>
	<path fill-rule="evenodd" clip-rule="evenodd" fill="#101010" d="M540.624,119.078c-1.119,0.001-2.069-0.108-2.92-0.606
		c-0.596-0.35-0.6-0.937-0.351-1.461c0.224-0.469,0.654-0.302,1.021-0.097c0.88,0.49,1.843,0.482,2.801,0.435
		c0.652-0.034,1.312-0.157,1.447-0.967c0.137-0.809-0.175-1.389-0.956-1.71c-0.735-0.304-1.474-0.605-2.185-0.96
		c-1.483-0.736-2.32-2-2.006-3.107c0.454-1.601,1.672-2.522,3.083-2.563c0.959-0.027,1.916-0.104,2.808,0.369
		c0.34,0.18,0.8,0.238,0.842,0.729c0.026,0.303,0.044,0.646-0.073,0.912c-0.151,0.342-0.518,0.339-0.819,0.173
		c-0.496-0.273-1.002-0.461-1.578-0.494c-1.251-0.074-2.136,0.265-2.192,0.968c-0.077,0.961,0.619,1.39,1.384,1.717
		c0.729,0.311,1.487,0.565,2.19,0.928c1.757,0.902,2.191,2.857,1.046,4.432c-0.35,0.481-0.845,0.695-1.353,0.939
		C542.059,119.076,541.266,119.047,540.624,119.078z"/>
	<path fill-rule="evenodd" clip-rule="evenodd" fill="#101010" d="M115.485,121.415c1.148,0.492,2.266,0.862,3.49,0.749
		c0.775-0.072,1.449-0.271,1.629-1.104c0.183-0.844-0.32-1.33-1.063-1.627c-0.734-0.292-1.481-0.56-2.186-0.912
		c-1.454-0.728-2.187-1.965-1.969-3.209c0.228-1.301,1.257-2.179,2.873-2.435c0.794-0.126,1.585-0.075,2.376,0.065
		c0.67,0.119,1.165,0.457,1.493,1.059c0.167,0.305,0.183,0.623,0.018,0.89c-0.19,0.308-0.522,0.341-0.827,0.146
		c-0.859-0.546-1.802-0.566-2.766-0.463c-0.508,0.055-0.935,0.271-1.056,0.803c-0.133,0.587-0.003,1.113,0.594,1.406
		c0.853,0.417,1.708,0.833,2.572,1.228c1.235,0.565,2.154,1.332,2.058,2.861c-0.079,1.264-1.003,2.368-2.521,2.795
		c-1.327,0.372-2.663,0.307-3.979-0.152C115.137,123.136,114.961,122.471,115.485,121.415z"/>
	<path fill-rule="evenodd" clip-rule="evenodd" fill="#070707" d="M733.686,112.579c0-0.611,0.026-1.171-0.007-1.727
		c-0.047-0.79,0.419-0.925,1.054-0.915c0.662,0.01,1.057,0.232,0.998,0.988c-0.044,0.546-0.009,1.1-0.009,1.588
		c0.76,0.502,1.499,0.233,2.197,0.304c0.431,0.044,0.772,0.175,0.845,0.656c0.092,0.608-0.328,0.832-0.786,1.02
		c-0.071,0.028-0.146,0.061-0.221,0.068c-0.611,0.061-1.335-0.288-1.806,0.278c-0.498,0.6-0.191,1.38-0.221,2.076
		c-0.044,1.036-0.043,2.076-0.003,3.111c0.067,1.783,0.241,1.938,2.115,1.982c0.399,0.009,0.817-0.106,0.906,0.457
		c0.085,0.541-0.159,0.926-0.628,1.167c-2.051,1.055-4.295-0.266-4.42-2.669c-0.087-1.672-0.029-3.352-0.009-5.027
		c0.01-0.791-0.05-1.397-1.112-1.396c-0.442,0-0.852-0.424-0.82-1c0.047-0.845,0.713-0.674,1.237-0.741
		C733.147,112.781,733.29,112.708,733.686,112.579z"/>
	<path fill-rule="evenodd" clip-rule="evenodd" fill="#070707" d="M258.445,92.4c0-0.543,0.035-1.024-0.008-1.498
		c-0.074-0.819,0.248-1.174,1.084-1.132c0.686,0.034,1.024,0.292,0.968,1.021c-0.042,0.542-0.008,1.089-0.008,1.566
		c0.791,0.485,1.527,0.226,2.226,0.298c0.434,0.045,0.778,0.204,0.818,0.684c0.037,0.437-0.153,0.761-0.601,0.895
		c-0.075,0.022-0.138,0.084-0.212,0.109c-0.661,0.219-1.538-0.33-2.01,0.36c-0.515,0.753-0.166,1.699-0.212,2.558
		c-0.048,0.875-0.041,1.757-0.003,2.633c0.075,1.743,0.25,1.902,2.144,1.946c0.414,0.01,0.809-0.061,0.883,0.491
		c0.074,0.547-0.191,0.92-0.658,1.152c-2.07,1.028-4.274-0.298-4.395-2.71c-0.083-1.672-0.015-3.351-0.015-5.026
		c0-0.645,0.064-1.31-0.894-1.345c-0.638-0.023-1.064-0.38-1.022-1.05c0.051-0.816,0.729-0.653,1.256-0.717
		C257.933,92.619,258.074,92.536,258.445,92.4z"/>
	<path fill-rule="evenodd" clip-rule="evenodd" fill="#070707" d="M405.454,171.386c0.923,0,1.552-0.007,2.18,0.002
		c0.431,0.006,0.778,0.148,0.858,0.634c0.102,0.606-0.303,0.841-0.767,1.028c-0.072,0.028-0.145,0.069-0.22,0.076
		c-0.612,0.056-1.337-0.282-1.81,0.268c-0.508,0.59-0.206,1.374-0.234,2.07c-0.042,1.035-0.041,2.075-0.003,3.111
		c0.066,1.806,0.234,1.959,2.1,2.001c0.396,0.009,0.819-0.117,0.919,0.438c0.12,0.671-0.258,1.065-0.824,1.28
		c-2.128,0.806-4.104-0.447-4.22-2.75c-0.088-1.752-0.023-3.511-0.014-5.267c0.004-0.61-0.076-1.118-0.852-1.145
		c-0.645-0.021-1.071-0.342-1.068-1.012c0.003-0.846,0.687-0.685,1.213-0.759c0.225-0.032,0.437-0.147,0.704-0.242
		c0-0.578,0.032-1.136-0.008-1.688c-0.058-0.791,0.397-0.94,1.038-0.931c0.646,0.01,1.075,0.198,1.015,0.97
		C405.418,170.021,405.454,170.577,405.454,171.386z"/>
	<path fill-rule="evenodd" clip-rule="evenodd" fill="#0D0D0D" d="M112.677,115.273c-1.129-0.53-2.098-0.85-3.156-0.741
		c-0.674,0.069-1.305,0.206-1.472,0.961c-0.167,0.754,0.364,1.215,0.927,1.515c0.697,0.371,1.474,0.588,2.197,0.914
		c1.779,0.802,2.323,1.672,2.104,3.295c-0.171,1.266-1.237,2.288-2.783,2.564c-1.026,0.184-2.065,0.12-3.099-0.048
		c-0.582-0.095-1.045-0.343-1.396-0.815c-0.258-0.349-0.342-0.76-0.136-1.112c0.254-0.436,0.646-0.293,1.031-0.093
		c1.038,0.538,2.158,0.532,3.272,0.375c0.57-0.081,1.056-0.366,1.166-1.027c0.093-0.56-0.232-0.96-0.633-1.191
		c-0.888-0.512-1.834-0.921-2.748-1.389c-1.398-0.718-2.001-1.703-1.863-3.006c0.128-1.211,1.073-2.217,2.524-2.533
		c1.101-0.239,2.197-0.199,3.282,0.256C112.74,113.551,112.873,114.117,112.677,115.273z"/>
	<path fill-rule="evenodd" clip-rule="evenodd" fill="#101010" d="M549.942,119.079c-1.245-0.009-2.189-0.159-2.983-0.757
		c-0.381-0.287-0.644-0.635-0.298-1.211c0.291-0.483,0.548-0.438,0.942-0.231c0.723,0.382,1.507,0.497,2.313,0.479
		c0.875-0.021,1.863,0.084,2.144-1.043c0.283-1.143-0.638-1.514-1.433-1.887c-0.573-0.27-1.207-0.415-1.773-0.696
		c-1.589-0.787-2.242-1.867-1.981-3.172c0.268-1.338,1.296-2.255,2.866-2.487c1.038-0.153,2.062-0.098,3.038,0.374
		c0.483,0.234,0.769,0.569,0.758,1.099c-0.011,0.498-0.073,1.035-0.796,0.644c-0.809-0.438-1.669-0.503-2.555-0.446
		c-0.597,0.039-1.109,0.213-1.206,0.911c-0.082,0.598,0.059,1.155,0.61,1.442c0.771,0.401,1.601,0.689,2.386,1.066
		c1.574,0.756,2.433,1.9,2.293,3c-0.164,1.296-1.587,2.597-3.165,2.851C550.632,119.088,550.147,119.068,549.942,119.079z"/>
	<path fill-rule="evenodd" clip-rule="evenodd" fill="#101010" d="M230.887,11.199c-0.006-1.196,0.014-2.221,0.473-3.2
		c1.108-2.363,3.865-3.398,6.261-2.341c0.451,0.199,0.88,0.418,1.155,0.819c0.297,0.434,0.792,0.921,0.418,1.462
		c-0.463,0.67-1.022,0.187-1.424-0.146c-0.517-0.427-1.059-0.685-1.723-0.735c-2.028-0.151-2.947,0.971-2.965,3.638
		c-0.019,2.863,0.875,4.023,2.962,3.878c0.75-0.052,1.373-0.372,1.969-0.793c0.37-0.261,0.754-0.706,1.191-0.103
		c0.336,0.463,0.16,0.886-0.157,1.287c-1.373,1.739-5.808,2.162-7.326-0.494C231.108,13.397,230.797,12.274,230.887,11.199z"/>
	<path fill-rule="evenodd" clip-rule="evenodd" fill="#101010" d="M385.737,273.953c0,0.24-0.012,0.48,0.002,0.72
		c0.149,2.617,1.937,3.692,4.277,2.573c0.144-0.068,0.271-0.174,0.417-0.235c0.446-0.187,0.821-1.031,1.38-0.294
		c0.603,0.793-0.033,1.325-0.601,1.769c-2.746,2.145-6.824,0.721-7.546-2.665c-0.268-1.253-0.251-2.557,0.027-3.815
		c0.632-2.85,3.585-4.423,6.312-3.382c0.438,0.168,0.862,0.419,1.228,0.713c0.509,0.409,0.92,1.119,0.621,1.621
		c-0.48,0.804-1.071,0.094-1.593-0.208c-2.518-1.458-4.401-0.421-4.523,2.484C385.728,273.472,385.736,273.712,385.737,273.953z"/>
	<path fill-rule="evenodd" clip-rule="evenodd" fill="#292929" d="M342.717,271.712c0,2.152-0.021,4.305,0.01,6.457
		c0.013,0.902-0.307,1.307-1.252,1.275c-0.901-0.028-1.003-0.535-1.001-1.258c0.015-4.305,0.013-8.609,0.002-12.915
		c-0.002-0.708,0.079-1.245,0.988-1.28c0.936-0.036,1.277,0.35,1.263,1.263C342.694,267.407,342.717,269.559,342.717,271.712z"/>
	<path fill-rule="evenodd" clip-rule="evenodd" fill="#101010" d="M278.665,92.65c0.365-0.036,0.832,0.019,0.983,0.412
		c0.26,0.677,0.571,0.658,1.011,0.226c0.781-0.77,1.734-0.677,2.695-0.559c0.647,0.079,0.679,0.531,0.666,1.045
		c-0.016,0.603-0.278,0.9-0.882,0.754c-0.938-0.228-1.725-0.047-2.365,0.713c-0.634,0.753-1.036,1.546-0.989,2.591
		c0.071,1.593-0.01,3.191,0.029,4.786c0.02,0.837-0.336,1.127-1.136,1.108c-0.839-0.02-1.034-0.411-1.021-1.203
		c0.045-2.951,0.039-5.903-0.001-8.855C277.643,92.927,277.937,92.656,278.665,92.65z"/>
	<path fill-rule="evenodd" clip-rule="evenodd" fill="#101010" d="M752.917,118.245c0-1.355-0.013-2.712,0.007-4.068
		c0.006-0.439-0.246-1.009,0.365-1.242c0.529-0.201,1.218-0.331,1.519,0.222c0.384,0.708,0.667,0.752,1.197,0.212
		c0.629-0.64,1.448-0.576,2.248-0.526c0.606,0.038,1.051,0.202,1.02,0.988c-0.029,0.746-0.296,0.877-1.025,0.866
		c-2.068-0.029-3.146,1.079-3.197,3.189c-0.04,1.675-0.021,3.351-0.003,5.025c0.008,0.727-0.335,0.978-1.022,0.975
		c-0.758-0.003-1.17-0.205-1.131-1.094c0.065-1.513,0.019-3.03,0.019-4.547C752.914,118.245,752.916,118.245,752.917,118.245z"/>
	<path fill-rule="evenodd" clip-rule="evenodd" fill="#101010" d="M137.984,118.261c0-1.356-0.014-2.713,0.008-4.068
		c0.007-0.438-0.256-1.009,0.35-1.253c0.527-0.212,1.213-0.34,1.521,0.205c0.38,0.672,0.646,0.781,1.197,0.236
		c0.706-0.697,1.599-0.584,2.481-0.515c0.786,0.063,0.826,0.581,0.781,1.185c-0.049,0.671-0.454,0.638-0.991,0.639
		c-2.088,0.005-3.161,1.071-3.213,3.179c-0.042,1.675-0.022,3.351-0.004,5.025c0.008,0.714-0.308,0.995-1.006,0.99
		c-0.743-0.006-1.188-0.171-1.147-1.076c0.066-1.514,0.018-3.031,0.018-4.547C137.98,118.261,137.982,118.261,137.984,118.261z"/>
	<path fill-rule="evenodd" clip-rule="evenodd" fill="#101010" d="M253.675,10.815c0-1.356-0.016-2.713,0.008-4.069
		c0.01-0.507-0.306-1.191,0.491-1.396c0.537-0.139,1.201-0.24,1.479,0.379c0.314,0.701,0.624,0.567,1.028,0.17
		c0.71-0.699,1.583-0.638,2.467-0.572c0.712,0.053,0.93,0.436,0.874,1.113c-0.051,0.617-0.332,0.73-0.919,0.74
		c-2.249,0.036-3.256,1.068-3.298,3.316c-0.027,1.436,0.011,2.873-0.01,4.308c-0.02,1.396-0.183,1.553-1.153,1.553
		c-1.125,0-0.982-0.745-0.972-1.473C253.688,13.527,253.675,12.171,253.675,10.815z"/>
	<path fill-rule="evenodd" clip-rule="evenodd" fill="#070707" d="M422.62,176.839c0-1.439-0.024-2.878,0.008-4.316
		c0.025-1.144,0.968-1.689,1.635-0.849c0.723,0.911,1.046,0.569,1.654,0.096c0.692-0.539,1.532-0.492,2.299-0.271
		c0.562,0.163,0.896,0.686,0.729,1.322c-0.124,0.475-0.539,0.443-0.957,0.448c-2.312,0.028-3.29,0.989-3.329,3.279
		c-0.028,1.598-0.04,3.197,0.01,4.795c0.027,0.854-0.324,1.125-1.127,1.102c-0.735-0.021-0.947-0.364-0.933-1.051
		C422.641,179.876,422.619,178.358,422.62,176.839z"/>
	<path fill-rule="evenodd" clip-rule="evenodd" fill="#070707" d="M206.631,92.665c-0.03,0,0.052,0.012,0.129-0.002
		c0.761-0.134,0.685,1.194,1.446,0.888c0.57-0.23,0.968-0.847,1.667-0.863c0.626-0.016,1.286-0.17,1.794,0.376
		c0.29,0.312,0.439,0.689,0.291,1.091c-0.118,0.319-0.446,0.491-0.77,0.396c-1.03-0.305-1.825-0.039-2.592,0.727
		c-0.826,0.824-0.96,1.772-0.933,2.847c0.039,1.518-0.012,3.037,0.022,4.556c0.016,0.695-0.214,1.02-0.943,1.041
		c-0.813,0.025-1.128-0.27-1.117-1.111c0.038-2.957,0.026-5.915,0.005-8.872C205.627,93.083,205.752,92.629,206.631,92.665z"/>
	<path fill-rule="evenodd" clip-rule="evenodd" fill="#070707" d="M86.591,118.315c0-1.438-0.002-2.877,0.001-4.315
		c0-0.385-0.131-0.868,0.325-1.051c0.51-0.204,1.093-0.348,1.456,0.293c0.38,0.669,0.755,0.596,1.288,0.127
		c0.795-0.698,1.763-0.733,2.695-0.341c0.443,0.187,0.704,0.652,0.569,1.189c-0.121,0.485-0.517,0.589-0.925,0.475
		c-0.947-0.267-1.693-0.03-2.377,0.68c-0.708,0.734-1.062,1.53-1.019,2.572c0.064,1.516-0.006,3.036,0.028,4.555
		c0.018,0.794,0.001,1.41-1.081,1.39c-1.167-0.022-0.959-0.801-0.961-1.497C86.588,121.033,86.591,119.673,86.591,118.315z"/>
	<path fill-rule="evenodd" clip-rule="evenodd" fill="#070707" d="M406.299,273.719c-0.001-1.359-0.01-2.718,0.005-4.076
		c0.005-0.449-0.188-1.024,0.438-1.214c0.442-0.134,1.02-0.256,1.28,0.253c0.452,0.88,0.885,0.636,1.447,0.142
		c0.663-0.581,1.485-0.556,2.278-0.395c0.612,0.124,0.956,0.572,0.894,1.212c-0.065,0.665-0.564,0.584-1.063,0.585
		c-2.117,0.003-3.185,1.032-3.24,3.14c-0.037,1.438,0.026,2.879-0.021,4.315c-0.023,0.695,0.435,1.689-0.944,1.736
		c-1.332,0.046-1.066-0.859-1.07-1.622C406.293,276.437,406.299,275.078,406.299,273.719z"/>
	<path fill-rule="evenodd" clip-rule="evenodd" fill="#101010" d="M352.464,172.784c0.966-0.873,1.821-1.544,3.082-1.409
		c0.764,0.081,1.162,0.358,1.147,1.184c-0.017,0.928-0.561,0.661-1.133,0.656c-1.628-0.018-2.861,1.129-2.925,2.759
		c-0.069,1.755-0.054,3.518,0.004,5.274c0.027,0.794-0.18,1.187-1.022,1.206c-0.804,0.018-1.144-0.279-1.135-1.114
		c0.03-2.878,0.007-5.756,0.015-8.633c0.001-0.535-0.148-1.191,0.655-1.31C352.061,171.263,352.565,171.62,352.464,172.784z"/>
	<path fill-rule="evenodd" clip-rule="evenodd" fill="#101010" d="M571.374,109.43c1.041-1.007,2.003-1.64,3.35-1.389
		c0.71,0.133,0.875,0.561,0.864,1.192c-0.01,0.686-0.383,0.663-0.933,0.66c-1.99-0.008-3.079,1.034-3.13,2.992
		c-0.045,1.757-0.031,3.518,0.014,5.274c0.021,0.819-0.459,0.897-1.062,0.917c-0.633,0.021-1.092-0.123-1.088-0.903
		c0.013-2.958,0.001-5.915,0.006-8.873c0-0.545-0.112-1.177,0.694-1.279C571.033,107.902,571.45,108.344,571.374,109.43z"/>
	<path fill-rule="evenodd" clip-rule="evenodd" fill="#101010" d="M727.001,114.248c0.893-0.851,1.77-1.655,3.145-1.426
		c0.848,0.142,1.03,0.615,0.961,1.34c-0.072,0.758-0.578,0.498-1.045,0.497c-1.786-0.006-2.945,1.102-3,2.917
		c-0.054,1.757-0.04,3.518,0.012,5.274c0.021,0.736-0.27,0.998-0.952,1.031c-0.751,0.036-1.212-0.147-1.204-1.035
		c0.025-2.957,0.013-5.915,0.006-8.872c-0.001-0.598,0.02-1.129,0.826-1.162c0.676-0.027,1.067,0.201,1.063,0.934
		C726.812,113.884,726.914,114.023,727.001,114.248z"/>
	<path fill-rule="evenodd" clip-rule="evenodd" fill="#101010" d="M519.999,109.418c0.966-0.874,1.822-1.544,3.082-1.409
		c0.763,0.081,1.162,0.358,1.147,1.184c-0.018,0.928-0.562,0.662-1.134,0.655c-1.627-0.017-2.86,1.129-2.925,2.759
		c-0.068,1.756-0.054,3.519,0.005,5.274c0.026,0.795-0.181,1.188-1.022,1.206c-0.805,0.019-1.144-0.278-1.135-1.114
		c0.03-2.877,0.007-5.755,0.015-8.633c0.001-0.534-0.148-1.19,0.654-1.309C519.595,107.897,520.099,108.254,519.999,109.418z"/>
	<path fill-rule="evenodd" clip-rule="evenodd" d="M190.096,8.674c0,2.152-0.011,4.304,0.006,6.456
		c0.006,0.73-0.127,1.215-1.029,1.216c-0.945,0-0.969-0.563-0.967-1.251c0.009-4.304,0.01-8.608-0.001-12.912
		c-0.001-0.713,0.088-1.23,1.008-1.219c0.927,0.012,0.991,0.557,0.987,1.255C190.088,4.371,190.096,6.522,190.096,8.674z"/>
	<path fill-rule="evenodd" clip-rule="evenodd" fill="#F3F3F3" d="M51.769,115.115c0-1.444,0.023-2.712-0.008-3.979
		c-0.021-0.861,0.409-1.126,1.181-1.035c0.627,0.074,1.27,0.098,1.878,0.251c1.371,0.345,1.887,1.023,1.893,2.34
		c0.005,1.269-0.585,2.151-1.877,2.39C53.927,115.25,52.962,115.115,51.769,115.115z"/>
	<path fill-rule="evenodd" clip-rule="evenodd" fill="#F3F3F3" d="M677.335,112.604c0-0.08-0.001-0.159,0-0.239
		c0.007-2.218,0.007-2.218,1.106-2.27c2.547-0.121,3.769,0.624,3.964,2.416c0.136,1.247-0.787,2.363-2.209,2.662
		c-0.154,0.033-0.316,0.028-0.476,0.045c-2.336,0.241-2.378,0.204-2.386-2.136C677.334,112.922,677.335,112.763,677.335,112.604z"/>
	<path fill-rule="evenodd" clip-rule="evenodd" fill="#F3F3F3" d="M482.994,107.848c-0.004-2.777,0.497-3.131,3.245-2.297
		c1.223,0.372,1.895,1.221,1.889,2.388c-0.004,0.976-0.728,1.968-1.763,2.314c-0.922,0.309-1.886,0.171-2.833,0.134
		c-0.375-0.015-0.536-0.274-0.537-0.634C482.992,109.119,482.994,108.483,482.994,107.848z"/>
	<path fill-rule="evenodd" clip-rule="evenodd" fill="#F5F5F5" d="M507.333,113.49c0.003-2.164,0.804-3.332,2.506-3.657
		c1.339-0.255,2.412,0.286,2.819,1.544c0.416,1.286,0.576,2.593,0.095,3.936c-0.531,1.479-1.411,2.149-2.806,1.978
		c-1.343-0.165-2.516-1.33-2.609-2.613C507.309,114.283,507.333,113.885,507.333,113.49z"/>
	<path fill-rule="evenodd" clip-rule="evenodd" fill="#F3F3F3" d="M213.549,11.209c0.211,1.02-0.16,1.965-1.2,2.696
		c-2.103,1.477-4.165,0.601-4.485-1.969c-0.138-1.11-0.197-2.233,0.27-3.299c0.567-1.293,1.479-1.774,2.886-1.532
		c1.332,0.229,2.428,1.285,2.523,2.468C213.581,10.049,213.549,10.531,213.549,11.209z"/>
	<path fill-rule="evenodd" clip-rule="evenodd" fill="#F3F3F3" d="M366.203,274.205c0.101,0.857,0.027,1.838-0.946,2.571
		c-1.027,0.775-2.132,1.193-3.34,0.65c-1.054-0.473-1.339-1.499-1.425-2.587c-0.075-0.961-0.128-1.922,0.17-2.849
		c0.465-1.439,1.478-2.053,2.934-1.839c1.431,0.212,2.523,1.313,2.603,2.645C366.223,273.195,366.203,273.595,366.203,274.205z"/>
	<path fill-rule="evenodd" clip-rule="evenodd" fill="#F3F3F3" d="M75.916,118.31c-0.318-2.277,0.8-3.005,2.288-3.6
		c1.38-0.552,2.479-0.081,3.063,1.301c0.607,1.437,0.594,2.939,0.078,4.392c-0.489,1.376-1.37,1.854-2.76,1.676
		c-1.346-0.173-2.561-1.339-2.663-2.581C75.889,119.104,75.917,118.706,75.916,118.31z"/>
	<path fill-rule="evenodd" clip-rule="evenodd" fill="#F3F3F3" d="M701.495,118.124c-0.406-1.626,0.574-2.656,2.087-3.355
		c1.375-0.635,2.816-0.132,3.352,1.256c0.554,1.44,0.616,2.938,0.036,4.405c-0.471,1.188-1.51,1.904-2.536,1.796
		c-1.394-0.146-2.825-1.45-2.933-2.698C701.466,119.13,701.495,118.729,701.495,118.124z"/>
	<path fill-rule="evenodd" clip-rule="evenodd" fill="#E7E7E7" d="M195.517,93.214c0-0.317,0-0.635,0-0.952
		c0.009-2.193,0.032-2.24,1.137-2.341c2.139-0.195,3.638,0.615,3.992,2.156c0.629,2.74-1.562,4.909-4.324,4.283
		c-0.539-0.122-0.802-0.46-0.805-1.006C195.514,94.641,195.516,93.928,195.517,93.214z"/>
	<path fill-rule="evenodd" clip-rule="evenodd" fill="#E7E7E7" d="M340.397,171.743c0-0.396-0.004-0.792,0-1.187
		c0.02-1.992,0.176-2.13,2.168-1.912c2.073,0.226,3.091,1.278,3.069,3.175c-0.021,1.797-1.186,3.044-3.087,3.263
		c-0.468,0.054-0.948,0.012-1.422,0.007c-0.481-0.005-0.713-0.285-0.722-0.736c-0.015-0.869-0.004-1.739-0.004-2.609
		C340.399,171.743,340.398,171.743,340.397,171.743z"/>
	<path fill-rule="evenodd" clip-rule="evenodd" fill="#F5F5F5" d="M246.748,98.246c-0.006-2.906,1.542-4.295,4.164-3.738
		c0.157,0.033,0.321,0.045,0.469,0.101c1.597,0.603,2.352,3.724,1.393,5.738c-0.716,1.505-3.077,2.188-4.569,1.24
		C247.008,100.827,246.682,99.601,246.748,98.246z"/>
	<path fill-rule="evenodd" clip-rule="evenodd" fill="#F5F5F5" d="M398.128,176.822c-0.031,2.604-1.045,3.805-3.121,3.864
		c-1.774,0.052-2.926-0.812-3.227-2.542c-0.122-0.699-0.105-1.443-0.024-2.152c0.213-1.854,1.375-2.858,3.2-2.859
		c1.9,0,2.826,0.87,3.083,2.902C398.079,176.351,398.111,176.669,398.128,176.822z"/>
	<path fill-rule="evenodd" clip-rule="evenodd" fill="#F5F5F5" d="M558.214,113.551c0.01-2.289,0.55-3.114,2.249-3.724
		c0.737-0.266,1.384-0.199,2.074,0.07c1.837,0.716,2.702,3.351,1.807,5.539c-0.695,1.697-2.595,2.434-4.377,1.696
		C558.688,116.603,558.205,115.616,558.214,113.551z"/>
	<path fill-rule="evenodd" clip-rule="evenodd" fill="#F5F5F5" d="M359.951,177.012c-0.004-2.326,0.512-3.134,2.165-3.792
		c0.828-0.33,1.558-0.224,2.302,0.087c1.711,0.715,2.505,3.267,1.708,5.411c-0.633,1.701-2.531,2.486-4.326,1.806
		C360.141,179.894,359.964,178.5,359.951,177.012z"/>
	<path fill-rule="evenodd" clip-rule="evenodd" fill="#F5F5F5" d="M221.357,98.336c-0.083,0.634-0.004,1.431-0.463,2.16
		c-0.91,1.446-2.495,1.96-4.153,1.276c-1.661-0.687-2.396-3.574-1.449-5.688c0.694-1.549,2.643-2.245,4.242-1.484
		C221.05,95.321,221.38,96.674,221.357,98.336z"/>
	<path fill-rule="evenodd" clip-rule="evenodd" fill="#E7E7E7" d="M533.232,112.29c-1.71,0-3.276,0.025-4.841-0.01
		c-0.843-0.02-1.083-0.507-0.644-1.221c0.683-1.107,1.702-1.648,2.986-1.518C532.139,109.684,533.047,110.432,533.232,112.29z"/>
	<path fill-rule="evenodd" clip-rule="evenodd" fill="#E7E7E7" d="M500.2,112.195c-1.72,0-3.434,0-5.149,0
		c0.03-1.701,0.825-2.575,2.403-2.672C499.187,109.417,500.045,110.225,500.2,112.195z"/>
	<path fill-rule="evenodd" clip-rule="evenodd" fill="#E7E7E7" d="M747.939,116.863c-0.572,0.396-1.226,0.228-1.839,0.215
		c-1.165-0.026-2.349,0.182-3.507-0.141c0.397-1.9,1.354-2.728,2.973-2.618C747.161,114.427,747.694,114.999,747.939,116.863z"/>
	<path fill-rule="evenodd" clip-rule="evenodd" fill="#E7E7E7" d="M272.684,96.807c-1.783,0.185-3.556,0.211-5.35-0.017
		c0.445-1.93,1.424-2.756,3.021-2.633C271.95,94.281,272.48,94.866,272.684,96.807z"/>
	<path fill-rule="evenodd" clip-rule="evenodd" fill="#E7E7E7" d="M243.315,9.459c0.489-1.991,1.47-2.805,3.062-2.669
		c1.597,0.136,2.122,0.729,2.279,2.669C246.938,9.459,245.226,9.459,243.315,9.459z"/>
	<path fill-rule="evenodd" clip-rule="evenodd" fill="#F3F3F3" d="M720.056,118.359c0.061,3.353-2.537,4.319-4.474,3.649
		c-1.242-0.43-1.681-1.367-1.948-2.493c-0.444-1.871,0.232-4.099,1.55-4.666C717.78,113.73,720.128,115.199,720.056,118.359z"/>
	<path fill-rule="evenodd" clip-rule="evenodd" fill="#E7E7E7" d="M395.568,272.626c1.101-2.591,2.625-3.313,4.498-2.445
		c0.458,0.212,0.805,0.488,1.052,0.906c0.528,0.892,0.222,1.508-0.807,1.53C398.816,272.651,397.32,272.626,395.568,272.626z"/>
	<path fill-rule="evenodd" clip-rule="evenodd" fill="#E7E7E7" d="M688.89,117.092c1.056-2.572,2.573-3.302,4.461-2.456
		c0.547,0.246,0.926,0.595,1.173,1.104c0.387,0.802,0.062,1.324-0.884,1.344C692.144,117.115,690.646,117.092,688.89,117.092z"/>
	<path fill-rule="evenodd" clip-rule="evenodd" fill="#E7E7E7" d="M411.897,175.659c1.079-2.582,2.601-3.306,4.48-2.452
		c0.546,0.248,0.922,0.599,1.166,1.111c0.382,0.804,0.058,1.305-0.899,1.332c-1.108,0.032-2.22,0.009-3.329,0.009
		C412.928,175.659,412.542,175.659,411.897,175.659z"/>
	<path fill-rule="evenodd" clip-rule="evenodd" fill="#F3F3F3" d="M126.798,118.447c-0.173-3.053,2.127-4.547,4.5-3.745
		c1.454,0.49,1.771,1.717,2.015,2.952c0.346,1.756-0.532,3.725-1.845,4.26C129.229,122.826,126.729,121.667,126.798,118.447z"/>
	<path fill-rule="evenodd" clip-rule="evenodd" fill="#E7E7E7" d="M63.469,117.092c0.406-1.903,1.065-2.583,2.538-2.766
		c1.285-0.16,2.417,0.436,2.924,1.539c0.361,0.787,0.148,1.201-0.705,1.218C66.652,117.115,65.077,117.092,63.469,117.092z"/>
	<path fill-rule="evenodd" clip-rule="evenodd" fill="#E7E7E7" d="M101.661,117.09c-1.675,0-3.326,0.009-4.978-0.004
		c-0.734-0.006-0.721-0.52-0.528-0.982c0.502-1.209,1.982-1.968,3.339-1.773C100.894,114.531,101.354,115.083,101.661,117.09z"/>
</g>
</svg>
