<?xml version="1.0" encoding="utf-8"?>
<!-- Generator: Adobe Illustrator 16.0.3, SVG Export Plug-In . SVG Version: 6.00 Build 0)  -->
<!DOCTYPE svg PUBLIC "-//W3C//DTD SVG 1.1//EN" "http://www.w3.org/Graphics/SVG/1.1/DTD/svg11.dtd">
<svg version="1.1" id="Capa_1" xmlns="http://www.w3.org/2000/svg" xmlns:xlink="http://www.w3.org/1999/xlink" x="0px" y="0px"
	 width="1820.169px" height="664.596px" viewBox="0 0 1820.169 664.596" enable-background="new 0 0 1820.169 664.596"
	 xml:space="preserve">
<g>
	<path fill-rule="evenodd" clip-rule="evenodd" fill="#00CB98" d="M1504.168,0c0,34.79-0.067,69.58,0.096,104.369
		c0.019,3.833-1.009,4.65-4.729,4.649c-274.082-0.094-548.164-0.094-822.246,0c-3.722,0.001-4.748-0.816-4.729-4.649
		C672.723,69.58,672.655,34.79,672.655,0C949.826,0,1226.998,0,1504.168,0z"/>
	<path fill-rule="evenodd" clip-rule="evenodd" fill="#1C1C1C" d="M0,183.369c103.629,0,207.257-0.026,310.886,0.097
		c4.096,0.005,5.189-0.964,5.123-5.101c-0.26-16.334,0.015-32.677-0.202-49.013c-0.047-3.521,0.995-4.169,4.272-4.132
		c14.521,0.167,29.046-0.057,43.567,0.1c3.135,0.034,4.93-0.432,4.014-4.422c4.769,1.958,9.067,3.722,13.964,5.732
		c-4.441,2.646-8.414,5.014-12.968,7.728c0.324-3.813-1.174-4.751-4.545-4.682c-13.308,0.274-26.624,0.223-39.935,0.102
		c-2.833-0.026-3.849,0.544-3.813,3.647c0.173,15.277,0.193,30.56-0.01,45.836c-0.045,3.389,0.784,4.209,4.186,4.194
		c33.13-0.144,66.261-0.086,99.392-0.086c68.834,0,137.667,0.04,206.501-0.1c4.124-0.008,5.127,1.014,5.105,5.116
		c-0.181,32.828-0.176,65.656-0.001,98.484c0.021,3.832-0.974,4.614-4.688,4.612C420.566,291.382,210.283,291.393,0,291.393
		C0,255.385,0,219.377,0,183.369z"/>
	<path fill-rule="evenodd" clip-rule="evenodd" fill="#1C1C1C" d="M827.417,664.485c-260.064,0-520.128-0.014-780.193,0.111
		c-4.535,0.003-5.62-1.012-5.588-5.572c0.227-32.525,0.207-65.053,0.015-97.579c-0.025-4.172,1.088-5.078,5.142-5.076
		c233.287,0.104,466.573,0.092,699.859,0.092c287.296,0,574.592,0.013,861.889-0.111c4.537-0.002,5.619,1.014,5.588,5.572
		c-0.227,32.525-0.207,65.055-0.015,97.58c0.024,4.172-1.09,5.077-5.143,5.075C1348.454,664.475,1087.936,664.485,827.417,664.485z"
		/>
	<path fill-rule="evenodd" clip-rule="evenodd" fill="#DA4B7C" d="M1088.459,481.116c-136.749,0-273.499-0.025-410.248,0.108
		c-4.531,0.004-5.709-1.009-5.677-5.628c0.227-32.673,0.17-65.349,0.048-98.023c-0.013-3.423,0.685-4.569,4.4-4.568
		c274.254,0.096,548.51,0.095,822.765,0.012c3.528-0.001,4.523,0.856,4.507,4.462c-0.146,32.825-0.195,65.652,0.04,98.476
		c0.034,4.646-1.473,5.254-5.587,5.251C1361.958,481.098,1225.208,481.116,1088.459,481.116z"/>
	<path fill-rule="evenodd" clip-rule="evenodd" fill="#1C1C1C" d="M858.728,248.728c60.509,0,121.019,0.038,181.526-0.091
		c3.722-0.008,4.704,0.793,4.684,4.619c-0.173,33.128-0.155,66.257-0.014,99.385c0.014,3.373-0.769,4.198-4.178,4.195
		c-121.32-0.1-242.641-0.099-363.962-0.005c-3.333,0.003-4.235-0.703-4.219-4.152c0.15-33.128,0.159-66.258-0.006-99.385
		c-0.019-3.757,0.853-4.669,4.642-4.661C737.709,248.768,798.219,248.728,858.728,248.728z"/>
	<path fill-rule="evenodd" clip-rule="evenodd" fill="#914AAF" d="M858.641,232.388c-60.349,0-120.697-0.036-181.045,0.084
		c-3.816,0.007-5.081-0.671-5.054-4.858c0.205-32.819,0.202-65.642,0.001-98.462c-0.025-4.156,1.191-4.876,5.038-4.873
		c120.848,0.104,241.697,0.102,362.545,0.004c3.651-0.003,4.83,0.72,4.811,4.627c-0.17,32.971-0.169,65.944-0.001,98.916
		c0.019,3.885-1.121,4.652-4.795,4.645C979.641,232.354,919.141,232.388,858.641,232.388z"/>
	<path fill-rule="evenodd" clip-rule="evenodd" fill="#1C1C1C" d="M1659.844,183.369c51.886,0,103.771,0.045,155.657-0.093
		c3.746-0.01,4.688,0.834,4.668,4.634c-0.17,33.127-0.155,66.256-0.013,99.384c0.016,3.396-0.805,4.185-4.189,4.182
		c-104.073-0.101-208.147-0.1-312.222-0.002c-3.36,0.003-4.219-0.747-4.204-4.168c0.146-33.279,0.145-66.559,0.002-99.837
		c-0.015-3.397,0.805-4.191,4.19-4.183C1555.77,183.405,1607.807,183.369,1659.844,183.369z"/>
	<path fill-rule="evenodd" clip-rule="evenodd" fill="#FEFEFE" d="M1087.952,104.393c-135.104,0-270.208-0.029-405.311,0.123
		c-4.703,0.005-5.586-1.261-5.555-5.69c0.208-29.955,0.166-59.911,0.031-89.867c-0.016-3.46,0.745-4.508,4.402-4.506
		c271.266,0.094,542.533,0.095,813.799-0.001c3.682-0.001,4.402,1.085,4.388,4.521c-0.131,30.106-0.154,60.214,0.018,90.32
		c0.022,4.031-0.868,5.208-5.1,5.204C1359.067,104.371,1223.509,104.393,1087.952,104.393z"/>
	<path fill-rule="evenodd" clip-rule="evenodd" fill="#FEFEFE" d="M160.201,187.908c50.373,0,100.745,0.045,151.118-0.092
		c3.721-0.01,4.707,0.793,4.684,4.619c-0.181,30.102-0.161,60.205-0.015,90.307c0.016,3.371-0.765,4.2-4.176,4.197
		c-101.048-0.104-202.096-0.102-303.144-0.005c-3.333,0.003-4.237-0.704-4.22-4.153c0.156-30.253,0.151-60.507,0.005-90.76
		c-0.016-3.372,0.765-4.207,4.176-4.198C59.154,187.946,109.678,187.908,160.201,187.908z"/>
	<path fill-rule="evenodd" clip-rule="evenodd" fill="#FEFEFE" d="M475.199,286.854c-50.07,0-100.141-0.048-150.21,0.096
		c-3.787,0.011-4.666-0.899-4.645-4.659c0.173-30.102,0.163-60.205,0.007-90.307c-0.018-3.444,0.877-4.159,4.216-4.156
		c100.746,0.098,201.49,0.099,302.235-0.004c3.405-0.003,4.195,0.816,4.179,4.194c-0.146,30.252-0.15,60.507,0.004,90.76
		c0.018,3.444-0.877,4.165-4.216,4.157C576.247,286.819,525.723,286.854,475.199,286.854z"/>
	<path fill-rule="evenodd" clip-rule="evenodd" fill="#FEFEFE" d="M984.902,659.946c-100.904,0-201.808-0.028-302.711,0.1
		c-4.139,0.005-5.123-1.035-5.097-5.122c0.187-29.952,0.168-59.906,0.009-89.859c-0.019-3.469,0.917-4.143,4.231-4.142
		c202.715,0.086,405.43,0.087,608.145-0.006c3.415-0.002,4.189,0.831,4.174,4.198c-0.146,30.104-0.167,60.209,0.016,90.313
		c0.023,3.844-0.989,4.612-4.693,4.607C1187.616,659.924,1086.258,659.946,984.902,659.946z"/>
	<path fill-rule="evenodd" clip-rule="evenodd" fill="#FEFEFE" d="M1453.808,659.946c-50.373,0-100.745-0.045-151.117,0.093
		c-3.722,0.01-4.708-0.793-4.686-4.619c0.181-30.102,0.16-60.205,0.015-90.307c-0.016-3.369,0.763-4.201,4.176-4.197
		c101.048,0.104,202.095,0.102,303.143,0.005c3.332-0.003,4.239,0.701,4.222,4.151c-0.156,30.254-0.151,60.508-0.006,90.761
		c0.017,3.37-0.761,4.208-4.175,4.199C1554.856,659.907,1504.332,659.946,1453.808,659.946z"/>
	<path fill-rule="evenodd" clip-rule="evenodd" fill="#FEFEFE" d="M201.996,659.946c-50.373,0-100.745-0.045-151.117,0.093
		c-3.724,0.01-4.706-0.798-4.683-4.621c0.181-30.102,0.162-60.205,0.015-90.307c-0.016-3.374,0.769-4.199,4.177-4.195
		c101.048,0.104,202.095,0.102,303.144,0.005c3.335-0.003,4.236,0.707,4.218,4.153c-0.156,30.253-0.151,60.509-0.005,90.761
		c0.016,3.374-0.768,4.206-4.178,4.197C303.044,659.908,252.52,659.946,201.996,659.946z"/>
	<path fill-rule="evenodd" clip-rule="evenodd" fill="#FEFEFE" d="M517.432,659.946c-50.222,0-100.443-0.046-150.664,0.094
		c-3.747,0.01-4.69-0.836-4.668-4.635c0.178-30.102,0.161-60.205,0.012-90.307c-0.017-3.4,0.81-4.185,4.192-4.181
		c100.745,0.101,201.49,0.101,302.235,0.001c3.362-0.003,4.221,0.749,4.204,4.169c-0.152,30.253-0.151,60.507-0.001,90.761
		c0.017,3.399-0.809,4.19-4.192,4.183C618.177,659.909,567.805,659.946,517.432,659.946z"/>
	<path fill-rule="evenodd" clip-rule="evenodd" fill="#FEFEFE" d="M1088.427,476.577c-135.236,0-270.473-0.026-405.709,0.114
		c-4.604,0.004-5.675-1.118-5.64-5.666c0.225-29.647,0.173-59.297,0.039-88.946c-0.015-3.478,0.781-4.533,4.437-4.532
		c271.229,0.092,542.458,0.092,813.687,0.004c3.593,0,4.488,0.958,4.472,4.498c-0.143,29.8-0.16,59.601,0.012,89.4
		c0.023,4.051-0.902,5.233-5.134,5.229C1359.202,476.556,1223.814,476.577,1088.427,476.577z"/>
	<path fill-rule="evenodd" clip-rule="evenodd" fill="#FEFEFE" d="M858.762,352.213c-58.996,0-117.992-0.039-176.988,0.092
		c-3.728,0.008-4.703-0.804-4.681-4.623c0.18-30.102,0.162-60.206,0.015-90.308c-0.016-3.382,0.782-4.193,4.182-4.19
		c118.294,0.099,236.589,0.098,354.883,0.003c3.341-0.002,4.234,0.714,4.216,4.156c-0.154,30.254-0.15,60.509-0.004,90.762
		c0.017,3.382-0.781,4.199-4.182,4.192C977.056,352.181,917.91,352.213,858.762,352.213z"/>
	<path fill-rule="evenodd" clip-rule="evenodd" fill="#FEFEFE" d="M858.704,227.849c-58.835,0-117.671-0.052-176.506,0.108
		c-4.306,0.012-5.113-1.292-5.092-5.271c0.16-29.795,0.151-59.592,0.003-89.387c-0.018-3.581,0.941-4.478,4.494-4.476
		c118.125,0.095,236.249,0.098,354.374-0.01c3.719-0.003,4.41,1.152,4.396,4.571c-0.126,29.946-0.145,59.894,0.018,89.84
		c0.021,3.779-0.965,4.719-4.727,4.711C976.677,227.812,917.69,227.849,858.704,227.849z"/>
	<path fill-rule="evenodd" clip-rule="evenodd" fill="#FEFEFE" d="M1659.847,187.908c50.372,0,100.745,0.046,151.117-0.094
		c3.751-0.01,4.688,0.84,4.666,4.637c-0.176,30.102-0.161,60.205-0.011,90.307c0.017,3.403-0.815,4.182-4.194,4.178
		c-101.048-0.101-202.095-0.101-303.143-0.001c-3.365,0.003-4.22-0.753-4.202-4.17c0.152-30.253,0.15-60.507,0.001-90.761
		c-0.017-3.403,0.813-4.188,4.194-4.18C1558.799,187.945,1609.323,187.908,1659.847,187.908z"/>
	<path fill-rule="evenodd" clip-rule="evenodd" fill="#202020" d="M864.187,49.311c0-4.168,0.017-7.929-0.01-11.689
		c-0.009-1.292-0.025-2.304,1.83-2.278c1.793,0.025,2.322,0.677,2.313,2.393c-0.053,9.943-0.075,19.888,0.015,29.831
		c0.02,2.158-1.401,3.19-2.612,2.145c-1.999-1.727-3.16-0.619-4.78,0.171c-3.681,1.795-7.018,0.994-9.957-1.724
		c-4.375-4.048-5.082-11.456-1.604-16.572C852.594,46.864,857.461,46.008,864.187,49.311z"/>
	<path fill-rule="evenodd" clip-rule="evenodd" fill="#202020" d="M1010.336,49.363c0-4.141,0.001-7.9,0-11.66
		c0-1.207-0.192-2.385,1.739-2.353c1.702,0.028,2.406,0.505,2.396,2.305c-0.058,10.094-0.051,20.188-0.004,30.282
		c0.009,1.638-1.131,2.653-2.094,1.86c-2.552-2.102-4.372-0.203-6.459,0.557c-2.979,1.084-5.645,0.294-8.044-1.539
		c-4.794-3.666-5.976-11.346-2.643-16.788C998.311,46.993,1003.517,45.936,1010.336,49.363z"/>
	<path fill-rule="evenodd" clip-rule="evenodd" fill="#1F1F1F" d="M1371.786,49c0-3.619-0.025-7.073,0.013-10.527
		c0.017-1.395-0.54-3.063,1.979-3.127c2.34-0.06,2.262,1.265,2.259,2.875c-0.026,9.644-0.033,19.289,0.006,28.933
		c0.006,1.651-0.424,3.739-2.181,2.589c-2.729-1.787-4.464-0.121-6.579,0.652c-1.943,0.709-3.816,0.498-5.701-0.313
		c-5.837-2.512-8.4-10.128-5.541-16.579c2.629-5.929,7.737-7.691,14.223-4.918C1370.653,48.752,1371.087,48.814,1371.786,49z"/>
	<path fill-rule="evenodd" clip-rule="evenodd" fill="#1D1D1D" d="M1051.023,69.5c3.524-9.88,6.988-19.497,10.364-29.145
		c0.582-1.663,1.398-2.368,3.239-2.292c1.607,0.065,2.418,0.583,2.954,2.108c3.433,9.779,6.947,19.53,10.43,29.281
		c-3.408,1.364-4.866-0.003-5.678-3.075c-0.505-1.914-0.31-4.939-2.545-5.316c-3.516-0.592-7.313-0.639-10.781,0.083
		c-1.916,0.399-1.9,3.518-2.405,5.488C1055.853,69.548,1054.324,70.615,1051.023,69.5z"/>
	<path fill-rule="evenodd" clip-rule="evenodd" fill="#1D1D1D" d="M1121.263,49.062c7.863-2.98,12.229-2.036,15.234,3.126
		c3.218,5.527,2.13,12.686-2.555,16.485c-2.666,2.162-5.587,2.754-8.892,1.451c-1.71-0.675-3.219-2.696-5.509-0.375
		c-0.967,0.979-2.302-0.179-2.287-2.046c0.072-9.972,0.058-19.946,0.008-29.918c-0.008-1.643,0.331-2.484,2.228-2.426
		c1.85,0.056,1.779,1.15,1.776,2.401C1121.256,41.494,1121.263,45.227,1121.263,49.062z"/>
	<path fill-rule="evenodd" clip-rule="evenodd" fill="#1D1D1D" d="M735.038,69.209c2.755-4.116,5.352-8.352,8.328-12.3
		c1.658-2.199,1.438-3.76-0.068-5.838c-2.901-4.003-5.56-8.184-8.764-12.954c8.912-0.327,8.349,8.438,13.269,11.543
		c4.795-2.696,4.844-11.395,13.404-11.75c-3.585,4.905-6.57,9.214-9.813,13.32c-1.38,1.747-1.291,2.94-0.031,4.657
		c3.197,4.355,6.201,8.853,9.321,13.351c-4.523,1.081-3.302,1.657-7.411-4.049c-1.847-2.566-3.675-5.146-5.511-7.719
		c-4.887,3.397-4.894,11.624-11.813,12.835C735.646,69.94,735.342,69.575,735.038,69.209z"/>
	<path fill-rule="evenodd" clip-rule="evenodd" fill="#1E1E1E" d="M1263.15,47.198c5.072,0.021,7.167,1.731,7.842,6.571
		c0.351,2.518,0.158,5.107,0.376,7.65c0.181,2.114-0.633,4.604,2.188,5.85c1.433,0.633,0.429,1.954,0.12,2.717
		c-0.627,1.546-2.457,1.058-3.042,0.456c-2.484-2.555-4.503-1.437-7.146-0.13c-3.428,1.694-7.477-0.066-8.856-3.129
		c-1.562-3.471-0.188-7.182,3.632-8.98c1.871-0.881,4.025-1.147,6.017-1.796c1.06-0.346,3.053,0.776,2.901-1.646
		c-0.1-1.607-0.76-2.927-2.374-3.523c-2.103-0.777-4.117-0.353-6.157,0.397c-0.634,0.233-1.626,1.369-2.167-0.005
		c-0.429-1.091-0.634-2.298,0.905-3.034C1259.334,47.667,1261.32,47.108,1263.15,47.198z"/>
	<path fill-rule="evenodd" clip-rule="evenodd" fill="#1E1E1E" d="M881.7,47.207c4.726-0.006,6.98,1.731,7.651,6.481
		c0.397,2.815,0.178,5.715,0.272,8.576c0.053,1.634-0.323,3.656,1.39,4.5c1.782,0.877,1.686,2.287,1.031,3.273
		c-1.051,1.585-3.016,0.99-3.964,0.006c-1.836-1.905-3.079-1.469-5.139-0.239c-3.886,2.32-8.416,0.87-10.056-2.723
		c-1.66-3.639-0.13-7.21,4.146-9.09c1.761-0.775,3.754-1.007,5.614-1.579c0.994-0.305,2.754,0.566,2.759-1.385
		c0.005-1.516-0.41-3.012-2.098-3.685c-2.09-0.833-4.105-0.575-6.149,0.234c-0.842,0.333-1.879,1.285-2.559-0.397
		c-0.631-1.56,0.248-2.227,1.406-2.762C877.805,47.584,879.689,47.083,881.7,47.207z"/>
	<path fill-rule="evenodd" clip-rule="evenodd" fill="#1E1E1E" d="M1388.575,47.205c5.318-0.067,7.625,1.744,8.264,6.729
		c0.362,2.824,0.147,5.72,0.227,8.582c0.041,1.492-0.25,3.34,1.235,4.127c1.838,0.974,1.961,2.354,1.038,3.593
		c-0.94,1.263-2.873,0.824-3.64-0.089c-1.947-2.32-3.457-1.347-5.533-0.22c-3.81,2.068-8.061,0.73-9.742-2.674
		c-1.774-3.594-0.32-7.279,3.872-9.185c1.751-0.796,3.75-1.031,5.597-1.642c1.069-0.353,3.045,0.713,2.944-1.654
		c-0.078-1.814-0.872-3.212-2.749-3.688c-1.802-0.456-3.563-0.298-5.309,0.426c-0.981,0.408-2.179,1.441-2.824-0.57
		c-0.547-1.701,0.685-2.147,1.72-2.619C1385.327,47.569,1387.072,47.054,1388.575,47.205z"/>
	<path fill-rule="evenodd" clip-rule="evenodd" fill="#1E1E1E" d="M1103.109,47.2c5.003-0.025,7.368,2.046,7.887,7.295
		c0.267,2.691,0.066,5.426,0.126,8.14c0.033,1.493-0.208,3.325,1.319,4.089c1.965,0.983,1.804,2.473,0.872,3.593
		c-0.951,1.142-2.924,0.749-3.66-0.223c-1.989-2.629-3.577-1.057-5.526-0.093c-3.88,1.917-8.091,0.583-9.708-2.853
		c-1.709-3.628-0.212-7.233,4.039-9.127c1.758-0.783,3.751-1.024,5.608-1.6c1.006-0.312,2.757,0.555,2.829-1.323
		c0.065-1.712-0.53-3.286-2.439-3.906c-2.129-0.691-4.157-0.346-6.153,0.53c-0.808,0.354-1.677,0.868-2.169-0.471
		c-0.418-1.135-0.336-1.934,0.902-2.571C1098.962,47.687,1100.953,47.154,1103.109,47.2z"/>
	<path fill-rule="evenodd" clip-rule="evenodd" fill="#1E1E1E" d="M1030.993,59.008c-1.361,0-2.729-0.088-4.081,0.026
		c-1.271,0.107-3.056-0.736-3.7,0.602c-0.768,1.592,0.338,3.257,1.348,4.562c2.873,3.709,6.841,3.223,10.793,2.568
		c0.998-0.165,2.062-0.835,2.396,0.882c0.269,1.382-0.502,1.788-1.583,2.26c-4.733,2.067-11.445,0.797-14.711-2.876
		c-3.439-3.868-3.912-10.203-1.107-14.83c2.319-3.826,6.838-5.795,11.341-4.821c3.926,0.849,6.355,3.222,7.147,7.251
		c0.619,3.143,0.017,5.012-3.765,4.409C1033.743,58.831,1032.354,59.008,1030.993,59.008z"/>
	<path fill-rule="evenodd" clip-rule="evenodd" fill="#1E1E1E" d="M925.101,59.008c-1.21,0-2.427-0.085-3.626,0.023
		c-1.278,0.116-3.059-0.725-3.726,0.589c-0.799,1.575,0.275,3.262,1.256,4.576c2.552,3.421,6.23,3.109,9.917,2.82
		c1.101-0.087,2.737-1.752,3.303,0.612c0.565,2.357-1.533,2.197-2.843,2.581c-5.462,1.6-11.034,0.042-13.982-3.824
		c-2.992-3.923-3.15-10.257-0.363-14.52c2.387-3.651,7.201-5.569,11.51-4.423c3.862,1.026,6.188,3.48,6.806,7.566
		c0.463,3.064-0.345,4.551-3.722,4.036C928.152,58.821,926.612,59.008,925.101,59.008z"/>
	<path fill-rule="evenodd" clip-rule="evenodd" fill="#1E1E1E" d="M1433.028,59.008c-1.361,0-2.729-0.091-4.08,0.027
		c-1.283,0.111-3.064-0.747-3.748,0.557c-0.821,1.569,0.235,3.276,1.231,4.575c2.848,3.713,6.819,3.255,10.78,2.621
		c0.975-0.156,2.103-0.905,2.482,0.802c0.294,1.313-0.377,1.811-1.507,2.312c-4.914,2.177-11.714,0.806-15.028-3.148
		c-3.379-4.031-3.622-10.859-0.446-15.233c2.804-3.861,6.773-5.012,11.235-4.047c3.897,0.842,6.201,3.421,6.844,7.505
		c0.481,3.066-0.33,4.553-3.688,4.063C1435.772,58.846,1434.387,59.008,1433.028,59.008z"/>
	<path fill-rule="evenodd" clip-rule="evenodd" fill="#1F1F1F" d="M1198.419,59.257c-0.107,6.907-4.661,11.624-11.156,11.554
		c-6.688-0.072-10.954-4.909-10.809-12.255c0.138-6.923,4.713-11.535,11.267-11.356
		C1194.112,47.374,1198.528,52.351,1198.419,59.257z"/>
	<path fill-rule="evenodd" clip-rule="evenodd" fill="#1E1E1E" d="M1301.543,58.838c0.063-7.103,4.354-11.664,10.945-11.638
		c6.369,0.025,11.018,4.984,11.034,11.771c0.018,7.014-4.768,11.991-11.382,11.838C1305.565,70.657,1301.479,66.042,1301.543,58.838
		z"/>
	<path fill-rule="evenodd" clip-rule="evenodd" fill="#1E1E1E" d="M794.106,58.728c0.095-7.08,4.436-11.607,11.052-11.527
		c6.356,0.077,10.962,5.088,10.923,11.882c-0.04,6.826-4.649,11.722-11.042,11.727C798.222,70.815,794.007,66.157,794.106,58.728z"
		/>
	<path fill-rule="evenodd" clip-rule="evenodd" fill="#1E1E1E" d="M954.993,47.201c5.334,0,7.643,1.978,8.145,6.96
		c0.271,2.695,0.115,5.432,0.186,8.148c0.042,1.654-0.148,3.684,1.48,4.488c1.864,0.922,1.497,2.332,0.925,3.302
		c-0.838,1.418-2.73,0.973-3.519,0.138c-2.095-2.218-3.737-1.394-5.99-0.216c-3.859,2.017-8.035,0.483-9.593-3.042
		c-1.561-3.53-0.152-7.003,3.854-8.854c1.751-0.809,3.756-1.051,5.601-1.681c1.105-0.378,3.111,0.659,3.149-1.462
		c0.035-1.915-0.911-3.516-3.031-3.967c-1.823-0.388-3.563-0.129-5.316,0.557c-0.705,0.275-1.812,1.656-2.445-0.294
		c-0.467-1.438,0-2.306,1.306-2.859C951.565,47.647,953.422,47.037,954.993,47.201z"/>
	<path fill-rule="evenodd" clip-rule="evenodd" fill="#212121" d="M1235.947,58.874c0,2.112,0.055,4.226-0.014,6.335
		c-0.089,2.787,0.966,7.082-4.372,3.543c-0.251-0.167-1.128,0.692-1.752,0.994c-6.005,2.906-11.538,0.147-12.237-6.477
		c-0.489-4.628-0.169-9.339-0.286-14.012c-0.037-1.494,0.376-2.147,2.01-2.106c1.536,0.039,2.173,0.542,2.14,2.101
		c-0.063,2.865-0.089,5.735,0.013,8.597c0.069,1.948,0.145,3.95,0.644,5.815c0.725,2.719,2.795,3.861,5.555,3.424
		c2.671-0.423,4.349-1.733,4.22-4.827c-0.156-3.765-0.149-7.546,0.021-11.31c0.065-1.427-1.308-3.918,2.051-3.777
		c3.227,0.136,1.833,2.538,1.953,4.01C1236.096,53.733,1235.947,56.31,1235.947,58.874z"/>
	<path fill-rule="evenodd" clip-rule="evenodd" fill="#1E1E1E" d="M762.736,80.556c8.214-8.877,4.508-16.934,0.368-25.025
		c-1.292-2.523-2.29-5.197-3.433-7.827c3.26-1.395,4.715-0.046,5.762,2.791c1.551,4.208,3.43,8.295,5.504,13.229
		c1.861-4.855,3.424-8.927,4.985-13.001c1.374-3.586,1.374-3.586,5.707-3.203c-4.255,10.499-8.543,20.893-12.657,31.354
		C767.891,81.623,765.992,80.689,762.736,80.556z"/>
	<path fill-rule="evenodd" clip-rule="evenodd" fill="#202020" d="M1152.104,58.128c0.001-3.015,0.031-6.031-0.009-9.045
		c-0.033-2.607,2.755-2.179,2.935-1.627c1.085,3.347,2.713,1.021,3.976,0.541c7.082-2.69,12.459,0.429,13.152,7.966
		c0.358,3.888,0.121,7.827,0.263,11.74c0.067,1.86-0.802,2.223-2.449,2.242c-1.963,0.023-1.674-1.242-1.68-2.404
		c-0.016-3.468,0.111-6.94-0.043-10.401c-0.206-4.633-2.221-6.509-6.407-6.291c-4.066,0.212-5.92,2.143-5.554,6.4
		c0.295,3.442,0.025,6.93,0.073,10.396c0.02,1.387-0.202,2.269-1.92,2.296c-1.732,0.027-2.432-0.511-2.368-2.317
		C1152.185,64.463,1152.104,61.294,1152.104,58.128z"/>
	<path fill-rule="evenodd" clip-rule="evenodd" fill="#202020" d="M1277.375,58.448c0-3.015,0.108-6.035-0.035-9.043
		c-0.11-2.332,2.11-2.945,2.647-1.984c1.697,3.039,3.271,0.941,4.847,0.396c6.671-2.309,11.856,0.778,12.544,7.832
		c0.394,4.034,0.185,8.125,0.304,12.188c0.045,1.543-0.574,2.08-2.122,2.114c-1.613,0.035-2.054-0.581-2.025-2.09
		c0.07-3.616,0.092-7.238-0.016-10.852c-0.115-3.866-1.813-6.29-6.087-6.17c-4.39,0.123-5.799,1.665-5.812,6.54
		c-0.008,3.316-0.027,6.633,0.01,9.949c0.017,1.466-0.01,2.618-2.051,2.627c-1.889,0.009-2.271-0.825-2.228-2.462
		C1277.433,64.479,1277.375,61.462,1277.375,58.448z"/>
	<path fill-rule="evenodd" clip-rule="evenodd" fill="#1F1F1F" d="M969.321,58.294c-0.001-3.021,0.034-6.044-0.013-9.064
		c-0.036-2.389,1.994-2.795,2.747-1.576c1.474,2.385,2.602,0.946,3.974,0.415c7.274-2.821,12.867,0.583,13.356,8.299
		c0.238,3.762,0.047,7.551,0.096,11.327c0.017,1.325-0.03,2.276-1.857,2.262c-1.845-0.014-2.297-0.754-2.284-2.435
		c0.028-3.771-0.042-7.544-0.177-11.313c-0.145-4.011-2.487-5.611-6.285-5.342c-3.667,0.259-5.902,1.773-5.624,5.971
		c0.239,3.61,0.016,7.249,0.063,10.874c0.019,1.408-0.246,2.235-1.956,2.234c-1.615-0.001-2.096-0.611-2.061-2.133
		C969.372,64.641,969.321,61.467,969.321,58.294z"/>
	<path fill-rule="evenodd" clip-rule="evenodd" fill="#212121" d="M1203.842,60.301c-0.001-2.267,0.004-4.534-0.002-6.801
		c-0.003-1.336,0.293-2.661-1.911-2.71c-3.355-0.075-1.519-3.142-0.947-3.186c4.431-0.34,2.65-3.568,2.815-5.696
		c0.381-4.956,2.531-7.019,7.17-6.47c1.138,0.135,2.629-0.096,2.595,1.727c-0.028,1.486-0.829,1.974-2.372,1.931
		c-4.435-0.125-2.695,3.372-3.085,5.576c-0.531,3.007,1.609,2.544,3.386,2.524c1.377-0.016,2.777-0.203,2.682,1.962
		c-0.102,2.289-1.778,1.775-2.948,1.638c-2.686-0.315-3.284,0.845-3.183,3.309c0.181,4.375,0.04,8.763,0.057,13.146
		c0.005,1.405,0.131,2.639-1.977,2.71c-2.323,0.08-2.334-1.213-2.292-2.859C1203.886,64.836,1203.843,62.568,1203.842,60.301z"/>
	<path fill-rule="evenodd" clip-rule="evenodd" fill="#1F1F1F" d="M833.117,52.172c-2.176-0.669-4.22-1.703-6.544-1.271
		c-1.442,0.268-2.684,0.878-2.962,2.38c-0.294,1.59,0.764,2.496,2.16,3.013c1.836,0.679,3.768,1.167,5.496,2.054
		c2.618,1.342,4.087,3.506,3.707,6.628c-0.356,2.926-2.147,4.571-4.83,5.35c-3.152,0.916-6.261,0.644-9.314-0.526
		c-1.754-0.672-2.295-1.946-1.598-3.589c0.874-2.057,1.937-0.158,2.897,0.024c0.582,0.11,1.107,0.564,1.686,0.632
		c2.487,0.292,5.663,1.319,6.664-1.838c1.015-3.199-2.148-3.748-4.395-4.515c-5.932-2.026-8.035-5.257-6.093-9.421
		c1.654-3.547,7.876-5.038,12.06-3.144C834.406,49.014,833.455,50.51,833.117,52.172z"/>
	<path fill-rule="evenodd" clip-rule="evenodd" fill="#1F1F1F" d="M1409.379,70.808c-2.145,0.07-4.192-0.312-6.109-1.312
		c-1.623-0.847-1.398-2.277-0.854-3.516c0.785-1.789,1.663,0,2.491,0.157c0.578,0.11,1.098,0.57,1.674,0.647
		c2.613,0.35,5.976,1.545,6.951-1.922c0.865-3.074-2.32-3.679-4.593-4.395c-3.099-0.975-6.089-2.018-6.461-5.943
		c-0.251-2.665,0.765-4.858,3.016-6.124c3.218-1.811,6.653-1.56,10.041-0.243c1.305,0.507,1.231,1.466,1.021,2.592
		c-0.322,1.721-1.313,1.185-2.343,0.833c-0.846-0.289-1.714-0.625-2.59-0.684c-1.981-0.134-4.265-0.228-4.856,2.185
		c-0.647,2.642,1.773,3.074,3.539,3.811c0.411,0.172,0.882,0.196,1.309,0.337c3.843,1.279,6.907,3.198,6.288,7.977
		C1417.434,68.828,1414.366,70.823,1409.379,70.808z"/>
	<path fill-rule="evenodd" clip-rule="evenodd" fill="#1F1F1F" d="M908.316,52.244c-2.049-0.877-3.862-1.598-5.907-1.392
		c-1.626,0.165-3.103,0.697-3.44,2.391c-0.364,1.823,0.98,2.661,2.534,3.194c1.708,0.586,3.48,1.069,5.074,1.89
		c2.615,1.348,4.11,3.484,3.746,6.608c-0.34,2.924-2.108,4.587-4.795,5.378c-3.15,0.928-6.258,0.658-9.315-0.498
		c-1.742-0.659-2.326-1.889-1.651-3.565c0.847-2.104,1.923-0.24,2.872-0.032c0.728,0.159,1.401,0.69,2.122,0.745
		c2.336,0.175,5.365,1.105,6.27-1.886c0.979-3.24-2.105-3.78-4.356-4.55c-5.771-1.974-7.584-4.365-6.424-8.532
		c1.059-3.808,6.045-5.775,11.011-4.49C908.629,48.171,909.716,49.41,908.316,52.244z"/>
	<path fill-rule="evenodd" clip-rule="evenodd" fill="#1F1F1F" d="M1332.917,70.797c-0.483-0.085-1.84-0.214-3.131-0.578
		c-1.769-0.498-3.704-1.097-2.882-3.616c1.134-3.47,2.45,0.239,3.736,0.02c0.816-0.14,1.736,0.494,2.614,0.506
		c1.923,0.026,4.287,0.383,4.948-2.054c0.743-2.738-1.541-3.538-3.545-4.311c-0.279-0.107-0.581-0.155-0.869-0.243
		c-3.075-0.944-6.152-1.901-6.639-5.797c-0.331-2.644,0.613-4.901,2.826-6.225c3.174-1.899,6.608-1.662,10.028-0.425
		c1.578,0.571,1.488,1.678,1.139,2.914c-0.504,1.784-1.59,0.675-2.497,0.479c-1.019-0.22-2.038-0.549-3.067-0.594
		c-1.88-0.081-3.833,0.177-4.215,2.443c-0.354,2.096,1.367,2.776,2.992,3.329c0.568,0.194,1.148,0.353,1.717,0.545
		c5.251,1.77,7.18,4.235,6.475,8.267C1341.937,68.945,1338.76,70.886,1332.917,70.797z"/>
	<path fill-rule="evenodd" clip-rule="evenodd" fill="#252525" d="M784.729,51.148c-0.005-4.368,0.049-8.737-0.031-13.104
		c-0.033-1.803,0.337-2.764,2.459-2.708c2.358,0.062,1.68,1.671,1.687,2.84c0.046,7.983,0.004,15.966,0.038,23.949
		c0.008,2.04-0.49,4.425,2.462,5.046c1.388,0.292,0.955,1.202,0.804,2.068c-0.227,1.3-1.018,1.67-2.255,1.581
		c-3.541-0.254-5.066-2.384-5.134-5.665C784.663,60.488,784.734,55.817,784.729,51.148z"/>
	<path fill-rule="evenodd" clip-rule="evenodd" fill="#2A2A2A" d="M1241.313,58.484c0.001-3.016-0.019-6.032,0.014-9.048
		c0.009-0.844-0.268-1.973,0.979-2.183c0.83-0.139,2.088-0.444,2.391,0.615c1.068,3.745,2.324,0.958,3.474,0.158
		c1.246-0.866,2.469-1.873,4.082-1.598c1.065,0.182,0.53,1.141,0.564,1.83c0.11,2.277-1.394,2.47-3.14,2.855
		c-2.662,0.588-3.939,2.321-3.76,5.269c0.219,3.605-0.005,7.236,0.074,10.854c0.039,1.775-0.279,2.751-2.43,2.752
		c-2.323,0.001-2.285-1.3-2.262-2.909C1241.34,64.216,1241.312,61.35,1241.313,58.484z"/>
	<path fill-rule="evenodd" clip-rule="evenodd" fill="#1C1C1C" d="M1085.255,50.191c1.624-1.177,2.979-2.346,4.512-3.202
		c0.884-0.494,2.498-1.611,2.907,0.132c0.255,1.088,0.324,3.474-1.621,3.621c-5.715,0.431-5.588,4.257-5.391,8.382
		c0.138,2.854-0.07,5.724,0.06,8.578c0.085,1.853-0.679,2.224-2.368,2.252c-1.856,0.032-2.255-0.712-2.232-2.382
		c0.073-5.719-0.035-11.442,0.082-17.16c0.022-1.081-0.991-2.75,1.219-3.225C1084.903,46.656,1084.631,48.813,1085.255,50.191z"/>
	<path fill-rule="evenodd" clip-rule="evenodd" fill="#2B2B2B" d="M1350.636,58.719c-0.002,3.008-0.044,6.016,0.017,9.021
		c0.03,1.452-0.365,2.187-1.995,2.223c-1.752,0.039-2.375-0.56-2.351-2.334c0.08-6.013,0.066-12.029,0.006-18.043
		c-0.016-1.635,0.356-2.463,2.229-2.459c1.975,0.004,2.138,1.05,2.11,2.57C1350.599,52.704,1350.637,55.712,1350.636,58.719z"/>
	<path fill-rule="evenodd" clip-rule="evenodd" fill="#292929" d="M838.751,58.371c0-2.852-0.014-5.703,0.006-8.554
		c0.009-1.28-0.415-2.746,1.85-2.686c1.76,0.046,2.351,0.643,2.331,2.372c-0.068,6.002-0.058,12.005-0.004,18.008
		c0.015,1.626-0.367,2.426-2.237,2.467c-2.159,0.048-1.957-1.235-1.951-2.604C838.76,64.374,838.751,61.372,838.751,58.371z"/>
	<path fill-rule="evenodd" clip-rule="evenodd" fill="#1C1C1C" d="M1142.713,58.101c0-3,0.061-6.002-0.023-9
		c-0.047-1.699,0.836-1.921,2.229-1.92c1.407,0.001,1.772,0.661,1.767,1.92c-0.027,6.3-0.049,12.601,0.013,18.9
		c0.016,1.696-0.837,1.921-2.229,1.919c-1.408-0.001-1.782-0.66-1.768-1.92C1142.739,64.702,1142.713,61.401,1142.713,58.101z"/>
	<path fill-rule="evenodd" clip-rule="evenodd" fill="#303030" d="M1350.608,40.05c0.22,1.677-0.053,2.7-2.018,2.698
		c-1.764-0.003-2.389-0.628-2.299-2.362c0.068-1.319,0.124-2.379,1.868-2.308C1349.585,38.136,1351.053,38.012,1350.608,40.05z"/>
	<path fill-rule="evenodd" clip-rule="evenodd" fill="#2F2F2F" d="M842.888,40.263c0.286,1.969-0.585,2.422-2.27,2.486
		c-2.212,0.085-1.798-1.323-1.896-2.623c-0.112-1.501,0.391-2.106,1.986-2.077C842.436,38.082,843.263,38.643,842.888,40.263z"/>
	<path fill-rule="evenodd" clip-rule="evenodd" fill="#1C1C1C" d="M1146.665,40.479c0.123,1.292-0.078,2.182-1.8,2.23
		c-1.844,0.052-2.181-0.736-2.203-2.364c-0.025-1.752,0.597-2.287,2.305-2.257C1146.797,38.12,1146.721,39.22,1146.665,40.479z"/>
	<path fill-rule="evenodd" clip-rule="evenodd" fill="#202020" d="M121.647,251.823c0,3.394,0.009,6.686-0.005,9.977
		c-0.005,1.166,0.285,2.431-1.685,2.407c-1.667-0.02-2.456-0.417-2.444-2.265c0.061-9.824,0.025-19.649,0.033-29.474
		c0.002-2.496,2.695-2.331,2.882-1.523c0.922,3.997,2.395,1.329,3.856,0.659c3.949-1.811,7.614-1.497,10.83,1.668
		c4.454,4.384,4.837,13.223,0.76,17.882C132.721,254.758,128.738,254.978,121.647,251.823z"/>
	<path fill-rule="evenodd" clip-rule="evenodd" fill="#1E1E1E" d="M161.454,230.571c4.742,0.017,6.835,1.729,7.51,6.569
		c0.351,2.518,0.159,5.107,0.376,7.65c0.18,2.113-0.632,4.604,2.189,5.849c1.43,0.631,0.428,1.955,0.117,2.718
		c-0.629,1.543-2.459,1.055-3.043,0.453c-2.484-2.56-4.505-1.431-7.146-0.128c-3.429,1.692-7.477-0.069-8.854-3.133
		c-1.562-3.472-0.188-7.18,3.635-8.979c1.872-0.881,4.025-1.146,6.017-1.795c1.059-0.345,3.052,0.775,2.898-1.648
		c-0.102-1.607-0.762-2.926-2.376-3.521c-2.104-0.776-4.119-0.352-6.158,0.4c-0.638,0.235-1.636,1.362-2.17-0.015
		c-0.422-1.088-0.631-2.296,0.913-3.029C157.31,231.037,159.296,230.485,161.454,230.571z"/>
	<path fill-rule="evenodd" clip-rule="evenodd" fill="#1F1F1F" d="M191.187,235.68c-0.976-0.337-1.824-0.646-2.682-0.924
		c-3.266-1.058-6.478-0.967-8.651,1.927c-2.367,3.152-2.278,6.871-0.664,10.348c1.492,3.215,4.515,3.704,7.71,3.479
		c0.602-0.042,1.198-0.191,1.799-0.204c1.007-0.021,2.36-1.386,2.844,0.751c0.454,2.002-1.002,2.22-2.306,2.592
		c-2.678,0.765-5.357,0.831-8.013-0.099c-6.095-2.135-8.958-9.467-6.36-16.264c2.173-5.683,9.22-8.398,15.139-6.093
		C192.79,232.278,191.36,233.95,191.187,235.68z"/>
	<path fill-rule="evenodd" clip-rule="evenodd" fill="#252525" d="M142.938,234.962c-0.005-4.519,0.048-9.038-0.032-13.556
		c-0.032-1.811,0.352-2.759,2.467-2.7c2.358,0.065,1.672,1.681,1.679,2.847c0.048,7.983,0.005,15.965,0.039,23.948
		c0.008,2.042-0.484,4.422,2.469,5.042c1.389,0.292,0.945,1.209,0.795,2.072c-0.227,1.306-1.028,1.663-2.26,1.574
		c-3.542-0.257-5.059-2.392-5.127-5.671C142.872,244.001,142.943,239.48,142.938,234.962z"/>
	<path fill-rule="evenodd" clip-rule="evenodd" fill="#222222" d="M200.627,237.368c0,4.511-0.043,9.023,0.023,13.533
		c0.023,1.587-0.223,2.483-2.162,2.433c-1.793-0.046-2.305-0.698-2.294-2.407c0.058-9.021,0.056-18.044,0.001-27.066
		c-0.01-1.68,0.45-2.39,2.268-2.433c1.907-0.044,2.215,0.787,2.189,2.407C200.579,228.345,200.627,232.857,200.627,237.368z"/>
	<path fill-rule="evenodd" clip-rule="evenodd" fill="#1D1D1D" d="M465.683,237.236c0-4.37,0.13-8.746-0.053-13.109
		c-0.097-2.326,0.843-2.795,2.883-2.666c2.553,0.162,5.13-0.051,7.68,0.135c7.647,0.556,10.874,5.899,7.629,12.866
		c-0.774,1.663-1,2.393,0.752,3.419c3.499,2.049,3.255,5.596,2.733,8.874c-0.52,3.264-2.795,5.247-6.028,5.988
		c-4.616,1.058-9.309,0.301-13.96,0.525c-1.963,0.095-1.626-1.313-1.63-2.468C465.674,246.278,465.683,241.757,465.683,237.236z"/>
	<path fill-rule="evenodd" clip-rule="evenodd" fill="#1C1C1C" d="M461.118,252.91c-3.263,0.959-4.995,0.015-6.164-2.661
		c-1.141-2.61-2.752-5.011-4.057-7.554c-0.756-1.473-1.7-2.095-3.472-2.215c-3.29-0.223-5.071,0.464-4.49,4.274
		c0.315,2.064-0.051,4.224,0.086,6.327c0.123,1.879-0.708,2.208-2.384,2.244c-1.892,0.041-2.223-0.768-2.213-2.411
		c0.056-9.055,0.067-18.109-0.007-27.164c-0.015-1.797,0.605-2.35,2.341-2.283c3.616,0.138,7.253-0.075,10.853,0.216
		c3.469,0.279,6.565,1.652,7.599,5.376c1.063,3.831,0.936,7.824-2.495,10.326c-2.717,1.982-2.193,3.521-0.841,5.8
		C457.708,246.277,459.301,249.511,461.118,252.91z"/>
	<path fill-rule="evenodd" clip-rule="evenodd" fill="#1D1D1D" d="M492.412,247.372c3.828,2.604,7.912,3.887,12.476,2.833
		c2.159-0.499,4.009-1.509,4.429-3.961c0.45-2.626-0.85-4.444-3.11-5.434c-3.17-1.387-6.462-2.494-9.678-3.782
		c-3.121-1.249-5.539-3.136-5.584-6.884c-0.048-3.856,1.674-6.7,5.166-8.311c4.854-2.239,9.769-1.366,14.575,0.169
		c2.632,0.841,1.112,2.962,1.089,4.704c-3.377-1.02-6.484-2.882-10.067-2.444c-2.78,0.339-5.541,1.078-6.012,4.441
		c-0.431,3.083,1.997,4.129,4.272,5.038c2.788,1.114,5.668,1.998,8.448,3.132c4.33,1.766,6.125,5.055,5.621,9.704
		c-0.5,4.607-3.75,6.28-7.622,7.151c-3.575,0.804-7.169,0.493-10.789-0.112C491.59,252.94,490.603,251.01,492.412,247.372z"/>
	<path fill-rule="evenodd" clip-rule="evenodd" fill="#1F1F1F" d="M840.439,605.529c6.878-2.789,10.899-2.266,14.066,1.543
		c3.323,3.997,3.741,10.701,0.952,15.263c-2.565,4.198-6.883,5.838-11.177,4.275c-1.839-0.67-3.422-2.546-5.729-0.369
		c-0.888,0.838-2.403,0.022-2.386-1.98c0.087-10.097,0.06-20.196,0.02-30.295c-0.006-1.521,0.513-2.093,2.073-2.147
		c1.917-0.066,2.233,0.869,2.202,2.479C840.391,597.903,840.439,601.513,840.439,605.529z"/>
	<path fill-rule="evenodd" clip-rule="evenodd" fill="#1D1D1D" d="M1046.208,624.787c0,3.459,0.019,6.457-0.007,9.456
		c-0.014,1.442,0.418,3.024-2.071,3.07c-2.588,0.049-2-1.628-2.003-3.004c-0.025-9.066-0.053-18.134,0.037-27.198
		c0.011-1.139-0.937-2.861,1.013-3.405c2.478-0.69,2.32,1.536,2.847,2.935c5.562-3.942,10.109-3.953,13.859-0.105
		c3.913,4.016,4.478,12.131,1.172,16.851C1058.045,627.681,1053.323,628.272,1046.208,624.787z"/>
	<path fill-rule="evenodd" clip-rule="evenodd" fill="#1D1D1D" d="M952.418,624.914c0,3.572-0.055,6.748,0.023,9.921
		c0.039,1.611-0.251,2.524-2.194,2.464c-1.822-0.057-1.81-1.097-1.81-2.374c0.012-9.678-0.001-19.356,0.02-29.033
		c0.002-0.824-0.322-1.932,0.975-2.149c0.88-0.148,1.974-0.28,2.221,0.905c0.646,3.098,1.809,1.032,2.926,0.389
		c4.37-2.518,8.997-1.672,12.188,2.182c3.538,4.277,3.682,12.156,0.299,16.55C963.99,627.761,959.798,628.15,952.418,624.914z"/>
	<path fill-rule="evenodd" clip-rule="evenodd" fill="#212121" d="M977.674,605.706c9.452-4.532,15.169-1.015,15.272,8.967
		c0.03,3.019-0.013,6.038,0.011,9.057c0.011,1.42,0.097,2.623-1.991,2.691c-2.334,0.075-2.297-1.241-2.277-2.87
		c0.043-3.622,0.056-7.246-0.009-10.868c-0.064-3.675-1.893-5.676-5.683-5.347c-3.426,0.297-5.607,1.782-5.367,5.748
		c0.21,3.459,0.05,6.941,0.041,10.414c-0.005,1.447,0.428,3.034-2.089,2.93c-2.06-0.085-2.034-1.237-2.032-2.671
		c0.012-9.813,0.024-19.626-0.011-29.438c-0.007-1.58,0.25-2.486,2.192-2.522c2.191-0.041,1.949,1.263,1.945,2.625
		C977.667,598.038,977.674,601.657,977.674,605.706z"/>
	<path fill-rule="evenodd" clip-rule="evenodd" fill="#1E1E1E" d="M1071.338,605.63c2.468-0.793,4.349-2.094,6.738-2.009
		c4.977,0.176,8.132,3.164,8.457,8.718c0.229,3.911,0.047,7.848,0.071,11.773c0.008,1.269,0.083,2.331-1.808,2.302
		c-1.792-0.028-2.36-0.664-2.32-2.392c0.084-3.621,0.078-7.247-0.003-10.869c-0.083-3.673-1.537-6.184-5.72-5.834
		c-3.721,0.311-5.715,2.119-5.46,6.164c0.217,3.459,0.001,6.943,0.063,10.415c0.027,1.555-0.144,2.571-2.143,2.51
		c-1.771-0.056-1.867-0.993-1.865-2.318c0.019-9.965,0.015-19.93,0.005-29.895c-0.002-1.269-0.029-2.323,1.798-2.379
		c1.916-0.059,2.242,0.817,2.209,2.442C1071.287,597.975,1071.338,601.694,1071.338,605.63z"/>
	<path fill-rule="evenodd" clip-rule="evenodd" fill="#1F1F1F" d="M1172.877,603.664c4.275-0.157,6.766,1.761,7.589,6.074
		c0.576,3.021,0.205,6.024,0.397,9.029c0.095,1.47-0.437,3.401,1.023,4.194c1.968,1.072,2.31,2.495,1.044,3.831
		c-1.152,1.215-3.171,0.622-4.068-0.508c-1.561-1.963-2.569-1.255-4.274-0.218c-4.038,2.455-8.934,1.165-10.539-2.464
		c-1.736-3.921,0.229-7.841,4.942-9.574c1.542-0.567,3.237-0.704,4.826-1.165c0.985-0.286,2.696,0.603,2.749-1.388
		c0.043-1.595-0.47-3.009-2.106-3.677c-2.083-0.851-4.108-0.55-6.162,0.247c-0.807,0.313-1.944,1.39-2.554-0.375
		c-0.499-1.445,0.139-2.253,1.424-2.805C1168.997,604.082,1170.869,603.562,1172.877,603.664z"/>
	<path fill-rule="evenodd" clip-rule="evenodd" fill="#1E1E1E" d="M997.144,615.27c0.115-7.064,4.489-11.657,11.054-11.607
		c6.371,0.048,11.057,5.047,11.058,11.8c0.003,6.956-4.866,11.97-11.466,11.806C1001.282,627.106,997.028,622.311,997.144,615.27z"
		/>
	<path fill-rule="evenodd" clip-rule="evenodd" fill="#1E1E1E" d="M870.057,615.269c0.115-7.063,4.489-11.656,11.055-11.606
		c6.37,0.048,11.056,5.048,11.057,11.8c0.002,6.957-4.868,11.97-11.466,11.805C874.195,627.106,869.94,622.311,870.057,615.269z"/>
	<path fill-rule="evenodd" clip-rule="evenodd" fill="#1E1E1E" d="M810.146,615.241c0.126-7.061,4.511-11.642,11.081-11.578
		c6.366,0.062,11.047,5.082,11.029,11.829c-0.018,6.962-4.892,11.955-11.496,11.775
		C814.255,627.092,810.019,622.292,810.146,615.241z"/>
	<path fill-rule="evenodd" clip-rule="evenodd" fill="#1E1E1E" d="M1090.635,615.392c0.068-7.077,4.398-11.721,10.939-11.73
		c6.547-0.01,11.405,5.26,11.181,12.13c-0.223,6.828-4.921,11.581-11.343,11.477
		C1094.879,627.162,1090.568,622.411,1090.635,615.392z"/>
	<path fill-rule="evenodd" clip-rule="evenodd" fill="#1E1E1E" d="M770.196,615.469c1.047,6.865,3.938,8.8,11.191,8.044
		c1.191-0.124,3.146-1.861,3.642,0.781c0.439,2.337-1.795,2.059-3.065,2.401c-4.816,1.3-9.384,0.767-13.01-2.939
		c-3.37-3.444-3.825-7.777-2.671-12.249c1.368-5.299,6.181-8.404,11.723-7.806c4.775,0.516,7.901,3.953,8.166,8.729
		c0.123,2.206-0.321,3.239-2.884,3.103C778.95,615.301,774.592,615.469,770.196,615.469z"/>
	<path fill-rule="evenodd" clip-rule="evenodd" fill="#1E1E1E" d="M925.719,615.469c-1.208,0-2.422-0.068-3.623,0.019
		c-1.305,0.095-3.202-0.68-3.779,0.479c-0.741,1.488,0.342,3.205,1.307,4.56c2.632,3.691,6.459,3.264,10.272,2.874
		c1.162-0.119,2.792-1.404,3.143,0.984c0.26,1.765-1.205,1.786-2.326,2.12c-4.944,1.479-9.667,1.201-13.544-2.501
		c-3.631-3.468-4.112-7.954-2.893-12.592c1.313-4.996,5.631-7.952,10.889-7.749c4.549,0.177,7.937,2.86,8.786,7.067
		c0.596,2.954,0.583,5.467-3.707,4.776C928.772,615.27,927.23,615.469,925.719,615.469z"/>
	<path fill-rule="evenodd" clip-rule="evenodd" fill="#1E1E1E" d="M1208.476,615.469c1.618,7.154,4.294,8.82,11.666,7.987
		c1.108-0.125,2.802-1.605,3.322,0.695c0.538,2.374-1.622,2.154-2.908,2.512c-4.812,1.335-9.391,0.85-13.051-2.804
		c-3.549-3.543-3.983-8.036-2.685-12.647c1.474-5.233,6.455-8.232,11.942-7.479c4.715,0.647,7.709,4.22,7.883,9.005
		c0.079,2.186-0.543,2.872-2.761,2.782C1217.52,615.346,1213.144,615.469,1208.476,615.469z"/>
	<path fill-rule="evenodd" clip-rule="evenodd" fill="#1E1E1E" d="M1140.645,620.24c1.814-4.825,3.561-8.999,4.934-13.292
		c0.898-2.808,2.316-4.004,5.695-2.881c-4.277,10.546-8.59,21.055-12.784,31.608c-1.054,2.65-3.004,1.059-4.538,1.691
		c-0.08-0.658-0.246-1.026-0.127-1.192c5.947-8.362,3.253-16.3-1.045-24.242c-1.353-2.5-2.314-5.212-3.467-7.854
		c3.044-1.135,4.722-0.252,5.797,2.792C1136.647,611.221,1138.623,615.417,1140.645,620.24z"/>
	<path fill-rule="evenodd" clip-rule="evenodd" fill="#1F1F1F" d="M1022.686,621.589c2.232,0.624,4.066,2.2,6.472,2.053
		c1.985-0.122,4.231,0.017,4.664-2.518c0.384-2.242-1.559-3.057-3.243-3.747c-1.25-0.512-2.629-0.708-3.877-1.225
		c-2.772-1.151-4.394-3.17-4.116-6.31c0.27-3.051,2.01-4.953,4.915-5.795c2.074-0.601,4.173-0.506,6.268-0.081
		c2.528,0.513,3.765,1.771,2.489,4.556c-2.255-0.476-4.453-1.762-6.889-1.105c-1.336,0.359-2.6,0.92-2.663,2.63
		c-0.054,1.449,0.855,2.196,2.041,2.656c1.821,0.704,3.746,1.183,5.497,2.028c2.677,1.294,4.085,3.446,3.8,6.568
		c-0.289,3.187-2.254,4.84-5.09,5.598c-2.517,0.671-5.066,0.508-7.602-0.143C1022.733,626.084,1021.28,624.809,1022.686,621.589z"/>
	<path fill-rule="evenodd" clip-rule="evenodd" fill="#1F1F1F" d="M1199.763,608.687c-2.013-0.79-3.955-1.662-6.159-1.356
		c-1.605,0.222-3.025,0.789-3.264,2.567c-0.217,1.614,0.931,2.419,2.316,2.912c1.703,0.604,3.47,1.079,5.087,1.863
		c2.639,1.28,4.248,3.335,3.996,6.47c-0.253,3.146-2.138,4.901-5.008,5.693c-2.994,0.826-5.973,0.604-8.889-0.473
		c-1.618-0.598-2.579-1.553-1.962-3.414c0.867-2.61,2.094-0.33,3.13-0.184c0.729,0.103,1.412,0.648,2.134,0.689
		c2.333,0.132,5.342,1.026,6.142-2.102c0.75-2.937-2.021-3.583-4.185-4.291c-3.017-0.987-6.266-1.708-6.8-5.655
		c-0.407-3.01,0.627-5.461,3.382-6.777c3.318-1.585,6.821-1.505,9.996,0.339C1201.1,605.793,1200.169,607.379,1199.763,608.687z"/>
	<path fill-rule="evenodd" clip-rule="evenodd" fill="#1F1F1F" d="M909.414,608.792c-2.397-1.092-4.533-1.86-6.869-1.371
		c-1.414,0.297-2.595,0.996-2.709,2.603c-0.099,1.402,0.822,2.208,2.034,2.668c1.83,0.695,3.756,1.184,5.502,2.042
		c2.638,1.299,4.174,3.411,3.871,6.539c-0.304,3.157-2.265,4.856-5.12,5.604c-3.157,0.826-6.29,0.552-9.307-0.728
		c-1.522-0.646-1.901-1.825-1.39-3.324c0.756-2.219,1.862-0.44,2.804-0.2c0.578,0.147,1.099,0.579,1.677,0.663
		c2.497,0.362,5.711,1.374,6.764-1.646c1.219-3.495-2.269-3.968-4.609-4.746c-2.938-0.979-5.815-1.902-6.268-5.612
		c-0.322-2.635,0.488-4.902,2.737-6.275c3.182-1.941,6.617-1.767,10.018-0.449C910.688,605.386,909.654,606.973,909.414,608.792z"/>
	<path fill-rule="evenodd" clip-rule="evenodd" fill="#1F1F1F" d="M745.717,615.155c0.091-8.728,7.261-13.702,15.584-10.982
		c1.88,0.615,2.434,1.489,1.939,3.245c-0.591,2.097-1.858,0.812-2.839,0.493c-3.426-1.113-6.76-1.108-8.995,2.03
		c-2.272,3.19-2.179,6.902-0.451,10.337c1.696,3.37,4.931,3.418,8.237,3.354c1.331-0.025,3.522-2.177,4.03,0.726
		c0.488,2.79-2.281,2.399-3.78,2.685C751.373,628.577,745.629,623.519,745.717,615.155z"/>
	<path fill-rule="evenodd" clip-rule="evenodd" fill="#262626" d="M805.058,607.377c0,3.768-0.038,7.536,0.017,11.304
		c0.029,2.025-0.516,4.378,2.489,5.01c1.394,0.294,0.674,1.342,0.594,2.16c-0.111,1.143-0.745,1.479-1.816,1.443
		c-3.464-0.115-5.438-1.987-5.489-5.325c-0.144-9.342-0.041-18.687-0.089-28.03c-0.008-1.535,0.549-2.08,2.092-2.135
		c1.895-0.066,2.25,0.832,2.225,2.462C805.012,598.635,805.057,603.006,805.058,607.377z"/>
	<path fill-rule="evenodd" clip-rule="evenodd" fill="#252525" d="M790.171,607.917c0-4.519,0.025-9.037-0.014-13.556
		c-0.013-1.521,0.155-2.534,2.137-2.574c2.085-0.045,2.036,1.096,2.032,2.542c-0.025,7.983-0.043,15.966,0.009,23.949
		c0.014,2.145-0.666,4.712,2.591,5.402c1.358,0.287,0.787,1.326,0.619,2.155c-0.209,1.034-0.805,1.493-1.898,1.455
		c-3.487-0.119-5.313-2.009-5.409-5.369c-0.134-4.664-0.034-9.336-0.034-14.005C790.193,607.917,790.182,607.917,790.171,607.917z"
		/>
	<path fill-rule="evenodd" clip-rule="evenodd" fill="#2A2A2A" d="M1116.95,614.972c0-3.018-0.02-6.035,0.013-9.054
		c0.009-0.847-0.268-1.992,0.961-2.199c0.97-0.163,2.284-0.468,2.614,0.987c0.557,2.443,1.491,1.532,2.569,0.415
		c0.417-0.432,0.882-0.848,1.399-1.143c1.148-0.654,2.299-1.615,3.713-0.91c0.278,0.14,0.237,1.046,0.236,1.6
		c-0.004,1.749-0.721,2.55-2.653,2.812c-3.153,0.426-4.478,2.454-4.254,5.769c0.245,3.605-0.011,7.241,0.079,10.861
		c0.045,1.793-0.676,2.309-2.393,2.321c-1.809,0.014-2.359-0.694-2.31-2.404C1117.014,621.011,1116.951,617.991,1116.95,614.972z"/>
	<path fill-rule="evenodd" clip-rule="evenodd" fill="#1C1C1C" d="M1154.511,607.758c-0.003-4.376-0.022-8.751,0.009-13.127
		c0.009-1.262-0.442-2.725,1.798-2.815c2.44-0.099,2.168,1.398,2.167,2.92c-0.01,7.847-0.039,15.692,0.019,23.538
		c0.018,2.154-0.6,4.704,2.65,5.404c1.294,0.279,0.704,1.414,0.615,2.232c-0.128,1.173-0.974,1.4-1.954,1.345
		c-3.438-0.193-5.259-2.012-5.291-5.465C1154.482,617.114,1154.514,612.435,1154.511,607.758z"/>
	<path fill-rule="evenodd" clip-rule="evenodd" fill="#2B2B2B" d="M865.888,614.641c0,3.157-0.078,6.318,0.032,9.472
		c0.063,1.808-0.655,2.339-2.374,2.31c-1.655-0.028-1.982-0.814-1.973-2.244c0.043-6.165,0.05-12.329-0.002-18.494
		c-0.013-1.574,0.633-2.083,2.137-2.076c1.447,0.007,2.24,0.376,2.2,2.013C865.833,608.625,865.887,611.634,865.888,614.641z"/>
	<path fill-rule="evenodd" clip-rule="evenodd" fill="#303030" d="M863.685,594.592c2.189-0.29,2.213,0.99,2.251,2.483
		c0.041,1.562-0.557,2.079-2.08,2.124c-1.753,0.051-2.344-0.596-2.326-2.34C861.548,595.158,861.961,594.209,863.685,594.592z"/>
	<path fill-rule="evenodd" clip-rule="evenodd" fill="#1E1E1E" d="M1458.074,615.469c-1.058,0-2.147-0.16-3.167,0.037
		c-1.503,0.291-3.819-1.104-4.374,0.886c-0.575,2.054,0.751,4.116,2.479,5.5c2.874,2.303,6.213,1.918,9.541,1.385
		c0.948-0.151,2.092-0.993,2.536,0.695c0.334,1.267-0.248,1.837-1.404,2.369c-4.792,2.203-11.721,0.85-15.054-3.065
		c-3.402-3.997-3.695-10.839-0.551-15.23c2.775-3.878,6.734-5.063,11.206-4.13c3.9,0.814,6.272,3.354,6.902,7.443
		c0.447,2.902-0.086,4.654-3.584,4.146C1461.124,615.29,1459.585,615.469,1458.074,615.469z"/>
	<path fill-rule="evenodd" clip-rule="evenodd" fill="#212121" d="M1434.087,612.389c0-1.967,0.03-3.934-0.009-5.899
		c-0.05-2.551,0.688-5.619-0.471-7.508c-1.201-1.955-4.463-0.483-6.807-0.729c-1.139-0.119-2.035-0.14-2.1-1.667
		c-0.07-1.685,0.744-2.031,2.193-2.022c6.202,0.038,12.404,0.024,18.606,0.01c1.336-0.003,2.32,0.13,2.27,1.928
		c-0.054,1.9-1.282,1.635-2.467,1.735c-6.926,0.584-6.925,0.593-6.926,7.672c0,5.899-0.032,11.799,0.02,17.697
		c0.015,1.709-0.128,2.848-2.366,2.823c-2.197-0.024-1.945-1.334-1.944-2.693C1434.088,619.953,1434.088,616.171,1434.087,612.389z"
		/>
	<path fill-rule="evenodd" clip-rule="evenodd" fill="#1C1C1C" d="M1482.273,603.057c-0.349,2.229-0.17,4.265-3.482,4.559
		c-2.6,0.23-3.941,2.193-3.732,5.185c0.262,3.746-0.009,7.525,0.094,11.286c0.048,1.744-0.503,2.336-2.29,2.331
		c-1.759-0.006-2.339-0.535-2.314-2.307c0.087-6.172,0.025-12.347,0.045-18.52c0.002-0.844-0.223-1.95,1.193-1.899
		c0.832,0.029,2.117-0.377,2.266,0.796c0.463,3.664,1.698,1.423,2.836,0.475C1478.374,603.724,1479.869,602.474,1482.273,603.057z"
		/>
	<path fill-rule="evenodd" clip-rule="evenodd" fill="#1D1D1D" d="M163.57,624.914c0,3.572-0.055,6.748,0.023,9.921
		c0.04,1.611-0.25,2.524-2.194,2.464c-1.823-0.057-1.811-1.097-1.81-2.374c0.011-9.678-0.001-19.356,0.02-29.033
		c0.002-0.824-0.322-1.932,0.975-2.149c0.88-0.148,1.974-0.28,2.221,0.905c0.645,3.098,1.808,1.032,2.926,0.389
		c4.37-2.518,8.997-1.672,12.186,2.182c3.54,4.277,3.683,12.156,0.3,16.55C175.141,627.761,170.95,628.15,163.57,624.914z"/>
	<path fill-rule="evenodd" clip-rule="evenodd" fill="#1F1F1F" d="M194.087,620.805c0.002-4.421,2.787-6.519,10.386-7.955
		c0.981-0.185,2.687,0.565,2.603-1.521c-0.057-1.422-0.444-2.685-1.838-3.394c-1.722-0.878-3.481-0.645-5.304-0.346
		c-1.207,0.196-2.736,2.398-3.659-0.086c-0.885-2.384,1.367-2.632,2.814-3.146c7.25-2.581,11.868,0.516,12.249,8.212
		c0.119,2.412-0.007,4.835,0.065,7.252c0.035,1.178-0.177,2.706,1.084,3.259c1.886,0.826,2.066,2.146,1.141,3.494
		c-0.948,1.382-2.838,0.967-3.609,0.091c-2.082-2.364-3.653-1.32-5.892-0.187C199.161,628.994,194.084,625.954,194.087,620.805z"/>
	<path fill-rule="evenodd" clip-rule="evenodd" fill="#202020" d="M229.027,623.611c1.279,1.074,4.507-2.763,4.645,1.113
		c0.095,2.685-3.306,2.354-5.403,2.506c-4.787,0.35-8.59-1.449-10.813-5.85c-2.27-4.491-1.541-11.183,1.662-14.482
		c3.544-3.653,7.967-3.774,12.618-2.722c1.796,0.406,2.636,1.148,2.044,3.125c-0.749,2.505-2.092,0.765-3.122,0.473
		c-3.116-0.883-6.189-0.874-8.349,1.715c-2.541,3.045-2.424,6.738-1.02,10.276C222.608,623.086,225.507,623.777,229.027,623.611z"/>
	<path fill-rule="evenodd" clip-rule="evenodd" fill="#242424" d="M237.82,607.71c-0.001-4.384-0.027-8.769,0.015-13.152
		c0.011-1.225-0.559-2.749,1.789-2.77c2.25-0.02,2.36,1.142,2.351,2.834c-0.041,7.86-0.064,15.722,0.013,23.582
		c0.021,2.126-0.676,4.699,2.559,5.493c1.251,0.307,0.599,1.48,0.547,2.311c-0.081,1.279-1.023,1.313-1.951,1.26
		c-3.452-0.197-5.26-2.071-5.306-5.499C237.773,617.084,237.821,612.396,237.82,607.71z"/>
	<path fill-rule="evenodd" clip-rule="evenodd" fill="#1C1C1C" d="M185.016,608.154c-0.003-3.923-0.181-7.858,0.085-11.764
		c0.105-1.532-1.657-4.381,1.783-4.468c3.952-0.1,1.95,3.098,2.002,4.682c0.231,7.085,0.045,14.181,0.133,21.271
		c0.028,2.249-0.837,5.03,2.693,5.818c1.257,0.281,0.647,1.453,0.548,2.271c-0.143,1.188-1.043,1.348-1.996,1.288
		c-3.444-0.216-5.215-2.074-5.238-5.519C184.997,617.208,185.019,612.681,185.016,608.154z"/>
	<path fill-rule="evenodd" clip-rule="evenodd" fill="#1D1D1D" d="M507.44,610.46c0-4.37,0.104-8.743-0.045-13.109
		c-0.072-2.127,0.51-2.975,2.744-2.806c2.698,0.204,5.433-0.053,8.128,0.175c7.336,0.616,10.465,5.979,7.397,12.727
		c-0.668,1.47-1.441,2.34,0.55,3.466c3.722,2.104,3.421,5.819,2.774,9.241c-0.66,3.486-3.324,5.5-6.695,5.831
		c-4.332,0.425-8.722,0.244-13.085,0.384c-2.274,0.071-1.745-1.558-1.755-2.797C507.418,619.202,507.44,614.831,507.44,610.46z"/>
	<path fill-rule="evenodd" clip-rule="evenodd" fill="#1C1C1C" d="M502.875,626.001c-3.259,0.958-4.994,0.019-6.164-2.659
		c-1.139-2.61-2.751-5.011-4.057-7.554c-0.756-1.472-1.697-2.099-3.471-2.218c-3.286-0.221-5.074,0.459-4.492,4.272
		c0.315,2.064-0.051,4.224,0.086,6.327c0.123,1.877-0.705,2.21-2.382,2.245c-1.89,0.041-2.225-0.765-2.214-2.408
		c0.056-9.055,0.066-18.11-0.007-27.164c-0.015-1.795,0.601-2.352,2.339-2.285c3.616,0.139,7.253-0.074,10.854,0.217
		c3.469,0.279,6.565,1.65,7.6,5.375c1.064,3.83,0.936,7.822-2.493,10.326c-2.711,1.98-2.2,3.518-0.844,5.8
		C499.466,619.366,501.058,622.601,502.875,626.001z"/>
	<path fill-rule="evenodd" clip-rule="evenodd" fill="#1D1D1D" d="M553.823,599.882c-3.667-1.099-6.772-2.966-10.352-2.529
		c-2.781,0.339-5.543,1.075-6.018,4.437c-0.436,3.081,1.988,4.132,4.266,5.042c2.929,1.169,5.969,2.07,8.859,3.322
		c4.123,1.784,5.697,5.089,5.214,9.509c-0.475,4.348-3.421,6.098-7.182,7.034c-3.737,0.929-7.454,0.617-11.222,0.007
		c-4.039-0.655-5.035-2.598-3.222-6.24c3.824,2.602,7.908,3.888,12.472,2.834c2.158-0.497,4.011-1.504,4.434-3.956
		c0.452-2.625-0.842-4.445-3.104-5.436c-3.17-1.389-6.461-2.497-9.677-3.783c-3.121-1.248-5.542-3.133-5.59-6.881
		c-0.049-3.855,1.67-6.701,5.161-8.313c4.853-2.243,9.761-1.349,14.578,0.154C555.195,595.942,553.307,598.105,553.823,599.882z"/>
	<path fill-rule="evenodd" clip-rule="evenodd" fill="#202020" d="M1180.089,422.399c0-4.019-0.023-7.628,0.012-11.238
		c0.013-1.245-0.508-2.777,1.814-2.724c1.797,0.041,2.316,0.686,2.308,2.396c-0.054,9.944-0.076,19.888,0.015,29.831
		c0.02,2.165-1.422,3.185-2.616,2.139c-2.002-1.752-3.166-0.607-4.779,0.175c-3.686,1.788-7.021,0.987-9.957-1.731
		c-4.375-4.05-5.077-11.458-1.598-16.573C1168.5,419.956,1173.364,419.102,1180.089,422.399z"/>
	<path fill-rule="evenodd" clip-rule="evenodd" fill="#1D1D1D" d="M948.443,427.082c0-4.375,0.109-8.753-0.046-13.123
		c-0.077-2.182,0.619-2.859,2.793-2.789c4.672,0.15,9.352,0.046,14.028,0.046c1.345,0,2.739-0.282,2.662,1.927
		c-0.081,2.312-1.688,1.637-2.88,1.687c-1.958,0.081-3.922,0.022-5.883,0.022c-6.238,0-8.035,2.511-6.439,8.614
		c0.411,1.574,1.357,1.338,2.347,1.352c2.563,0.037,5.129,0.015,7.693,0.018c1.106,0.001,2.044,0.046,2.106,1.609
		c0.067,1.665-0.696,2.108-2.152,2.029c-0.903-0.049-1.811-0.007-2.716-0.006c-7.605,0.009-8.577,1.331-7.297,9.131
		c0.292,1.78,1.187,1.761,2.432,1.758c3.47-0.009,6.939,0.004,10.408-0.004c1.391-0.003,2.757-0.168,2.656,1.987
		c-0.089,1.916-1.36,1.643-2.531,1.646c-4.827,0.013-9.657-0.105-14.479,0.055c-2.243,0.074-2.816-0.718-2.747-2.838
		C948.543,435.833,948.443,431.456,948.443,427.082z"/>
	<path fill-rule="evenodd" clip-rule="evenodd" fill="#1D1D1D" d="M1223.623,442.332c-7.929-0.075-8.392-8.088-13.183-11.642
		c-4.68,3.208-4.453,11.679-13.157,12.729c3.316-4.982,5.869-9.195,8.821-13.106c1.711-2.266,1.901-3.882,0.132-6.223
		c-2.977-3.938-5.569-8.165-8.405-12.392c4.236-0.619,4.236-0.619,12.575,11.224c5.215-2.778,5.119-11.606,13.734-11.873
		c-3.321,4.548-5.935,8.595-9.042,12.22c-2.215,2.585-1.924,4.382,0.037,6.89C1218.178,434.049,1220.814,438.258,1223.623,442.332z"
		/>
	<path fill-rule="evenodd" clip-rule="evenodd" fill="#1F1F1F" d="M1051.43,420.29c4.044-0.076,6.491,1.71,7.343,5.822
		c0.562,2.715,0.231,5.421,0.47,8.116c0.195,2.218-0.929,4.891,2.271,6.206c1.086,0.446,0.493,2.017-0.044,2.809
		c-0.847,1.246-2.617,0.952-3.215,0.23c-2.334-2.814-4.315-1.238-6.709-0.147c-3.677,1.675-7.919,0.001-9.236-3.248
		c-1.445-3.563,0.035-7.09,3.995-8.891c1.758-0.799,3.756-1.055,5.606-1.672c1.075-0.358,3.021,0.76,3.009-1.593
		c-0.011-2.091-1.069-3.415-3.132-3.84c-1.834-0.378-3.584-0.059-5.305,0.674c-0.887,0.377-2.004,1.143-2.433-0.636
		c-0.294-1.224,0.094-1.952,1.247-2.495C1047.253,420.705,1049.267,420.2,1051.43,420.29z"/>
	<path fill-rule="evenodd" clip-rule="evenodd" fill="#1E1E1E" d="M1259.334,425.446c-0.246-1.467-0.945-2.626,0.182-3.359
		c2.934-1.908,6.219-2.282,9.554-1.48c3.035,0.729,4.384,3.062,4.631,5.99c0.238,2.844,0.201,5.709,0.383,8.559
		c0.111,1.746-0.376,3.991,1.576,4.848c2.127,0.935,1.136,2.327,0.659,3.239c-0.691,1.326-2.553,0.918-3.136,0.229
		c-2.339-2.765-4.294-1.271-6.716-0.14c-3.671,1.716-7.831,0.04-9.183-3.235c-1.462-3.539-0.026-7.074,3.876-8.88
		c1.745-0.808,3.751-1.034,5.58-1.688c1.143-0.409,3.426,0.9,3.147-1.867c-0.206-2.05-1.364-3.244-3.401-3.65
		C1263.955,423.507,1261.78,424.721,1259.334,425.446z"/>
	<path fill-rule="evenodd" clip-rule="evenodd" fill="#202020" d="M813.793,427.1c0-4.235,0.083-8.473-0.035-12.704
		c-0.059-2.142,0.236-3.36,2.879-3.244c4.68,0.207,9.375,0.053,14.064,0.061c1.325,0.002,2.746-0.341,2.677,1.912
		c-0.07,2.33-1.659,1.684-2.857,1.71c-3.024,0.065-6.069,0.233-9.07-0.038c-2.97-0.269-3.475,0.955-3.438,3.616
		c0.087,6.41-0.049,6.411,6.472,6.413c1.21,0,2.422,0.049,3.63-0.005c1.56-0.07,1.59,0.906,1.603,2.056
		c0.013,1.159-0.487,1.635-1.604,1.594c-0.604-0.022-1.21-0.008-1.815,0.003c-8.22,0.148-8.081,0.153-8.327,8.683
		c-0.055,1.918,1.923,5.503-1.818,5.681c-4.618,0.219-1.963-3.771-2.239-5.773C813.463,433.801,813.792,430.427,813.793,427.1z"/>
	<path fill-rule="evenodd" clip-rule="evenodd" fill="#1E1E1E" d="M1125.08,420.31c4.329-0.259,6.915,1.891,7.479,6.095
		c0.398,2.97,0.235,6.013,0.343,9.023c0.054,1.492-0.309,3.379,1.109,4.18c1.712,0.968,2.155,2.295,1.271,3.578
		c-1.057,1.538-3.063,0.919-3.983-0.087c-1.864-2.039-3.16-1.284-5.136-0.16c-3.925,2.233-8.445,0.772-10.035-2.833
		c-1.604-3.641-0.03-7.199,4.257-9.055c1.767-0.765,3.759-0.991,5.621-1.555c0.98-0.297,2.74,0.57,2.682-1.455
		c-0.044-1.542-0.492-2.991-2.17-3.645c-2.27-0.886-4.446-0.479-6.568,0.482c-0.944,0.428-1.709,0.556-2.073-0.684
		c-0.268-0.91-0.383-1.677,0.688-2.269C1120.599,420.802,1122.723,420.186,1125.08,420.31z"/>
	<path fill-rule="evenodd" clip-rule="evenodd" fill="#1E1E1E" d="M1356.618,432.1c-1.059,0-2.146-0.154-3.169,0.037
		c-1.502,0.28-3.788-1.077-4.376,0.841c-0.638,2.079,0.767,4.116,2.452,5.503c2.845,2.343,6.195,1.956,9.534,1.447
		c0.892-0.136,2.037-1.136,2.521,0.63c0.446,1.627-0.526,2.03-1.785,2.515c-5.046,1.941-11.458,0.607-14.626-3.151
		c-3.253-3.859-3.682-9.918-1.024-14.463c2.27-3.882,6.711-5.921,11.246-5.02c4.138,0.822,6.62,3.31,7.382,7.546
		c0.542,3.016-0.167,4.632-3.624,4.149C1359.667,431.927,1358.129,432.1,1356.618,432.1z"/>
	<path fill-rule="evenodd" clip-rule="evenodd" fill="#1E1E1E" d="M845.818,432.1c-1.361,0-2.729-0.087-4.081,0.025
		c-1.273,0.105-3.061-0.729-3.707,0.594c-0.775,1.588,0.331,3.256,1.339,4.563c2.867,3.715,6.834,3.229,10.788,2.581
		c0.989-0.162,2.063-0.86,2.403,0.869c0.271,1.378-0.489,1.792-1.572,2.268c-4.72,2.07-11.446,0.801-14.713-2.869
		c-3.441-3.865-3.918-10.199-1.117-14.829c2.316-3.827,6.833-5.8,11.336-4.83c3.926,0.846,6.36,3.214,7.154,7.244
		c0.617,3.13,0.045,5.023-3.752,4.418C848.569,431.922,847.179,432.1,845.818,432.1z"/>
	<path fill-rule="evenodd" clip-rule="evenodd" fill="#1E1E1E" d="M1095.057,432.1c-1.209,0-2.438-0.134-3.623,0.036
		c-1.375,0.197-3.385-0.988-4.006,0.801c-0.609,1.755,0.499,3.58,1.765,4.896c3.019,3.139,6.808,2.689,10.601,1.969
		c0.854-0.162,1.81-0.619,2.168,0.714c0.328,1.215-0.103,1.861-1.296,2.433c-4.836,2.318-12.099,0.815-15.382-3.317
		c-3.39-4.269-3.355-11.378,0.199-15.592c3.056-3.624,7.047-4.53,11.474-3.261c3.717,1.066,5.678,3.715,6.169,7.574
		c0.358,2.82-0.379,4.263-3.539,3.787C1098.107,431.916,1096.568,432.1,1095.057,432.1z"/>
	<path fill-rule="evenodd" clip-rule="evenodd" fill="#1E1E1E" d="M1017.133,432.1c-1.36,0-2.731-0.104-4.078,0.031
		c-1.257,0.126-2.993-0.785-3.669,0.671c-0.656,1.414,0.265,2.939,1.115,4.195c2.557,3.771,6.376,3.407,10.207,3.084
		c1.112-0.094,2.733-1.662,3.233,0.739c0.423,2.031-1.295,2.014-2.536,2.4c-5.584,1.734-11.396,0.191-14.392-3.821
		c-2.949-3.949-3.084-10.334-0.235-14.526c2.691-3.958,6.614-5.206,11.104-4.375c3.913,0.725,6.433,3.175,7.079,7.262
		c0.462,2.918,0.188,5.131-3.756,4.379C1019.895,431.889,1018.494,432.1,1017.133,432.1z"/>
	<path fill-rule="evenodd" clip-rule="evenodd" fill="#1E1E1E" d="M1303.703,437.523c-0.019-2.483,1.161-4.293,3.163-5.656
		c1.792-1.22,3.945-1.455,5.882-2.234c1.409-0.567,4.592,1.292,4.017-2.366c-0.489-3.116-2.937-3.49-5.531-3.289
		c-0.736,0.057-1.457,0.511-2.182,0.501c-0.97-0.012-2.01,2.029-2.912-0.04c-0.728-1.667,0.236-2.418,1.59-3.1
		c6.988-3.519,12.729-0.104,13.319,7.629c0.31,4.064-2.042,8.855,2.7,12.044c0.305,0.205,0.062,2.084-0.462,2.486
		c-1.162,0.893-2.872,0.646-3.76-0.333c-1.799-1.983-3.068-1.445-5.166-0.264C1309.348,445.724,1303.783,442.73,1303.703,437.523z"
		/>
	<path fill-rule="evenodd" clip-rule="evenodd" fill="#1E1E1E" d="M1222.579,420.684c3.294-1.061,4.792-0.003,5.789,2.783
		c1.465,4.093,3.35,8.037,5.082,12.032c0.105,0.244,0.444,0.387,0.75,0.639c1.604-4.235,3.399-8.374,4.716-12.659
		c0.909-2.957,2.466-3.82,5.632-2.826c-4.258,10.554-8.521,21.077-12.74,31.617c-0.988,2.467-2.9,1.457-4.604,1.476
		c-0.057-0.322-0.225-0.65-0.124-0.798c5.486-8.13,3.797-15.963-0.759-23.817C1224.827,426.559,1223.879,423.669,1222.579,420.684z"
		/>
	<path fill-rule="evenodd" clip-rule="evenodd" fill="#1F1F1F" d="M1279.946,431.443c0-3.022,0.1-6.049-0.031-9.065
		c-0.106-2.46,2.247-2.74,2.689-1.788c1.482,3.194,3.014,0.942,4.415,0.425c6.851-2.53,12.396,0.731,12.921,7.892
		c0.286,3.909,0.108,7.851,0.163,11.778c0.018,1.295-0.025,2.299-1.829,2.354c-1.953,0.06-2.213-0.877-2.184-2.474
		c0.064-3.474,0.173-6.961-0.05-10.422c-0.303-4.668-2.344-6.458-6.528-6.205c-4.127,0.25-5.842,2.354-5.514,6.526
		c0.259,3.304,0.027,6.645,0.06,9.969c0.016,1.479-0.051,2.578-2.087,2.621c-2.096,0.044-2.058-1.093-2.039-2.545
		C1279.973,437.488,1279.945,434.465,1279.946,431.443z"/>
	<path fill-rule="evenodd" clip-rule="evenodd" fill="#1F1F1F" d="M1139.073,431.327c-0.001-3.021,0.06-6.044-0.021-9.064
		c-0.055-2.065,1.843-2.691,2.451-1.714c1.863,2.991,3.505,0.776,5.173,0.243c6.466-2.066,11.724,1.088,12.364,7.827
		c0.385,4.044,0.112,8.149,0.198,12.226c0.029,1.398-0.179,2.196-1.919,2.204c-1.927,0.009-2.246-0.886-2.219-2.496
		c0.059-3.473,0.165-6.958-0.046-10.421c-0.286-4.703-2.258-6.458-6.485-6.181c-4.058,0.265-5.898,2.27-5.568,6.49
		c0.27,3.454,0.01,6.946,0.07,10.419c0.025,1.472-0.359,2.176-2.018,2.176c-1.673,0-2.026-0.74-1.999-2.193
		C1139.114,437.673,1139.073,434.5,1139.073,431.327z"/>
	<path fill-rule="evenodd" clip-rule="evenodd" fill="#1D1D1D" d="M890.689,431.653c0,3.021-0.027,6.041,0.012,9.061
		c0.018,1.326-0.275,2.922-1.797,2.17c-2.559-1.265-4.382,0.274-6.527,0.826c-4.696,1.206-9.215-1.406-9.762-6.206
		c-0.578-5.075-0.298-10.247-0.428-15.375c-0.034-1.333,0.497-1.836,1.847-1.863c1.503-0.03,2.151,0.401,2.16,2.028
		c0.025,4.37,0.024,8.756,0.392,13.105c0.255,3.018,1.938,5.122,5.366,4.829c2.877-0.246,4.844-1.475,4.783-4.807
		c-0.079-4.227,0.022-8.457-0.039-12.685c-0.022-1.575,0.189-2.551,2.163-2.489c1.795,0.056,1.85,1.042,1.838,2.344
		C890.67,425.612,890.689,428.633,890.689,431.653z"/>
	<path fill-rule="evenodd" clip-rule="evenodd" fill="#1F1F1F" d="M1078.204,425.278c-2.184-0.724-4.251-1.72-6.589-1.274
		c-1.438,0.274-2.669,0.899-2.911,2.423c-0.257,1.602,0.825,2.468,2.216,2.979c1.837,0.674,3.766,1.17,5.492,2.059
		c2.436,1.254,3.906,3.268,3.696,6.204c-0.225,3.138-2.033,4.943-4.915,5.766c-3.152,0.9-6.264,0.624-9.312-0.56
		c-1.769-0.687-2.256-2.013-1.537-3.613c0.9-2.005,1.952-0.083,2.923,0.086c0.581,0.102,1.11,0.561,1.687,0.624
		c2.485,0.271,5.67,1.306,6.634-1.89c0.965-3.196-2.204-3.724-4.448-4.489c-5.806-1.979-7.783-4.838-6.193-9.02
		c1.469-3.864,7.827-5.572,12.235-3.519C1079.528,422.147,1078.528,423.643,1078.204,425.278z"/>
	<path fill-rule="evenodd" clip-rule="evenodd" fill="#1F1F1F" d="M971.625,438.105c2.235,0.864,3.974,2.212,6.204,2.161
		c1.992-0.045,4.306,0.122,4.884-2.274c0.59-2.446-1.529-3.32-3.395-4.042c-0.981-0.379-2.038-0.564-3.027-0.927
		c-3.14-1.148-5.228-3.169-4.788-6.76c0.423-3.452,2.682-5.3,6.004-5.833c2.263-0.363,4.49-0.132,6.694,0.645
		c1.526,0.537,1.689,1.513,1.427,2.825c-0.35,1.748-1.439,1.027-2.41,0.727c-0.718-0.222-1.435-0.577-2.164-0.612
		c-2.093-0.1-4.596-0.491-5.253,2.227c-0.649,2.687,1.849,3.115,3.613,3.763c6.449,2.369,8.092,4.169,7.455,8.438
		c-0.596,3.997-4.64,6.179-10.45,5.33C973.521,443.349,969.98,443.076,971.625,438.105z"/>
	<path fill-rule="evenodd" clip-rule="evenodd" fill="#1F1F1F" d="M1326.302,438.032c2.791,1.135,5.128,2.644,8.023,2.217
		c1.627-0.24,3.09-0.727,3.4-2.432c0.318-1.738-0.939-2.796-2.403-3.41c-1.385-0.58-2.875-0.905-4.278-1.444
		c-2.933-1.126-4.931-3.058-4.63-6.439c0.308-3.463,2.449-5.426,5.771-6.043c2.248-0.418,4.474-0.212,6.703,0.505
		c1.733,0.558,2.062,1.608,1.638,3.096c-0.494,1.738-1.625,0.669-2.545,0.479c-1.025-0.212-2.05-0.575-3.079-0.591
		c-1.837-0.028-3.823,0.077-4.207,2.446c-0.353,2.184,1.396,2.744,2.991,3.317c0.425,0.153,0.841,0.333,1.273,0.46
		c3.279,0.966,6.423,2.114,6.889,6.173c0.318,2.78-0.471,5.146-3.164,6.416c-3.796,1.79-7.641,1.544-11.383-0.183
		C1325.082,441.575,1326.501,439.77,1326.302,438.032z"/>
	<path fill-rule="evenodd" clip-rule="evenodd" fill="#1F1F1F" d="M998.92,443.902c-4.051,0.062-6.024-2.001-6.176-5.761
		c-0.152-3.763-0.108-7.535-0.112-11.303c-0.001-1.555,0.175-3.134-2.189-2.937c-0.821,0.069-1.538-0.262-1.302-1.284
		c0.184-0.798-0.17-2.238,0.997-2.181c2.997,0.146,2.554-1.845,2.468-3.588c-0.094-1.919,0.737-2.7,2.623-2.802
		c2.479-0.135,1.734,1.716,1.616,2.774c-0.31,2.784,0.649,3.927,3.482,3.492c1.297-0.199,2.344,0.031,2.337,1.823
		c-0.007,1.83-1.129,1.97-2.383,1.773c-2.914-0.458-3.63,0.842-3.426,3.54c0.226,2.999,0.087,6.028,0.039,9.043
		c-0.031,1.994,0.237,3.699,2.762,3.737c1.524,0.022,3.117-0.208,2.702,2.229C1001.927,444.993,999.968,443.438,998.92,443.902z"/>
	<path fill-rule="evenodd" clip-rule="evenodd" fill="#1F1F1F" d="M915.469,432.09c-0.07-8.801,6.79-13.866,15.286-11.354
		c1.613,0.477,2.785,0.955,2.319,3.018c-0.559,2.473-1.938,1.085-3.058,0.733c-3.26-1.023-6.463-1.016-8.678,1.842
		c-2.417,3.119-2.346,6.814-0.766,10.311c1.562,3.456,4.734,3.836,8.067,3.569c0.599-0.048,1.198-0.14,1.788-0.257
		c0.986-0.196,2.091-0.873,2.56,0.727c0.456,1.557-0.432,2.031-1.729,2.544C923.249,446.391,915.54,440.991,915.469,432.09z"/>
	<path fill-rule="evenodd" clip-rule="evenodd" fill="#252525" d="M1247.684,424.795c0-4.518,0.035-9.038-0.019-13.556
		c-0.021-1.69,0.111-2.838,2.347-2.822c2.323,0.018,1.798,1.512,1.802,2.748c0.026,8.133,0.005,16.267,0.022,24.4
		c0.003,1.936-0.297,4.115,2.367,4.669c1.342,0.279,1.131,1.064,0.936,1.998c-0.254,1.218-0.873,1.772-2.184,1.689
		c-3.523-0.223-5.146-2.265-5.227-5.571c-0.109-4.516-0.027-9.037-0.027-13.555C1247.696,424.795,1247.69,424.795,1247.684,424.795z
		"/>
	<path fill-rule="evenodd" clip-rule="evenodd" fill="#252525" d="M896.384,424.245c-0.005-4.368,0.048-8.737-0.03-13.103
		c-0.033-1.798,0.326-2.768,2.454-2.714c2.357,0.06,1.686,1.665,1.691,2.836c0.045,8.133,0.018,16.267,0.029,24.401
		c0.002,1.958-0.207,4.073,2.466,4.6c1.39,0.274,0.963,1.194,0.811,2.062c-0.228,1.296-1.012,1.675-2.252,1.586
		c-3.541-0.253-5.071-2.379-5.139-5.661C896.317,433.584,896.389,428.914,896.384,424.245z"/>
	<path fill-rule="evenodd" clip-rule="evenodd" fill="#1C1C1C" d="M869.451,419.446c0.004,2.938-0.681,4.492-3.63,4.868
		c-2.394,0.305-3.687,2.101-3.503,4.911c0.246,3.748-0.038,7.527,0.101,11.286c0.073,1.979-0.578,2.547-2.542,2.547
		c-2.064,0-2.06-1.088-2.052-2.557c0.033-6.021,0-12.043,0.031-18.065c0.004-0.799-0.373-1.988,0.981-2.065
		c0.927-0.053,2.356-0.615,2.547,0.978c0.429,3.589,1.713,1.162,2.601,0.373C865.482,420.389,867.058,419.387,869.451,419.446z"/>
	<path fill-rule="evenodd" clip-rule="evenodd" fill="#202020" d="M1040.926,419.706c-0.527,2.08-0.027,4.271-3.464,4.527
		c-2.651,0.197-3.93,2.228-3.725,5.199c0.249,3.605-0.006,7.243,0.086,10.864c0.045,1.79-0.262,2.742-2.419,2.77
		c-2.409,0.031-2.188-1.375-2.184-2.913c0.016-5.586-0.043-11.172,0.046-16.756c0.019-1.125-0.878-2.866,1.419-3.108
		c2.283-0.241,2.24,1.467,2.438,3.083C1035.745,422.113,1037.188,418.877,1040.926,419.706z"/>
	<path fill-rule="evenodd" clip-rule="evenodd" fill="#292929" d="M906.833,431.449c0-2.852-0.011-5.703,0.004-8.554
		c0.007-1.292-0.386-2.734,1.866-2.674c1.775,0.047,2.335,0.672,2.316,2.387c-0.066,6.002-0.06,12.005-0.003,18.008
		c0.016,1.642-0.397,2.411-2.25,2.454c-2.175,0.05-1.94-1.261-1.936-2.616C906.84,437.452,906.833,434.451,906.833,431.449z"/>
	<path fill-rule="evenodd" clip-rule="evenodd" fill="#2F2F2F" d="M908.748,415.77c-2.195,0.36-1.871-1.167-1.943-2.503
		c-0.079-1.441,0.286-2.14,1.941-2.133c1.755,0.008,2.322,0.651,2.313,2.354C911.049,415.173,910.536,416.043,908.748,415.77z"/>
	<path fill-rule="evenodd" clip-rule="evenodd" fill="#1D1D1D" d="M825.91,330.422c-2.788,0.098-5.383-0.514-7.742-2.056
		c-1.669-1.091-3.063-3.122-2.326-4.52c1.797-3.414,1.691-7.099,2.669-10.564c0.421-1.493,0.569-2.053-0.374-3.185
		c-2.762-3.317-2.746-6.978-0.488-10.476c2.238-3.466,5.846-4.304,9.575-3.434c2.384,0.557,4.5,1.286,6.837-0.03
		c0.707-0.398,2.068-0.579,2.373,0.434c0.255,0.848,0.212,2.636-0.807,2.715c-2.676,0.208-1.981,1.227-1.523,3.072
		c1.516,6.112-2.556,10.681-9.239,10.822c-1.181,0.025-3.101-1.037-3.292,1.071c-0.167,1.836,1.852,1.671,3.047,2.006
		c2.606,0.729,5.316,1.114,7.887,1.941c2.345,0.754,4.468,2.01,4.606,4.936c0.144,3.036-1.789,4.647-4.188,5.853
		C830.73,330.113,828.37,330.549,825.91,330.422z"/>
	<path fill-rule="evenodd" clip-rule="evenodd" fill="#202020" d="M782.487,297.964c0-4.057,0.006-7.668-0.003-11.28
		c-0.003-1.359-0.246-2.66,1.941-2.619c1.938,0.036,2.194,0.938,2.188,2.517c-0.036,9.944-0.071,19.888,0.021,29.831
		c0.021,2.315-1.784,3.002-2.711,2.019c-2.035-2.155-3.271-0.402-4.77,0.263c-3.573,1.585-6.76,0.915-9.626-1.574
		c-4.47-3.883-5.37-11.314-2.046-16.538C770.584,295.704,775.591,294.749,782.487,297.964z"/>
	<path fill-rule="evenodd" clip-rule="evenodd" fill="#1D1D1D" d="M717.87,304.013c0-5.618,0.029-9.993-0.015-14.367
		c-0.017-1.62-0.074-2.908,2.258-2.838c4.974,0.148,9.955,0.063,14.933,0.033c1.34-0.008,2.29,0.085,2.269,1.885
		c-0.021,1.879-1.149,1.766-2.381,1.762c-2.112-0.007-4.224-0.001-6.336-0.001c-6.351,0-8.042,2.333-6.494,8.563
		c0.384,1.546,1.28,1.398,2.297,1.408c2.564,0.023,5.129,0.049,7.693-0.001c1.45-0.029,2.227,0.356,2.159,2.028
		c-0.063,1.558-0.991,1.615-2.102,1.615c-0.905,0-1.81,0.002-2.715,0.004c-7.749,0.011-8.554,1.106-7.351,9.079
		c0.266,1.76,1.093,1.823,2.381,1.814c3.167-0.021,6.34-0.106,9.501,0.042c1.368,0.064,3.647-1.083,3.58,1.882
		c-0.06,2.623-2.095,1.657-3.348,1.663c-5.257,0.025-12.128,1.865-15.329-0.742C715.528,315.12,718.407,307.963,717.87,304.013z"/>
	<path fill-rule="evenodd" clip-rule="evenodd" fill="#1E1E1E" d="M902.869,295.934c4.131-0.248,6.721,1.897,7.286,6.103
		c0.4,2.969,0.237,6.013,0.344,9.023c0.053,1.492-0.312,3.386,1.106,4.181c1.724,0.966,2.152,2.298,1.278,3.579
		c-1.053,1.542-3.061,0.923-3.983-0.082c-1.863-2.031-3.155-1.295-5.135-0.165c-3.922,2.238-8.444,0.777-10.036-2.827
		c-1.608-3.639-0.036-7.2,4.249-9.057c1.766-0.766,3.76-0.992,5.621-1.556c0.983-0.298,2.742,0.569,2.688-1.451
		c-0.042-1.542-0.488-2.991-2.167-3.647c-2.27-0.888-4.446-0.482-6.569,0.479c-0.939,0.426-1.71,0.566-2.075-0.678
		c-0.267-0.908-0.381-1.667,0.683-2.272C898.187,296.409,900.328,295.865,902.869,295.934z"/>
	<path fill-rule="evenodd" clip-rule="evenodd" fill="#1E1E1E" d="M940.442,313.289c-0.149-2.499,0.966-4.306,2.98-5.703
		c1.785-1.238,3.911-1.498,5.841-2.275c1.423-0.574,4.56,1.25,4.097-2.345c-0.453-3.525-3.224-3.189-5.855-3.423
		c-1.656-0.147-4.295,3.695-4.794-0.441c-0.33-2.742,3.14-2.703,5.162-3.029c6.262-1.011,9.42,1.647,9.798,8.023
		c0.142,2.406-0.004,4.827,0.04,7.24c0.026,1.493-0.217,3.316,1.299,4.1c1.9,0.983,1.856,2.433,0.909,3.591
		c-0.956,1.167-2.917,0.764-3.657-0.195c-1.979-2.564-3.544-1.092-5.526-0.122C945.749,321.151,940.585,318.341,940.442,313.289z"/>
	<path fill-rule="evenodd" clip-rule="evenodd" fill="#1E1E1E" d="M993.684,307.736c-1.512,0-3.023-0.014-4.534,0.002
		c-4.073,0.044-4.544,0.83-2.544,4.367c2.513,4.443,6.668,3.965,10.799,3.549c1.033-0.104,2.393-1.376,2.912,0.649
		c0.514,2.006-1.066,2.103-2.361,2.517c-5.545,1.777-11.374,0.314-14.441-3.669c-3.11-4.04-3.231-10.668-0.171-14.891
		c2.8-3.864,6.766-5.022,11.229-4.064c3.898,0.837,6.226,3.406,6.853,7.494c0.462,3.006-0.231,4.614-3.664,4.08
		C996.432,307.563,995.044,307.736,993.684,307.736z"/>
	<path fill-rule="evenodd" clip-rule="evenodd" fill="#1E1E1E" d="M790.804,307.471c0.121-6.918,4.672-11.625,11.162-11.543
		c6.406,0.081,10.966,5.035,10.927,11.87c-0.04,7.079-4.786,11.938-11.465,11.739C795.002,319.345,790.682,314.438,790.804,307.471z
		"/>
	<path fill-rule="evenodd" clip-rule="evenodd" fill="#1F1F1F" d="M741.469,306.893c0.002-3.021,0.055-6.044-0.016-9.064
		c-0.051-2.155,2.004-2.531,2.514-1.632c1.635,2.883,3.188,0.93,4.753,0.379c6.653-2.339,12.083,0.817,12.726,7.749
		c0.375,4.046,0.097,8.15,0.195,12.227c0.036,1.478-0.34,2.167-1.997,2.123c-1.537-0.042-2.153-0.539-2.144-2.102
		c0.023-3.773-0.005-7.548-0.125-11.319c-0.132-4.139-2.394-5.997-6.478-5.66c-3.723,0.308-5.794,1.972-5.495,6.102
		c0.25,3.457,0.021,6.946,0.064,10.42c0.019,1.493-0.022,2.595-2.086,2.566c-2.189-0.029-1.908-1.389-1.911-2.725
		C741.464,312.936,741.468,309.914,741.469,306.893z"/>
	<path fill-rule="evenodd" clip-rule="evenodd" fill="#1F1F1F" d="M916.668,307.158c0-3.021,0.069-6.045-0.026-9.063
		c-0.058-1.848,1.399-3.053,2.272-1.938c2.1,2.68,3.745,0.779,5.608,0.208c6.255-1.92,11.417,1.21,12.087,7.698
		c0.418,4.039,0.17,8.147,0.205,12.225c0.01,1.181,0.253,2.414-1.706,2.387c-1.689-0.022-2.466-0.463-2.418-2.29
		c0.091-3.472,0.16-6.957-0.03-10.421c-0.267-4.825-2.101-6.561-6.299-6.387c-4.342,0.18-5.697,1.778-5.708,6.755
		c-0.007,3.324-0.015,6.647,0.003,9.971c0.007,1.278,0.01,2.317-1.81,2.372c-1.927,0.059-2.245-0.835-2.203-2.453
		C916.724,313.203,916.667,310.18,916.668,307.158z"/>
	<path fill-rule="evenodd" clip-rule="evenodd" fill="#1D1D1D" d="M868.903,307.562c0,2.869,0.015,5.739-0.007,8.608
		c-0.009,1.152-0.114,3.255-1.557,2.309c-2.921-1.916-4.726,0.531-7.006,0.961c-5.003,0.945-9.149-1.797-9.626-7.013
		c-0.439-4.796-0.183-9.653-0.32-14.48c-0.046-1.617,0.62-2.035,2.135-2.051c1.783-0.019,1.881,0.983,1.867,2.308
		c-0.032,3.02-0.099,6.044,0.026,9.06c0.074,1.792,0.297,3.624,0.79,5.341c0.804,2.806,2.991,3.659,5.68,3.187
		c2.472-0.435,4.107-1.713,4.062-4.551c-0.068-4.228-0.012-8.457-0.019-12.685c-0.001-1.375-0.197-2.664,1.962-2.677
		c2.128-0.014,2.033,1.199,2.021,2.624C868.887,301.521,868.903,304.542,868.903,307.562z"/>
	<path fill-rule="evenodd" clip-rule="evenodd" fill="#1F1F1F" d="M969.029,319.531c-0.362-0.051-1.606-0.049-2.728-0.419
		c-1.755-0.579-4.364-0.824-3.39-3.667c1.117-3.26,2.653,0.104,4.025,0.036c1.326-0.066,2.673,0.367,4.009,0.353
		c1.583-0.016,3.087-0.523,3.373-2.352c0.274-1.76-0.854-2.826-2.346-3.427c-1.526-0.615-3.158-0.976-4.673-1.615
		c-2.723-1.148-4.44-3.042-4.185-6.242c0.266-3.302,2.169-5.205,5.237-5.964c2.539-0.628,5.062-0.396,7.547,0.527
		c1.524,0.565,1.588,1.554,1.262,2.861c-0.444,1.781-1.505,0.871-2.439,0.617c-0.863-0.234-1.728-0.566-2.606-0.622
		c-2-0.124-4.233-0.123-4.747,2.332c-0.49,2.341,1.589,2.931,3.3,3.555c0.562,0.206,1.168,0.288,1.734,0.482
		c4.879,1.677,6.765,4.173,6.137,8.099C977.974,317.623,974.85,319.589,969.029,319.531z"/>
	<path fill-rule="evenodd" clip-rule="evenodd" fill="#1F1F1F" d="M873.264,307.506c0.035-8.738,7.191-13.78,15.511-11.085
		c1.875,0.607,2.378,1.436,1.928,3.247c-0.684,2.752-2.111,0.613-2.996,0.376c-3.309-0.885-6.523-0.9-8.655,2.014
		c-2.301,3.148-2.197,6.862-0.603,10.346c1.493,3.265,4.529,3.653,7.697,3.476c0.601-0.034,1.195-0.211,1.795-0.231
		c0.99-0.032,2.315-1.372,2.772,0.787c0.43,2.033-1.034,2.167-2.311,2.58C880.207,321.666,873.229,316.363,873.264,307.506z"/>
	<path fill-rule="evenodd" clip-rule="evenodd" fill="#262626" d="M844.09,299.355c0.002,3.768-0.049,7.537,0.021,11.303
		c0.04,2.146-0.649,4.668,2.638,5.364c1.383,0.292,0.439,1.464,0.393,2.254c-0.074,1.263-0.983,1.309-1.93,1.271
		c-3.234-0.128-5.236-1.906-5.294-5.023c-0.178-9.492-0.063-18.988-0.121-28.482c-0.01-1.694,0.852-1.936,2.255-1.958
		c1.588-0.025,2.076,0.657,2.056,2.16C844.051,290.614,844.089,294.985,844.09,299.355z"/>
	<path fill-rule="evenodd" clip-rule="evenodd" fill="#1D1D1D" d="M811.011,206.061c-2.788,0.059-5.425-0.5-7.709-2.166
		c-1.695-1.237-3.082-3.246-2.247-5.033c1.354-2.9,2.089-5.55,2.26-8.854c0.106-2.053,0.752-3.416-0.675-5.422
		c-2.105-2.958-1.707-6.404,0.274-9.381c2.165-3.253,5.576-4.149,9.197-3.462c2.498,0.474,4.817,1.573,7.337,0.034
		c0.585-0.357,2.011-0.675,2.148,0.604c0.104,0.966,0.679,2.728-1.253,2.763c-1.833,0.033-1.69,0.547-1.271,2.091
		c1.852,6.82-1.875,11.46-9.032,11.604c-1.07,0.021-2.698-0.973-3.111,0.743c-0.479,1.994,1.425,1.929,2.639,2.249
		c2.77,0.729,5.608,1.226,8.332,2.09c2.387,0.757,4.444,2.132,4.513,5.027c0.066,2.783-1.7,4.36-3.959,5.557
		C816.117,205.741,813.623,206.167,811.011,206.061z"/>
	<path fill-rule="evenodd" clip-rule="evenodd" fill="#1D1D1D" d="M732.566,178.284c0-4.229,0.169-8.467-0.062-12.682
		c-0.147-2.699,0.879-3.266,3.333-3.164c4.372,0.181,8.757,0.016,13.136,0.073c1.341,0.018,3.191-0.665,3.102,1.932
		c-0.081,2.299-1.732,1.626-2.919,1.656c-3.019,0.076-6.053,0.201-9.056-0.027c-2.657-0.202-3.487,0.8-3.178,3.307
		c0.165,1.339,0.161,2.73,0.001,4.07c-0.275,2.312,0.813,2.822,2.866,2.69c2.255-0.145,4.528-0.026,6.793-0.034
		c1.231-0.004,2.351-0.13,2.374,1.759c0.022,1.807-0.912,1.913-2.257,1.887c-2.264-0.043-4.544,0.148-6.791-0.053
		c-2.421-0.216-2.986,0.688-3.021,3.031c-0.12,7.903-0.226,7.901,7.622,7.901c1.963,0,3.926,0.012,5.89,0.001
		c1.173-0.006,1.995,0.214,2.009,1.714c0.012,1.36-0.471,1.923-1.806,1.919c-5.437-0.017-10.874-0.045-16.31,0.017
		c-1.891,0.021-1.728-1.183-1.726-2.406C732.57,187.344,732.566,182.814,732.566,178.284z"/>
	<path fill-rule="evenodd" clip-rule="evenodd" fill="#1F1F1F" d="M935.039,171.567c4.272-0.158,6.768,1.754,7.591,6.07
		c0.604,3.169,0.194,6.327,0.403,9.481c0.097,1.466-0.311,3.371,1.354,4.038c1.952,0.782,1.636,2.161,0.976,3.19
		c-1.068,1.667-3.018,1.041-3.943,0.069c-1.811-1.899-3.005-1.574-5.09-0.284c-3.806,2.354-8.558,0.882-10.112-2.621
		c-1.7-3.828,0.026-7.54,4.538-9.358c1.658-0.668,3.499-0.862,5.223-1.382c0.985-0.297,2.696,0.599,2.754-1.386
		c0.046-1.593-0.465-3.01-2.102-3.68c-2.083-0.852-4.108-0.552-6.163,0.243c-0.805,0.313-1.943,1.395-2.556-0.369
		c-0.501-1.441,0.13-2.252,1.417-2.806C931.157,171.987,933.029,171.466,935.039,171.567z"/>
	<path fill-rule="evenodd" clip-rule="evenodd" fill="#1E1E1E" d="M888.325,171.576c4.277-0.228,6.784,2.011,7.327,6.193
		c0.386,2.973,0.223,6.016,0.324,9.026c0.055,1.644-0.232,3.626,1.518,4.449c1.915,0.9,1.396,2.295,0.808,3.3
		c-0.726,1.241-2.595,0.93-3.205,0.197c-2.367-2.847-4.356-1.167-6.754-0.102c-3.712,1.65-7.78-0.017-9.187-3.346
		c-1.479-3.5-0.009-6.997,3.979-8.829c1.749-0.803,3.749-1.041,5.589-1.668c1.076-0.368,3.062,0.753,3.031-1.575
		c-0.026-2.021-1.013-3.455-3.104-3.868c-1.825-0.36-3.592-0.125-5.295,0.663c-0.948,0.438-1.929,1.002-2.458-0.63
		c-0.426-1.314,0.162-1.927,1.214-2.461C884.036,171.945,886.059,171.469,888.325,171.576z"/>
	<path fill-rule="evenodd" clip-rule="evenodd" fill="#1E1E1E" d="M970.635,183.373c1.635,7.162,4.31,8.822,11.683,7.985
		c1.108-0.126,2.805-1.603,3.314,0.707c0.524,2.375-1.635,2.149-2.921,2.505c-4.813,1.333-9.391,0.843-13.048-2.814
		c-3.545-3.545-3.978-8.04-2.675-12.65c1.479-5.232,6.465-8.227,11.95-7.468c4.715,0.652,7.699,4.226,7.874,9.015
		c0.081,2.205-0.574,2.857-2.773,2.771C979.674,183.252,975.299,183.373,970.635,183.373z"/>
	<path fill-rule="evenodd" clip-rule="evenodd" fill="#1F1F1F" d="M798.095,183.563c-0.084,6.933-4.597,11.654-11.099,11.612
		c-6.713-0.044-10.996-4.852-10.867-12.198c0.122-6.938,4.665-11.563,11.21-11.414C793.737,171.709,798.179,176.665,798.095,183.563
		z"/>
	<path fill-rule="evenodd" clip-rule="evenodd" fill="#212121" d="M901.846,182.739c-0.001-3.018,0.084-6.038-0.032-9.051
		c-0.075-1.958,1.721-2.894,2.351-1.988c1.978,2.843,3.649,0.903,5.522,0.31c6.057-1.918,11.172,0.923,12.019,7.143
		c0.585,4.302,0.288,8.722,0.451,13.087c0.061,1.602-0.657,2.059-2.152,2.062c-1.523,0.003-2.149-0.521-2.129-2.092
		c0.05-3.77,0.026-7.542-0.059-11.312c-0.086-3.871-2.103-5.791-6.015-5.691c-4.253,0.107-5.816,1.711-5.838,6.109
		c-0.019,3.621-0.05,7.243,0.016,10.863c0.026,1.459-0.309,2.189-1.981,2.136c-1.502-0.049-2.205-0.476-2.172-2.07
		C901.893,189.077,901.847,185.908,901.846,182.739z"/>
	<path fill-rule="evenodd" clip-rule="evenodd" fill="#202020" d="M854.216,183.252c0,1.513,0.393,3.166-0.087,4.507
		c-0.821,2.298,3.179,9.038-4.629,5.498c-0.167-0.076-0.505,0.291-0.784,0.393c-8.644,3.168-12.617,0.65-13.086-8.457
		c-0.194-3.773,0.021-7.564-0.074-11.345c-0.046-1.79,0.651-2.309,2.384-2.335c1.936-0.03,1.754,1.139,1.753,2.356
		c-0.003,3.177,0.021,6.354-0.008,9.532c-0.019,1.994,0.209,3.943,1.128,5.726c1.147,2.225,3.165,2.718,5.411,2.28
		c2.269-0.442,3.899-1.626,3.878-4.248c-0.014-1.664-0.355-3.427,0.074-4.973c0.971-3.501-2.525-10.064,2.132-10.003
		c4.449,0.057,0.663,6.675,1.896,10.166C854.298,182.618,854.216,182.95,854.216,183.252z"/>
	<path fill-rule="evenodd" clip-rule="evenodd" fill="#1F1F1F" d="M774.539,194.05c-6.889,1.379-6.142-5.718-9.788-7.897
		c-3.732,1.678-2.999,9.447-10.676,7.672c8.418-7.137,9.038-14.39,0.322-21.591c3.711-0.627,3.711-0.627,10.304,7.564
		c3.459-2.207,2.411-9.396,9.143-8.118c0.435,1.387-0.627,2.279-1.32,2.978c-5.463,5.512-5.026,10.828,0.175,16.211
		C773.485,191.682,773.877,192.876,774.539,194.05z"/>
	<path fill-rule="evenodd" clip-rule="evenodd" fill="#1F1F1F" d="M962.072,176.658c-2.187-0.888-4.139-1.731-6.339-1.42
		c-1.605,0.227-3.021,0.811-3.23,2.599c-0.19,1.614,0.966,2.403,2.353,2.89c1.704,0.599,3.472,1.078,5.086,1.866
		c2.638,1.289,4.228,3.357,3.962,6.49c-0.267,3.146-2.172,4.889-5.039,5.669c-2.996,0.814-5.974,0.589-8.889-0.495
		c-1.634-0.608-2.556-1.603-1.916-3.437c0.899-2.583,2.108-0.258,3.15-0.134c0.729,0.086,1.415,0.64,2.136,0.679
		c2.333,0.125,5.351,1.01,6.116-2.141c0.712-2.929-2.064-3.565-4.229-4.269c-3.024-0.983-6.258-1.727-6.771-5.68
		c-0.391-3.014,0.657-5.455,3.421-6.756c3.322-1.565,6.798-1.454,10.001,0.362C963.17,173.609,962.309,175.05,962.072,176.658z"/>
	<path fill-rule="evenodd" clip-rule="evenodd" fill="#1F1F1F" d="M875.556,176.639c-0.866-0.297-1.716-0.599-2.574-0.879
		c-3.263-1.069-6.477-0.982-8.659,1.9c-2.38,3.144-2.292,6.866-0.689,10.346c1.48,3.217,4.499,3.73,7.699,3.498
		c0.75-0.055,1.494-0.206,2.24-0.313c0.949-0.137,2.068-0.937,2.43,0.838c0.33,1.613-0.572,2.023-1.845,2.502
		c-4.772,1.795-10.705,0.259-13.504-3.622c-3.016-4.181-2.832-11.822,0.381-15.776c2.722-3.35,9.027-4.715,13.38-2.897
		C876.197,172.978,876.197,172.978,875.556,176.639z"/>
	<path fill-rule="evenodd" clip-rule="evenodd" fill="#242424" d="M825.144,175.347c0-4.384,0.03-8.769-0.018-13.152
		c-0.017-1.507,0.053-2.552,2.091-2.502c2.042,0.05,2.076,1.181,2.072,2.646c-0.018,8.012-0.047,16.025,0.021,24.037
		c0.017,2-0.55,4.39,2.384,5.167c1.606,0.426,0.788,1.72,0.657,2.629c-0.182,1.263-1.3,1.052-2.147,0.979
		c-3.483-0.304-5.049-2.361-5.056-5.744C825.138,184.72,825.145,180.033,825.144,175.347z"/>
	<path fill-rule="evenodd" clip-rule="evenodd" fill="#4995F9" d="M1664.634,254.176c-7.579,0.02-12.665-5.079-12.411-12.441
		c0.244-7.057,5.482-11.688,12.537-11.146c3.308,0.255,5.673,1.866,7.157,4.771c2.529,4.949,1.271,7.012-4.223,7.017
		c-2.866,0.003-5.739,0.103-8.6-0.027c-2.344-0.106-2.372,0.87-1.777,2.708c1.339,4.14,4.41,5.493,8.373,5.443
		c1.187-0.015,2.366-0.401,3.555-0.584c1.037-0.161,2.174-0.467,2.572,0.997c0.438,1.601-0.591,2.022-1.849,2.494
		C1668.222,254.063,1666.448,254.168,1664.634,254.176z"/>
	<path fill-rule="evenodd" clip-rule="evenodd" fill="#4894F9" d="M1640.332,239.246c0-2.113,0-4.227,0-6.34
		c0-6.987,0.002-7.01-6.917-7.767c-1.283-0.14-2.428-0.143-2.36-1.922c0.069-1.818,1.349-1.708,2.546-1.711
		c6.038-0.015,12.076,0.012,18.114-0.017c1.428-0.007,2.3,0.351,2.214,2.021c-0.076,1.516-1.047,1.518-2.158,1.629
		c-2.203,0.221-5.338-1.117-6.387,0.703c-1.127,1.957-0.548,4.942-0.573,7.48c-0.052,5.584-0.032,11.17-0.008,16.754
		c0.008,1.748,0.12,3.315-2.473,3.221c-2.502-0.091-1.963-1.787-1.981-3.184C1640.299,246.491,1640.332,242.868,1640.332,239.246z"
		/>
	<path fill-rule="evenodd" clip-rule="evenodd" fill="#4B96F9" d="M1676.717,241.961c0.004-3.015,0.069-6.03-0.016-9.042
		c-0.074-2.607,2.407-3.124,3.053-1.994c2.013,3.522,3.141,0.757,4.608-0.145c1.036-0.637,2.104-1.302,3.376-0.94
		c0.987,0.282,0.633,1.184,0.646,1.887c0.033,1.613-0.669,2.355-2.358,2.618c-3.623,0.562-4.925,2.86-4.617,6.469
		c0.242,2.843,0.126,5.726,0.018,8.585c-0.061,1.6,0.851,3.813-2.23,3.892c-3.438,0.089-2.363-2.381-2.45-4.097
		C1676.623,246.789,1676.715,244.372,1676.717,241.961z"/>
	<path fill-rule="evenodd" clip-rule="evenodd" fill="#FDFDFD" d="M857.883,50.848c3.816,0.104,6.882,4.03,6.743,8.635
		c-0.136,4.538-3.211,7.867-7.094,7.68c-3.706-0.179-6.171-3.682-6.041-8.584C851.616,53.862,854.191,50.748,857.883,50.848z"/>
	<path fill-rule="evenodd" clip-rule="evenodd" fill="#FDFDFD" d="M997.64,58.946c0.003-4.751,2.392-7.961,6.025-8.099
		c3.845-0.146,7.081,3.617,7.11,8.269c0.028,4.552-2.849,7.994-6.726,8.046C1000.259,67.213,997.637,63.854,997.64,58.946z"/>
	<path fill-rule="evenodd" clip-rule="evenodd" fill="#FCFCFC" d="M1365.242,50.846c3.686-0.103,6.901,3.451,7.122,7.874
		c0.233,4.671-2.807,8.422-6.842,8.446c-3.626,0.021-6.262-3.188-6.422-7.817C1358.934,54.49,1361.49,50.95,1365.242,50.846z"/>
	<path fill-rule="evenodd" clip-rule="evenodd" fill="#F8F8F8" d="M1069.201,57.074c-3.417,0-6.117,0-9.299,0
		c1.492-4.184,2.893-8.109,4.575-12.826C1066.172,48.851,1067.611,52.759,1069.201,57.074z"/>
	<path fill-rule="evenodd" clip-rule="evenodd" fill="#FDFDFD" d="M1121.093,59.193c-0.036-4.704,2.727-8.277,6.458-8.35
		c3.806-0.074,6.433,3.303,6.407,8.238c-0.023,4.69-2.488,7.949-6.116,8.086C1123.945,67.315,1121.129,63.989,1121.093,59.193z"/>
	<path fill-rule="evenodd" clip-rule="evenodd" fill="#F6F6F6" d="M1264.659,60.023c2.059-0.531,2.615,0.259,2.652,2.29
		c0.068,3.785-2.499,4.459-5.284,4.825c-2.026,0.266-3.895-0.568-3.755-2.844C1258.517,60.329,1262.005,60.642,1264.659,60.023z"/>
	<path fill-rule="evenodd" clip-rule="evenodd" fill="#F5F5F5" d="M885.576,62.588c-0.094,3.58-2.661,4.313-5.499,4.569
		c-2.157,0.196-3.792-0.975-3.5-3.09c0.559-4.04,4.188-3.602,7.036-4.09C885.77,59.608,885.582,61.186,885.576,62.588z"/>
	<path fill-rule="evenodd" clip-rule="evenodd" fill="#F5F5F5" d="M1393.049,61.693c-0.052,4.408-2.606,5.177-5.449,5.462
		c-2.122,0.213-3.821-0.849-3.576-3.007c0.468-4.1,4.11-3.647,6.947-4.165C1393.042,59.605,1393.145,60.973,1393.049,61.693z"/>
	<path fill-rule="evenodd" clip-rule="evenodd" fill="#F5F5F5" d="M1104.619,59.99c2.308-0.518,2.494,0.821,2.457,2.565
		c-0.079,3.685-2.694,4.321-5.503,4.598c-2.147,0.212-3.746-0.938-3.504-3.085C1098.506,60.199,1101.996,60.636,1104.619,59.99z"/>
	<path fill-rule="evenodd" clip-rule="evenodd" fill="#FAFAFA" d="M1023.272,56.284c0.89-3.539,2.72-5.227,5.778-5.431
		c2.257-0.15,4.198,0.512,5.255,2.708c0.783,1.627,0.9,2.855-1.599,2.753C1029.707,56.191,1026.699,56.284,1023.272,56.284z"/>
	<path fill-rule="evenodd" clip-rule="evenodd" fill="#F8F8F8" d="M917.76,56.29c0.69-3.338,2.448-5.081,5.482-5.418
		c2.24-0.25,4.272,0.308,5.41,2.446c0.896,1.682,1.199,3.151-1.665,3.006C924.014,56.172,921.026,56.29,917.76,56.29z"/>
	<path fill-rule="evenodd" clip-rule="evenodd" fill="#F8F8F8" d="M1425.18,56.291c0.789-3.402,2.53-5.039,5.354-5.411
		c2.041-0.269,3.956,0.148,5.242,1.933c0.606,0.84,1.255,1.892,0.772,2.92c-0.45,0.954-1.587,0.527-2.424,0.541
		C1431.265,56.319,1428.405,56.291,1425.18,56.291z"/>
	<path fill-rule="evenodd" clip-rule="evenodd" fill="#FCFCFC" d="M1180.546,59.145c-0.062-5.135,2.509-8.274,6.797-8.303
		c4.133-0.027,6.69,2.895,6.827,7.8c0.146,5.169-2.335,8.398-6.547,8.525C1183.284,67.297,1180.608,64.264,1180.546,59.145z"/>
	<path fill-rule="evenodd" clip-rule="evenodd" fill="#FDFDFD" d="M1319.139,59.146c-0.038,5.201-2.627,8.177-6.978,8.02
		c-4.065-0.147-6.579-3.213-6.619-8.07c-0.041-5.048,2.63-8.249,6.89-8.252C1316.726,50.838,1319.179,53.875,1319.139,59.146z"/>
	<path fill-rule="evenodd" clip-rule="evenodd" fill="#FDFDFD" d="M811.699,58.959c0.013,5.252-2.477,8.26-6.793,8.208
		c-4.242-0.05-6.885-3.289-6.804-8.338c0.078-4.853,2.624-7.887,6.704-7.989C809.128,50.733,811.686,53.745,811.699,58.959z"/>
	<path fill-rule="evenodd" clip-rule="evenodd" fill="#F5F5F5" d="M954.378,67.185c-2.393,0.035-4.177-0.601-4.019-2.938
		c0.272-3.992,3.705-3.664,6.413-4.226c1.937-0.402,2.646,0.273,2.639,2.344C959.397,66.126,956.719,66.586,954.378,67.185z"/>
	<path fill-rule="evenodd" clip-rule="evenodd" fill="#FDFDFD" d="M134.344,242.243c0.033,5.088-2.447,8.357-6.288,8.286
		c-3.735-0.069-6.46-3.298-6.559-7.769c-0.107-4.885,2.824-8.584,6.769-8.543C131.938,234.255,134.312,237.392,134.344,242.243z"/>
	<path fill-rule="evenodd" clip-rule="evenodd" fill="#F6F6F6" d="M165.206,245.28c0.319,4.097-2.346,4.847-5.144,5.228
		c-2.005,0.272-3.956-0.504-3.803-2.779c0.281-4.202,3.932-3.808,6.801-4.365C164.984,242.989,165.565,243.848,165.206,245.28z"/>
	<path fill-rule="evenodd" clip-rule="evenodd" fill="#FDFDFD" d="M470.021,243.202c-0.597-2.784-0.087-4.963,4.715-4.58
		c6.243,0.498,8.31,1.555,8.195,5.878c-0.105,3.979-2.145,4.771-8.801,5.257C468.882,250.141,470.185,246.858,470.021,243.202z"/>
	<path fill-rule="evenodd" clip-rule="evenodd" fill="#FDFDFD" d="M470.063,230.055c0.094-2.545-0.994-5.502,3.432-5
		c3.368,0.382,6.833-0.02,6.892,4.91c0.056,4.683-2.867,4.916-6.541,5.266C468.757,235.715,470.28,232.344,470.063,230.055z"/>
	<path fill-rule="evenodd" clip-rule="evenodd" fill="#FDFDFD" d="M442.987,230.801c0.149-2.841-1.393-6.463,4.265-5.804
		c5.331,0.622,7.893,1.951,7.95,5.849c0.063,4.3-2.31,5.653-7.951,6.198C441.261,237.623,443.292,233.618,442.987,230.801z"/>
	<path fill-rule="evenodd" clip-rule="evenodd" fill="#FCFCFC" d="M840.156,615.514c0.026-4.704,2.867-8.234,6.604-8.207
		c3.744,0.027,6.465,3.61,6.365,8.38c-0.096,4.551-2.771,7.888-6.362,7.938C842.855,623.678,840.129,620.333,840.156,615.514z"/>
	<path fill-rule="evenodd" clip-rule="evenodd" fill="#FCFCFC" d="M1058.921,615.361c0.035,5.055-2.509,8.37-6.344,8.27
		c-3.707-0.098-6.528-3.405-6.651-7.797c-0.132-4.678,3.027-8.575,6.915-8.531C1056.519,607.343,1058.888,610.483,1058.921,615.361z
		"/>
	<path fill-rule="evenodd" clip-rule="evenodd" fill="#FCFCFC" d="M965.117,615.525c-0.013,4.918-2.294,8.011-5.977,8.1
		c-3.882,0.096-6.849-3.333-6.888-7.959c-0.041-4.806,3.077-8.514,7.025-8.354C962.95,607.462,965.129,610.529,965.117,615.525z"/>
	<path fill-rule="evenodd" clip-rule="evenodd" fill="#F8F8F8" d="M1176.631,618.605c0.232,3.938-2.396,4.649-5.197,4.998
		c-2.082,0.26-3.912-0.767-3.719-2.875c0.373-4.075,3.993-3.719,6.855-4.279C1176.709,616.029,1176.725,617.352,1176.631,618.605z"
		/>
	<path fill-rule="evenodd" clip-rule="evenodd" fill="#FDFDFD" d="M1014.881,615.573c-0.033,5.115-2.711,8.194-7.009,8.059
		c-4.084-0.129-6.563-3.146-6.604-8.043c-0.045-5.123,2.544-8.274,6.809-8.29C1012.334,607.283,1014.915,610.42,1014.881,615.573z"
		/>
	<path fill-rule="evenodd" clip-rule="evenodd" fill="#FDFDFD" d="M887.794,615.376c0.027,5.169-2.539,8.278-6.814,8.256
		c-4.264-0.021-6.847-3.174-6.799-8.298c0.045-4.897,2.525-7.91,6.612-8.034C885.083,607.169,887.766,610.264,887.794,615.376z"/>
	<path fill-rule="evenodd" clip-rule="evenodd" fill="#FDFDFD" d="M827.881,615.636c-0.053,5.104-2.763,8.167-7.072,7.994
		c-4.068-0.162-6.521-3.202-6.541-8.104c-0.021-5.119,2.592-8.248,6.872-8.228C825.384,607.319,827.935,610.474,827.881,615.636z"/>
	<path fill-rule="evenodd" clip-rule="evenodd" fill="#FDFDFD" d="M1108.381,615.327c0.044,5.182-2.495,8.299-6.764,8.306
		c-4.278,0.008-6.879-3.124-6.85-8.248c0.027-4.9,2.49-7.933,6.563-8.083C1105.622,607.142,1108.338,610.235,1108.381,615.327z"/>
	<path fill-rule="evenodd" clip-rule="evenodd" fill="#FAFAFA" d="M770.341,612.746c1.268-3.973,3.417-5.637,6.834-5.42
		c2.454,0.155,4.637,1.289,4.542,3.966c-0.107,3.068-2.742,1.122-4.146,1.358C775.404,613.014,773.131,612.746,770.341,612.746z"/>
	<path fill-rule="evenodd" clip-rule="evenodd" fill="#FAFAFA" d="M924.543,612.999c-1.921-1.081-5.298,1.308-5.556-1.563
		c-0.227-2.537,2.627-4.109,5.485-4.124c2.614-0.014,5.261,0.887,5.133,3.758C929.431,614.943,925.973,611.457,924.543,612.999z"/>
	<path fill-rule="evenodd" clip-rule="evenodd" fill="#FAFAFA" d="M1214.432,613.014c-1.632-1.185-4.895,1.265-4.968-1.631
		c-0.064-2.596,2.702-4.091,5.563-4.074c2.622,0.014,5.346,0.996,5.05,3.816C1219.673,614.952,1216.167,611.55,1214.432,613.014z"/>
	<path fill-rule="evenodd" clip-rule="evenodd" fill="#F8F8F8" d="M1450.62,612.75c0.693-3.35,2.454-5.086,5.489-5.419
		c2.24-0.246,4.269,0.313,5.406,2.452c0.904,1.701,1.17,3.146-1.677,3C1456.868,612.632,1453.882,612.75,1450.62,612.75z"/>
	<path fill-rule="evenodd" clip-rule="evenodd" fill="#FCFCFC" d="M176.268,615.673c-0.045,4.883-2.409,7.953-6.124,7.953
		c-3.865,0-6.771-3.496-6.74-8.108c0.031-4.61,2.939-8.164,6.72-8.213C173.968,607.256,176.316,610.455,176.268,615.673z"/>
	<path fill-rule="evenodd" clip-rule="evenodd" fill="#F8F8F8" d="M201.67,623.665c-2.302-0.143-3.763-1.288-3.472-3.104
		c0.632-3.954,4.162-3.681,7.056-4.108c2.748-0.404,1.868,1.768,1.835,2.99C206.988,623.216,203.951,623.2,201.67,623.665z"/>
	<path fill-rule="evenodd" clip-rule="evenodd" fill="#FDFDFD" d="M511.703,615.98c-0.821-2.991,0.485-4.563,4.929-4.247
		c5.994,0.423,8.007,1.459,8.057,5.546c0.052,4.238-2.016,5.108-8.942,5.568C510.289,623.208,512.085,619.672,511.703,615.98z"/>
	<path fill-rule="evenodd" clip-rule="evenodd" fill="#FDFDFD" d="M511.854,603.169c0.087-2.421-1.157-5.588,3.59-5.035
		c3.457,0.402,6.762,0.243,6.705,5.112c-0.051,4.384-2.751,4.729-6.284,5.075C511.245,608.773,511.63,606.101,511.854,603.169z"/>
	<path fill-rule="evenodd" clip-rule="evenodd" fill="#FDFDFD" d="M484.732,603.955c0.157-2.946-1.233-6.311,4.016-5.85
		c5.628,0.493,8.279,1.983,8.224,6.024c-0.058,4.25-2.388,5.511-8.158,5.997C482.588,610.65,485.382,606.268,484.732,603.955z"/>
	<path fill-rule="evenodd" clip-rule="evenodd" fill="#FDFDFD" d="M1167.393,431.911c0.044-4.744,2.492-7.917,6.152-7.971
		c3.855-0.058,7.012,3.735,6.984,8.395c-0.027,4.551-2.969,7.949-6.854,7.919C1169.916,440.224,1167.346,436.813,1167.393,431.911z"
		/>
	<path fill-rule="evenodd" clip-rule="evenodd" fill="#F8F8F8" d="M1054.989,435.248c0.27,3.884-2.347,4.624-5.152,4.986
		c-2.067,0.267-3.927-0.711-3.758-2.834c0.326-4.1,3.949-3.748,6.809-4.316C1054.968,432.671,1055.129,433.875,1054.989,435.248z"/>
	<path fill-rule="evenodd" clip-rule="evenodd" fill="#F6F6F6" d="M1267.596,433.094c1.822-0.451,2.351,0.235,2.433,2.065
		c0.181,4.009-2.469,4.776-5.484,5.077c-2.098,0.209-3.831-0.83-3.558-3.049C1261.459,433.342,1264.913,433.675,1267.596,433.094z"
		/>
	<path fill-rule="evenodd" clip-rule="evenodd" fill="#F5F5F5" d="M1128.892,434.6c-0.054,4.593-2.609,5.361-5.452,5.646
		c-2.122,0.213-3.821-0.849-3.575-3.007c0.467-4.1,4.111-3.64,6.946-4.167C1128.915,432.682,1128.923,434.114,1128.892,434.6z"/>
	<path fill-rule="evenodd" clip-rule="evenodd" fill="#FAFAFA" d="M1349.087,429.17c1.204-3.735,3.344-5.567,7.052-5.19
		c3.04,0.31,4.383,2.166,4.611,5.19C1356.816,429.17,1353.133,429.17,1349.087,429.17z"/>
	<path fill-rule="evenodd" clip-rule="evenodd" fill="#FAFAFA" d="M837.974,429.261c1.272-3.86,3.442-5.711,7.141-5.265
		c2.947,0.356,4.557,2.018,4.37,5.265C845.802,429.261,842.206,429.261,837.974,429.261z"/>
	<path fill-rule="evenodd" clip-rule="evenodd" fill="#F8F8F8" d="M1099.054,429.193c-3.897,0-7.591,0-11.591,0
		c1.012-3.563,3.021-5.385,6.533-5.256C1097.258,424.057,1098.828,425.871,1099.054,429.193z"/>
	<path fill-rule="evenodd" clip-rule="evenodd" fill="#F8F8F8" d="M1009.422,429.382c0.73-3.327,2.46-4.978,5.256-5.399
		c2.023-0.306,3.952,0.09,5.287,1.836c0.636,0.833,1.23,1.873,0.861,2.916c-0.383,1.082-1.54,0.607-2.354,0.625
		C1015.612,429.418,1012.75,429.382,1009.422,429.382z"/>
	<path fill-rule="evenodd" clip-rule="evenodd" fill="#F5F5F5" d="M1317.068,435.068c-0.046,4.11-2.64,4.876-5.461,5.172
		c-2.066,0.216-3.8-0.674-3.591-2.979c0.358-3.946,3.782-3.604,6.496-4.157C1316.542,432.692,1317.339,433.534,1317.068,435.068z"/>
	<path fill-rule="evenodd" clip-rule="evenodd" fill="#FBFBFB" d="M825.591,299.534c3.04,0.304,5.171,1.706,4.969,5.122
		c-0.191,3.227-2.128,4.952-5.367,4.862c-3.237-0.089-5.064-1.838-5.017-5.153C820.226,300.928,822.358,299.64,825.591,299.534z"/>
	<path fill-rule="evenodd" clip-rule="evenodd" fill="#F7F7F7" d="M826.21,326.875c-2.513-0.44-6.347,0.179-6.28-3.388
		c0.077-4.087,3.802-3.205,6.615-2.893c0.149,0.016,0.305,0.016,0.446,0.06c2.195,0.69,5.963,0.396,5.82,3.052
		C832.637,326.983,828.859,326.521,826.21,326.875z"/>
	<path fill-rule="evenodd" clip-rule="evenodd" fill="#FDFDFD" d="M769.791,307.616c0.022-4.749,2.438-7.941,6.084-8.041
		c3.85-0.105,7.049,3.673,7.052,8.327c0.002,4.556-2.901,7.973-6.784,7.988C772.366,315.904,769.768,312.52,769.791,307.616z"/>
	<path fill-rule="evenodd" clip-rule="evenodd" fill="#F5F5F5" d="M906.474,311.75c-0.218,3.231-2.794,3.933-5.629,4.132
		c-2.161,0.152-3.722-1.054-3.367-3.191c0.667-4.01,4.278-3.534,7.126-3.983C906.874,308.349,906.347,310.137,906.474,311.75z"/>
	<path fill-rule="evenodd" clip-rule="evenodd" fill="#F5F5F5" d="M948.579,315.903c-2.598,0.064-4.188-0.989-3.921-3.125
		c0.475-3.813,3.889-3.491,6.603-4.048c2.257-0.463,2.435,0.833,2.406,2.572C953.603,315.034,950.859,315.425,948.579,315.903z"/>
	<path fill-rule="evenodd" clip-rule="evenodd" fill="#F8F8F8" d="M985.821,305.019c0.729-3.327,2.46-4.978,5.255-5.4
		c2.024-0.306,3.953,0.09,5.287,1.836c0.637,0.833,1.231,1.872,0.862,2.916c-0.384,1.082-1.54,0.608-2.354,0.625
		C992.01,305.055,989.148,305.019,985.821,305.019z"/>
	<path fill-rule="evenodd" clip-rule="evenodd" fill="#FCFCFC" d="M795.047,307.581c0.049-5.182,2.657-8.152,7.029-8.007
		c4.02,0.133,6.545,3.242,6.571,8.089c0.027,5.074-2.637,8.264-6.875,8.233C797.465,315.866,794.998,312.815,795.047,307.581z"/>
	<path fill-rule="evenodd" clip-rule="evenodd" fill="#F9F9F9" d="M810.864,185.236c-3.252-0.183-5.327-1.564-5.482-4.851
		c-0.155-3.294,1.683-5.032,4.871-5.157c3.309-0.129,5.645,1.364,5.596,4.903C815.805,183.238,813.903,185.001,810.864,185.236z"/>
	<path fill-rule="evenodd" clip-rule="evenodd" fill="#F7F7F7" d="M811.069,202.537c-0.912-0.156-2.107-0.263-3.247-0.576
		c-1.702-0.468-3.19-1.368-2.688-3.436c0.432-1.781,1.859-2.756,3.691-2.613c1.926,0.15,3.848,0.519,5.738,0.941
		c1.549,0.346,3.638,0.537,3.576,2.627c-0.059,1.99-2.124,2.28-3.672,2.708C813.477,202.461,812.398,202.414,811.069,202.537z"/>
	<path fill-rule="evenodd" clip-rule="evenodd" fill="#F8F8F8" d="M938.797,186.506c0.229,3.945-2.401,4.653-5.202,5.001
		c-2.083,0.259-3.91-0.771-3.714-2.88c0.377-4.075,3.996-3.715,6.858-4.275C938.884,183.932,938.884,185.267,938.797,186.506z"/>
	<path fill-rule="evenodd" clip-rule="evenodd" fill="#F5F5F5" d="M887.355,191.505c-2.801,0.139-4.542-0.638-4.412-2.874
		c0.229-3.955,3.668-3.653,6.363-4.237c1.952-0.423,2.636,0.271,2.661,2.314C892.014,190.486,889.265,190.873,887.355,191.505z"/>
	<path fill-rule="evenodd" clip-rule="evenodd" fill="#FAFAFA" d="M976.635,180.84c-1.644-0.996-4.876,1.206-5.016-1.468
		c-0.137-2.597,2.623-4.135,5.479-4.157c2.839-0.022,5.668,1.15,5.159,4.146C981.776,182.201,978.518,179.869,976.635,180.84z"/>
	<path fill-rule="evenodd" clip-rule="evenodd" fill="#FCFCFC" d="M780.222,183.584c-0.098-5.131,2.449-8.306,6.721-8.377
		c4.143-0.07,6.736,2.833,6.902,7.724c0.175,5.167-2.282,8.434-6.471,8.601C783.022,191.705,780.319,188.701,780.222,183.584z"/>
	<path fill-rule="evenodd" clip-rule="evenodd" fill="#FCFDFE" d="M1662.726,239.866c-1.616-0.988-4.736,1.25-4.864-1.469
		c-0.134-2.848,2.8-4.152,5.553-4.099c2.373,0.045,5.096,1.241,4.787,3.773C1667.795,241.417,1664.489,238.72,1662.726,239.866z"/>
</g>
</svg>
