<?xml version="1.0" encoding="utf-8"?>
<!-- Generator: Adobe Illustrator 16.0.3, SVG Export Plug-In . SVG Version: 6.00 Build 0)  -->
<!DOCTYPE svg PUBLIC "-//W3C//DTD SVG 1.1//EN" "http://www.w3.org/Graphics/SVG/1.1/DTD/svg11.dtd">
<svg version="1.1" id="Capa_1" xmlns="http://www.w3.org/2000/svg" xmlns:xlink="http://www.w3.org/1999/xlink" x="0px" y="0px"
	 width="1697.633px" height="947.887px" viewBox="0 0 1697.633 947.887" enable-background="new 0 0 1697.633 947.887"
	 xml:space="preserve">
<g>
	<path fill="none" d="M747.592,889.531c-3.548-0.063-7.019,0.469-10.566,0.469c-0.014,0-0.024,0-0.038,0
		c3.505,0,7.016-0.531,10.521-0.469c6.384,0.114,9.253,2.336,10.425,8.643c0.854,4.604-0.807,9.034-3.886,11.666
		c3.094-2.632,4.777-6.997,3.922-11.603C756.798,891.933,753.976,889.646,747.592,889.531z"/>
	<path fill="none" d="M742.012,911.94c0.278-0.009,0.583,0.001,0.918,0.034c1.055,0.103,2.128,0.156,3.2,0.147
		c-1.064,0.009-2.129-0.045-3.179-0.147C742.607,911.941,742.295,911.93,742.012,911.94z"/>
	<path fill="none" d="M225.507,522.747c0,3.808-0.045,3.83-4.034,3.832c-34.214,0.007-68.451-0.007-102.664,0.013h0.001
		c34.229-0.02,68.458-0.006,102.687-0.013c3.989-0.002,4.022-0.024,4.022-3.832c0.009-33.093,0.003-66.186-0.005-99.279
		C225.521,456.562,225.515,489.654,225.507,522.747z"/>
	<path fill="none" d="M9.75,476.802c16.749,15.757,33.589,31.392,50.366,47.119c14.238,13.35,28.406,26.743,42.612,40.115
		c-14.198-13.372-28.336-26.766-42.576-40.115C43.376,508.193,26.499,492.559,9.75,476.802z"/>
	<path fill="none" d="M113.755,531.603c0.013-4.595-0.38-5.03,2.479-5.034C113.339,526.566,113.768,526.982,113.755,531.603z"/>
	<path fill="none" d="M1221.34,524.588c-0.068,1.466,0.346,2.054,1.777,1.973c0.037-0.002,0.075,0,0.111-0.002
		C1221.817,526.631,1221.271,526.043,1221.34,524.588z"/>
	<path fill="none" d="M1221.266,421.902c0.007,0.276,0.028,0.566,0.068,0.871c0.055,0.419,0.278,0.852,0.278,1.277
		c0-0.426-0.224-1-0.278-1.418C1221.301,422.375,1221.279,422.134,1221.266,421.902z"/>
	<path fill="none" d="M1224.663,526.537c0.479,0.006,0.957,0.018,1.434,0.018c33.799,0,67.597-0.014,101.392,0.012l0,0
		c-33.782-0.025-67.536-0.012-101.324-0.012C1225.652,526.555,1225.158,526.543,1224.663,526.537z"/>
	<path fill="none" d="M1224.688,419.31c-0.166,0.011-0.333,0.018-0.506-0.006c-0.323-0.045-0.614-0.059-0.878-0.046
		c0.229,0,0.469,0.008,0.742,0.046C1224.259,419.333,1224.474,419.33,1224.688,419.31z"/>
	<path fill="none" d="M1333.121,415.966c0.021-13.064,0.354-26.049,0.354-39.113c0,13.064-0.333,25.869-0.354,38.933
		c-0.004,3.371-0.399,3.214-3.715,3.214c0.013,0,0.024,0,0.037,0C1332.897,419,1333.117,419.388,1333.121,415.966z"/>
	<path fill="none" d="M113.647,371.959c-10.654,10.61-21.932,20.432-32.489,30.317c-16.458,15.414-32.868,30.841-49.278,46.276
		c16.419-15.432,32.831-30.866,49.285-46.276C91.721,392.391,102.994,382.569,113.647,371.959z"/>
	<path fill="none" d="M348.024,349.251c0,5.271,0.117,6.243,3.572,6.269C348.176,355.485,348.024,354.497,348.024,349.251z"/>
	<path fill="none" d="M1043.937,369.637c0.24,1.908-0.449,2.721-2.132,2.871c1.717-0.134,2.376-0.94,2.132-2.873
		c-0.026-0.209-0.031-0.419-0.026-0.632C1043.905,369.216,1043.91,369.428,1043.937,369.637z"/>
	<path fill="none" d="M434.125,340.929c-0.785,0.012-1.57,0.032-2.353,0.013c-0.524-0.012-0.885,0.096-1.155,0.295
		c0.292-0.199,0.673-0.308,1.197-0.295C432.577,340.961,433.351,340.941,434.125,340.929z"/>
	<path fill="none" d="M354.114,340.942c-1.107-0.059-2.012-0.106-2.754-0.101c0.729-0.003,1.614,0.043,2.696,0.101
		c5.569,0.295,8.047,2.853,7.428,8.045C362.104,343.795,359.682,341.237,354.114,340.942z"/>
	<path fill="none" d="M1067.519,384h7.048C1072.219,384,1069.869,384,1067.519,384z"/>
	<path fill="none" d="M1040.139,383.526h1.223c-0.076-0.001-0.141-0.009-0.221-0.007
		C1040.807,383.525,1040.472,383.521,1040.139,383.526z"/>
	<path fill="none" d="M1015.984,376.411c0.026-2.266,0.047-3.253,0.932-3.59c-0.91,0.331-0.923,1.376-0.949,3.669
		c-0.069,5.849-0.067,6.51,3.586,7.51h0.735C1015.912,383,1015.912,382.623,1015.984,376.411z"/>
	<path fill="none" d="M430.18,352.015c0.005-0.435-0.013-0.869-0.016-1.302c0,0.434,0.01,0.868,0.005,1.302
		c-0.014,1.279,0.762,1.757,1.97,1.709C430.932,353.772,430.166,353.294,430.18,352.015z"/>
	<path fill="none" d="M734.769,921.703c-0.245,2.01,0.572,2.297,2.242,2.297c0.014,0,0.027,0,0.042,0
		C735.462,924,734.53,923.66,734.769,921.703z"/>
	<path fill="none" d="M1578.01,527.349c0.995,0,2.108-0.315,3.097-0.409c0.125-0.012,0.23-0.012,0.345-0.02
		c-0.149,0.004-0.295,0.004-0.459,0.02C1580.004,527.033,1579.005,527.349,1578.01,527.349z"/>
	<path fill="none" d="M1471.668,521.925c0,0.046,0,0.089,0,0.134c0,0.396,0.008,0.813,0.013,1.229
		C1471.677,522.832,1471.668,522.376,1471.668,521.925z"/>
	<path fill="none" d="M1688.186,470.043c3.219,3.086,3.954,2.395,0.107,6.026c3.847-3.632,3.154-2.94-0.063-6.026
		c-6.454-6.191-12.931-12.301-19.454-18.416c-25.791-24.165-51.481-48.322-77.281-72.467c25.795,24.145,51.383,48.303,77.174,72.467
		C1675.191,457.742,1681.732,463.852,1688.186,470.043z"/>
	<path fill="none" d="M1471.672,421.431c0.002,0.003,0,0.007,0,0.01c0.026,0.806,0,1.633-0.004,2.441
		C1471.668,423.087,1471.692,422.233,1471.672,421.431z"/>
	<path fill="none" d="M1583.832,574.101c0-1.05,1.649-1.448,2.152-1.918c0.291-0.272,0.575-0.547,0.866-0.82
		c-0.291,0.273-0.579,0.548-0.87,0.82C1585.478,572.652,1583.832,573.051,1583.832,574.101z"/>
	<path fill="none" d="M1583.64,406.116c0.04-10.328,0.192-20.655,0.192-30.982C1583.832,385.5,1583.678,395.788,1583.64,406.116z"/>
	<path fill="none" d="M1584,416.459c0-0.046,0-0.092,0-0.138c0,2.013-0.592,3.054-2.408,3.073
		C1583.47,419.438,1584,418.512,1584,416.459z"/>
	<path fill="none" d="M1332.813,569.475c-0.031-12.497,0.02-25.162-0.022-37.657c-0.018-4.789,0.521-5.229-2.536-5.198
		c3.022-0.031,2.502,0.301,2.519,5.072c0.042,12.495,0,25.307,0.031,37.804c0.004,1.361-0.322,2.505,0.299,4.505
		c0.002,0,0.002,0,0.004,0C1332.486,572,1332.817,570.836,1332.813,569.475z"/>
	<path fill="none" d="M1438.487,470.844c-7.64-7.206-15.254-14.354-22.911-21.538c-24.432-22.914-48.678-45.842-73.123-68.739
		c24.445,22.897,48.52,45.826,72.951,68.739c7.657,7.185,15.356,14.332,22.996,21.538c2.327,2.194,2.33,2.327-0.01,4.527
		C1440.73,473.171,1440.814,473.038,1438.487,470.844z"/>
	<path fill="none" d="M1473.523,526.943c0.044,0,0.068,0.016,0.111,0.014c0.988-0.053,1.987,0.392,2.979,0.392
		c-0.991,0-1.99-0.454-2.979-0.4C1473.595,526.95,1473.563,526.943,1473.523,526.943z"/>
	<path fill="none" d="M1471.665,524.713c0,0.014,0.003,0.024,0.003,0.039c-0.001-0.049-0.003-0.094-0.001-0.143
		C1471.665,524.645,1471.667,524.68,1471.665,524.713z"/>
	<path fill="none" d="M1471.707,525.267c0.081,0.835,0.457,1.417,1.226,1.601C1472.206,526.664,1471.822,526.057,1471.707,525.267z"
		/>
	<path fill="#BEBEBE" d="M680.086,101.352c10.884,0.84,21.012-1.891,30.218-7.878c14.274-9.284,21.959-22.539,23.137-39.389
		c0.916-13.099-3.042-24.95-11.417-35.021c-8.054-9.685-18.359-16.224-31.058-17.849c-1.456-0.173-3.111,0.56-4.317-1.215
		c-3.409,0-6.818,0-10.228,0c-0.315,1.775-0.603,1.127-0.949,1.179c-13.053,1.963-23.489,8.41-31.738,18.765
		c-6.894,8.653-10.278,18.571-10.709,29.41c-0.49,12.315,3.224,23.44,10.943,33.121C653.229,94.087,665.456,100.224,680.086,101.352
		z M695.47,61.628c1.256-2.714,5.138-4.319,8.339-3.515c3.012,0.758,4.544,2.943,4.459,6.351c-0.058,2.344-0.969,4.415-2.136,6.373
		c-1.435,2.409-2.955,4.765-4.506,7.255c2.049,0.597,3.882,0.19,5.686,0.322c0.846,0.063,1.737,0.011,1.774,1.242
		c0.036,1.232-0.811,1.312-1.692,1.314c-3.678,0.011-7.355,0.004-11.364,0.004c1.314-3.135,3.528-5.364,5.095-7.984
		c1.308-2.183,2.686-4.304,3.607-6.713c0.748-1.958,0.709-3.693-0.972-4.964c-1.606-1.217-3.417-0.987-5.223-0.132
		c-0.967,0.458-1.371,1.868-2.835,1.608C695.614,62.397,695.336,61.917,695.47,61.628z M666.693,35.887
		c6.362-3.057,12.741-2.558,18.471,1.755c7.817,5.886,8.673,19.765,1.815,27.14c-6.378,6.856-18.363,6.879-24.847,0.016
		c-3.405-3.603-4.674-8-4.626-12.878C657.631,44.894,660.112,39.05,666.693,35.887z"/>
	<path fill="#DCDCDC" d="M690.945,0c0.007,0,0.013,0,0.02,0C690.957,0,690.951,0,690.945,0z"/>
	<path fill="#DCDCDC" d="M690.945,0c-0.01,0-0.021,0-0.031,0C690.919,1.775,690.929,1.775,690.945,0z"/>
	<path fill="#DCDCDC" d="M690.914,0.789c-0.002-0.144-0.003-0.38-0.004-0.789c-1.42,0-2.841,0-4.262,0
		C687.839,1.755,689.47,0.647,690.914,0.789z"/>
	<path fill="#B7177F" d="M186,241.146c0-0.853,0.225-1.698,0.145-2.543c-0.165-1.733,0.38-2.791,2.357-2.57
		c0.982,0.109,2.098-0.033,3.092-0.033c282.238,0,564.475,0,846.713,0c5.476,0,5.692,0.102,5.692,5.373c0,41.902,0,83.805,0,125.707
		c0,0.639-0.098,1.286-0.117,1.923c-0.004,0.212,0.014,0.423,0.04,0.632c0.244,1.933-0.408,2.739-2.125,2.873
		c-0.251,0.022-0.519,0.032-0.813,0.026c-7.098-0.137-14.199-0.058-21.302-0.039c-1.369,0.003-2.227,0.011-2.768,0.208
		c-0.885,0.337-0.905,1.442-0.931,3.708c-0.072,6.212-0.072,6.589,4.304,7.589h19.851c0.333,0,0.668-0.001,1.002-0.007
		c0.08-0.002,0.145,0.007,0.221,0.007h26.157c2.351,0,4.7,0,7.048,0h5.564c1.526-1,2.065-1.417,1.804-3.32
		c-0.056-0.418-0.007-0.968-0.007-1.395c0.018-6.685,0.018-6.743-6.693-6.743c-5.965,0-11.934-0.078-17.898-0.001
		c-1.744,0.023-2.642-0.392-2.423-2.355c0.111-0.982,0.087-2.002,0.087-2.996c0-45.599,0-91.198,0-136.797
		c0-5.367-0.14-4.393-5.522-4.393c-289.647,0-579.295,0-868.942,0c-0.994,0-1.999-0.396-2.98-0.506
		c-1.958-0.218-2.121,0.493-1.949,2.248c0.083,0.844,0.394,1.459,0.394,2.312C176,281.211,176,332,176,384h10
		C186,336,186,288.605,186,241.146z"/>
	<path fill="#7F7F7F" d="M900.498,865.095c-51.273,0.151-102.549,0.058-153.824,0.044c-2.847,0-5.643,0.277-8.45,0.783
		c-17.332,3.13-32.556,17.99-33.614,38.678c-1.218,23.823,18.488,43.57,42.065,43.284c25.562-0.311,51.132-0.071,76.698-0.071
		c25.709,0,51.417-0.014,77.128,0.021c3.135,0.004,6.225-0.215,9.287-0.907c20.475-4.635,35.1-23.431,32.283-45.525
		C939.159,878.518,919.805,865.038,900.498,865.095z M754.047,909.712c-1.338,1.143-2.942,1.927-4.729,2.182
		c-1.048,0.148-2.117,0.22-3.188,0.229c-1.072,0.009-2.145-0.045-3.2-0.147c-0.335-0.033-0.64-0.043-0.918-0.034
		c-1.967,0.074-2.514,1.213-2.313,3.441c0.19,2.114-0.01,3.771,0.1,5.897c0.108,2.102-1.058,1.721-2.622,1.721
		c-0.044,0-0.082,0-0.125,0c-0.015,0-0.028,0-0.042,0c-1.669,0-2.538,0.2-2.292-1.808c0.017-0.142,0.282,0.205,0.282,0.064
		c0-4.972,0-9.942,0-14.912c0-4.972-0.219-9.431-0.313-14.4c-0.037-1.855,0.332-1.944,2.172-1.944c0.042,0,0.085,0,0.128,0
		c0.014,0,0.024,0,0.038,0c3.547,0,7.018-0.531,10.566-0.469c6.384,0.114,9.207,2.336,10.378,8.643
		C758.825,902.777,757.141,907.081,754.047,909.712z M773.381,925.979c-0.861,2.093-1.757,4.17-2.637,6.254
		c-1.662,3.935-1.662,3.935-6.505,3.234c1.291-3.027,2.35-6.114,3.889-8.938c1.388-2.55,1.091-4.651-0.095-7.163
		c-2.887-6.121-5.478-12.381-8.206-18.627c4.707-1.123,4.672-1.106,6.428,2.881c1.926,4.373,3.473,8.923,6.027,13.514
		c1.796-4.698,3.421-9.001,5.085-13.287c1.567-4.035,1.585-4.026,6.48-3.352C780.341,909.035,776.868,917.51,773.381,925.979z
		 M798.048,904.297c-0.655,0.232-1.388,0.244-2.054,0.454c-2.557,0.807-4.045,2.247-3.833,5.263
		c0.238,3.388,0.102,6.806,0.034,10.209c-0.033,1.667,0.785,3.725-2.385,3.815c-3.097,0.087-2.583-1.8-2.585-3.586
		c-0.01-5.674-0.059-11.349,0.042-17.021c0.021-1.18-0.936-2.958,1.397-3.347c2.483-0.411,2.789,1.231,2.981,3.317
		c2.005-1.412,3.077-3.021,4.902-3.626c1.165-0.387,2.45-1.223,3.313,0.277C800.51,901.185,799.272,903.861,798.048,904.297z
		 M823.227,911.945c0.001,2.98,0.036,5.963-0.009,8.943c-0.044,2.959-1.362,4.078-3.802,2.723c-1.169-0.65-1.494-0.7-2.615-0.09
		c-6.382,3.473-12.155,0.676-13.619-6.452c-1.039-5.062-0.256-10.179-0.465-15.268c-0.084-2.036,1.476-1.651,2.699-1.714
		c1.259-0.063,2.231,0.151,2.212,1.777c-0.042,3.548,0,7.098-0.005,10.646c-0.002,1.561,0.034,3.083,0.703,4.573
		c1.086,2.42,3.194,3.763,5.676,3.412c3.05-0.429,4.496-1.968,4.54-5.072c0.063-4.257,0.063-8.517-0.004-12.775
		c-0.027-1.688,0.34-2.615,2.318-2.611c1.906,0.003,2.448,0.767,2.395,2.538C823.16,905.697,823.226,908.822,823.227,911.945z
		 M843.871,916.808c-0.489,1.472-1.231,2.864-1.668,4.349c-0.601,2.053-1.707,2.909-3.971,2.878
		c-2.174-0.027-2.854-1.061-3.52-2.849c-2.567-6.877-5.297-13.695-8.087-20.843c5.142-0.378,5.118-0.371,6.644,3.952
		c1.457,4.125,2.965,8.232,4.478,12.337c0.073,0.199,0.415,0.299,0.872,0.605c2.094-4.158,3.249-8.628,4.825-12.923
		c1.583-4.308,1.512-4.335,6.478-4.013C848.379,906.032,845.712,911.277,843.871,916.808z M873.594,923.238
		c-0.325,0.81-0.533,1.625-1.668,1.561c-0.984-0.057-2.232,0.27-2.844-0.519c-1.959-2.536-3.728-1.586-6.013-0.355
		c-4.183,2.249-9.353,0.554-10.899-3.202c-1.714-4.153,0.176-8.478,4.64-10.4c2.077-0.893,4.217-1.616,6.53-1.684
		c0.901-0.028,2.143,0.309,2.344-1.138c0.191-1.37-0.232-2.528-1.561-3.186c-1.432-0.707-2.94-1.042-4.529-0.709
		c-0.967,0.203-1.91,0.499-2.867,0.749c-0.992,0.259-2.126,1.24-2.701-0.57c-0.444-1.401-0.185-2.392,1.237-3.142
		c2.074-1.095,4.221-1.582,6.173-1.412c6.094-0.007,8.898,2.603,9.229,8.462c0.166,2.967,0.114,5.949,0.08,8.923
		c-0.021,1.925,0.076,3.794,2.122,4.668C873.965,921.753,873.969,922.313,873.594,923.238z M887.421,903.468
		c-4.536-0.181-3.853,0.357-3.874,3.935c-0.021,3.116-0.041,6.23,0.004,9.346c0.053,3.685,0.302,3.977,3.981,4.627
		c0.978,0.173,1.987-0.031,1.987,1.505c-0.004,1.519-0.729,1.841-2.084,1.948c-6.687,0.524-8.799-2.098-8.379-7.501
		c0.131-1.688,0.021-3.396,0.021-5.096s-0.069-3.402,0.018-5.097c0.107-2.143,0.107-4.05-2.938-3.709
		c-0.874,0.1-1.155-0.584-1.12-1.4c0.035-0.872,0.056-1.938,1.189-1.846c3.104,0.261,2.92-1.725,2.875-3.797
		c-0.024-1.193-0.406-2.728,1.471-2.987c1.609-0.224,3.238-0.37,2.982,2.131c-0.087,0.841,0.037,1.701-0.014,2.547
		c-0.094,1.42,0.453,2.131,1.948,2.014c0.704-0.056,1.415-0.015,2.122,0.001c1.252,0.03,2.674-0.227,2.595,1.8
		C890.126,903.971,888.568,903.513,887.421,903.468z M911.249,912.072c-4.664-0.183-9.339-0.053-14.409-0.053
		c0.892,6.334,4.051,8.878,10.248,8.493c1.4-0.087,2.777-0.49,4.172-0.7c1.051-0.158,1.543,0.542,1.824,1.397
		c0.287,0.874,0.239,1.818-0.704,2.189c-4.796,1.885-9.665,2.403-14.315-0.258c-5.369-3.073-6.725-8.046-5.989-13.856
		c0.6-4.699,3.814-8.534,8.261-9.792c7.303-2.063,13.701,2.31,13.927,9.376C914.34,911.186,913.777,912.171,911.249,912.072z"/>
	<path d="M565.599,526.768c0.031-16.476,0.012-32.952,0.012-49.43c0-19.742-0.037-39.486,0.049-59.229
		c0.01-2.342-0.586-3.381-3.014-3.029c-0.834,0.12-1.702,0.019-2.554,0.019c-102.409,0-204.818-0.013-307.228,0.02
		c-9.928,0.004-19.86,0.145-29.786,0.216c-33.946,0.244-67.894,0.054-101.84,0.165c-2.775,0.01-2.765-0.863-2.748-3.363
		c0.114-15.056,0.509-30.112,0.509-45.167c0-1.346,0-2.69,0-4.918c-41,37.37-79.567,74.1-119,111.031
		c39.473,36.973,78.463,73.703,118.321,111.037c0-17.069-0.114-33.115-0.11-49.165c0-4.19-0.05-4.19,4.305-4.196
		c0.568,0,1.109-0.004,1.678,0c35.642,0.143,71.271-0.224,106.914,0.221c16.616,0.207,33.229,0.036,49.847,0.036
		c93.461,0,186.918,0.003,280.379-0.013C566.302,531.002,565.589,531.713,565.599,526.768z M221.592,526.579
		C187.362,526.586,153,526.95,119,526.971V527c0,0-0.224,0-0.239,0c-1.044,0-1.869-0.225-2.526-0.228
		c-2.859,0.003-2.291,0.337-2.303,4.932C113.899,544.203,114,556.6,114,569.098c0,1.371,0,2.743,0,4.791
		c-2-1.37-3.026-2.249-4.125-3.282c-2.33-2.188-4.733-4.38-7.058-6.57c-14.206-13.372-28.418-26.766-42.656-40.115
		c-16.776-15.728-33.639-31.362-50.388-47.119c-4.489-4.224-4.593-3.161,0.028-7.508c7.36-6.923,14.725-13.825,22.085-20.742
		c16.41-15.435,32.994-30.862,49.452-46.276C91.895,392.391,103,382.569,114,371.959c0,3.085,0,5.18,0,7.277
		c0,12.214-0.09,24.429-0.071,36.644c0.005,3.643,0.052,3.675,3.752,3.681c9.8,0.019,19.555,0.007,29.355,0.007
		c24.856,0,49.688-0.004,74.544,0.003c3.933,0.002,3.944,0.027,3.945,3.897c0.008,33.093,0.056,66.186,0.047,99.279
		C225.572,526.555,225.581,526.577,221.592,526.579z M338.03,523.344c0,3.377-0.029,3.405-3.408,3.406
		c-17.046,0.01-34.093,0.004-51.139,0.004c-16.762,0-33.524,0.008-50.287-0.004c-3.377-0.001-3.406-0.029-3.406-3.408
		c-0.008-33.523-0.008-67.048,0-100.572c0-3.377,0.029-3.406,3.408-3.407c33.809-0.007,67.617-0.007,101.425,0
		c3.377,0.001,3.406,0.03,3.406,3.409C338.038,456.295,338.038,489.82,338.03,523.344z M449.691,423.274
		c0.004,33.209,0.003,66.418,0,99.627c0,4.251,0.305,3.849-3.914,3.851c-16.747,0.008-33.494,0.002-50.239,0.002
		c-16.463,0-32.926,0.002-49.389-0.002c-4.253,0-3.85,0.304-3.85-3.913c-0.005-33.209-0.004-66.418-0.001-99.628
		c0-4.252-0.305-3.85,3.915-3.85c33.208-0.005,66.417-0.004,99.627-0.001C450.091,419.36,449.69,419.054,449.691,423.274z
		 M557.938,526.75c-33.523,0.008-67.048,0.008-100.572,0c-3.377,0-3.406-0.029-3.406-3.408c-0.008-33.525-0.008-67.049,0-100.573
		c0-3.376,0.029-3.403,3.409-3.406c16.904-0.009,33.808-0.004,50.712-0.004c16.62,0,33.24-0.005,49.86,0.004
		c3.376,0.003,3.405,0.03,3.406,3.409c0.008,33.524,0.008,67.049,0,100.574C561.346,526.721,561.317,526.75,557.938,526.75z"/>
	<path d="M1343.94,376.437c-3.106-2.911-6.312-5.726-9.314-8.743c-1.578-1.589-3.45-1.443-5.129-1.036
		c-1.918,0.464-0.909,2.399-0.916,3.634c-0.072,13.779-0.042,27.559-0.048,41.339c-0.004,3.782-0.021,3.782-3.923,3.798
		c-0.711,0.003-1.422,0.004-2.133,0c-34.933-0.199-69.865-0.14-104.794-0.227c-110.95-0.276-221.896-0.104-332.843-0.095
		c-4.355,0-3.846-0.549-3.846,3.816c-0.015,36.083-0.015,72.165,0,108.247c0,4.359-0.534,3.843,3.825,3.838
		c113.211-0.152,226.425,0.297,339.636-0.228c33.383-0.152,66.765-0.028,100.151-0.016c4.39,0.002,3.646-0.519,3.654,3.782
		c0.014,15.058-0.262,30.117-0.262,45.173c0,1.189,0,2.378,0,4.415c41-37.32,79.262-73.983,118.625-110.852
		c-1.15-1.232-1.729-2.206-2.644-3.065C1410.63,438.951,1377.306,407.694,1343.94,376.437z M992.639,523.344
		c0,3.377-0.031,3.406-3.409,3.406c-33.524,0.008-67.05,0.008-100.573,0c-3.375,0-3.402-0.029-3.406-3.408
		c-0.01-16.902-0.004-33.809-0.004-50.712c0-16.62-0.006-33.24,0.004-49.86c0.004-3.377,0.031-3.406,3.409-3.407
		c33.524-0.007,67.049-0.007,100.573,0c3.375,0.001,3.406,0.03,3.406,3.409C992.646,456.295,992.646,489.82,992.639,523.344z
		 M1101.099,526.752c-16.761,0.008-33.519,0.002-50.278,0.002c-16.758,0-33.518,0.008-50.275-0.005
		c-3.603-0.002-3.634-0.034-3.634-3.731c-0.011-33.375-0.011-66.75,0-100.125c0-3.478,0.041-3.526,3.412-3.527
		c33.802-0.012,67.601-0.012,101.402,0c3.378,0.001,3.42,0.049,3.423,3.517c0.011,33.375,0.008,66.75,0.004,100.125
		C1105.152,527.172,1105.392,526.75,1101.099,526.752z M1212.017,527c-32.529,0-65.059,0-97.591,0c-5.008,0-4.426-0.246-4.426-5.042
		c0-32.529,0-65.06,0-97.589c0-5.01-0.582-5.369,4.637-5.369c16.195,0,32.388,0,48.583,0c16.053,0,32.103,0,48.155,0
		c5.438,0,4.625,0.359,4.625,5.581c0,32.388,0,64.775,0,97.164C1216,526.754,1216.813,527,1212.017,527z M1438.391,475.371
		c-16.765,15.744-33.553,31.456-50.331,47.18c-12.637,11.842-25.269,23.687-37.902,35.531c-4.661,4.369-9.361,8.751-14.036,13.105
		c-0.898,0.834-1.121,2.064-3.121,2.234V574c0,0,0.105,0,0.104,0c-0.621-2-0.295-3.166-0.299-4.525
		c-0.031-12.499,0.011-25.162-0.031-37.657c-0.017-4.772,0.504-5.012-2.519-4.982c-0.704,0.007-1.598,0.165-2.733,0.165
		c-0.01,0-0.021,0-0.033,0l0,0c-33.795,0-67.593-0.228-101.392-0.228c-0.477,0-0.955,0.099-1.434,0.093
		c-0.465-0.005-0.932,0.135-1.41,0.135c-0.011,0-0.014,0-0.024,0c-0.036,0-0.074,0-0.111,0c-1.432,0-1.652-0.727-1.584-2.19
		c0.047-0.85,0.467-1.924,0.467-2.775c0-32.663,0-65.323,0-97.984c0-0.426-0.418-0.858-0.473-1.277
		c-0.039-0.305-0.158-0.595-0.165-0.871c-0.088-1.621,0.337-2.636,1.991-2.645c0.264-0.013,0.53,0.001,0.854,0.046
		c0.173,0.024,0.327-0.002,0.493-0.013c0.633-0.059,1.267-0.291,1.903-0.291c33.371,0,66.74,0,100.112,0
		c0.841,0,1.845,0.303,2.69,0.298c3.315-0.047,3.474,0.047,3.478-3.324c0.021-13.064,0.116-25.978,0.116-39.042
		c0-1.352,0-2.704,0-4.508c4,2.513,6.354,5.461,9.216,8.143c24.445,22.897,48.81,45.826,73.241,68.739
		c7.658,7.185,15.331,14.332,22.971,21.538C1440.755,473.038,1440.73,473.171,1438.391,475.371z"/>
	<path d="M1579.061,534.658c0.01,15.196-0.061,30.395-0.061,45.591c0,1.026,0,2.051,0,3.889
		c40-37.366,79.105-74.028,118.633-111.052c-39.566-37.06-78.748-73.785-118.383-110.907c-0.083,1.28-0.137,1.811-0.137,2.342
		c-0.004,12.924,0.006,25.849,0.006,38.774c0,3.266-0.09,6.537,0.038,9.799c0.076,1.893-0.645,2.318-2.44,2.137
		c-0.985-0.099-1.984-0.23-2.98-0.23c-33.802,0-67.604,0-101.409,0c-0.991,0-1.99,0.272-2.979,0.204
		c-1.491-0.103-2.249,0.684-2.155,2.111c0.059,0.848-0.193,1.811-0.193,2.663c0,35.365,0,70.731,0,106.096
		c0,0.994,0.238,1.989,0.203,2.982c-0.049,1.287,0.681,1.764,1.908,1.708c0.992-0.047,2.038-0.007,3.034-0.007
		c34.37,0,68.735-0.004,103.106,0.007C1579.447,530.767,1579.057,530.236,1579.061,534.658z M1476.613,527
		c-0.991,0-1.99-0.27-2.979-0.217c-0.043,0.002-0.067,0.073-0.111,0.073c-0.218,0.001-0.414,0.017-0.591-0.033
		c-0.769-0.184-1.145-0.743-1.226-1.579c-0.024-0.164,0.131-0.324,0.129-0.504c0-0.014,0.164-0.014,0.164-0.027
		c0-0.033,0-0.068,0-0.104c0-0.038,0-0.073,0-0.111c0-0.4,0.016-0.805,0.015-1.21c-0.006-0.417-0.015-0.834-0.015-1.229
		c0-0.045,0-0.088,0-0.134c0-32.616,0-65.284,0-97.902c0-0.04,0-0.08,0-0.12c0-0.007,0-0.014,0-0.02c0-0.808,0-1.636,0-2.441
		c0-0.003,0-0.007,0-0.01c0-0.05,0-0.104,0-0.154c0-1.234,0.346-1.996,1.602-1.972c1.137,0.022,2.107-0.305,3.244-0.305
		c33.515,0,67.028,0,100.543,0c0.995,0,2.115,0.194,3.094,0.319c0.277,0.036,0.523,0.06,0.756,0.065
		c1.816-0.019,2.42-1.055,2.408-3.068c-0.021-3.402,0.063-6.801,0.077-10.203c0.038-10.328,0.276-20.613,0.276-30.979
		c0-0.707,0-1.414,0-2.522c2,1.05,3.5,2.723,5.089,4.211c0.832,0.779,1.615,1.558,2.447,2.337
		c25.8,24.145,51.47,48.303,77.261,72.467c6.523,6.115,12.989,12.224,19.443,18.416c3.218,3.086,3.904,2.395,0.058,6.026
		c-11.763,11.108-23.544,22.177-35.352,33.241c-13.051,12.228-26.072,24.428-39.126,36.652c-9.034,8.46-17.946,16.938-26.969,25.399
		c-0.291,0.273-0.492,0.548-0.783,0.82c-0.503,0.47-2.068,0.868-2.068,1.918c0-9.333,0-17.827,0-26.322
		c0-6.247-0.356-12.299-0.287-18.546c0.02-1.633-0.664-2.336-2.22-2.313c-0.114,0.008-0.241-0.166-0.366-0.154
		c-0.988,0.094-2.122,0.234-3.117,0.234C1544.211,527,1510.412,527,1476.613,527z"/>
	<path fill="#424242" d="M855.006,758.606c-17.754-0.019-35.507-0.009-53.259-0.009c-8.361,0-8.281,0-8.115,8.249
		c0.044,2.195,0.633,2.922,2.885,2.875c6.672-0.139,13.349-0.064,20.024-0.044c4.286,0.013,3.925-0.513,3.928,3.794
		c0.008,11.93,0.002,23.859,0.002,35.789c0.001,11.363,0.041,22.726-0.036,34.087c-0.015,2.1,0.417,3.204,2.8,2.938
		c1.685-0.188,3.43-0.221,5.104,0.007c2.776,0.374,3.286-0.836,3.259-3.357c-0.122-11.646-0.054-23.29-0.053-34.938
		c0-11.646-0.011-23.291,0.005-34.938c0.005-3.349,0.039-3.371,3.485-3.382c5.822-0.019,11.645-0.005,17.467-0.005
		c6.957-0.002,6.961-0.002,6.933-6.844C859.414,758.067,859.896,758.61,855.006,758.606z"/>
	<path fill="#424242" d="M673.32,192c-5.25,0-10.5,0-15.75,0c-7.121,0-7.121,0.317-7.08,7.403c0.027,4.532-0.32,4.134,4.219,4.139
		c17.878,0.019,35.757,0.087,53.636,0.087c8.105,0,8.012,0.041,7.955-7.956c-0.017-2.363-0.619-3.167-3.082-3.111
		c-6.949,0.156-13.909-0.089-20.854,0.139c-2.782,0.092-3.346-0.852-3.317-3.359C689.171,177.85,689,166.36,689,154.867
		c0-10.075,0-20.15,0-30.223c0-8.948,0.101-8.948-8.814-8.227c-0.142,0.011-0.235,0.021-0.375,0.01
		c-1.292-0.101-1.811,0.559-1.771,1.777c0.033,0.992-0.039,1.986-0.039,2.98c0,22.277,0,44.555,0,66.833
		C678,192.634,678.124,192,673.32,192z"/>
	<path fill="#3942F7" d="M1352.718,334.978c1.437,0.071,2.49-0.143,2.41-2.002c-0.101-2.262-0.017-4.532-0.017-6.799
		c0.007-5.17,0.003-5.097,5.104-4.886c1.46,0.06,2.334,0.524,3.007,1.776c1.539,2.867,3.34,5.607,4.706,8.55
		c1.335,2.874,3.193,4.091,6.877,2.937c-2.001-3.736-3.753-7.271-5.754-10.657c-1.373-2.317-1.896-3.806,0.878-5.826
		c3.624-2.639,4.438-8.054,2.649-12.437c-1.675-4.092-5.126-5.45-9.215-5.554c-3.683-0.094-7.365-0.023-11.049-0.058
		c-1.384-0.013-2.473,0.049-2.462,1.957c0.056,10.341,0.059,20.684,0,31.025C1349.84,335.309,1351.345,334.911,1352.718,334.978z
		 M1355.111,310.445c0-6.745,0-6.745,6.776-6.146c4.213,0.373,6.443,2.617,6.408,6.453c-0.034,4.061-2.337,6.313-6.884,6.296
		C1353.592,317.018,1355.326,318.091,1355.111,310.445z"/>
	<path fill="#01CB99" d="M1557,645.852c0-8.261,0.365-8.342-7.973-7.472c-1.471,0.154-1.617,0.673-1.704,2.067
		c-0.128,2.086,1.129,2.428,2.741,2.212c2.431-0.324,3.433,0.699,3.135,3.085c-0.104,0.84-0.099,1.722,0.036,2.551
		c0.413,2.47-1.004,3.194-3.047,3.532c-7.176,1.191-15.659-2.379-15.696-12.729c-0.039-10.586,5.935-15.791,16.307-13.859
		c1.793,0.333,3.578,0.72,5.36,1.08c0.954-3.988,0.932-3.92-2.218-4.959c-2.905-0.959-5.885-0.959-8.854-0.807
		c-6.121,0.314-10.944,2.998-13.736,8.556c-3.61,7.181-3.309,14.326,1.453,20.884c4.46,6.146,10.498,7.096,17.447,6.042
		c7.268-1.104,6.748-1.223,6.748-8.479C1557,646.986,1557,646.419,1557,645.852z"/>
	<path fill="#3942F7" d="M1310.166,334.432c1.135-0.568,1.814-1.612,3.402,0.122c1.558,1.699,3.704,0.306,3.715-2.155
		c0.034-10.795-0.011-21.591,0.037-32.386c0.008-1.689-0.294-2.57-2.295-2.602c-2.188-0.035-2.615,0.893-2.56,2.81
		c0.11,3.813,0.031,7.634,0.031,12.06c-1.446-0.624-2.202-0.985-2.982-1.281c-5.497-2.085-11.111-0.06-13.678,5.245
		c-2.292,4.736-2.341,9.644,0.402,14.26C1299.412,335.839,1304.594,337.215,1310.166,334.432z M1303.099,315.175
		c3.257-1.51,7.009-0.072,8.871,3.461c0.725,1.374,1.304,2.821,1.155,4.345c0.052,4.182-1.915,7.116-5.432,8.2
		c-3.45,1.063-6.738-0.633-8.107-4.181C1297.793,322.353,1299.416,316.885,1303.099,315.175z"/>
	<path fill="#B8187F" d="M143.22,579.59c-1.443,0.024-2.674-0.054-3.315,1.804c-3.777,10.931-7.685,21.818-11.566,32.771
		c4.794,0.615,4.794,0.615,6.11-3.038c2.145-5.956,2.145-5.956,8.822-5.956c6.388,0,6.388,0,8.485,5.843
		c1.446,4.03,1.446,4.03,6.114,2.906c-3.844-10.805-7.744-21.574-11.465-32.406C145.773,579.677,144.714,579.563,143.22,579.59z
		 M138.437,600c1.117-3,2.792-9.03,4.795-14.009c1.745,5.019,3.253,11.009,4.873,14.009C144.78,600,141.775,600,138.437,600z"/>
	<path fill="#B8187F" d="M211.621,579.581c-1.589-0.059-2.588,0.315-3.151,2.045c-1.616,4.973-3.429,9.88-5.181,14.808
		c-2.102,5.915-4.221,11.826-6.369,17.838c4.93,0.385,4.927,0.383,6.152-2.89c0.742-1.977,0.963-4.595,2.377-5.757
		c1.63-1.34,4.363-0.412,6.612-0.435c6.159-0.061,6.159-0.021,8.22,5.549c1.51,4.078,1.51,4.078,6.247,3.374
		c-3.876-10.952-7.771-21.847-11.563-32.775C214.327,579.496,213.056,579.633,211.621,579.581z M206.75,600
		c1.586-3,3.06-8.78,4.801-13.776c2.402,4.688,3.497,10.776,5.184,13.776C213.368,600,210.32,600,206.75,600z"/>
	<path fill="#3841F7" d="M1268.812,317.277c-0.004,5.1-0.011,10.198,0.007,15.297c0.003,0.811-0.253,1.757,0.666,2.291
		c1.834,1.068,4.338-0.257,4.425-2.337c0.038-0.848,0.007-1.699,0.007-2.549c0.004-6.859,0.004-6.922,6.759-6.912
		c3.43,0.005,6.458-0.772,8.732-3.485c2.331-2.783,2.788-6.115,2.615-9.593c-0.323-6.443-3.385-9.617-9.77-9.893
		c-3.676-0.16-7.366,0.028-11.045-0.095c-1.835-0.061-2.477,0.534-2.435,2.406C1268.881,307.361,1268.812,312.319,1268.812,317.277z
		 M1274.824,304.444c1.699-1.256,9.232,0.071,10.595,1.627c2.341,2.675,1.745,5.889,1.02,8.899
		c-0.593,2.465-2.677,3.478-5.129,3.775c-7.39,0.896-7.39,0.911-7.39-7.554c0-0.284-0.045-0.576,0.007-0.849
		C1274.305,308.365,1272.852,305.904,1274.824,304.444z"/>
	<path fill="#01CB99" d="M1604.535,620.593c-3.676-0.168-7.369,0.08-11.041-0.126c-2.396-0.136-2.823,0.912-2.778,2.977
		c0.107,4.813,0.035,9.629,0.035,14.444s0.024,9.631-0.015,14.444c-0.01,1.8-0.142,3.282,2.557,3.215
		c2.341-0.06,2.975-0.925,2.743-3.014c-0.094-0.842-0.015-1.699-0.015-2.549c0-6.407,0-6.407,6.398-6.46
		c7.532-0.061,11.5-4.005,11.587-11.513c0.003-0.567,0.01-1.135-0.011-1.701C1613.768,624.216,1610.594,620.87,1604.535,620.593z
		 M1601.928,639.265c-5.902,0.232-5.902,0.232-5.902-5.71c-0.004-0.569-0.004-1.138-0.004-1.706c0-0.425-0.003-0.852,0.004-1.278
		c0.069-6.362-0.635-5.712,3.26-5.79c7.255-0.142,9.551,1.412,9.696,6.496C1609.134,636.671,1607.022,639.065,1601.928,639.265z"/>
	<path fill="#3942F7" d="M1325.346,335.032c2.004,0.019,2.33-0.859,2.296-2.553c-0.08-3.971-0.049-7.944-0.018-11.917
		c0.031-3.898,1.974-5.828,5.993-6.034c3.571-0.182,5.687,1.711,5.916,5.684c0.201,3.537,0.086,7.09,0.11,10.637
		c0.007,0.851,0.015,1.702,0.011,2.553c-0.014,1.751,1.263,1.554,2.379,1.564c1.138,0.009,2.407,0.135,2.39-1.575
		c-0.056-5.662,0.527-11.375-0.843-16.947c-0.919-3.741-3.863-5.861-7.727-6.182c-2.938-0.246-5.587,0.424-8.236,2.631
		c0-4.668-0.042-8.764,0.018-12.859c0.024-1.614-0.152-2.641-2.227-2.617c-1.994,0.021-2.3,0.922-2.293,2.602
		c0.046,10.782,0.042,21.564,0.004,32.347C1323.115,333.971,1323.275,335.011,1325.346,335.032z"/>
	<path fill="#01CB99" d="M1583.527,620.499c-5.394,0.046-10.789,0.136-16.175-0.036c-2.448-0.08-2.765,1.02-2.723,3.036
		c0.101,4.822,0.031,9.648,0.031,14.474c0,4.826,0.06,9.651-0.027,14.476c-0.038,1.971,0.194,3.11,2.681,3.097
		c2.382-0.013,2.424-1.18,2.389-2.91c-0.065-3.403,0.194-6.828-0.083-10.213c-0.232-2.824,0.912-3.403,3.396-3.197
		c2.254,0.188,4.539-0.018,6.808,0.058c1.637,0.054,2.663-0.196,2.611-2.262c-0.049-1.84-0.954-2.098-2.41-2.023
		c-0.992,0.051-1.987,0.009-2.979,0.009c-7.993-0.002-7.941,0.002-7.403-8.064c0.11-1.634,0.579-2.229,2.223-2.192
		c3.832,0.084,7.664,0.018,11.496,0.028c1.442,0.003,2.781,0.18,2.816-2.048C1586.211,620.614,1585.126,620.485,1583.527,620.499z"
		/>
	<path fill="#B81980" d="M188.643,594.106c1.127,0.02,2.256,0.194,3.375,0.359c1.059,0.156,2.308,0.933,2.679-0.87
		c0.301-1.466,0.384-2.745-1.638-3.207c-1.541-0.352-3.06-0.53-4.617-0.56c-6.182-0.074-10.025,2.173-11.934,6.979
		c-2.125,5.349-0.98,11.948,2.682,15.458c3.296,3.159,9.694,4.163,13.962,2.37c1.504-0.631,1.875-1.529,1.583-2.963
		c-0.369-1.811-1.573-1.111-2.645-0.926c-0.975,0.168-1.961,0.332-2.948,0.372c-5.901,0.238-8.939-2.757-8.893-8.725
		C180.294,596.746,183.038,594.015,188.643,594.106z"/>
	<path fill="#B91B81" d="M171.03,590.403c-1.977,0.563-3.081,2.399-4.858,3.459c-0.18-0.43-0.428-0.771-0.458-1.133
		c-0.163-1.941-1.416-2.257-2.986-2.008c-1.758,0.279-1.092,1.734-1.102,2.7c-0.061,6.213,0.009,12.428-0.057,18.642
		c-0.018,1.692,0.298,2.553,2.29,2.549c2.042-0.005,2.751-0.657,2.654-2.699c-0.143-2.96-0.037-5.931-0.037-8.897
		c0.001-5.912,0.002-5.909,5.902-8.096c2.067-0.767,2.017-2.866,1.747-4.212C173.772,588.957,172.132,590.088,171.03,590.403z"/>
	<path fill="#010101" d="M686.979,64.783c6.857-7.375,6.002-21.254-1.815-27.14c-5.73-4.313-12.108-4.813-18.471-1.755
		c-6.581,3.163-9.063,9.007-9.187,16.033c-0.048,4.878,1.221,9.275,4.626,12.878C668.617,71.662,680.602,71.639,686.979,64.783z
		 M675.247,38.361c4.717,0.185,7.997,2.521,9.846,6.811c1.556,3.611,1.858,7.329,0.845,11.187c-1.638,6.241-6.085,9.635-12.36,9.264
		c-5.739-0.339-9.987-4.524-10.778-10.65c-0.127-0.98-0.141-1.974-0.169-2.405C662.625,43.297,667.464,38.056,675.247,38.361z"/>
	<path fill="#030303" d="M698.536,61.181c1.805-0.855,3.616-1.085,5.223,0.132c1.681,1.271,1.72,3.006,0.972,4.964
		c-0.921,2.409-2.299,4.53-3.607,6.713c-1.567,2.62-3.781,4.849-5.095,7.984c4.008,0,7.686,0.006,11.364-0.004
		c0.882-0.002,1.729-0.082,1.692-1.314c-0.037-1.23-0.928-1.179-1.774-1.242c-1.803-0.132-3.636,0.275-5.686-0.322
		c1.552-2.49,3.072-4.846,4.506-7.255c1.167-1.958,2.078-4.029,2.136-6.373c0.085-3.407-1.448-5.593-4.459-6.351
		c-3.201-0.805-7.083,0.801-8.339,3.515c-0.134,0.289,0.144,0.769,0.231,1.161C697.166,63.049,697.569,61.639,698.536,61.181z"/>
	<path fill="#FEFEFE" d="M1111.104,608.578c0.624,2.025,1.252,4.049,2.195,7.109c2.292-8.94,4.369-17.266,6.426-25.35
		c0.104-0.404,0.194-0.338,0.284-1.338h-14.771c0.042,1,0.083,0.526,0.126,0.67C1107.247,595.9,1109.182,602.36,1111.104,608.578z"
		/>
	<path fill="#FEFEFE" d="M1091.055,613.624c1.946-0.163,1.721-1.817,2.047-2.866c2.136-6.895,4.179-14.066,6.204-20.994
		c0.052-0.18,0.107,0.236,0.164-0.764h-14.678c0.063,1,0.125,0.723,0.194,0.984C1087.021,597.768,1089.029,605.804,1091.055,613.624
		z"/>
	<path fill="#FDFDFD" d="M757.934,897.919c-1.171-6.307-4.041-8.273-10.425-8.388c-3.506-0.063-7.017,0.469-10.521,0.469
		c-0.043,0-0.086,0-0.128,0c-1.841,0-2.209,0.089-2.172,1.944c0.095,4.97,0.313,9.429,0.313,14.4c0,4.97,0,9.94,0,14.912
		c0,0.141-0.266-0.204-0.282-0.064c-0.239,1.956,0.744,1.808,2.334,1.808c0.042,0,0.081,0,0.125,0c1.564,0,2.73,0.381,2.622-1.721
		c-0.109-2.126,0.091-4.028-0.1-6.142c-0.201-2.229,0.346-3.246,2.313-3.32c0.283-0.011,0.595,0.063,0.939,0.097
		c1.05,0.102,2.115,0.187,3.179,0.178c1.071-0.009,2.14-0.064,3.188-0.214c1.787-0.255,3.391-1.03,4.729-2.173
		C757.127,907.074,758.788,902.522,757.934,897.919z M740,901.524c0-0.424,0-0.849,0-1.271c0-0.282,0-0.565,0-0.848
		c0-6.504-0.154-6.506,5.774-6.139c5.507,0.342,8.01,3.045,7.283,8.1c-0.642,4.47-2.447,6.107-6.583,6.388
		C739.792,908.21,740,908.21,740,901.524z"/>
	<path fill="#FDFDFD" d="M900.336,899.493c-4.446,1.258-7.661,5.093-8.261,9.792c-0.735,5.811,0.62,10.783,5.989,13.856
		c4.65,2.661,9.52,2.143,14.315,0.258c0.943-0.371,0.991-1.315,0.704-2.189c-0.281-0.855-0.773-1.556-1.824-1.397
		c-1.395,0.21-2.771,0.613-4.172,0.7c-6.197,0.385-9.356-2.159-10.248-8.493c5.07,0,9.745-0.13,14.409,0.053
		c2.528,0.099,3.091-0.887,3.014-3.203C914.037,901.803,907.639,897.43,900.336,899.493z M907.511,908.601
		c-3.339,0.01-6.679,0.002-10.532,0.002c2.799-4.819,5.965-6.04,9.717-4.431c0.975,0.418,1.73,0.986,2.137,1.892
		C909.426,907.378,909.533,908.595,907.511,908.601z"/>
	<path fill="#FDFDFD" d="M872.866,921.284c-2.046-0.874-2.144-2.743-2.122-4.668c0.034-2.974,0.086-5.956-0.08-8.923
		c-0.33-5.859-3.135-8.469-9.229-8.462c-1.952-0.17-4.099,0.317-6.173,1.412c-1.422,0.75-1.682,1.74-1.237,3.142
		c0.575,1.811,1.709,0.829,2.701,0.57c0.957-0.25,1.9-0.546,2.867-0.749c1.589-0.333,3.098,0.002,4.529,0.709
		c1.328,0.657,1.752,1.815,1.561,3.186c-0.201,1.446-1.442,1.109-2.344,1.138c-2.313,0.067-4.453,0.791-6.53,1.684
		c-4.464,1.923-6.354,6.247-4.64,10.4c1.547,3.756,6.717,5.451,10.899,3.202c2.285-1.23,4.054-2.181,6.013,0.355
		c0.611,0.788,1.859,0.462,2.844,0.519c1.135,0.064,1.343-0.751,1.668-1.561C873.969,922.313,873.965,921.753,872.866,921.284z
		 M865.726,916.846c-0.187,3.135-4.404,5.431-7.248,4.104c-1.436-0.669-2.195-1.836-2.144-3.313
		c0.063-1.747,0.795-3.263,2.532-4.054c0.51-0.232,1.017-0.653,1.529-0.66c1.668-0.02,3.208-1.051,4.952-0.632
		C866.139,913.771,865.813,915.354,865.726,916.846z"/>
	<path fill="#FDFDFD" d="M777.368,903.846c-1.664,4.286-3.289,8.589-5.085,13.287c-2.555-4.591-4.102-9.141-6.027-13.514
		c-1.756-3.987-1.722-4.004-6.428-2.881c2.728,6.246,5.319,12.506,8.206,18.627c1.186,2.512,1.483,4.613,0.095,7.163
		c-1.539,2.824-2.598,5.911-3.889,8.938c4.843,0.7,4.843,0.7,6.505-3.234c0.88-2.084,1.776-4.161,2.637-6.254
		c3.486-8.469,6.96-16.943,10.466-25.484C778.953,899.819,778.935,899.811,777.368,903.846z"/>
	<path fill="#FDFDFD" d="M820.856,900.038c-1.979-0.004-2.345,0.923-2.318,2.611c0.068,4.259,0.067,8.519,0.004,12.775
		c-0.044,3.104-1.489,4.644-4.54,5.072c-2.481,0.351-4.59-0.992-5.676-3.412c-0.669-1.49-0.705-3.013-0.703-4.573
		c0.005-3.549-0.036-7.099,0.005-10.646c0.019-1.626-0.954-1.84-2.212-1.777c-1.224,0.063-2.783-0.322-2.699,1.714
		c0.209,5.089-0.574,10.206,0.465,15.268c1.463,7.128,7.237,9.925,13.619,6.452c1.121-0.61,1.445-0.561,2.615,0.09
		c2.44,1.355,3.757,0.236,3.802-2.723c0.044-2.98,0.01-5.963,0.009-8.943c-0.001-3.123-0.067-6.248,0.024-9.369
		C823.304,900.805,822.762,900.041,820.856,900.038z"/>
	<path fill="#FDFDFD" d="M843.444,904.314c-1.576,4.295-2.731,8.765-4.825,12.923c-0.457-0.307-0.799-0.406-0.872-0.605
		c-1.513-4.104-3.021-8.212-4.478-12.337c-1.526-4.323-1.502-4.33-6.644-3.952c2.79,7.147,5.52,13.966,8.087,20.843
		c0.666,1.788,1.346,2.821,3.52,2.849c2.264,0.031,3.37-0.825,3.971-2.878c0.437-1.484,1.179-2.877,1.668-4.349
		c1.841-5.53,4.508-10.775,6.051-16.506C844.956,899.979,845.027,900.007,843.444,904.314z"/>
	<path fill="#FEFEFE" d="M887.611,900.088c-0.707-0.016-1.418-0.057-2.122-0.001c-1.495,0.117-2.042-0.594-1.948-2.014
		c0.051-0.846-0.073-1.706,0.014-2.547c0.256-2.501-1.373-2.354-2.982-2.131c-1.877,0.26-1.495,1.794-1.471,2.987
		c0.045,2.072,0.229,4.058-2.875,3.797c-1.134-0.093-1.154,0.974-1.189,1.846c-0.035,0.816,0.246,1.5,1.12,1.4
		c3.045-0.341,3.045,1.566,2.938,3.709c-0.087,1.694-0.018,3.397-0.018,5.097s0.11,3.407-0.021,5.096
		c-0.42,5.403,1.692,8.025,8.379,7.501c1.355-0.107,2.08-0.43,2.084-1.948c0-1.536-1.01-1.332-1.987-1.505
		c-3.68-0.65-3.929-0.942-3.981-4.627c-0.045-3.115-0.024-6.229-0.004-9.346c0.021-3.577-0.662-4.115,3.874-3.935
		c1.147,0.045,2.705,0.503,2.785-1.58C890.285,899.861,888.863,900.118,887.611,900.088z"/>
	<path fill="#FCFCFC" d="M796.546,899.776c-1.825,0.604-2.896,2.214-4.902,3.626c-0.192-2.086-0.498-3.729-2.981-3.317
		c-2.333,0.389-1.376,2.167-1.397,3.347c-0.101,5.672-0.051,11.347-0.042,17.021c0.002,1.786-0.512,3.673,2.585,3.586
		c3.17-0.091,2.353-2.148,2.385-3.815c0.068-3.403,0.205-6.821-0.034-10.209c-0.212-3.016,1.276-4.456,3.833-5.263
		c0.666-0.21,1.398-0.222,2.054-0.454c1.224-0.436,2.462-3.112,1.812-4.243C798.997,898.554,797.711,899.39,796.546,899.776z"/>
	<path fill="#B7177F" d="M225.507,522.747c0.008-33.093,0.015-66.186,0.007-99.279c-0.001-3.87-0.022-3.895-3.956-3.897
		c-24.855-0.008-49.71-0.003-74.566-0.003c-9.8,0-19.6,0.012-29.4-0.007c-3.7-0.006-3.659-0.038-3.664-3.681
		C113.91,403.665,114,391.45,114,379.236c0-2.097,0-4.192,0-7.277c-11,10.61-22.103,20.432-32.659,30.317
		c-16.454,15.411-32.954,30.845-49.373,46.276c-7.36,6.917-14.775,13.819-22.135,20.742c-4.621,4.347-4.55,3.284-0.061,7.508
		c16.749,15.757,33.615,31.392,50.392,47.119c14.239,13.35,28.372,26.743,42.57,40.115c2.325,2.19,4.814,4.382,7.144,6.57
		c1.099,1.033,2.123,1.912,4.123,3.282c0-2.048,0-3.42,0-4.791c0-12.498-0.101-24.997-0.069-37.495
		c0.013-4.62-0.503-4.83,2.391-4.83c0.657,0.003,1.395,0.228,2.438,0.228c0.016,0,0.032,0,0.048,0
		c34.213,0,68.45-0.211,102.664-0.217C225.461,526.783,225.507,526.555,225.507,522.747z"/>
	<path fill="#FEFEFE" d="M334.624,419.362c-33.808-0.007-67.616-0.007-101.425,0c-3.378,0.001-3.407,0.03-3.408,3.407
		c-0.008,33.524-0.008,67.049,0,100.572c0,3.379,0.029,3.407,3.406,3.408c16.762,0.012,33.524,0.004,50.287,0.004
		c17.046,0,34.093,0.006,51.139-0.004c3.378-0.001,3.407-0.029,3.408-3.406c0.008-33.523,0.008-67.049,0-100.572
		C338.029,419.393,338,419.363,334.624,419.362z"/>
	<path fill="#3841F7" d="M445.84,419.36c-33.21-0.002-66.419-0.003-99.627,0.001c-4.22,0-3.915-0.403-3.915,3.85
		c-0.003,33.21-0.003,66.419,0.001,99.628c0,4.217-0.404,3.913,3.85,3.913c16.463,0.004,32.925,0.002,49.389,0.002
		c16.746,0,33.492,0.006,50.239-0.002c4.219-0.002,3.914,0.4,3.914-3.851c0.003-33.209,0.004-66.418,0-99.627
		C449.69,419.054,450.091,419.36,445.84,419.36z"/>
	<path fill="#FEFEFE" d="M561.347,422.771c-0.001-3.379-0.03-3.406-3.406-3.409c-16.62-0.009-33.24-0.004-49.86-0.004
		c-16.904,0-33.808-0.005-50.712,0.004c-3.379,0.003-3.408,0.03-3.409,3.406c-0.008,33.524-0.008,67.048,0,100.573
		c0,3.379,0.029,3.408,3.406,3.408c33.523,0.008,67.048,0.008,100.572,0c3.379,0,3.408-0.029,3.409-3.404
		C561.355,489.82,561.355,456.296,561.347,422.771z"/>
	<path fill="#3841F7" d="M1438.4,470.844c-7.64-7.206-15.339-14.354-22.996-21.538c-24.432-22.914-48.743-45.842-73.188-68.739
		c-2.861-2.682-5.216-5.63-9.216-8.143c0,1.804,0,3.157,0,4.508c0,13.064-0.096,25.97-0.116,39.034
		c-0.004,3.422,0.014,3.034-3.44,3.034c-0.013,0-0.024,0-0.037,0c-0.846,0-1.85,0-2.69,0c-33.372,0-66.741,0-100.112,0
		c-0.637,0-1.282,0.231-1.915,0.291c-0.215,0.02-0.43,0.033-0.642,0.003c-0.273-0.038-0.513-0.042-0.742-0.042
		c-1.654,0.009-2.127,1.026-2.039,2.647c0.014,0.232,0.229,0.475,0.262,0.731c0.055,0.419,0.473,0.994,0.473,1.419
		c0,32.661,0,65.321,0,97.984c0,0.852-0.42,1.926-0.467,2.775c-0.068,1.454,0.284,2.19,1.695,2.19c0.011,0,0.014,0,0.024,0
		c0.479,0,0.945-0.248,1.41-0.242c0.495,0.004,0.989,0.123,1.501,0.123c33.788,0,67.542,0.119,101.324,0.119
		c0.013,0,0.023,0,0.033,0c1.136,0,2.029-0.242,2.733-0.248c3.057-0.031,2.519,0.217,2.536,5.006
		c0.042,12.495-0.062,24.937-0.03,37.433c0.003,1.361-0.761,2.765,0.239,4.185c0,0.002,0-0.022,0-0.022
		c2-0.17,2.223-1.319,3.121-2.153c4.675-4.354,9.348-8.741,14.01-13.11c12.633-11.847,25.277-23.693,37.915-35.534
		c16.777-15.724,33.573-31.438,50.337-47.182C1440.725,473.173,1440.728,473.038,1438.4,470.844z"/>
	<path fill="#B7177F" d="M1105.148,422.882c-0.003-3.468-0.045-3.516-3.423-3.517c-33.802-0.012-67.601-0.012-101.402,0
		c-3.371,0.001-3.412,0.049-3.412,3.527c-0.011,33.375-0.011,66.75,0,100.125c0,3.697,0.031,3.729,3.634,3.731
		c16.758,0.013,33.518,0.005,50.275,0.005c16.76,0,33.518,0.006,50.278-0.002c4.293-0.002,4.054,0.42,4.054-3.745
		C1105.156,489.633,1105.159,456.258,1105.148,422.882z"/>
	<path fill="#FEFEFE" d="M989.232,419.362c-33.524-0.007-67.049-0.007-100.573,0c-3.378,0.001-3.405,0.03-3.409,3.407
		c-0.01,16.62-0.004,33.24-0.004,49.86c0,16.903-0.006,33.81,0.004,50.712c0.004,3.379,0.031,3.408,3.406,3.408
		c33.523,0.008,67.049,0.008,100.573,0c3.378,0,3.409-0.029,3.409-3.406c0.007-33.523,0.007-67.049,0-100.572
		C992.639,419.393,992.607,419.363,989.232,419.362z"/>
	<path fill="#FEFEFE" d="M1216,424.581c0-5.222,0.813-5.581-4.625-5.581c-16.053,0-32.103,0-48.155,0c-16.195,0-32.388,0-48.583,0
		c-5.219,0-4.637,0.359-4.637,5.369c0,32.529,0,65.06,0,97.589c0,4.796-0.582,5.042,4.426,5.042c32.532,0,65.062,0,97.591,0
		c4.796,0,3.983-0.246,3.983-5.256C1216,489.355,1216,456.969,1216,424.581z"/>
	<path fill="#00CB98" d="M1580.992,526.766c0.164-0.016,0.31,0.071,0.459,0.067c1.556-0.023,2.281,0.724,2.262,2.355
		c-0.069,6.247,0.287,12.343,0.287,18.59c0,8.495,0,16.989,0,26.322c0-1.05,1.562-1.448,2.064-1.918
		c0.291-0.272,0.537-0.547,0.828-0.82c9.022-8.462,17.914-16.939,26.947-25.399c13.055-12.225,26.063-24.425,39.114-36.652
		c11.808-11.064,23.581-22.133,35.344-33.241c3.847-3.632,3.109-2.94-0.109-6.026c-6.453-6.191-12.996-12.301-19.52-18.416
		c-25.791-24.165-51.379-48.322-77.174-72.467c-0.832-0.779-1.574-1.559-2.406-2.337c-1.589-1.488-3.089-3.161-5.089-4.211
		c0,1.108,0,1.815,0,2.522c0,10.327-0.059,20.654-0.101,30.982c-0.014,3.402,0.101,6.803,0.101,10.205c0,0.046,0,0.092,0,0.138
		c0,2.053-0.708,2.979-2.584,2.935c-0.232-0.005-0.567-0.039-0.845-0.075c-0.979-0.125-2.188-0.319-3.183-0.319
		c-33.515,0-67.028,0-100.543,0c-1.137,0-2.107,0.328-3.244,0.305c-1.256-0.024-1.602,0.738-1.602,1.972c0,0.05,0,0.104,0,0.154
		c0,0.802,0,1.656,0,2.452c0,0.006,0,0.013,0,0.02c0,0.04,0,0.08,0,0.12c0,32.619-0.17,65.286-0.166,97.902
		c0,0.451,0.093,0.907,0.097,1.363c0.003,0.405,0.069,0.81,0.069,1.21c0,0.038,0,0.073,0,0.111c0,0.049,0,0.094,0,0.143
		c0,0.178-0.152,0.35-0.127,0.515c0.115,0.79,0.417,1.397,1.142,1.601c0.177,0.05,0.333,0.078,0.551,0.076
		c0.04,0,0.051-0.168,0.091-0.17c0.988-0.053,1.966,0.227,2.957,0.227c33.799,0,67.598,0,101.396,0
		C1579.005,527,1580.004,526.859,1580.992,526.766z"/>
	<path fill="#FCFCFE" d="M1361.412,317.048c4.547,0.017,6.85-2.235,6.884-6.296c0.035-3.836-2.195-6.081-6.408-6.453
		c-6.776-0.599-6.776-0.599-6.776,6.146C1355.326,318.091,1353.592,317.018,1361.412,317.048z"/>
	<path fill="#FDFDFE" d="M1307.693,331.181c3.517-1.083,5.483-4.018,5.432-8.2c0.148-1.524-0.431-2.971-1.155-4.345
		c-1.862-3.533-5.614-4.971-8.871-3.461c-3.683,1.709-5.306,7.178-3.513,11.825C1300.955,330.548,1304.243,332.244,1307.693,331.181
		z"/>
	<path fill="#FDFBFC" d="M138.437,600c3.338,0,6.343,0,9.668,0c-1.62-3-3.127-8.99-4.873-14.009
		C141.229,590.97,139.554,597,138.437,600z"/>
	<path fill="#FDF9FB" d="M206.75,600c3.57,0,6.618,0,9.984,0c-1.687-3-2.781-9.089-5.184-13.776
		C209.81,591.22,208.336,597,206.75,600z"/>
	<path fill="#FDFEFE" d="M1273.927,310.343c-0.052,0.273-0.007,0.565-0.007,0.849c0,8.465,0,8.45,7.39,7.554
		c2.452-0.297,4.536-1.31,5.129-3.775c0.726-3.01,1.321-6.224-1.02-8.899c-1.362-1.556-8.896-2.884-10.595-1.627
		C1272.852,305.904,1274.305,308.365,1273.927,310.343z"/>
	<path fill="#FDFEFE" d="M1599.285,624.78c-3.895,0.078-3.19-0.572-3.26,5.79c-0.007,0.427-0.004,0.854-0.004,1.278
		c0,0.568,0,1.137,0.004,1.706c0,5.942,0,5.942,5.902,5.71c5.095-0.199,7.206-2.594,7.054-7.988
		C1608.836,626.192,1606.54,624.639,1599.285,624.78z"/>
	<path fill="#BEBEBE" d="M673.578,65.622c6.275,0.371,10.723-3.022,12.36-9.264c1.013-3.857,0.711-7.576-0.845-11.187
		c-1.849-4.289-5.128-6.625-9.846-6.811c-7.783-0.305-12.622,4.936-12.617,14.206c0.029,0.431,0.042,1.425,0.169,2.405
		C663.591,61.098,667.839,65.283,673.578,65.622z"/>
	<path fill="#B8187F" d="M1090.927,621.439c2.643,0.312,3.381-1.073,3.981-3.208c1.918-6.813,3.964-13.587,5.975-20.372
		c0.299-1.004,0.486-2.102,1.54-2.899c1.28,1.534,1.395,3.294,1.862,4.869c1.82,6.104,3.527,12.24,5.258,18.369
		c0.506,1.795,0.881,3.224,3.479,3.3c2.857,0.083,3.187-1.512,3.748-3.483c2.327-8.167,4.769-16.55,7.061-24.728
		c0.377-1.345,0.878-2.287,1.252-4.287h-5.073c-0.09,1-0.181,0.934-0.284,1.338c-2.057,8.084-4.134,16.285-6.426,25.227
		c-0.943-3.061-1.571-5.022-2.195-7.048c-1.922-6.218-3.856-12.647-5.74-18.878c-0.043-0.144-0.084,0.361-0.126-0.639h-5.768
		c-0.057,1-0.112,0.584-0.164,0.764c-2.025,6.928-4.068,13.977-6.204,20.871c-0.326,1.049-0.101,2.765-2.047,2.928
		c-2.025-7.82-4.033-15.826-6.068-23.609c-0.069-0.262-0.132,0.047-0.194-0.953h-5.017c2.774,10,5.575,20.032,8.238,29.95
		C1088.485,620.719,1089.314,621.247,1090.927,621.439z"/>
	<path fill="#B8187F" d="M1049.609,603.557c-0.606-4.269-3.586-6.593-7.935-6.91c-3.95-0.289-7.269,0.876-9.953,4.25
		c-4.935-4.924-7.685-5.451-13.583-2.647c-1.041,0.496-1.509,0.286-2.497-0.242c-2.504-1.332-3.354-0.757-3.378,1.943
		c-0.056,6.249,0,12.502-0.028,18.751c-0.007,1.511-0.065,2.683,2.116,2.732c2.42,0.056,2.386-1.271,2.368-2.954
		c-0.042-3.978,0.024-7.956-0.027-11.934c-0.021-1.812,0.273-3.478,1.979-4.4c2.178-1.176,4.502-1.784,6.939-0.742
		c2.477,1.058,3.027,3.206,3.042,5.603c0.027,3.978,0.09,7.957,0,11.933c-0.042,1.84,0.606,2.466,2.451,2.479
		c1.907,0.012,2.428-0.727,2.383-2.52c-0.097-3.977-0.118-7.959,0.003-11.932c0.108-3.557,1.755-5.417,4.907-5.956
		c4.193-0.718,6.818,1.299,7.037,5.786c0.208,4.253,0.097,8.522,0.038,12.783c-0.021,1.621,0.856,1.845,2.146,1.796
		c1.162-0.045,2.352,0.082,2.32-1.644C1049.846,614.339,1050.369,608.915,1049.609,603.557z"/>
	<path fill="#B8187F" d="M1063.238,621.102c6.288,2.904,12.398,0.271,14.635-6.284c1.235-3.624,1.131-7.264-0.173-10.816
		c-2.64-7.188-9.696-9.473-16.108-5.27c-0.822,0.537-1.6,1.563-2.186-0.096c-0.555-1.565-1.796-1.238-2.809-1.013
		c-1.339,0.299-0.86,1.576-0.863,2.463c-0.028,10.197-0.004,20.393-0.031,30.589c-0.004,1.541,0,2.71,2.15,2.682
		c1.924-0.023,2.396-0.783,2.351-2.533c-0.09-3.617-0.027-7.239-0.027-11.451C1061.567,620.163,1062.372,620.7,1063.238,621.102z
		 M1060.606,606.085c1.29-3.381,4.353-5.535,7.425-5.138c3.139,0.407,5.462,3.156,5.777,6.873c0.049,0.561,0.008,1.129,0.008,2.714
		c0.014-0.172,0.021,0.685-0.129,1.514c-0.568,3.179-2.965,5.564-5.851,5.894c-2.806,0.319-5.826-1.536-7.061-4.432
		C1059.736,611.075,1059.649,608.601,1060.606,606.085z"/>
	<path fill="#B8197F" d="M1007.332,609.416c-0.007-7.68-4.664-12.73-11.777-12.77c-7.331-0.039-12.203,5.083-12.207,12.839
		c0,7.565,4.755,12.672,11.86,12.734C1002.671,622.287,1007.343,617.354,1007.332,609.416z M988.144,609.381
		c0.011-5.444,2.64-8.5,7.276-8.467c4.456,0.033,7.47,3.508,7.438,8.574c-0.031,5.083-3.069,8.49-7.539,8.462
		C990.7,617.921,988.13,614.852,988.144,609.381z"/>
	<path fill="#3841F7" d="M443.543,360.027c-1.197-2.058-1.549-3.318,0.844-5.075c3.732-2.739,4.719-7.925,3.065-12.357
		c-1.625-4.356-5.182-5.75-9.421-5.873c-3.682-0.105-7.371,0.018-11.054-0.062c-1.615-0.034-2.253,0.523-2.245,2.19
		c0.048,10.206,0.066,20.412-0.009,30.616c-0.016,2.113,1.128,2.165,2.685,2.187c1.628,0.022,2.712-0.19,2.622-2.252
		c-0.131-2.971-0.048-5.952-0.019-8.928c0.008-0.812-0.248-1.75,0.624-2.32c1.581-1.032,6.452,0.171,7.469,1.904
		c1.574,2.683,3.054,5.421,4.593,8.125c2.084,3.665,2.092,3.66,6.622,3.125c-0.047-0.274-0.028-0.582-0.151-0.814
		C447.315,366.992,445.534,363.448,443.543,360.027z M436.369,353.725c-0.565,0.014-1.369,0.002-1.369,0.002
		c0-0.003,0-0.006,0-0.009c-2,0-2.027-0.028-2.874,0.007c-1.208,0.048-1.978-0.431-1.963-1.709c0.005-0.435-0.002-0.869-0.002-1.302
		c-0.011-2.678-0.114-5.356-0.144-8.034c-0.008-0.723,0.206-1.174,0.599-1.442c0.27-0.199,0.631-0.308,1.155-0.295
		c0.783,0.019,1.569-0.001,2.354-0.013c0.805-0.012,1.609-0.017,2.399,0.034c4.464,0.289,6.699,2.518,6.604,6.627
		C443.03,351.711,441.056,353.608,436.369,353.725z"/>
	<path fill="#3942F7" d="M356.526,336.72c-3.542-0.114-7.093,0.058-10.634-0.076c-2.004-0.077-2.752,0.535-2.696,2.629
		c0.134,4.96,0.043,9.926,0.043,14.891c0,4.963,0.094,9.93-0.045,14.89c-0.06,2.125,0.738,2.61,2.712,2.636
		c2.1,0.028,2.742-0.729,2.611-2.729c-0.139-2.117,0.093-4.261-0.063-6.376c-0.162-2.193,0.575-3.168,2.848-2.911
		c1.12,0.127,2.267,0.027,3.401,0.021c8.384-0.043,13.297-5.915,11.894-14.208C365.578,339.466,362.716,336.918,356.526,336.72z
		 M361.484,348.987c-0.541,4.524-2.473,6.241-6.938,6.443c-1.186,0.054-2.167,0.097-2.961,0.089
		c-3.455-0.025-3.584-0.997-3.584-6.269c0-0.424,0-0.849,0-1.272c0-0.283,0-0.566,0-0.848c0-5.3,0.128-6.278,3.348-6.289
		c0.742-0.005,1.653,0.042,2.761,0.101C359.676,341.237,362.104,343.795,361.484,348.987z"/>
	<path fill="#3942F7" d="M389.625,334.064c-2.14-0.031-2.189,1.112-2.171,2.674c0.049,4.079,0.017,8.158,0.017,12.205
		c-1.08,0.114-1.536-0.533-2.151-0.843c-4.966-2.493-10.385-1.28-13.702,3.063c-3.641,4.767-3.582,12.337,0.135,17.085
		c3.48,4.447,8.209,5.5,13.192,2.805c1.249-0.675,1.829-1.226,3.337,0.142c1.776,1.614,3.65,0.318,3.659-2.218
		c0.037-10.79-0.011-21.579,0.043-32.369C391.992,334.859,391.557,334.093,389.625,334.064z M387.651,359.951
		c0.148,3.41-0.959,6.13-4.304,7.542c-3.791,1.603-7.017,0.297-8.792-3.43c-0.899-1.887-0.921-3.857-0.772-5.837
		c0.311-4.113,3.113-7.055,6.589-7.045c3.582,0.01,6.857,3.182,7.271,7.067C387.702,358.811,387.651,359.383,387.651,359.951z"/>
	<path fill="#3A43F7" d="M418.758,355.057c-0.529-5.603-4.317-8.333-9.976-8.188c-2.078,0.052-3.759,1.091-6.185,1.967
		c0-4.403-0.088-8.22,0.037-12.03c0.065-1.99-0.51-2.769-2.62-2.747c-2.049,0.021-2.255,1.001-2.249,2.644
		c0.042,10.778,0.042,21.558,0,32.336c-0.006,1.634,0.187,2.632,2.243,2.651c2.101,0.02,2.687-0.74,2.627-2.74
		c-0.123-4.109-0.041-8.225-0.033-12.338c0.003-1.267-0.157-2.594,1.008-3.526c2.123-1.697,4.506-2.407,7.151-1.594
		c2.338,0.718,3.141,2.535,3.433,4.859c0.231,1.84,0.321,3.663,0.325,5.503c0.006,2.695,0.04,5.39,0.004,8.083
		c-0.023,1.68,1.073,1.685,2.27,1.699c1.214,0.014,2.26-0.005,2.228-1.702C418.924,364.974,419.222,359.98,418.758,355.057z"/>
	<path fill="#808080" d="M753.165,901.366c0.727-5.055-1.883-7.758-7.391-8.1c-5.928-0.367-5.774-0.365-5.774,6.139
		c0,0.282,0,0.565,0,0.848c0,0.423,0,0.848,0,1.271c0,6.686-0.154,6.686,6.528,6.229
		C750.665,907.474,752.523,905.836,753.165,901.366z"/>
	<path fill="#808080" d="M906.695,904.172c-3.752-1.609-6.918-0.389-9.717,4.431c3.854,0,7.193,0.008,10.532-0.002
		c2.022-0.006,1.915-1.223,1.321-2.537C908.426,905.158,907.67,904.59,906.695,904.172z"/>
	<path fill="#7F7F7F" d="M860.396,912.922c-0.513,0.007-1.02,0.428-1.529,0.66c-1.737,0.791-2.47,2.307-2.532,4.054
		c-0.052,1.478,0.708,2.645,2.144,3.313c2.844,1.327,7.062-0.969,7.248-4.104c0.087-1.491,0.413-3.074-0.378-4.556
		C863.604,911.871,862.063,912.902,860.396,912.922z"/>
	<path fill="#FEFDFD" d="M1067.837,617.941c2.886-0.329,5.282-2.715,5.851-5.894c0.149-0.829,0.143-1.686,0.129-1.514
		c0-1.585,0.041-2.153-0.008-2.714c-0.315-3.717-2.639-6.466-5.777-6.873c-3.072-0.397-6.135,1.757-7.425,5.138
		c-0.957,2.516-0.87,4.99,0.17,7.425C1062.011,616.405,1065.031,618.261,1067.837,617.941z"/>
	<path fill="#FEFDFD" d="M1002.858,609.488c0.031-5.066-2.982-8.541-7.438-8.574c-4.637-0.033-7.266,3.022-7.276,8.467
		c-0.014,5.471,2.557,8.54,7.176,8.569C999.789,617.979,1002.827,614.571,1002.858,609.488z"/>
	<path fill="#FDFDFE" d="M436.524,340.963c-0.79-0.051-1.594-0.046-2.399-0.034c-0.774,0.012-1.548,0.032-2.311,0.013
		c-0.524-0.012-0.905,0.096-1.197,0.295c-0.394,0.268-0.606,0.719-0.598,1.442c0.03,2.677,0.134,5.355,0.146,8.034
		c0.002,0.434,0.021,0.868,0.016,1.302c-0.014,1.279,0.737,1.757,1.946,1.709c0.847-0.035,0.874-0.007,2.874-0.007
		c0,0.002,0,0.006,0,0.009c0,0,0.804,0.012,1.369-0.002c4.687-0.116,6.661-2.013,6.759-6.135
		C443.223,343.48,440.988,341.251,436.524,340.963z"/>
	<path fill="#FCFCFE" d="M354.056,340.942c-1.082-0.057-1.979-0.104-2.708-0.101c-3.219,0.011-3.348,0.989-3.348,6.289
		c0,0.282,0,0.565,0,0.848c0,0.424,0,0.849,0,1.272c0,5.246,0.164,6.234,3.584,6.269c0.794,0.008,1.769-0.036,2.956-0.089
		c4.465-0.202,6.4-1.919,6.941-6.443C362.101,343.795,359.625,341.237,354.056,340.942z"/>
	<path fill="#FDFDFE" d="M380.372,351.181c-3.476-0.01-6.278,2.932-6.589,7.045c-0.149,1.98-0.126,3.951,0.772,5.837
		c1.775,3.727,5.001,5.032,8.792,3.43c3.345-1.412,4.452-4.132,4.304-7.542c0-0.568,0.051-1.141-0.008-1.703
		C387.229,354.363,383.953,351.191,380.372,351.181z"/>
	<path fill="#3841F7" d="M1275,740.188c0-49.64,0-99.188,0-149.188h-1.896H1264c0,46,0,92.442,0,138.529
		c0,0.71,0.191,1.431,0.288,2.13c0.326,2.354-0.406,3.563-2.875,3.228c-0.978-0.135-1.851,0.113-2.843,0.113
		c-140.92,0-281.84,0-422.76,0c-141.204,0-282.408,0-423.611,0c-5.123,0-5.2-0.271-5.2-5.469c0-40.771,0-81.541,0-122.311
		c0-0.568,0-1.138,0-1.704c0-4.053-0.256-3.755,3.624-3.755c6.677,0,13.371,0.02,20.048-0.008c3.398-0.015,3.408-0.184,3.458-3.664
		c0.063-4.331,0.043-6.09-1.385-7.09h-62.912c-1.506,1-1.481,2.813-1.487,7.297c-0.003,2.538,0.58,3.526,3.286,3.459
		c7.239-0.188,14.488,0.033,21.73-0.072c2.011-0.027,2.914,0.539,2.656,2.635c-0.12,0.98-0.02,1.995-0.02,2.989
		c0,44.741-0.004,89.489,0.008,134.231c0,4.834-0.527,4.304,4.347,4.359c0.711,0.011,1.421,0.102,2.131,0.102
		c144.454,0,288.909,0,433.364,0c144.597,0,289.192,0,433.788,0c0.995,0,2.004-0.207,2.982-0.075
		c2.459,0.333,3.025-0.768,2.709-3.135C1275.217,741.953,1275,741.04,1275,740.188z"/>
</g>
</svg>
