<?xml version="1.0" encoding="utf-8"?>
<!-- Generator: Adobe Illustrator 16.0.3, SVG Export Plug-In . SVG Version: 6.00 Build 0)  -->
<!DOCTYPE svg PUBLIC "-//W3C//DTD SVG 1.1//EN" "http://www.w3.org/Graphics/SVG/1.1/DTD/svg11.dtd">
<svg version="1.1" id="Capa_1" xmlns="http://www.w3.org/2000/svg" xmlns:xlink="http://www.w3.org/1999/xlink" x="0px" y="0px"
	 width="1224.221px" height="296.585px" viewBox="0 0 1224.221 296.585" enable-background="new 0 0 1224.221 296.585"
	 xml:space="preserve">
<g>
	<path fill-rule="evenodd" clip-rule="evenodd" d="M0,103.575C0,69.05,0,34.524,0,0c408.073,0,816.146,0,1224.221,0
		c0,34.524,0,69.05,0,103.575C816.146,103.575,408.073,103.575,0,103.575z"/>
	<path fill-rule="evenodd" clip-rule="evenodd" fill="#FEFEFE" d="M1219.884,4.486c0,31.612,0,62.988,0,94.603
		c-66.371,0-132.653,0-199.177,0c0-31.412,0-62.887,0-94.603C1086.927,4.486,1153.209,4.486,1219.884,4.486z"/>
	<path fill-rule="evenodd" clip-rule="evenodd" fill="#FEFEFE" d="M817.66,99.083c0-31.593,0-62.968,0-94.59
		c66.068,0,132.067,0,198.315,0c0,31.392,0,62.867,0,94.59C950.057,99.083,884.058,99.083,817.66,99.083z"/>
	<path fill-rule="evenodd" clip-rule="evenodd" fill="#FEFEFE" d="M406.417,99.24c-66.422,0-132.604,0-199.027,0
		c0-31.563,0-63.038,0-94.754c66.222,0,132.503,0,199.027,0C406.417,35.899,406.417,67.374,406.417,99.24z"/>
	<path fill-rule="evenodd" clip-rule="evenodd" fill="#FEFEFE" d="M813.226,4.485c0,31.615,0,62.99,0,94.604
		c-66.372,0-132.654,0-199.177,0c0-31.413,0-62.888,0-94.604C680.27,4.485,746.553,4.485,813.226,4.485z"/>
	<path fill-rule="evenodd" clip-rule="evenodd" fill="#FEFEFE" d="M609.473,4.485c0,31.615,0,62.99,0,94.604
		c-66.09,0-132.089,0-198.328,0c0-31.413,0-62.889,0-94.604C477.083,4.485,543.082,4.485,609.473,4.485z"/>
	<path fill-rule="evenodd" clip-rule="evenodd" fill="#FEFEFE" d="M202.811,4.482c0,31.625,0,63,0,94.612
		c-66.093,0-132.092,0-198.329,0c0-31.425,0-62.9,0-94.612C70.433,4.482,136.431,4.482,202.811,4.482z"/>
	<path fill-rule="evenodd" clip-rule="evenodd" fill="#020202" d="M1132.318,56.049c-5.034,0-9.82,0-14.622,0
		c0.608,5.664,2.759,7.674,8.044,7.604c1.264-0.018,2.542-0.153,3.78-0.4c0.912-0.182,1.641-0.364,1.984,0.785
		c0.299,1.001-0.042,1.671-0.989,1.985c-4.492,1.483-8.895,1.767-12.928-1.271c-3.549-2.673-4.389-6.443-3.912-10.589
		c0.447-3.915,2.311-6.925,6.126-8.443C1126.159,43.19,1133.885,47.097,1132.318,56.049z"/>
	<path fill-rule="evenodd" clip-rule="evenodd" fill="#030303" d="M1093.554,40.011c0-1.372,0-2.198,0-3.267
		c6.995,0,13.974,0,20.882,0c0.743,0.992,0.173,1.916,0.453,3.097c-2.943,0-5.584,0-8.535,0c0,8.806,0,17.353,0,25.831
		c-1.455,0.809-2.64,0.616-4.171,0.206c0-8.495,0-17.042,0-25.866C1099.228,40.011,1096.592,40.011,1093.554,40.011z"/>
	<path fill-rule="evenodd" clip-rule="evenodd" fill="#020202" d="M1140.527,65.763c-1.551,0.69-2.625,0.372-3.588,0.387
		c-0.23-0.455-0.445-0.683-0.447-0.914c-0.037-5.629-0.106-11.26-0.023-16.888c0.016-1.093-0.865-2.668,0.882-3.277
		c2.316-0.808,2.164,1.534,3.036,2.625c2.128-1.224,3.525-3.781,6.658-3.345c0.024,1.298,0.026,2.5-0.53,3.579
		c-0.755,0.711-1.682,0.332-2.463,0.601c-2.733,0.942-3.485,1.934-3.516,4.958C1140.496,57.568,1140.527,61.647,1140.527,65.763z"/>
	<path fill-rule="evenodd" clip-rule="evenodd" fill="#020202" d="M901.606,54.827c-1.499-0.988-3.059,0.012-4.335-0.872
		c-0.383-0.88-0.369-1.792,0.099-2.86c2.606,0,5.249,0,8.317,0c0,4.112,0.002,8.164,0,12.216c0,0.928-0.359,1.643-1.256,1.999
		c-10.205,4.047-19.949,1.236-22.695-8.828c-1.681-6.164-1.007-12.25,3.84-16.897c5.025-4.819,11.248-4.644,17.512-2.91
		c2.238,0.621,1.595,2.162,0.82,3.704c-2.664-0.501-5.172-1.424-7.882-1.346c-5.074,0.145-8.524,2.628-10.002,7.493
		c-0.925,3.045-0.919,6.198-0.122,9.209c1.951,7.388,8.52,8.667,13.989,7.69c1.268-0.226,1.817-1.061,1.743-2.442
		C901.525,58.895,901.606,56.797,901.606,54.827z"/>
	<path fill-rule="evenodd" clip-rule="evenodd" fill="#010101" d="M937.72,56.023c0,3.497,0,6.572,0,9.463
		c-1.323,1.25-2.577,0.421-3.98,0.825c0-10.034,0-19.701,0-29.764c3.706,0,7.493-0.19,11.255,0.044
		c5.772,0.358,8.51,3.6,8.402,9.499c-0.105,5.741-3.484,9.592-8.83,9.911C942.357,56.134,940.133,56.023,937.72,56.023z"/>
	<path fill-rule="evenodd" clip-rule="evenodd" d="M929.321,36.684c0.418,1.095,0.478,2.009-0.103,3.142c-4.398,0-8.885,0-13.537,0
		c-0.69,3.087-0.229,5.995-0.332,9.28c3.59,0,7.051,0,10.291,0c0.815,1.272,0.634,2.2,0.303,3.514c-3.368,0-6.834,0-10.477,0
		c0,4.573,0,8.771,0,12.826c-1.263,1.31-2.496,0.492-3.844,0.768c0-10.004,0-19.677,0-29.529
		C917.499,36.684,923.261,36.684,929.321,36.684z"/>
	<path fill-rule="evenodd" clip-rule="evenodd" fill="#020202" d="M298.303,66.223c0-9.982,0-19.533,0-29.603
		c4.393-0.082,8.816-0.622,13.201,0.647c2.983,0.864,4.168,2.331,4.406,5.427c0.206,2.687,0.409,5.409-2.055,7.749
		c3.015,1.595,4.896,3.651,4.731,7.251c-0.225,4.916-2.236,7.629-7.165,8.308c-2.358,0.326-4.784,0.18-7.18,0.216
		C302.411,66.245,300.581,66.223,298.303,66.223z"/>
	<path fill-rule="evenodd" clip-rule="evenodd" fill="#010101" d="M287.116,53.413c2.168,4.126,4.316,8.215,6.488,12.344
		c-3.865,0.631-3.869,0.633-5.574-2.398c-1.106-1.966-2.422-3.853-3.241-5.934c-0.985-2.501-2.542-3.498-5.149-3.11
		c-0.81,0.122-1.651,0.02-2.791,0.02c0,3.97,0,7.727,0,11.678c-1.507,0-2.703,0-4.119,0c0-9.682,0-19.371,0-29.505
		c3.614,0,7.246-0.116,10.867,0.03c4.515,0.181,7.448,2.107,8.399,5.208c1.204,3.925-0.028,7.827-3.363,10.597
		C288.215,52.692,287.743,52.974,287.116,53.413z"/>
	<path fill-rule="evenodd" clip-rule="evenodd" fill="#020202" d="M341.221,41.306c-1.969-0.674-3.771-1.387-5.628-1.9
		c-2.374-0.655-4.757-0.605-6.984,0.604c-3.207,1.743-3.348,5.065-0.27,7.015c1.673,1.06,3.548,1.721,5.472,2.172
		c2.085,0.488,3.973,1.417,5.817,2.451c3.072,1.722,4.122,4.555,3.889,7.848c-0.243,3.465-2.292,5.671-5.559,6.7
		c-3.717,1.171-7.492,1.189-11.287,0.362c-4.354-0.949-4.354-0.944-3.839-5.792c1.531,0.71,2.974,1.445,4.466,2.056
		c2.564,1.049,5.237,1.172,7.894,0.492c2.034-0.521,3.631-1.706,3.904-3.959c0.27-2.235-0.903-3.817-2.821-4.747
		c-1.769-0.857-3.642-1.501-5.481-2.211c-1.312-0.507-2.66-0.919-3.958-1.458c-2.766-1.146-4.928-2.917-5.041-6.148
		c-0.116-3.358,1.3-6.027,4.334-7.646c4.764-2.542,9.604-1.646,14.341,0.003C342.658,37.909,341.262,39.724,341.221,41.306z"/>
	<path fill-rule="evenodd" clip-rule="evenodd" fill="#020202" d="M704.952,66.223c0-10.002,0-19.552,0-29.366
		c3.416-0.699,6.914-0.526,10.349-0.174c6.681,0.684,9.372,5.621,6.626,11.81c-0.282,0.638-0.713,1.209-1.229,2.066
		c3.071,1.545,4.817,3.831,4.5,7.587c-0.37,4.386-2.048,6.769-6.306,7.754c-2.084,0.483-4.212,0.308-6.326,0.32
		C710.171,66.234,707.777,66.223,704.952,66.223z"/>
	<path fill-rule="evenodd" clip-rule="evenodd" fill="#010101" d="M693.753,53.426c2.29,4.331,4.393,8.306,6.519,12.326
		c-3.873,0.639-3.876,0.642-5.581-2.39c-1.106-1.965-2.421-3.853-3.242-5.932c-0.985-2.499-2.537-3.505-5.147-3.114
		c-0.805,0.122-1.644,0.02-2.793,0.02c0,3.967,0,7.725,0,11.443c-1.486,0.666-2.696,0.451-4.118,0.264c0-9.708,0-19.397,0-29.534
		c3.609,0,7.24-0.116,10.862,0.03c4.512,0.18,7.451,2.106,8.402,5.204c1.206,3.923-0.028,7.832-3.359,10.6
		C694.877,52.689,694.404,52.971,693.753,53.426z"/>
	<path fill-rule="evenodd" clip-rule="evenodd" fill="#020202" d="M747.59,41.33c-1.857-0.65-3.688-1.399-5.58-1.926
		c-2.378-0.664-4.805-0.616-7.013,0.585c-3.111,1.691-3.179,5.242-0.141,7.083c1.681,1.019,3.54,1.716,5.471,2.144
		c1.952,0.433,3.711,1.32,5.449,2.245c3.454,1.838,4.402,4.852,4.057,8.552c-0.325,3.484-2.561,5.268-5.538,6.179
		c-5.17,1.584-10.279,1.184-15.262-0.945c-0.325-1.562,0.132-2.885,0.356-4.481c1.923,0.702,3.431,1.992,5.347,2.432
		c1.97,0.453,3.907,0.625,5.874,0.324c2.885-0.441,4.563-1.858,4.875-3.957c0.34-2.283-0.56-3.967-3.371-5.227
		c-3.08-1.378-6.398-2.232-9.452-3.658c-5.501-2.568-5.957-9.607-0.942-13.065c1.776-1.225,3.799-1.844,5.963-1.956
		c2.274-0.118,4.497,0.171,6.716,0.689C748.287,37.255,748.296,37.214,747.59,41.33z"/>
	<path fill-rule="evenodd" clip-rule="evenodd" fill="#010101" d="M550.293,53.395c2.149,4.089,4.296,8.176,6.461,12.295
		c-3.805,0.734-3.807,0.735-5.505-2.274c-0.833-1.474-1.661-2.949-2.483-4.428c-2.685-4.822-2.684-4.823-8.692-4.447
		c0,3.712,0,7.469,0,11.125c-1.464,0.846-2.696,0.511-4.141,0.428c0-9.71,0-19.399,0-29.379c3.811-0.412,7.73-0.341,11.62-0.085
		c3.387,0.222,6.552,1.42,7.552,5.067c1.067,3.89,0.556,7.6-2.91,10.336C551.651,52.464,551.067,52.844,550.293,53.395z"/>
	<path fill-rule="evenodd" clip-rule="evenodd" fill="#030303" d="M503.616,47.054c0-4.566,0-8.627,0-12.568
		c1.306-0.785,2.391-0.544,3.696-0.283c0,10.505,0,21.037,0,31.533c-0.442,0.535-1.125,0.271-1.548,0.517
		c-1.682,0.974-1.473-2.293-3.002-1.306c-1.073,0.694-2.153,1.322-3.377,1.705c-3.167,0.988-6.704-0.179-9.042-3.003
		c-4.816-5.819-2.499-15.715,4.177-18.143C497.601,44.384,500.303,45.237,503.616,47.054z"/>
	<path fill-rule="evenodd" clip-rule="evenodd" fill="#010101" d="M470.359,56.009c0,3.547,0,6.618,0,9.601
		c-1.263,1.063-2.551,0.44-4.011,0.592c0-9.828,0-19.599,0-29.644c3.839,0,7.623-0.2,11.376,0.047
		c5.584,0.367,8.21,3.443,8.235,9.144c0.026,5.916-3.095,9.796-8.408,10.23C475.326,56.161,473.073,56.009,470.359,56.009z"/>
	<path fill-rule="evenodd" clip-rule="evenodd" fill="#010101" d="M512.8,65.872c0-10.53,0-21.04,0-31.479
		c1.061-0.66,2.019-0.43,3.222-0.272c0.666,4.111,0.043,8.319,0.357,12.55c0.904,0.479,1.414-0.412,2.078-0.698
		c6.447-2.779,11.748,0.403,12.111,7.468c0.209,4.074,0.038,8.168,0.038,12.196c-1.117,0.875-2.188,0.608-3.011,0.435
		c-0.754-0.3-0.701-0.776-0.707-1.17c-0.054-3.953,0.144-7.926-0.189-11.854c-0.345-4.069-3.528-5.804-7.294-4.287
		c-1.955,0.788-3.224,2.034-3.144,4.45c0.14,4.199,0.039,8.407,0.039,12.56C515.021,66.385,513.981,66.376,512.8,65.872z"/>
	<path fill-rule="evenodd" clip-rule="evenodd" fill="#010101" d="M124.886,36.862c1.414-0.524,2.648-0.434,4.131-0.124
		c2.09,7.907,4.194,15.866,6.38,24.138c1.667-2.697,2.039-5.537,2.918-8.175c1.334-4.002,2.38-8.101,3.705-12.107
		c0.467-1.414,0.271-3.451,2.948-3.312c2.592,0.136,2.273,2.124,2.732,3.542c2.117,6.559,4.122,13.156,6.452,20.659
		c2.322-8.751,4.419-16.652,6.518-24.563c1.213-0.679,2.452-0.425,4.199-0.205c-2.89,9.875-5.741,19.622-8.562,29.258
		c-4.402,0.306-4.399,0.305-5.481-3.349c-1.947-6.571-3.898-13.142-6.048-20.387c-2.551,8.38-4.885,16.048-7.207,23.677
		c-1.507,0.479-2.888,0.399-4.542,0.027C130.334,56.317,127.612,46.598,124.886,36.862z"/>
	<path fill-rule="evenodd" clip-rule="evenodd" fill="#010101" d="M71.665,65.878c-1.459,0.424-2.403,0.459-3.546,0.07
		c0-6.816,0-13.675,0-20.735c1.796-0.475,3.217-0.362,3.39,2.043c5.869-3.381,8.517-3.1,12.976,1.288
		c1.627-0.759,2.603-2.418,4.421-3.043c6.062-2.083,11.02,1.049,11.244,7.406c0.149,4.227,0.028,8.463,0.028,12.702
		c-1.156,1.046-2.337,0.483-3.75,0.411c0-4.288,0.125-8.361-0.035-12.426c-0.168-4.294-2.853-6.176-6.818-5.039
		c-2.258,0.648-3.51,2.406-3.669,5.574c-0.127,2.531,0.032,5.075-0.034,7.611c-0.037,1.375,0.283,2.791-0.217,4.093
		c-1.002,0.607-1.961,0.381-3.027,0.248c-0.118-0.328-0.359-0.695-0.364-1.065c-0.038-3.806,0.098-7.618-0.083-11.416
		c-0.201-4.179-2.971-6.076-6.946-5.019c-2.482,0.659-3.51,1.854-3.552,4.503C71.615,57.306,71.665,61.528,71.665,65.878z"/>
	<path fill-rule="evenodd" clip-rule="evenodd" fill="#010101" d="M108.863,47.799c6.649-6.008,14.763-1.758,15.865,6.591
		c0.321,2.441-0.045,4.817-0.92,7.079c-1.826,4.725-6.674,6.67-11.5,4.883c-1.172-0.435-1.958-1.703-3.484-1.484
		c0,3.653,0,7.312,0,10.919c-1.048,0.956-2.139,0.621-3.247,0.443c-0.81-1.171-0.395-2.468-0.4-3.692
		c-0.041-8.189-0.074-16.38-0.008-24.57c0.008-0.963-0.744-2.406,0.832-2.904C108.075,44.405,108.056,46.345,108.863,47.799z"/>
	<path fill-rule="evenodd" clip-rule="evenodd" fill="#030303" d="M63.799,55.916c0.065,6.507-4.117,11.102-10.156,11.158
		c-6.128,0.058-10.347-4.377-10.37-10.901c-0.024-6.623,4.041-11.122,10.1-11.181C59.423,44.932,63.733,49.447,63.799,55.916z"/>
	<path fill-rule="evenodd" clip-rule="evenodd" fill="#FAFAFA" d="M1118.156,53.167c1.135-3.698,2.618-4.918,5.801-4.778
		c2.969,0.131,3.916,1.114,4.66,5.1c-2.436,0-4.817,0.038-7.197-0.017C1120.334,53.447,1119.194,53.785,1118.156,53.167z"/>
	<path fill-rule="evenodd" clip-rule="evenodd" fill="#FAFAFA" d="M937.754,52.638c0-4.505,0-8.399,0-12.464
		c2.021-0.527,3.983-0.335,5.892-0.229c4,0.226,5.606,2.177,5.508,6.38c-0.099,4.18-1.81,6.111-5.703,6.299
		C941.647,52.711,939.836,52.638,937.754,52.638z"/>
	<path fill-rule="evenodd" clip-rule="evenodd" fill="#FDFDFD" d="M302.404,62.673c0-3.383,0-6.549,0-10.01
		c2.518,0,4.888-0.132,7.236,0.032c3.127,0.218,4.556,1.833,4.639,4.859c0.09,3.264-0.956,4.688-4.288,5.067
		C307.632,62.89,305.218,62.673,302.404,62.673z"/>
	<path fill-rule="evenodd" clip-rule="evenodd" fill="#FDFDFD" d="M302.328,49.238c0-3.272,0-6.064,0-9.073
		c1.821-0.484,3.647-0.329,5.42-0.209c3.003,0.201,4.375,1.772,4.32,4.631c-0.059,3.019-1.333,4.391-4.322,4.64
		c-0.421,0.034-0.848,0.012-1.272,0.012C305.219,49.239,303.965,49.238,302.328,49.238z"/>
	<path fill-rule="evenodd" clip-rule="evenodd" fill="#FDFDFD" d="M276.933,50.938c0-3.824,0-7.27,0-11.002
		c2.231,0,4.319-0.145,6.379,0.035c3.006,0.262,4.916,2.438,4.94,5.313c0.026,3.181-1.884,5.334-5.011,5.64
		c-0.279,0.027-0.563,0.014-0.844,0.015C280.713,50.939,279.028,50.938,276.933,50.938z"/>
	<path fill-rule="evenodd" clip-rule="evenodd" fill="#FDFDFD" d="M709.009,62.801c0-3.474,0-6.54,0-9.871
		c2.552-0.609,5.209-0.404,7.801-0.173c2.8,0.25,4.078,1.979,4.128,4.891c0.054,3.123-0.906,4.341-3.958,4.969
		c-0.548,0.113-1.118,0.171-1.679,0.177C713.342,62.815,711.382,62.801,709.009,62.801z"/>
	<path fill-rule="evenodd" clip-rule="evenodd" fill="#FDFDFD" d="M708.994,49.238c0-3.255,0-6.046,0-9.05
		c1.791-0.535,3.619-0.345,5.391-0.234c3.005,0.191,4.409,1.781,4.343,4.605c-0.071,3.056-1.313,4.41-4.298,4.666
		c-0.421,0.035-0.848,0.013-1.272,0.013C711.9,49.239,710.642,49.238,708.994,49.238z"/>
	<path fill-rule="evenodd" clip-rule="evenodd" fill="#FDFDFD" d="M683.514,50.931c0-3.82,0-7.165,0-10.8
		c2.199-0.42,4.427-0.35,6.604-0.145c2.955,0.279,4.853,2.582,4.806,5.446c-0.054,3.159-1.998,5.288-5.173,5.478
		C687.806,51.025,685.848,50.931,683.514,50.931z"/>
	<path fill-rule="evenodd" clip-rule="evenodd" fill="#FDFDFD" d="M539.89,39.936c2.455,0,4.542-0.145,6.601,0.035
		c3.01,0.262,4.918,2.435,4.944,5.312c0.026,3.181-1.878,5.402-5.011,5.619c-1.957,0.136-3.931,0.025-6.156,0.025
		C539.593,47.338,540.119,43.778,539.89,39.936z"/>
	<path fill-rule="evenodd" clip-rule="evenodd" fill="#FCFCFC" d="M491.704,55.876c-0.109-1.668,0.348-3.161,1.093-4.527
		c1.733-3.183,5.414-3.919,8.3-1.735c3.443,2.605,4.104,8.494,1.325,11.799c-3.022,3.599-8.117,2.856-9.928-1.484
		C491.953,58.631,491.509,57.271,491.704,55.876z"/>
	<path fill-rule="evenodd" clip-rule="evenodd" fill="#FDFDFD" d="M470.521,39.944c2.277,0,4.243-0.143,6.18,0.03
		c3.636,0.325,5.278,2.449,5.137,6.342c-0.145,3.972-1.854,6.059-5.329,6.288c-1.928,0.128-3.872,0.023-5.988,0.023
		C470.521,48.357,470.521,44.352,470.521,39.944z"/>
	<path fill-rule="evenodd" clip-rule="evenodd" fill="#FCFCFC" d="M120.718,55.352c-0.008,5.479-2.29,8.417-5.903,8.308
		c-3.735-0.111-6.35-3.578-6.146-8.07c0.059-1.295,0.433-2.492,0.968-3.628c1.18-2.502,3.599-3.861,6.11-3.534
		c2.292,0.299,4.195,2.127,4.755,4.706C120.709,54.083,120.693,55.081,120.718,55.352z"/>
	<path fill-rule="evenodd" clip-rule="evenodd" fill="#FDFDFD" d="M59.959,55.973c-0.133,2.089-0.415,3.899-1.569,5.42
		c-1.525,2.008-3.644,2.538-6.027,2.206c-2.306-0.321-3.926-1.667-4.643-3.813c-0.669-1.997-0.903-4.063-0.321-6.223
		c0.947-3.508,2.806-5.183,6.167-5.164c3.255,0.019,5.313,1.799,6.071,5.306C59.815,54.524,59.876,55.37,59.959,55.973z"/>
</g>
<g>
	<path fill-rule="evenodd" clip-rule="evenodd" d="M0,296.585c0-34.242,0-68.483,0-102.726c273.087,0,546.173,0,819.259,0
		c0,34.242,0,68.483,0,102.726C546.173,296.585,273.087,296.585,0,296.585z M814.889,198.329c-66.674,0-132.925,0-199.184,0
		c0,31.402,0,62.58,0,93.714c66.551,0,132.901,0,199.184,0C814.889,260.666,814.889,229.588,814.889,198.329z M611.092,198.339
		c-66.653,0-132.903,0-199.13,0c0,31.412,0,62.59,0,93.842c66.461,0,132.711,0,199.13,0
		C611.092,260.845,611.092,229.668,611.092,198.339z M407.416,198.296c-66.642,0-132.893,0-199.25,0c0,31.368,0,62.546,0,93.779
		c66.518,0,132.868,0,199.25,0C407.416,260.731,407.416,229.655,407.416,198.296z M4.472,198.206c0,31.579,0,62.756,0,93.959
		c66.477,0,132.728,0,198.98,0c0-31.455,0-62.732,0-93.959C137,198.206,70.85,198.206,4.472,198.206z"/>
	<path fill-rule="evenodd" clip-rule="evenodd" fill="#FEFEFE" d="M814.889,198.329c0,31.26,0,62.337,0,93.714
		c-66.282,0-132.633,0-199.184,0c0-31.134,0-62.312,0-93.714C681.964,198.329,748.215,198.329,814.889,198.329z M712.36,249.785
		c5.017,0,10.01,0,14.973,0c0.167-8.074-4.522-12.325-11.23-10.691c-6.222,1.516-8.184,7.221-7.777,11.569
		c0.901,9.636,9.876,12.006,17.043,9.167c1.843-0.73,0.86-1.907,0.281-2.951C717.974,258.627,712.903,257.083,712.36,249.785z
		 M709.709,230.581c-7.308,0-14.173,0-20.98,0c0,1.145,0,2.054,0,3.244c2.838,0,5.477,0,8.436,0c0,8.816,0,17.359,0,26.047
		c1.516,0,2.691,0,4.174,0c0-8.756,0-17.305,0-26.121c2.937,0,5.577,0,8.37,0C709.709,232.567,709.709,231.657,709.709,230.581z
		 M735.004,241.839c-0.365-1.257-0.584-2.016-0.867-2.988c-0.972,0.062-1.883,0.119-2.796,0.177c0,7.14,0,13.988,0,21.062
		c1.443-0.067,2.644-0.124,4.005-0.188c0-4.48,0.123-8.696-0.05-12.9c-0.091-2.235,0.922-3.465,2.761-4.217
		c1.011-0.414,2.123-0.578,3.383-0.906c0.21-1.154,0.427-2.348,0.68-3.747C738.915,237.823,737.32,240.016,735.004,241.839z"/>
	<path fill-rule="evenodd" clip-rule="evenodd" fill="#FEFEFE" d="M611.092,198.339c0,31.329,0,62.506,0,93.842
		c-66.418,0-132.669,0-199.13,0c0-31.252,0-62.43,0-93.842C478.189,198.339,544.439,198.339,611.092,198.339z M494.891,259.991
		c-3.622-10.085-7.128-19.849-10.588-29.48c-1.647,0-2.892,0-4.296,0c-3.513,9.8-6.996,19.521-10.552,29.443
		c1.559,0,2.794,0,4.112,0c1.004-2.824,1.978-5.562,2.927-8.232c3.945,0,7.591,0,11.307,0c1.01,2.817,1.989,5.546,2.965,8.27
		C492.126,259.991,493.236,259.991,494.891,259.991z M538.369,230.519c-3.512,9.8-6.973,19.46-10.509,29.329
		c1.589,0,2.922,0,4.138,0c1.01-2.878,1.934-5.511,2.807-7.998c4.052,0,7.817,0,11.454,0c1.013,2.892,1.932,5.517,2.889,8.25
		c1.46-0.081,2.663-0.146,4.077-0.224c-3.576-9.954-7.047-19.615-10.547-29.358C541.273,230.519,540.03,230.519,538.369,230.519z
		 M526.334,240.125c-6.947-2.858-12.663-0.352-14.657,2.742c-2.63,4.081-2.382,11.263,0.646,14.715
		c3.278,3.737,8.387,4.382,14.043,1.655c-0.163-0.725-0.336-1.496-0.505-2.254c-7.717,1.18-10.933,0.23-11.748-4.169
		c-1.83-9.866,3.125-12.12,11.852-9.431C526.105,242.148,526.212,241.21,526.334,240.125z M507.976,241.964
		c0.194-1.264,0.392-2.552,0.691-4.495c-1.837,0.816-3.035,1.216-4.089,1.854c-1.034,0.624-1.921,1.49-3.055,2.396
		c-0.406-1.186-0.696-2.034-0.994-2.903c-1.005,0.077-1.809,0.139-2.68,0.206c0,7.085,0,13.934,0,20.866c1.407,0,2.604,0,4.027,0
		c0-4.404,0.135-8.613-0.052-12.807c-0.109-2.443,1.098-3.678,3.069-4.459C505.786,242.267,506.793,242.205,507.976,241.964z"/>
	<path fill-rule="evenodd" clip-rule="evenodd" fill="#FEFEFE" d="M407.416,198.296c0,31.359,0,62.435,0,93.779
		c-66.382,0-132.732,0-199.25,0c0-31.233,0-62.411,0-93.779C274.523,198.296,340.773,198.296,407.416,198.296z M298.932,230.518
		c0,10.023,0,19.679,0,29.563c3.615,0,6.982,0.007,10.35-0.005c0.705-0.001,1.415-0.025,2.112-0.117
		c5.944-0.786,9.165-5.321,7.271-10.825c-0.66-1.917-2.533-3.417-3.934-5.212c0.143-0.208,0.624-0.75,0.927-1.378
		c2.899-6.011,0.175-11.282-6.404-11.966C305.926,230.231,302.533,230.518,298.932,230.518z M290.07,260.079
		c1.314-0.058,2.511-0.111,4.139-0.182c-2.344-4.417-4.495-8.471-6.704-12.634c0.705-0.475,1.174-0.744,1.591-1.081
		c3.333-2.697,4.511-6.246,3.379-10.127c-1.038-3.561-3.399-5.362-8.006-5.607c-3.768-0.202-7.555-0.041-11.192-0.041
		c0,10.094,0,19.767,0,29.711c1.437-0.118,2.599-0.213,3.958-0.325c0-3.995,0-7.634,0-11.432c2.16,0,4.099,0,6.273,0
		C285.58,252.061,287.703,255.853,290.07,260.079z M323.378,254.842c-0.249,1.399-0.48,2.701-0.725,4.08
		c5.239,2.333,10.344,2.711,15.509,1.179c4.473-1.326,6.215-4.381,5.674-9.031c-0.351-3.017-2.179-4.9-4.705-6.047
		c-2.93-1.332-6.058-2.222-9.018-3.496c-2.973-1.279-3.72-2.475-3.401-4.645c0.271-1.831,2.05-3.494,4.555-3.778
		c1.643-0.186,3.374-0.024,5.009,0.284c1.505,0.283,2.932,0.979,4.4,1.471c0.353,0.119,0.737,0.145,1.266,0.243
		c0-1.353,0-2.578,0-4.362c-3.438-0.417-6.758-1.117-10.078-1.11c-1.995,0.004-4.204,0.749-5.939,1.789
		c-5.172,3.104-4.815,10.252,0.529,13.021c1.112,0.577,2.366,0.873,3.545,1.325c2.1,0.803,4.248,1.51,6.271,2.474
		c1.989,0.947,3.524,2.39,3.284,4.907c-0.199,2.098-1.897,3.85-4.666,4.146c-2.051,0.22-4.212,0.018-6.244-0.395
		C326.925,256.546,325.32,255.626,323.378,254.842z"/>
	<path fill-rule="evenodd" clip-rule="evenodd" fill="#FEFEFE" d="M4.472,198.206c66.378,0,132.528,0,198.98,0
		c0,31.227,0,62.504,0,93.959c-66.253,0-132.503,0-198.98,0C4.472,260.962,4.472,229.785,4.472,198.206z M64.249,249.89
		c2.745,0,4.992,0.148,7.214-0.029c5.306-0.422,8.483-4.331,8.468-10.198c-0.016-5.802-2.575-8.833-8.202-9.204
		c-3.758-0.247-7.544-0.047-11.419-0.047c0,10.017,0,19.679,0,29.465c1.372,0,2.56,0,3.939,0
		C64.249,256.605,64.249,253.526,64.249,249.89z M129.988,230.392c0,10.17,0,19.835,0,29.738c1.458-0.112,2.643-0.204,3.995-0.309
		c0-1.832,0-3.369,0-4.906c0-1.627,0-3.253,0-5.023c2.656,0,4.769,0.116,6.864-0.022c5.363-0.354,8.656-4.18,8.715-9.975
		c0.062-5.98-2.605-9.115-8.407-9.462C137.519,230.213,133.859,230.392,129.988,230.392z M97.576,241.047
		c-5.538-3.176-9.701-2.809-12.982,0.877c-3.549,3.989-3.917,11.183-0.389,15.237c1.396,1.604,3.566,3.284,5.521,3.467
		c2.548,0.239,5.23-0.976,7.965-1.59c0.726,1.458,2.078,1.33,3.555,0.614c0-10.584,0-21.004,0-31.522c-1.28,0-2.423,0-3.67,0
		C97.576,232.529,97.576,236.616,97.576,241.047z M124.875,259.9c-0.253-5.23-0.079-10.07-0.824-14.763
		c-0.854-5.394-5.867-7.689-10.949-5.563c-0.863,0.361-1.664,0.871-2.793,1.471c0-4.478,0-8.687,0-13.033c-1.299,0-2.351,0-3.476,0
		c0,10.721,0,21.249,0,31.839c1.259,0,2.299,0,3.538,0c0-4.451,0.114-8.682-0.043-12.902c-0.093-2.47,1.258-3.663,3.209-4.395
		c3.862-1.45,6.921,0.446,7.12,4.533c0.186,3.811,0.042,7.638,0.065,11.458c0.002,0.398,0.154,0.795,0.269,1.355
		C122.112,259.9,123.181,259.9,124.875,259.9z"/>
	<path fill-rule="evenodd" clip-rule="evenodd" fill="#020202" d="M712.36,249.785c0.542,7.298,5.613,8.842,13.29,7.093
		c0.579,1.043,1.562,2.22-0.281,2.951c-7.167,2.839-16.142,0.47-17.043-9.167c-0.407-4.348,1.555-10.053,7.777-11.569
		c6.708-1.634,11.398,2.618,11.23,10.691C722.371,249.785,717.377,249.785,712.36,249.785z M723.396,247.237
		c-0.665-3.795-1.535-4.737-4.354-4.97c-3.303-0.274-4.984,1.06-6.161,4.97C716.286,247.237,719.657,247.237,723.396,247.237z"/>
	<path fill-rule="evenodd" clip-rule="evenodd" fill="#030303" d="M709.709,230.581c0,1.076,0,1.986,0,3.17c-2.793,0-5.433,0-8.37,0
		c0,8.816,0,17.364,0,26.121c-1.483,0-2.659,0-4.174,0c0-8.688,0-17.231,0-26.047c-2.959,0-5.598,0-8.436,0c0-1.19,0-2.099,0-3.244
		C695.537,230.581,702.402,230.581,709.709,230.581z"/>
	<path fill-rule="evenodd" clip-rule="evenodd" fill="#070707" d="M735.004,241.839c2.316-1.824,3.91-4.016,7.116-3.706
		c-0.253,1.399-0.47,2.593-0.68,3.747c-1.26,0.328-2.372,0.492-3.383,0.906c-1.839,0.751-2.852,1.982-2.761,4.217
		c0.172,4.204,0.05,8.42,0.05,12.9c-1.361,0.064-2.562,0.121-4.005,0.188c0-7.073,0-13.922,0-21.062
		c0.913-0.058,1.824-0.116,2.796-0.177C734.42,239.824,734.639,240.582,735.004,241.839z"/>
	<path fill-rule="evenodd" clip-rule="evenodd" fill="#010101" d="M494.891,259.991c-1.655,0-2.765,0-4.125,0
		c-0.977-2.724-1.955-5.453-2.965-8.27c-3.716,0-7.362,0-11.307,0c-0.949,2.671-1.923,5.409-2.927,8.232c-1.318,0-2.554,0-4.112,0
		c3.556-9.922,7.04-19.643,10.552-29.443c1.404,0,2.649,0,4.296,0C487.763,240.143,491.27,249.906,494.891,259.991z
		 M482.533,237.115c-0.281,0.034-0.562,0.068-0.843,0.103c-1.264,3.545-2.528,7.09-3.817,10.706c2.997,0,5.711,0,8.646,0
		C485.11,244.104,483.821,240.61,482.533,237.115z"/>
	<path fill-rule="evenodd" clip-rule="evenodd" fill="#010101" d="M538.369,230.519c1.661,0,2.904,0,4.309,0
		c3.5,9.743,6.971,19.404,10.547,29.358c-1.415,0.078-2.617,0.143-4.077,0.224c-0.958-2.733-1.876-5.358-2.889-8.25
		c-3.637,0-7.402,0-11.454,0c-0.873,2.487-1.796,5.12-2.807,7.998c-1.216,0-2.549,0-4.138,0
		C531.396,249.979,534.857,240.319,538.369,230.519z M540.31,236.539c-1.389,3.893-2.709,7.593-4.061,11.385
		c3.064,0,5.745,0,8.622,0c-1.304-3.585-2.483-6.861-3.696-10.123C541.034,237.423,540.712,237.113,540.31,236.539z"/>
	<path fill-rule="evenodd" clip-rule="evenodd" fill="#030303" d="M526.334,240.125c-0.123,1.084-0.229,2.023-0.369,3.258
		c-8.727-2.689-13.681-0.435-11.852,9.431c0.815,4.399,4.031,5.349,11.748,4.169c0.169,0.758,0.342,1.529,0.505,2.254
		c-5.657,2.727-10.766,2.082-14.043-1.655c-3.028-3.452-3.276-10.634-0.646-14.715C513.671,239.774,519.387,237.267,526.334,240.125
		z"/>
	<path fill-rule="evenodd" clip-rule="evenodd" fill="#070707" d="M507.976,241.964c-1.182,0.241-2.19,0.303-3.082,0.656
		c-1.971,0.781-3.178,2.016-3.069,4.459c0.187,4.194,0.052,8.403,0.052,12.807c-1.422,0-2.62,0-4.027,0c0-6.932,0-13.781,0-20.866
		c0.871-0.067,1.674-0.129,2.68-0.206c0.298,0.87,0.588,1.717,0.994,2.903c1.133-0.905,2.021-1.771,3.055-2.396
		c1.054-0.638,2.252-1.038,4.089-1.854C508.368,239.412,508.17,240.7,507.976,241.964z"/>
	<path fill-rule="evenodd" clip-rule="evenodd" fill="#010101" d="M298.932,230.518c3.601,0,6.994-0.286,10.321,0.06
		c6.58,0.684,9.303,5.956,6.404,11.966c-0.303,0.628-0.784,1.17-0.927,1.378c1.401,1.795,3.274,3.295,3.934,5.212
		c1.894,5.504-1.327,10.04-7.271,10.825c-0.698,0.092-1.407,0.115-2.112,0.117c-3.368,0.012-6.734,0.005-10.35,0.005
		C298.932,250.197,298.932,240.541,298.932,230.518z M302.722,256.515c2.788,0,5.333,0.213,7.826-0.054
		c3.001-0.321,4.288-1.96,4.304-4.76c0.018-2.907-1.561-4.88-4.478-5.121c-2.486-0.205-5.003-0.042-7.652-0.042
		C302.722,249.958,302.722,253.021,302.722,256.515z M302.796,233.83c0,3.337,0,6.213,0,9.268c2.054,0,3.875,0.102,5.682-0.024
		c2.67-0.186,3.832-1.568,3.95-4.426c0.119-2.873-0.936-4.47-3.535-4.772C306.965,233.649,304.99,233.83,302.796,233.83z"/>
	<path fill-rule="evenodd" clip-rule="evenodd" fill="#010101" d="M290.07,260.079c-2.367-4.226-4.491-8.018-6.563-11.717
		c-2.174,0-4.113,0-6.273,0c0,3.798,0,7.437,0,11.432c-1.358,0.111-2.521,0.207-3.958,0.325c0-9.945,0-19.617,0-29.711
		c3.637,0,7.425-0.161,11.192,0.041c4.607,0.245,6.968,2.046,8.006,5.607c1.132,3.881-0.046,7.431-3.379,10.127
		c-0.417,0.337-0.886,0.605-1.591,1.081c2.209,4.163,4.36,8.217,6.704,12.634C292.582,259.968,291.384,260.021,290.07,260.079z
		 M277.223,244.804c1.805,0,3.209,0,4.613,0c0.564,0,1.13,0.033,1.691-0.008c3.242-0.242,5.076-2.227,5.125-5.523
		c0.044-2.972-1.727-5.128-4.773-5.414c-2.177-0.205-4.389-0.04-6.656-0.04C277.223,237.637,277.223,240.979,277.223,244.804z"/>
	<path fill-rule="evenodd" clip-rule="evenodd" fill="#020202" d="M323.378,254.842c1.942,0.784,3.547,1.705,5.268,2.054
		c2.031,0.413,4.192,0.615,6.244,0.395c2.769-0.296,4.466-2.048,4.666-4.146c0.24-2.517-1.295-3.959-3.284-4.907
		c-2.024-0.964-4.171-1.671-6.271-2.474c-1.179-0.452-2.433-0.748-3.545-1.325c-5.344-2.769-5.701-9.917-0.529-13.021
		c1.736-1.041,3.945-1.785,5.939-1.789c3.32-0.007,6.64,0.693,10.078,1.11c0,1.784,0,3.009,0,4.362
		c-0.528-0.098-0.913-0.124-1.266-0.243c-1.468-0.491-2.895-1.188-4.4-1.471c-1.635-0.308-3.366-0.47-5.009-0.284
		c-2.505,0.284-4.285,1.947-4.555,3.778c-0.319,2.17,0.428,3.366,3.401,4.645c2.96,1.273,6.088,2.164,9.018,3.496
		c2.526,1.147,4.354,3.03,4.705,6.047c0.541,4.65-1.202,7.706-5.674,9.031c-5.166,1.532-10.27,1.154-15.509-1.179
		C322.898,257.543,323.129,256.241,323.378,254.842z"/>
	<path fill-rule="evenodd" clip-rule="evenodd" fill="#020202" d="M64.249,249.89c0,3.636,0,6.715,0,9.987c-1.38,0-2.567,0-3.939,0
		c0-9.786,0-19.448,0-29.465c3.875,0,7.662-0.2,11.419,0.047c5.627,0.37,8.187,3.401,8.202,9.204
		c0.016,5.868-3.162,9.776-8.468,10.198C69.241,250.039,66.994,249.89,64.249,249.89z M64.491,246.478
		c2.193,0,4.284,0.133,6.352-0.031c3.079-0.245,4.643-2.239,4.838-5.832c0.222-4.088-0.967-6.189-4.242-6.643
		c-2.295-0.318-4.67-0.062-6.948-0.062C64.491,238.245,64.491,242.17,64.491,246.478z"/>
	<path fill-rule="evenodd" clip-rule="evenodd" fill="#020202" d="M129.988,230.392c3.871,0,7.531-0.178,11.167,0.041
		c5.801,0.348,8.469,3.482,8.407,9.462c-0.06,5.795-3.353,9.622-8.715,9.975c-2.096,0.138-4.208,0.022-6.864,0.022
		c0,1.77,0,3.396,0,5.023c0,1.537,0,3.074,0,4.906c-1.352,0.104-2.537,0.196-3.995,0.309
		C129.988,250.227,129.988,240.562,129.988,230.392z M134.265,233.81c0,4.517,0,8.531,0,12.683c2.106,0,3.935,0.086,5.752-0.019
		c3.549-0.206,5.216-2.228,5.303-6.264c0.09-4.164-1.321-6.025-5.08-6.369C138.304,233.665,136.339,233.81,134.265,233.81z"/>
	<path fill-rule="evenodd" clip-rule="evenodd" fill="#020202" d="M97.576,241.047c0-4.431,0-8.518,0-12.916c1.247,0,2.391,0,3.67,0
		c0,10.518,0,20.938,0,31.522c-1.477,0.716-2.829,0.844-3.555-0.614c-2.735,0.614-5.417,1.829-7.965,1.59
		c-1.955-0.183-4.125-1.863-5.521-3.467c-3.528-4.054-3.161-11.249,0.389-15.237C87.875,238.238,92.039,237.871,97.576,241.047z
		 M92.427,242.257c-3.173-0.04-4.819,1.188-5.794,3.243c-1.268,2.671-1.333,5.469-0.195,8.203c1.895,4.554,7.167,5.203,10.159,1.296
		c2.53-3.302,1.861-8.958-1.47-11.449C94.159,242.827,92.909,242.48,92.427,242.257z"/>
	<path fill-rule="evenodd" clip-rule="evenodd" fill="#020202" d="M124.875,259.9c-1.694,0-2.762,0-3.885,0
		c-0.115-0.561-0.266-0.958-0.269-1.355c-0.022-3.82,0.121-7.647-0.065-11.458c-0.199-4.087-3.257-5.983-7.12-4.533
		c-1.951,0.732-3.302,1.925-3.209,4.395c0.157,4.22,0.043,8.451,0.043,12.902c-1.239,0-2.279,0-3.538,0c0-10.59,0-21.118,0-31.839
		c1.125,0,2.177,0,3.476,0c0,4.346,0,8.555,0,13.033c1.129-0.6,1.931-1.11,2.793-1.471c5.082-2.126,10.095,0.169,10.949,5.563
		C124.795,249.831,124.622,254.67,124.875,259.9z"/>
	<path fill-rule="evenodd" clip-rule="evenodd" fill="#F9F9F9" d="M723.396,247.237c-3.739,0-7.11,0-10.515,0
		c1.177-3.91,2.858-5.244,6.161-4.97C721.862,242.5,722.731,243.441,723.396,247.237z"/>
	<path fill-rule="evenodd" clip-rule="evenodd" fill="#F9F9F9" d="M482.533,237.115c1.289,3.495,2.577,6.989,3.986,10.809
		c-2.935,0-5.649,0-8.646,0c1.289-3.615,2.553-7.161,3.817-10.706C481.971,237.183,482.251,237.148,482.533,237.115z"/>
	<path fill-rule="evenodd" clip-rule="evenodd" fill="#F8F8F8" d="M540.31,236.539c0.402,0.574,0.724,0.884,0.865,1.262
		c1.212,3.262,2.392,6.538,3.696,10.123c-2.876,0-5.558,0-8.622,0C537.601,244.132,538.921,240.432,540.31,236.539z"/>
	<path fill-rule="evenodd" clip-rule="evenodd" fill="#FAFAFA" d="M302.722,256.515c0-3.494,0-6.558,0-9.977
		c2.649,0,5.166-0.163,7.652,0.042c2.917,0.241,4.496,2.214,4.478,5.121c-0.016,2.799-1.303,4.438-4.304,4.76
		C308.055,256.728,305.51,256.515,302.722,256.515z"/>
	<path fill-rule="evenodd" clip-rule="evenodd" fill="#F8F8F8" d="M302.796,233.83c2.193,0,4.169-0.181,6.097,0.045
		c2.599,0.302,3.654,1.899,3.535,4.772c-0.118,2.858-1.28,4.241-3.95,4.426c-1.807,0.126-3.628,0.024-5.682,0.024
		C302.796,240.043,302.796,237.167,302.796,233.83z"/>
	<path fill-rule="evenodd" clip-rule="evenodd" fill="#FAFAFA" d="M277.223,244.804c0-3.826,0-7.167,0-10.984
		c2.268,0,4.479-0.165,6.656,0.04c3.046,0.286,4.817,2.442,4.773,5.414c-0.049,3.297-1.883,5.281-5.125,5.523
		c-0.561,0.041-1.127,0.008-1.691,0.008C280.432,244.804,279.028,244.804,277.223,244.804z"/>
	<path fill-rule="evenodd" clip-rule="evenodd" fill="#FDFDFD" d="M64.491,246.478c0-4.307,0-8.232,0-12.567
		c2.278,0,4.653-0.256,6.948,0.062c3.274,0.453,4.464,2.554,4.242,6.643c-0.195,3.593-1.759,5.587-4.838,5.832
		C68.775,246.61,66.684,246.478,64.491,246.478z"/>
	<path fill-rule="evenodd" clip-rule="evenodd" fill="#FDFDFD" d="M134.265,233.81c2.074,0,4.039-0.145,5.975,0.031
		c3.759,0.344,5.17,2.205,5.08,6.369c-0.087,4.036-1.753,6.059-5.303,6.264c-1.817,0.105-3.646,0.019-5.752,0.019
		C134.265,242.341,134.265,238.327,134.265,233.81z"/>
	<path fill-rule="evenodd" clip-rule="evenodd" fill="#FDFDFD" d="M92.427,242.257c0.481,0.223,1.732,0.569,2.7,1.293
		c3.331,2.49,4,8.146,1.47,11.449c-2.991,3.907-8.264,3.257-10.159-1.296c-1.138-2.734-1.073-5.532,0.195-8.203
		C87.608,243.445,89.254,242.218,92.427,242.257z"/>
</g>
</svg>
