<?xml version="1.0" encoding="utf-8"?>
<!-- Generator: Adobe Illustrator 16.0.3, SVG Export Plug-In . SVG Version: 6.00 Build 0)  -->
<!DOCTYPE svg PUBLIC "-//W3C//DTD SVG 1.1//EN" "http://www.w3.org/Graphics/SVG/1.1/DTD/svg11.dtd">
<svg version="1.1" id="Capa_1" xmlns="http://www.w3.org/2000/svg" xmlns:xlink="http://www.w3.org/1999/xlink" x="0px" y="0px"
	 width="1267.101px" height="237.364px" viewBox="0 0 1267.101 237.364" enable-background="new 0 0 1267.101 237.364"
	 xml:space="preserve">
<g>
	<path fill-rule="evenodd" clip-rule="evenodd" d="M633.551,98.33c-210.042,0-420.085-0.007-630.128,0.069
		C0.632,98.4-0.011,97.772,0,94.979C0.116,64.46,0.116,33.939,0,3.42C-0.011,0.628,0.632,0,3.422,0
		c221.084,0.076,442.169,0.069,663.254,0.069c199.001,0,398.001,0.007,597.002-0.069c2.792,0,3.434,0.627,3.423,3.419
		c-0.116,30.521-0.116,61.041,0,91.56c0.011,2.793-0.631,3.421-3.423,3.42C1053.637,98.323,843.593,98.33,633.551,98.33z"/>
	<path fill-rule="evenodd" clip-rule="evenodd" fill="#FEFEFE" d="M766.424,94.607c-73.692,0-147.385-0.025-221.077,0.081
		c-3.362,0.004-4.203-0.803-4.186-4.178c0.149-27.789,0.131-55.579,0.013-83.368c-0.012-2.789,0.66-3.419,3.43-3.417
		c148.128,0.076,296.256,0.076,444.387,0c2.772-0.001,3.438,0.634,3.428,3.419c-0.118,27.913-0.128,55.828,0.008,83.741
		c0.015,3.101-0.727,3.804-3.811,3.8C914.552,94.585,840.488,94.607,766.424,94.607z"/>
	<path fill-rule="evenodd" clip-rule="evenodd" fill="#FEFEFE" d="M1129.69,94.607c-43.297,0-86.594-0.036-129.889,0.078
		c-3.087,0.009-3.827-0.702-3.811-3.801c0.136-27.913,0.124-55.826,0.008-83.738c-0.011-2.783,0.651-3.425,3.427-3.422
		c86.841,0.083,173.682,0.083,260.523,0c2.771-0.002,3.44,0.633,3.429,3.419c-0.117,28.037-0.117,56.074,0,84.111
		c0.012,2.783-0.649,3.429-3.428,3.423C1216.53,94.578,1173.111,94.607,1129.69,94.607z"/>
	<path fill-rule="evenodd" clip-rule="evenodd" fill="#FEFEFE" d="M405.023,94.607c-42.924,0-85.848-0.037-128.772,0.078
		c-3.085,0.009-3.826-0.701-3.811-3.801c0.137-27.913,0.125-55.826,0.009-83.738c-0.012-2.783,0.65-3.425,3.427-3.422
		c86.096,0.083,172.193,0.083,258.289,0c2.771-0.002,3.441,0.631,3.43,3.419c-0.117,28.037-0.117,56.074,0,84.111
		c0.012,2.782-0.65,3.429-3.426,3.423C491.12,94.578,448.072,94.607,405.023,94.607z"/>
	<path fill-rule="evenodd" clip-rule="evenodd" fill="#FEFEFE" d="M136.67,3.792c42.8,0,85.601,0.037,128.4-0.078
		c3.088-0.008,3.823,0.707,3.808,3.803c-0.137,27.913-0.126,55.826-0.009,83.738c0.012,2.787-0.657,3.422-3.429,3.42
		c-86.097-0.083-172.193-0.083-258.289,0c-2.776,0.003-3.44-0.638-3.428-3.421c0.117-28.038,0.117-56.075,0-84.112
		c-0.012-2.786,0.656-3.427,3.429-3.42C50.325,3.822,93.497,3.792,136.67,3.792z"/>
	<path fill-rule="evenodd" clip-rule="evenodd" fill="#040404" d="M768.891,45.492c5.836-2.213,9.166-1.742,11.698,1.493
		c2.65,3.386,2.856,8.875,0.473,12.544c-2.021,3.113-5.371,4.415-8.588,3.403c-1.705-0.537-3.218-2.374-5.309-0.417
		c-0.662,0.617-1.751-0.069-1.744-1.486c0.051-8.419,0.037-16.839,0.012-25.258c-0.003-1.157,0.535-1.475,1.583-1.478
		c1.104-0.002,1.925,0.086,1.895,1.545C768.845,39.019,768.891,42.203,768.891,45.492z"/>
	<path fill-rule="evenodd" clip-rule="evenodd" fill="#030303" d="M607.635,49.296c0-3.211,0.193-6.437-0.059-9.628
		c-0.214-2.72,0.825-3.398,3.323-3.169c2.328,0.213,4.7-0.068,7.032,0.119c4.865,0.389,7.254,3.114,7.289,8.056
		c0.035,4.906-2.697,8.343-7.107,8.939c-0.244,0.033-0.492,0.032-0.739,0.049c-5.928,0.41-5.915,0.41-6.062,6.239
		c-0.03,1.202,0.671,2.747-1.714,2.761c-2.169,0.013-1.982-1.216-1.972-2.623C607.654,56.459,607.635,52.878,607.635,49.296z"/>
	<path fill-rule="evenodd" clip-rule="evenodd" fill="#010101" d="M687.411,46.464c4.278-3.157,7.99-3.286,11.061-0.421
		c3.392,3.162,4.008,10.149,1.246,14.099c-2.452,3.504-6.351,3.952-12.25,1.176c0,2.833-0.032,5.5,0.014,8.166
		c0.021,1.249-0.079,2.081-1.728,2.096c-1.813,0.017-1.587-1.075-1.587-2.186c0.003-7.556-0.032-15.111,0.046-22.665
		c0.009-0.906-0.807-2.319,0.891-2.722C687.188,43.513,686.852,45.446,687.411,46.464z"/>
	<path fill-rule="evenodd" clip-rule="evenodd" fill="#010101" d="M631.426,45.634c8.48-3.607,12.537-0.846,12.547,8.152
		c0.002,2.357-0.043,4.716,0.018,7.071c0.03,1.202-0.24,1.813-1.632,1.778c-1.292-0.034-1.726-0.488-1.7-1.752
		c0.059-2.976,0.087-5.957-0.01-8.931c-0.093-2.88-0.978-5.132-4.537-5c-3.269,0.122-4.653,1.587-4.669,5.203
		c-0.011,2.849,0.001,5.699,0.005,8.548c0.001,1.016,0.053,1.894-1.473,1.941c-1.63,0.05-1.785-0.753-1.779-2.025
		c0.033-8.049,0.031-16.099,0.032-24.148c0-1.122-0.215-2.196,1.582-2.205c1.769-0.009,1.634,1.003,1.624,2.166
		C631.409,39.403,631.426,42.375,631.426,45.634z"/>
	<path fill-rule="evenodd" clip-rule="evenodd" fill="#010101" d="M708.1,45.649c8.341-3.589,12.522-0.858,12.544,7.792
		c0.006,2.48-0.048,4.963,0.02,7.442c0.035,1.239-0.306,1.777-1.659,1.751c-1.314-0.024-1.696-0.54-1.674-1.775
		c0.055-2.976,0.088-5.957-0.01-8.931c-0.096-2.89-1.011-5.12-4.562-4.976c-3.254,0.133-4.629,1.604-4.646,5.226
		c-0.011,2.726,0.02,5.451-0.014,8.176c-0.012,1.025,0.388,2.246-1.477,2.29c-1.66,0.038-1.758-0.8-1.753-2.048
		c0.03-8.049,0.032-16.098,0.029-24.147c0-1.143-0.176-2.185,1.606-2.184c1.787,0.002,1.604,1.056,1.599,2.192
		C708.089,39.429,708.1,42.401,708.1,45.649z"/>
	<path fill-rule="evenodd" clip-rule="evenodd" fill="#030303" d="M886.376,43.978c3.632-0.06,5.8,1.313,6.485,4.915
		c0.492,2.599,0.184,5.179,0.358,7.761c0.08,1.197-0.288,2.761,1.038,3.342c1.712,0.749,1.457,1.904,0.729,2.862
		c-0.808,1.064-2.345,0.668-2.966-0.086c-1.573-1.915-2.786-1.121-4.474-0.179c-3.053,1.707-6.708,0.591-8.013-2.137
		c-1.491-3.118-0.152-6.197,3.504-7.716c1.35-0.561,2.861-0.724,4.261-1.185c0.872-0.288,2.475,0.613,2.421-1.351
		c-0.043-1.529-0.724-2.658-2.233-3.038c-1.459-0.368-2.915-0.269-4.362,0.319c-0.772,0.314-1.852,1.218-2.337-0.462
		c-0.39-1.343,0.565-1.756,1.473-2.134C883.635,44.314,885.062,43.898,886.376,43.978z"/>
	<path fill-rule="evenodd" clip-rule="evenodd" fill="#020202" d="M915.979,53.668c0.839,5.652,3.052,7.155,9.096,6.631
		c0.978-0.084,2.605-1.558,3.066,0.521c0.486,2.2-1.659,1.794-2.751,2.082c-4.284,1.126-8.164,0.342-11.07-3.228
		c-2.433-2.988-2.553-8.118-0.475-11.574c1.923-3.201,5.979-4.873,9.645-3.885c3.53,0.95,5.325,3.331,5.614,6.966
		c0.143,1.8-0.227,2.76-2.348,2.528c-1.838-0.201-3.714-0.042-5.576-0.042C919.456,53.668,917.729,53.668,915.979,53.668z"/>
	<path fill-rule="evenodd" clip-rule="evenodd" fill="#020202" d="M656.373,43.986c5.208,0.048,9.049,4.168,9.039,9.693
		c-0.011,5.545-3.842,9.638-9.046,9.666c-5.517,0.029-9.098-3.894-9.02-9.883C647.42,47.668,650.976,43.936,656.373,43.986z"/>
	<path fill-rule="evenodd" clip-rule="evenodd" fill="#020202" d="M732.87,43.986c5.225-0.036,9.1,3.968,9.215,9.519
		c0.113,5.491-3.705,9.728-8.867,9.839c-5.51,0.119-9.201-3.762-9.215-9.689C723.991,47.897,727.543,44.024,732.87,43.986z"/>
	<path fill-rule="evenodd" clip-rule="evenodd" fill="#020202" d="M813.573,53.629c0.038-5.871,3.468-9.614,8.837-9.643
		c5.318-0.028,9.28,4.265,9.149,9.915c-0.129,5.564-4.001,9.525-9.233,9.444C816.918,63.263,813.534,59.504,813.573,53.629z"/>
	<path fill-rule="evenodd" clip-rule="evenodd" fill="#010101" d="M838.26,51.634c3.928-2.224,4.279-8.272,10.256-7.59
		c-1.112,2.352-2.837,4.074-4.551,5.595c-2.47,2.192-2.173,3.854-0.092,6.059c1.834,1.943,3.289,4.245,4.993,6.496
		c-3.418,0.504-3.418,0.504-10.167-8.413c-0.807,2.39-0.36,4.652-0.407,6.85c-0.027,1.304-0.173,2.076-1.783,2.008
		c-1.406-0.059-1.563-0.756-1.56-1.88c0.021-8.172,0.034-16.342-0.014-24.513c-0.007-1.389,0.344-1.99,1.855-1.972
		c1.51,0.018,1.478,0.874,1.475,1.92C838.25,41.257,838.26,46.324,838.26,51.634z"/>
	<path fill-rule="evenodd" clip-rule="evenodd" fill="#030303" d="M859.52,53.181c0.001-2.476,0.064-4.954-0.021-7.426
		c-0.057-1.563,1.356-2.437,1.885-1.615c1.594,2.473,2.97,0.736,4.439,0.264c5.148-1.653,9.244,0.708,9.936,6.122
		c0.436,3.414,0.211,6.91,0.339,10.367c0.047,1.269-0.432,1.744-1.708,1.737c-1.227-0.006-1.789-0.362-1.769-1.684
		c0.043-3.092,0.097-6.193-0.07-9.278c-0.188-3.541-1.792-4.894-5.234-4.688c-3.052,0.183-4.811,1.474-4.53,4.901
		c0.211,2.582,0.137,5.2-0.002,7.792c-0.06,1.085,0.989,2.896-1.492,2.952c-2.711,0.062-1.654-1.914-1.735-3.133
		C859.418,57.396,859.519,55.286,859.52,53.181z"/>
	<path fill-rule="evenodd" clip-rule="evenodd" fill="#010101" d="M801.36,53.525c0,1.612,0.002,3.225,0,4.837
		c0,3.316,0,3.272-3.501,3.154c-0.499-0.018-0.993,0.68-1.537,0.95c-4.703,2.339-9.246,0.174-9.883-5.077
		c-0.476-3.916-0.201-7.92-0.298-11.884c-0.027-1.077,0.331-1.558,1.477-1.537c1.13,0.02,1.855,0.153,1.855,1.585
		c0.001,3.466,0.048,6.938,0.266,10.394c0.181,2.849,1.553,4.697,4.751,4.387c3.033-0.294,3.76-2.184,3.61-4.943
		c-0.17-3.091-0.029-6.199-0.046-9.3c-0.006-1.15-0.153-2.181,1.631-2.151c1.688,0.029,1.7,0.939,1.685,2.144
		C801.335,48.564,801.36,51.044,801.36,53.525z"/>
	<path fill-rule="evenodd" clip-rule="evenodd" fill="#030303" d="M908.922,48.235c-1.911-0.895-3.41-1.407-5.084-1.263
		c-1.35,0.115-2.578,0.564-2.865,1.918c-0.303,1.434,0.721,2.226,2.043,2.648c1.292,0.414,2.606,0.806,3.828,1.382
		c2.312,1.087,3.749,2.804,3.474,5.551c-0.276,2.793-2.155,4.098-4.6,4.658c-2.336,0.535-4.68,0.282-6.935-0.602
		c-1.393-0.544-1.932-1.494-1.357-2.909c0.722-1.773,1.568-0.15,2.337-0.015c0.599,0.106,1.154,0.563,1.745,0.595
		c1.898,0.105,4.387,0.959,5.151-1.508c0.822-2.643-1.656-3.164-3.523-3.774c-2.128-0.694-4.48-1.204-5.229-3.648
		c-0.8-2.611-0.151-5.043,2.382-6.379c2.799-1.477,5.798-1.339,8.511,0.271C909.776,45.738,908.915,46.98,908.922,48.235z"/>
	<path fill-rule="evenodd" clip-rule="evenodd" fill="#020202" d="M679.317,48.015c-1.759-0.605-3.493-1.342-5.403-1.004
		c-1.148,0.203-2.152,0.651-2.376,1.963c-0.236,1.378,0.659,2.033,1.749,2.463c1.485,0.585,3.053,0.988,4.487,1.673
		c2.228,1.063,3.249,2.873,3.003,5.413c-0.234,2.445-1.672,3.732-3.86,4.404c-2.195,0.674-4.363,0.5-6.568-0.058
		c-2.252-0.57-3.179-1.728-2.155-4.076c1.9,0.283,3.474,1.781,5.57,1.595c1.521-0.135,3.165-0.078,3.598-1.881
		c0.441-1.834-1.023-2.624-2.426-3.207c-1.019-0.424-2.135-0.608-3.17-1c-2.291-0.866-3.693-2.424-3.59-5.013
		c0.107-2.716,1.649-4.302,4.154-5.012c1.691-0.48,3.398-0.382,5.122,0.015C679.612,44.79,680.354,45.902,679.317,48.015z"/>
	<path fill-rule="evenodd" clip-rule="evenodd" fill="#010101" d="M805.932,47.555c-0.002-3.718,0.017-7.438-0.014-11.156
		c-0.01-1.211,0.01-2.107,1.691-2.135c1.791-0.028,1.623,1.015,1.623,2.157c-0.011,6.693-0.017,13.387,0.003,20.08
		c0.005,1.57-0.328,3.403,1.897,3.842c1.098,0.216,0.991,0.791,0.791,1.591c-0.239,0.953-0.64,1.512-1.763,1.417
		c-2.878-0.244-4.19-1.876-4.218-4.64C805.908,54.992,805.935,51.273,805.932,47.555z"/>
	<path fill-rule="evenodd" clip-rule="evenodd" fill="#020202" d="M749.18,46.332c1.11-0.837,2.119-1.751,3.273-2.412
		c0.745-0.425,2.027-1.373,2.455-0.044c0.277,0.86,0.513,2.892-1.187,3.012c-4.69,0.332-4.64,3.462-4.479,6.851
		c0.087,1.845,0.135,3.71-0.024,5.547c-0.113,1.304,1.07,3.418-1.873,3.351c-2.685-0.062-1.637-1.986-1.67-3.176
		c-0.117-4.069-0.108-8.144-0.003-12.213c0.028-1.073-0.84-2.585,0.849-3.191C748.529,43.333,748.302,45.506,749.18,46.332z"/>
	<path fill-rule="evenodd" clip-rule="evenodd" d="M760.839,53.644c0.001,2.468-0.026,4.937,0.012,7.405
		c0.017,1.033-0.254,1.603-1.431,1.568c-1.078-0.034-1.905-0.068-1.89-1.527c0.051-5.183,0.055-10.367-0.003-15.551
		c-0.015-1.429,0.736-1.549,1.852-1.57c1.139-0.021,1.49,0.458,1.474,1.529C760.813,48.213,760.839,50.929,760.839,53.644z"/>
	<path fill-rule="evenodd" clip-rule="evenodd" d="M851.659,53.303c0-2.468,0.007-4.937-0.004-7.405
		c-0.005-1.013-0.099-1.93,1.434-1.944c1.458-0.014,1.907,0.499,1.89,1.926c-0.067,4.936-0.063,9.874,0,14.81
		c0.018,1.407-0.39,1.961-1.87,1.946c-1.517-0.016-1.462-0.897-1.455-1.927C851.669,58.24,851.659,55.771,851.659,53.303z"/>
	<path fill-rule="evenodd" clip-rule="evenodd" d="M759.129,40.25c-1.769,0.221-1.523-1.006-1.601-2.115
		c-0.095-1.379,0.612-1.564,1.773-1.62c1.796-0.086,1.466,1.085,1.559,2.163C760.977,40.049,760.333,40.425,759.129,40.25z"/>
	<path fill-rule="evenodd" clip-rule="evenodd" d="M853.143,40.254c-1.869,0.206-1.385-1.157-1.497-2.177
		c-0.155-1.435,0.672-1.518,1.784-1.555c1.791-0.06,1.449,1.145,1.533,2.214C855.077,40.172,854.25,40.358,853.143,40.254z"/>
	<path fill-rule="evenodd" clip-rule="evenodd" fill="#020202" d="M1133.426,53.668c-0.992,0-2.001-0.113-2.974,0.03
		c-1.125,0.165-2.752-0.818-3.289,0.618c-0.546,1.459,0.439,2.922,1.443,4.018c2.436,2.66,5.582,2.165,8.683,1.716
		c0.625-0.09,1.393-0.815,1.75,0.402c0.285,0.972,0.126,1.686-0.924,2.039c-3.829,1.288-7.607,1.413-10.992-1.09
		c-3.193-2.361-4.199-5.773-3.58-9.57c0.625-3.842,2.731-6.634,6.672-7.605c2.8-0.691,5.445-0.188,7.645,1.781
		c2.034,1.819,2.821,4.378,2.035,6.765c-0.668,2.025-3.047,0.495-4.614,0.875C1134.695,53.787,1134.046,53.668,1133.426,53.668z"/>
	<path fill-rule="evenodd" clip-rule="evenodd" d="M1113.553,50.81c0-2.837-0.187-5.691,0.057-8.508
		c0.208-2.399-0.669-3.114-2.883-2.795c-0.727,0.104-1.49,0.09-2.22-0.001c-1.047-0.133-2.631,0.702-2.599-1.505
		c0.033-2.217,1.646-1.404,2.658-1.422c4.571-0.078,9.145-0.065,13.715-0.008c0.947,0.012,2.328-0.597,2.441,1.301
		c0.125,2.126-1.369,1.597-2.492,1.643c-5.25,0.218-5.25,0.208-5.25,5.6c0,5.067-0.019,10.133,0.013,15.2
		c0.008,1.328,0.06,2.389-1.852,2.333c-1.771-0.052-1.575-1.096-1.571-2.215c0.011-3.208,0.004-6.415,0.004-9.622
		C1113.567,50.81,1113.56,50.81,1113.553,50.81z"/>
	<path fill-rule="evenodd" clip-rule="evenodd" fill="#010101" d="M1146.825,46.5c1.999-1.215,3.267-3.417,6.084-3.14
		c-0.097,1.902,0.148,3.612-2.789,3.86c-1.883,0.159-3.153,1.564-2.989,3.944c0.212,3.082-0.003,6.191,0.076,9.286
		c0.038,1.458-0.156,2.214-1.955,2.218c-1.966,0.004-1.807-1.078-1.801-2.356c0.021-4.459-0.061-8.92,0.063-13.376
		c0.025-0.98-1.008-2.528,1.046-2.96C1146.637,43.538,1146.271,45.412,1146.825,46.5z"/>
	<path fill-rule="evenodd" clip-rule="evenodd" d="M398.003,49.411c0-3.594,0.069-7.191-0.032-10.784
		c-0.045-1.591,0.426-2.214,2.072-2.108c2.347,0.149,4.711,0.012,7.056,0.175c7.038,0.489,7.465,5.84,5.691,10.395
		c-0.629,1.615-0.681,2.085,0.812,2.998c2.665,1.631,2.367,4.435,2.029,7.032c-0.337,2.586-1.974,4.142-4.459,4.878
		c-3.898,1.154-7.884,0.373-11.824,0.594c-1.582,0.089-1.337-1.071-1.34-2.022C397.997,56.849,398.003,53.13,398.003,49.411z"/>
	<path fill-rule="evenodd" clip-rule="evenodd" fill="#020202" d="M393.99,62.311c-2.528,0.779-3.998,0.17-4.94-2.11
		c-0.796-1.924-2.283-3.582-2.968-5.53c-1.093-3.114-3.495-2.455-5.752-2.487c-1.311-0.02-1.245,0.88-1.245,1.763
		c0.003,2.1,0,4.201,0.001,6.3c0,1.205,0.317,2.449-1.724,2.412c-1.731-0.031-2.015-0.736-2.003-2.238
		c0.058-7.297,0.051-14.596,0.005-21.894c-0.008-1.358,0.311-2.059,1.833-2.003c3.088,0.114,6.202-0.098,9.263,0.219
		c2.626,0.271,5.04,1.286,5.947,4.226c0.991,3.212,0.752,6.401-1.891,8.494c-2.252,1.781-1.96,3.046-0.665,5.085
		C391.362,56.922,392.525,59.52,393.99,62.311z"/>
	<path fill-rule="evenodd" clip-rule="evenodd" fill="#020202" d="M435.511,40.737c-2.941-0.842-5.49-2.348-8.455-1.918
		c-2.174,0.315-4.258,0.998-4.708,3.458c-0.449,2.456,1.404,3.488,3.327,4.235c2.409,0.936,4.887,1.701,7.268,2.701
		c3.357,1.41,4.883,4.057,4.522,7.664c-0.363,3.625-2.794,5.262-6.087,6.023c-2.952,0.682-5.856,0.467-8.822-0.005
		c-3.068-0.492-4.384-1.805-3.016-5.101c2.673,1.609,5.472,2.854,8.687,2.567c2.464-0.22,4.818-0.789,5.338-3.643
		c0.498-2.734-1.46-4.016-3.616-4.891c-2.398-0.973-4.904-1.688-7.283-2.702c-2.39-1.019-4.227-2.661-4.231-5.529
		c-0.005-2.804,1.188-5.043,3.667-6.421c4.14-2.298,8.381-1.481,12.577-0.168C436.713,37.643,435.584,39.187,435.511,40.737z"/>
	<path fill-rule="evenodd" clip-rule="evenodd" fill="#010101" d="M131.72,45.633c0-3.26,0.009-6.222-0.005-9.182
		c-0.005-1.131-0.189-2.18,1.589-2.187c1.76-0.007,1.622,0.996,1.62,2.158c-0.009,8.019-0.019,16.039,0.032,24.058
		c0.009,1.466-0.828,3.036-1.863,1.967c-1.999-2.064-3.146-0.208-4.502,0.325c-2.882,1.13-5.326,0.484-7.536-1.435
		c-3.73-3.238-4.461-9.238-1.706-13.543C121.889,43.824,125.78,43.079,131.72,45.633z"/>
	<path fill-rule="evenodd" clip-rule="evenodd" fill="#010101" d="M101.437,61.275c0,3.02-0.021,5.745,0.01,8.471
		c0.013,1.126-0.156,1.833-1.587,1.829c-1.352-0.004-1.67-0.529-1.665-1.753c0.034-8.046,0.014-16.094,0.03-24.14
		c0.002-0.683-0.208-1.577,0.902-1.663c0.594-0.047,1.417-0.182,1.563,0.575c0.468,2.445,1.328,1.341,2.589,0.542
		c3.331-2.108,7.075-1.43,9.699,1.521c3.223,3.623,3.328,10.532,0.215,14.135C110.561,63.838,107.125,64.031,101.437,61.275z"/>
	<path fill-rule="evenodd" clip-rule="evenodd" fill="#010101" d="M159.797,49.192c0-3.463,0.094-6.932-0.039-10.391
		c-0.067-1.778,0.438-2.41,2.27-2.294c2.588,0.162,5.203-0.079,7.789,0.1c5.056,0.35,7.494,3.161,7.42,8.294
		c-0.073,5.045-3.017,8.396-7.695,8.757c-5.864,0.452-5.877,0.452-6.117,6.591c-0.047,1.245,0.208,2.404-1.777,2.41
		c-1.901,0.006-1.881-0.987-1.866-2.331C159.824,56.616,159.797,52.903,159.797,49.192z"/>
	<path fill-rule="evenodd" clip-rule="evenodd" fill="#020202" d="M142.999,45.743c1.174-0.547,2.117-1.105,3.135-1.439
		c3.688-1.209,7.659,0.612,8.721,4.13c1.276,4.229,0.468,8.608,0.642,12.919c0.052,1.296-0.882,1.2-1.77,1.26
		c-1.318,0.088-1.697-0.53-1.675-1.76c0.054-2.97,0.017-5.941,0.015-8.912c-0.003-2.985-0.935-5.101-4.458-4.981
		c-3.302,0.112-4.593,1.519-4.608,5.211c-0.01,2.847-0.013,5.694,0.004,8.541c0.006,1.04,0.049,1.912-1.467,1.927
		c-1.494,0.017-1.876-0.557-1.868-1.959c0.049-8.169,0.034-16.34,0.015-24.509c-0.003-1.106,0.113-1.844,1.54-1.9
		c1.577-0.063,1.825,0.653,1.795,1.986C142.953,39.346,142.999,42.437,142.999,45.743z"/>
	<path fill-rule="evenodd" clip-rule="evenodd" fill="#FCFCFC" d="M779.334,53.722c-0.043,3.88-2.33,6.682-5.421,6.636
		c-3.158-0.046-5.36-2.844-5.297-6.729c0.063-3.81,2.396-6.654,5.46-6.656C777.143,46.972,779.376,49.837,779.334,53.722z"/>
	<path fill-rule="evenodd" clip-rule="evenodd" fill="#FCFCFC" d="M611.252,44.935c0.579-2.233-1.671-5.931,3.591-5.497
		c4.929,0.407,6.641,1.444,6.682,5.422c0.043,4.222-1.798,5.516-6.627,5.907C609.302,51.221,611.96,47.213,611.252,44.935z"/>
	<path fill-rule="evenodd" clip-rule="evenodd" fill="#FBFBFB" d="M697.998,53.549c0.041,4.1-2,6.807-5.141,6.815
		c-3.161,0.008-5.547-2.803-5.579-6.571c-0.032-3.847,2.531-6.886,5.754-6.825C696.008,47.024,697.957,49.608,697.998,53.549z"/>
	<path fill-rule="evenodd" clip-rule="evenodd" fill="#F8F8F8" d="M889.765,56.087c0.187,3.359-1.921,3.977-4.263,4.263
		c-1.76,0.214-3.247-0.691-3.086-2.365c0.316-3.305,3.236-3.115,5.643-3.516C889.785,54.181,889.917,55.122,889.765,56.087z"/>
	<path fill-rule="evenodd" clip-rule="evenodd" fill="#FAFAFA" d="M925.619,51.435c-2.938,0-5.396-0.036-7.854,0.013
		c-1.582,0.032-1.625-0.725-1.012-1.814c1.146-2.038,2.921-2.932,5.239-2.648C924.465,47.288,925.614,48.735,925.619,51.435z"/>
	<path fill-rule="evenodd" clip-rule="evenodd" fill="#FDFDFD" d="M661.836,53.951c-0.079,4.04-2.164,6.433-5.59,6.413
		c-3.622-0.021-5.726-2.736-5.572-7.195c0.135-3.958,2.32-6.295,5.792-6.199C659.963,47.067,661.92,49.612,661.836,53.951z"/>
	<path fill-rule="evenodd" clip-rule="evenodd" fill="#FDFDFD" d="M738.509,53.942c-0.076,4.042-2.155,6.435-5.577,6.421
		c-3.625-0.015-5.732-2.724-5.585-7.181c0.13-3.939,2.333-6.306,5.782-6.213C736.624,47.063,738.589,49.611,738.509,53.942z"/>
	<path fill-rule="evenodd" clip-rule="evenodd" fill="#FDFDFD" d="M827.979,53.558c0.029,4.342-1.979,6.819-5.517,6.803
		c-3.54-0.015-5.684-2.577-5.667-6.778c0.016-4.152,2.235-6.676,5.818-6.613C825.993,47.029,827.951,49.435,827.979,53.558z"/>
	<path fill-rule="evenodd" clip-rule="evenodd" fill="#FBFBFB" d="M1127.18,51.436c0.777-2.823,2.235-4.33,4.912-4.466
		c1.865-0.095,3.409,0.481,4.258,2.254c0.641,1.338,0.673,2.318-1.335,2.236C1132.487,51.356,1129.956,51.436,1127.18,51.436z"/>
	<path fill-rule="evenodd" clip-rule="evenodd" fill="#FBFBFB" d="M401.475,54.732c-0.676-2.849,0.003-4.421,3.814-4.142
		c5.232,0.382,6.875,1.179,6.862,4.67c-0.013,3.354-1.664,3.998-7.066,4.476C400.717,60.122,401.3,57.626,401.475,54.732z"/>
	<path fill-rule="evenodd" clip-rule="evenodd" fill="#FAFAFA" d="M401.431,44.153c-0.025-2.726-0.783-5.153,3.025-4.708
		c2.811,0.331,5.634,0.125,5.639,4.073c0.004,3.713-2.358,4.058-5.422,4.302C400.81,48.128,401.178,45.963,401.431,44.153z"/>
	<path fill-rule="evenodd" clip-rule="evenodd" fill="#FBFBFB" d="M379.093,44.228c0.077-2.392-1.072-5.166,3.28-4.799
		c4.674,0.396,6.918,1.607,6.917,4.869c-0.001,3.409-2.1,4.592-6.737,4.991C377.642,49.71,379.365,46.375,379.093,44.228z"/>
	<path fill-rule="evenodd" clip-rule="evenodd" fill="#FDFDFD" d="M121.266,53.344c0.078-3.966,2.077-6.429,5.175-6.374
		c3.243,0.057,5.606,3.07,5.531,7.047c-0.073,3.776-2.542,6.499-5.754,6.344C123.091,60.209,121.185,57.508,121.266,53.344z"/>
	<path fill-rule="evenodd" clip-rule="evenodd" fill="#FCFCFC" d="M111.876,53.735c-0.016,4.167-2.037,6.73-5.218,6.617
		c-3.155-0.114-5.399-2.947-5.344-6.748c0.054-3.787,2.386-6.592,5.51-6.631C110.001,46.932,111.892,49.462,111.876,53.735z"/>
	<path fill-rule="evenodd" clip-rule="evenodd" fill="#FAFAFA" d="M163.335,45.025c0.521-2.382-1.626-6.047,3.621-5.594
		c4.916,0.425,6.542,1.409,6.563,5.449c0.021,4.293-1.712,5.501-6.557,5.893C161.332,51.227,164.098,47.149,163.335,45.025z"/>
</g>
<g>
	<path fill-rule="evenodd" clip-rule="evenodd" d="M573.255,138.29c189.944,0,379.887,0.007,569.832-0.069
		c2.792-0.001,3.434,0.627,3.423,3.42c-0.114,30.768-0.114,61.536,0,92.304c0.011,2.793-0.631,3.42-3.423,3.419
		c-261.652-0.074-523.307-0.069-784.961-0.069c-118.234,0-236.468-0.012-354.703,0.07c-2.791,0.002-3.433-0.627-3.422-3.42
		c0.116-30.768,0.116-61.536,0-92.304c-0.011-2.793,0.632-3.421,3.422-3.42C193.367,138.297,383.311,138.29,573.255,138.29z"/>
	<path fill-rule="evenodd" clip-rule="evenodd" fill="#FEFEFE" d="M708.742,142.013c53.344,0,106.691,0.03,160.037-0.078
		c3.098-0.007,3.816,0.722,3.8,3.809c-0.135,28.161-0.125,56.323-0.005,84.484c0.012,2.8-0.677,3.415-3.438,3.412
		c-107.187-0.078-214.375-0.078-321.562,0.003c-2.787,0.001-3.432-0.655-3.422-3.428c0.116-28.285,0.118-56.571-0.001-84.856
		c-0.012-2.8,0.677-3.417,3.437-3.413C601.305,142.036,655.023,142.013,708.742,142.013z"/>
	<path fill-rule="evenodd" clip-rule="evenodd" fill="#FEFEFE" d="M137.036,142.013c43.172,0,86.345,0.036,129.517-0.078
		c3.079-0.008,3.831,0.689,3.815,3.797c-0.138,28.16-0.125,56.322-0.009,84.483c0.011,2.774-0.639,3.429-3.423,3.427
		c-86.593-0.084-173.186-0.084-259.778-0.002c-2.764,0.002-3.446-0.619-3.434-3.415c0.118-28.285,0.117-56.571,0.001-84.855
		c-0.011-2.775,0.638-3.434,3.422-3.428C50.442,142.043,93.739,142.013,137.036,142.013z"/>
	<path fill-rule="evenodd" clip-rule="evenodd" fill="#FEFEFE" d="M407.255,233.573c-43.172,0-86.345-0.037-129.517,0.078
		c-3.089,0.008-3.824-0.706-3.808-3.804c0.136-28.161,0.125-56.322,0.008-84.483c-0.012-2.787,0.657-3.422,3.429-3.419
		c86.593,0.083,173.186,0.083,259.778,0c2.776-0.003,3.439,0.637,3.428,3.421c-0.117,28.286-0.117,56.57,0,84.856
		c0.012,2.787-0.656,3.427-3.429,3.421C493.848,233.543,450.551,233.573,407.255,233.573z"/>
	<path fill-rule="evenodd" clip-rule="evenodd" fill="#FEFEFE" d="M1009.47,142.013c43.172,0,86.344,0.037,129.516-0.078
		c3.09-0.009,3.824,0.707,3.81,3.803c-0.137,28.161-0.127,56.322-0.01,84.483c0.013,2.787-0.655,3.421-3.429,3.419
		c-86.592-0.083-173.186-0.083-259.778,0c-2.776,0.003-3.439-0.638-3.428-3.421c0.116-28.286,0.117-56.571,0-84.855
		c-0.012-2.786,0.657-3.428,3.43-3.422C922.876,142.042,966.172,142.013,1009.47,142.013z"/>
	<path fill-rule="evenodd" clip-rule="evenodd" fill="#010101" d="M749.573,187.912c-0.026-8.319,4.985-13.842,12.605-13.893
		c7.573-0.05,12.906,5.59,12.942,13.682c0.037,8.191-5.13,13.828-12.708,13.864C754.677,201.603,749.598,196.203,749.573,187.912z"
		/>
	<path fill-rule="evenodd" clip-rule="evenodd" d="M683.849,187.42c0-3.471,0.1-6.946-0.039-10.411
		c-0.075-1.815,0.489-2.417,2.292-2.276c2.095,0.164,4.221-0.051,6.315,0.128c6.417,0.549,8.886,4.749,6.136,10.632
		c-0.672,1.439-0.586,1.933,0.765,2.724c2.724,1.593,2.476,4.354,2.187,6.963c-0.29,2.598-1.858,4.226-4.334,4.991
		c-4.009,1.239-8.124,0.47-12.188,0.607c-1.655,0.056-1.098-1.354-1.109-2.202C683.819,194.858,683.849,191.139,683.849,187.42z"/>
	<path fill-rule="evenodd" clip-rule="evenodd" fill="#020202" d="M661.25,200.526c-2.573,0.786-4.007,0.138-4.975-2.117
		c-0.969-2.255-2.396-4.31-3.521-6.504c-0.579-1.131-1.358-1.419-2.599-1.563c-2.944-0.34-4.396,0.432-3.88,3.7
		c0.248,1.567,0.022,3.205,0.074,4.81c0.042,1.263-0.135,2.095-1.766,2.013c-1.347-0.068-2.002-0.325-1.989-1.868
		c0.065-7.422,0.035-14.843,0.022-22.266c-0.002-1.05-0.008-2.005,1.461-1.969c3.335,0.082,6.701-0.116,10,0.268
		c2.615,0.303,4.869,1.493,5.659,4.531c0.863,3.319,0.375,6.302-2.25,8.405c-1.756,1.409-1.896,2.376-0.78,4.182
		C658.32,194.755,659.649,197.536,661.25,200.526z"/>
	<path fill-rule="evenodd" clip-rule="evenodd" fill="#020202" d="M727.236,187.949c-0.044-10.278,8.521-16.498,18.15-13.169
		c1.02,0.353,2.195,0.527,1.833,2.192c-0.423,1.949-1.607,1.016-2.514,0.745c-4.333-1.295-8.494-1.366-11.434,2.629
		c-3.148,4.281-3.025,9.077-0.807,13.715c1.904,3.979,6.1,5.255,11.223,4.087c1.052-0.24,2.9-2.19,3.463,0.531
		c0.481,2.326-1.675,2.029-2.95,2.354C734.745,203.445,727.279,197.663,727.236,187.949z"/>
	<path fill-rule="evenodd" clip-rule="evenodd" fill="#010101" d="M678.959,191.658c0,2.472,0.007,4.945-0.005,7.417
		c-0.003,0.829-0.082,2.303-1.122,1.646c-2.567-1.622-4.361,0.582-6.513,0.821c-3.884,0.434-6.869-1.655-7.237-5.63
		c-0.363-3.926-0.229-7.897-0.339-11.848c-0.03-1.108,0.116-1.839,1.539-1.895c1.583-0.063,1.813,0.664,1.788,1.988
		c-0.053,3.089-0.141,6.191,0.067,9.268c0.185,2.721,0.984,5.265,4.506,5.137c3.435-0.125,4.215-2.275,4.051-5.309
		c-0.161-2.959-0.024-5.933-0.04-8.9c-0.004-1.146-0.11-2.158,1.618-2.192c1.687-0.033,1.725,0.846,1.7,2.076
		C678.927,186.712,678.959,189.185,678.959,191.658z"/>
	<path fill-rule="evenodd" clip-rule="evenodd" fill="#030303" d="M712.662,196.922c2.179,0.987,4.167,2.004,6.52,1.638
		c1.223-0.191,2.192-0.654,2.465-1.876c0.277-1.242-0.398-2.177-1.512-2.663c-1.239-0.539-2.547-0.915-3.81-1.4
		c-2.544-0.978-4.244-2.59-3.854-5.57c0.374-2.877,2.262-4.27,4.956-4.728c1.737-0.294,3.425-0.064,5.129,0.449
		c1.41,0.424,1.753,1.186,1.333,2.477c-0.445,1.367-1.293,0.7-2.066,0.406c-0.344-0.131-0.688-0.36-1.036-0.371
		c-1.81-0.055-4.113-0.696-4.794,1.621c-0.769,2.627,1.787,2.724,3.392,3.424c1.234,0.539,2.619,0.876,3.675,1.657
		c3.301,2.437,2.811,7.07-0.898,8.797c-2.468,1.15-5.038,0.977-7.631,0.278C712.421,200.493,711.619,199.367,712.662,196.922z"/>
	<path fill-rule="evenodd" clip-rule="evenodd" d="M705.013,191.496c0-2.468,0.013-4.937-0.006-7.405
		c-0.009-1.038-0.045-1.902,1.464-1.918c1.494-0.017,1.878,0.559,1.862,1.956c-0.064,4.936-0.067,9.875,0,14.81
		c0.02,1.438-0.452,1.93-1.898,1.917c-1.542-0.014-1.428-0.947-1.425-1.953C705.018,196.433,705.013,193.964,705.013,191.496z"/>
	<path fill-rule="evenodd" clip-rule="evenodd" d="M708.264,176.588c0.294,1.675-0.564,1.914-1.883,1.928
		c-1.583,0.017-1.328-0.996-1.379-1.965c-0.059-1.123,0.113-1.825,1.529-1.82C708.007,174.734,708.581,175.262,708.264,176.588z"/>
	<path fill-rule="evenodd" clip-rule="evenodd" fill="#010101" d="M103.545,199.572c0,2.666,0.007,5.228-0.003,7.789
		c-0.005,1.185,0.382,2.511-1.702,2.438c-1.746-0.062-1.601-1.085-1.6-2.217c0.006-7.807-0.002-15.614,0.013-23.42
		c0.001-0.689-0.254-1.611,0.715-1.84c0.536-0.125,1.65,0.059,1.67,0.213c0.459,3.463,1.881,1.158,3.036,0.555
		c3.193-1.668,6.595-1.066,9.133,1.593c3.423,3.584,3.626,10.666,0.413,14.375C112.643,202.033,109.22,202.218,103.545,199.572z"/>
	<path fill-rule="evenodd" clip-rule="evenodd" fill="#020202" d="M165.605,197.257c0.887,1.92,0.507,2.979-1.601,3.626
		c-5.882,1.806-12.148,0.129-15.391-4.328c-3.537-4.86-3.575-12.739-0.084-17.445c3.402-4.585,9.982-6.36,15.743-4.327
		c1.371,0.483,2.182,1.11,1.656,2.668c-0.597,1.772-1.683,0.4-2.378,0.231c-5.679-1.376-9.297-0.536-11.731,2.893
		c-2.627,3.699-2.737,10.186-0.24,14.085c2.059,3.217,5.869,4.622,10.129,3.679C163.024,198.048,164.31,197.621,165.605,197.257z"/>
	<path fill-rule="evenodd" clip-rule="evenodd" fill="#020202" d="M136.063,182.21c3.774,0.018,5.722,1.622,6.142,5.427
		c0.256,2.32,0.105,4.682,0.176,7.024c0.04,1.351-0.119,3.004,1.248,3.658c1.571,0.752,1.168,1.986,0.707,2.713
		c-0.697,1.098-2.193,0.732-2.893,0.018c-1.529-1.56-2.636-1.465-4.507-0.329c-3.201,1.945-6.829,0.729-8.185-2.246
		c-1.404-3.082,0.009-6.092,3.721-7.598c1.355-0.551,2.861-0.72,4.276-1.142c0.814-0.243,2.236,0.521,2.321-0.973
		c0.077-1.376-0.397-2.746-1.923-3.264c-1.701-0.577-3.366-0.386-5.042,0.305c-0.537,0.22-1.54,1.307-1.91-0.35
		c-0.212-0.953-0.104-1.62,0.882-2.093C132.664,182.599,134.289,182.115,136.063,182.21z"/>
	<path fill-rule="evenodd" clip-rule="evenodd" fill="#0C0C0C" d="M120.784,185.559c-0.001-3.337-0.057-6.677,0.027-10.012
		c0.032-1.268-0.827-3.155,1.833-3.063c2.396,0.082,1.58,1.786,1.592,2.927c0.066,6.18-0.018,12.361,0.062,18.542
		c0.023,1.81-0.793,4.111,2.171,4.738c1.131,0.238,0.263,1.213,0.265,1.85c0.005,1.09-0.795,1.076-1.548,1.032
		c-3.071-0.177-4.344-2.041-4.388-4.888C120.742,192.976,120.785,189.267,120.784,185.559z"/>
	<path fill-rule="evenodd" clip-rule="evenodd" fill="#010101" d="M172.885,185.029c0.003,2.968-0.07,5.938,0.03,8.903
		c0.063,1.836-0.697,4.131,2.267,4.713c1.018,0.2,0.49,1.208,0.398,1.879c-0.132,0.976-0.887,1.097-1.661,1.025
		c-2.558-0.24-4.202-1.511-4.218-4.222c-0.044-7.667-0.001-15.334-0.033-23.002c-0.005-1.163,0.179-1.827,1.587-1.83
		c1.363-0.002,1.665,0.554,1.646,1.776C172.847,177.856,172.883,181.443,172.885,185.029z"/>
	<path fill-rule="evenodd" clip-rule="evenodd" fill="#020202" d="M399.208,187.621c0-3.585,0.07-7.171-0.032-10.753
		c-0.046-1.607,0.461-2.219,2.092-2.128c2.218,0.123,4.458-0.063,6.668,0.123c6.311,0.533,8.832,4.848,6.087,10.601
		c-0.686,1.438-0.599,1.967,0.745,2.742c2.933,1.691,2.473,4.621,2.142,7.279c-0.321,2.57-2.085,4.091-4.559,4.78
		c-3.891,1.083-7.867,0.357-11.8,0.541c-1.529,0.072-1.342-1.083-1.343-2.06C399.206,195.037,399.208,191.329,399.208,187.621z"/>
	<path fill-rule="evenodd" clip-rule="evenodd" fill="#010101" d="M395.313,200.53c-2.63,0.787-4.056,0.032-5.01-2.176
		c-0.928-2.146-2.188-4.149-3.329-6.2c-0.536-0.963-1.059-1.716-2.465-1.82c-2.931-0.217-4.767,0.214-4.099,3.829
		c0.288,1.559-0.036,3.221,0.072,4.825c0.1,1.484-0.472,1.872-1.905,1.882c-1.485,0.009-1.88-0.495-1.869-1.919
		c0.057-7.438,0.034-14.877,0.018-22.316c-0.002-1.072,0.003-1.943,1.496-1.888c3.218,0.12,6.454-0.036,9.655,0.243
		c2.71,0.237,5.117,1.473,5.876,4.336c0.827,3.117,0.8,6.434-2.072,8.47c-2.264,1.605-1.748,2.894-0.688,4.722
		C392.476,195.074,393.807,197.718,395.313,200.53z"/>
	<path fill-rule="evenodd" clip-rule="evenodd" fill="#020202" d="M436.938,178.892c-2.771-0.648-5.275-2.267-8.218-1.867
		c-2.315,0.314-4.532,0.973-4.902,3.663c-0.341,2.468,1.646,3.388,3.522,4.129c2.289,0.904,4.651,1.624,6.934,2.542
		c3.378,1.36,4.996,3.963,4.711,7.566c-0.301,3.805-2.877,5.505-6.303,6.252c-2.823,0.615-5.621,0.404-8.467-0.021
		c-3.024-0.45-4.579-1.631-3.247-5.061c2.77,1.417,5.622,2.861,8.942,2.476c2.315-0.268,4.531-0.811,5.106-3.463
		c0.593-2.734-1.234-4.078-3.42-4.979c-2.279-0.94-4.604-1.773-6.919-2.623c-2.768-1.017-4.791-2.694-4.742-5.883
		c0.053-3.3,1.782-5.604,4.818-6.815c3.776-1.506,7.548-0.78,11.261,0.338C438.272,175.828,437.082,177.474,436.938,178.892z"/>
	<path fill-rule="evenodd" clip-rule="evenodd" fill="#030303" d="M971.642,183.748c0-3.2,0.018-6.041-0.008-8.881
		c-0.013-1.293-0.135-2.44,1.82-2.384c1.706,0.049,1.644,1.014,1.643,2.186c-0.014,8.046-0.053,16.092,0.029,24.138
		c0.016,1.677-0.942,2.734-2.044,1.893c-1.742-1.331-2.809-0.498-4.262,0.154c-3.429,1.539-7.138,0.265-9.313-3.037
		c-2.467-3.747-2.173-9.525,0.651-12.828C962.759,181.95,966.144,181.526,971.642,183.748z"/>
	<path fill-rule="evenodd" clip-rule="evenodd" fill="#020202" d="M1043.709,198.568c0.402-0.061,1.512-0.17,2.594-0.411
		c0.711-0.159,1.139-0.08,1.426,0.657c0.338,0.869,0.076,1.505-0.719,1.786c-3.776,1.334-7.521,1.594-11.008-0.811
		c-3.304-2.279-4.352-5.619-3.864-9.411c0.511-4.014,2.602-6.902,6.711-7.95c3.604-0.918,7.401,0.582,9.018,3.5
		c2.252,4.064,1.175,5.96-3.389,5.961c-2.478,0.001-4.954,0.06-7.429-0.021c-1.47-0.049-1.591,0.599-1.338,1.801
		C1036.394,196.911,1038.939,198.657,1043.709,198.568z"/>
	<path fill-rule="evenodd" clip-rule="evenodd" fill="#070707" d="M1015.293,191.755c0,1.612,0.096,3.231-0.022,4.835
		c-0.162,2.206,1.214,6.21-3.726,3.431c-0.411-0.232-1.438,0.715-2.216,1.023c-4.23,1.678-8.026-0.377-8.966-4.839
		c-0.853-4.053-0.261-8.161-0.451-12.24c-0.058-1.22,0.332-1.758,1.655-1.802c1.558-0.051,1.852,0.655,1.837,2.008
		c-0.035,3.223-0.044,6.45,0.111,9.667c0.134,2.767,1.261,4.854,4.492,4.719c3.261-0.136,4.02-2.15,3.861-5.063
		c-0.168-3.092,0.003-6.2-0.056-9.299c-0.026-1.327,0.233-2.045,1.808-2.039c1.686,0.007,1.698,0.953,1.682,2.157
		C1015.271,186.794,1015.293,189.276,1015.293,191.755z"/>
	<path fill-rule="evenodd" clip-rule="evenodd" fill="#020202" d="M978.582,191.926c-0.03-5.782,3.478-9.652,8.811-9.719
		c5.229-0.066,9.119,3.901,9.273,9.464c0.159,5.642-3.826,9.936-9.183,9.895C982.123,201.526,978.612,197.724,978.582,191.926z"/>
	<path fill-rule="evenodd" clip-rule="evenodd" fill="#030303" d="M1022.261,188.918c0-1.485,0.018-2.972-0.005-4.458
		c-0.03-2.091,0.619-4.633-0.337-6.151c-0.967-1.529-3.67-0.364-5.601-0.542c-0.925-0.084-1.645-0.057-1.675-1.34
		c-0.029-1.303,0.431-1.7,1.699-1.687c5.076,0.052,10.151,0.03,15.229,0.014c1.076-0.004,1.889,0.021,1.876,1.534
		c-0.014,1.526-0.881,1.394-1.905,1.474c-5.694,0.451-5.693,0.47-5.693,6.185c0,4.705,0.041,9.411-0.03,14.115
		c-0.019,1.126,0.814,2.795-1.645,2.818c-2.244,0.021-1.918-1.331-1.915-2.676C1022.264,195.109,1022.261,192.014,1022.261,188.918z
		"/>
	<path fill-rule="evenodd" clip-rule="evenodd" fill="#070707" d="M1061.461,181.407c0.283,2.616-0.428,3.722-2.838,4.077
		c-1.892,0.278-3.078,1.71-2.925,4.042c0.205,3.074,0.049,6.17,0.072,9.258c0.009,1.178,0.036,2.127-1.687,2.099
		c-1.627-0.027-2.115-0.563-2.086-2.157c0.084-4.82,0.086-9.644,0-14.464c-0.031-1.611,1.335-2.884,1.943-1.946
		c2.471,3.81,3.76-0.254,5.549-0.499C1060.086,181.733,1060.672,181.573,1061.461,181.407z"/>
	<path fill-rule="evenodd" clip-rule="evenodd" fill="#FEFEFE" d="M771.263,187.884c0.144,1.68-0.252,3.501-0.92,5.232
		c-1.428,3.694-4.814,5.75-8.778,5.465c-5.667-0.408-8.947-5.702-8.123-13.109c0.625-5.626,5.214-9.293,10.52-8.408
		C768.385,177.802,771.256,181.975,771.263,187.884z"/>
	<path fill-rule="evenodd" clip-rule="evenodd" fill="#FBFBFB" d="M687.266,192.662c-0.749-2.785,0.278-4.087,3.929-3.843
		c5.16,0.347,6.853,1.234,6.803,4.721c-0.047,3.325-1.692,3.946-7.125,4.416C686.415,198.342,687.273,195.665,687.266,192.662z"/>
	<path fill-rule="evenodd" clip-rule="evenodd" fill="#FAFAFA" d="M687.276,182.118c-0.022-2.472-0.78-4.899,3.027-4.452
		c2.811,0.33,5.633,0.125,5.639,4.073c0.005,3.713-2.361,4.049-5.421,4.304C686.627,186.365,687.099,184.125,687.276,182.118z"/>
	<path fill-rule="evenodd" clip-rule="evenodd" fill="#FBFBFB" d="M646.331,182.262c0.035-2.297-0.947-4.981,3.327-4.612
		c4.646,0.4,6.905,1.649,6.87,4.917c-0.035,3.408-2.081,4.87-6.793,4.854C646.315,187.411,646.315,187.411,646.331,182.262z"/>
	<path fill-rule="evenodd" clip-rule="evenodd" fill="#FDFDFD" d="M113.964,191.752c0.031,4.188-1.917,6.829-5.037,6.829
		c-3.187,0-5.515-2.766-5.518-6.554c-0.003-4.014,2.396-6.924,5.634-6.835C112.063,185.275,113.935,187.77,113.964,191.752z"/>
	<path fill-rule="evenodd" clip-rule="evenodd" fill="#F6F6F6" d="M139.195,194.402c0.051,3.272-2.111,3.869-4.365,4.15
		c-1.584,0.199-3.142-0.318-3.059-2.252c0.151-3.489,3.103-3.147,5.409-3.613C138.846,192.35,139.428,193.101,139.195,194.402z"/>
	<path fill-rule="evenodd" clip-rule="evenodd" fill="#FDFDFD" d="M402.733,192.394c-0.842-2.796,0.58-3.764,4.028-3.559
		c5.04,0.299,6.52,1.057,6.59,4.45c0.074,3.619-1.421,4.212-7.141,4.663C401.588,198.313,402.966,195.37,402.733,192.394z"/>
	<path fill-rule="evenodd" clip-rule="evenodd" fill="#FDFDFD" d="M405.894,177.779c3.28-0.179,5.426,0.57,5.494,3.911
		c0.067,3.291-1.354,4.146-5.841,4.281c-5.139,0.154-2.147-3.576-2.682-5.487C401.98,177.321,404.285,177.53,405.894,177.779z"/>
	<path fill-rule="evenodd" clip-rule="evenodd" fill="#FDFDFD" d="M380.459,182.414c0.071-2.476-0.956-5.314,3.567-4.778
		c4.321,0.513,6.491,1.673,6.499,4.858c0.009,3.496-1.951,4.61-6.637,5.015C378.978,187.932,380.762,184.589,380.459,182.414z"/>
	<path fill-rule="evenodd" clip-rule="evenodd" fill="#FCFCFC" d="M961.214,191.713c0.037-3.856,2.118-6.503,5.124-6.521
		c3.19-0.018,5.846,3.14,5.804,6.905c-0.042,3.747-2.486,6.513-5.731,6.483C963.284,198.551,961.174,195.763,961.214,191.713z"/>
	<path fill-rule="evenodd" clip-rule="evenodd" fill="#F9F9F9" d="M1035.898,189.658c1.793-4.486,6.021-5.86,8.458-3.194
		c0.71,0.777,1.147,1.707,0.784,2.693c-0.316,0.866-1.265,0.46-1.934,0.483c-1.6,0.055-3.204,0.018-4.806,0.018
		C1037.668,189.658,1036.936,189.658,1035.898,189.658z"/>
	<path fill-rule="evenodd" clip-rule="evenodd" fill="#FDFDFD" d="M993.091,192.003c-0.032,4.085-2.024,6.505-5.417,6.579
		c-3.654,0.08-5.834-2.583-5.746-7.02c0.077-3.983,2.195-6.384,5.624-6.373C991.087,185.199,993.124,187.705,993.091,192.003z"/>
</g>
</svg>
