<?xml version="1.0" encoding="utf-8"?>
<!-- Generator: Adobe Illustrator 16.0.3, SVG Export Plug-In . SVG Version: 6.00 Build 0)  -->
<!DOCTYPE svg PUBLIC "-//W3C//DTD SVG 1.1//EN" "http://www.w3.org/Graphics/SVG/1.1/DTD/svg11.dtd">
<svg version="1.1" id="Capa_1" xmlns="http://www.w3.org/2000/svg" xmlns:xlink="http://www.w3.org/1999/xlink" x="0px" y="0px"
	 width="1767.382px" height="517.12px" viewBox="0 0 1767.382 517.12" enable-background="new 0 0 1767.382 517.12"
	 xml:space="preserve">
<g>
	<path fill-rule="evenodd" clip-rule="evenodd" fill="#1C1C1C" d="M0,384.492c105.643,0.002,211.287,0.002,316.929,0.002
		c6.22,0,6.222-0.002,6.222-6.066c0.001-20.237,0.092-40.476-0.084-60.711c-0.031-3.609,0.881-4.627,4.557-4.59
		c19.483,0.19,38.967,0.088,58.565,0.088c1.095-1.634,0.18-3.418,0.937-5.205c5.259,2.145,10.525,4.292,16.739,6.824
		c-5.625,3.339-10.577,6.276-15.661,9.292c-0.935-5.418-0.935-5.42-6.152-5.413c-16.523,0.022-33.047,0.102-49.571,0.018
		c-2.735-0.014-3.857,0.492-3.834,3.595c0.147,19.679,0.11,39.359,0.029,59.041c-0.01,2.36,0.579,3.457,3.082,3.156
		c1.281-0.154,2.596-0.027,3.896-0.027c102.858,0,205.716,0,308.574,0c1.115,0,2.247,0.129,3.339-0.024
		c3.236-0.454,4.627,0.412,4.405,4.119c-0.368,6.104-0.1,12.247-0.1,18.375c0,34.534,0,69.067,0,103.6
		c0,6.529-0.001,6.531-6.315,6.531c-215.186,0-430.37,0-645.556,0C0,472.896,0,428.693,0,384.492z"/>
	<path fill-rule="evenodd" clip-rule="evenodd" fill="#00CB98" d="M415.118,22.921c11.857-10.745,26.331-15.723,41.708-18.164
		c18.633-2.959,36.987-1.408,54.765,5.292c8.598,3.239,16.521,7.69,23.044,14.16c2.294,2.275,4.498,2.734,7.384,2.67
		c18.297-0.409,35.84,2.682,51.945,11.831c9.738,5.532,17.786,12.734,21.67,23.66c0.599,1.686,1.682,2.727,3.126,3.694
		c16.063,10.756,24.786,26.377,28.296,44.861c4.075,21.452,0.5,41.718-11.899,60.048c-4.418,6.53-9.971,11.956-16.586,16.271
		c-1.542,1.005-3.037,1.885-3.946,3.722c-6.667,13.448-18.224,21.192-31.724,26.369c-16.222,6.222-33.037,8.129-50.281,5.845
		c-3.416-0.454-6.331,0.033-9.474,1.867c-18.614,10.86-38.925,13.792-60.075,11.813c-14.971-1.401-29.098-5.608-41.706-14.1
		c-2.325-1.566-4.625-0.707-6.976-0.468c-20.584,2.092-40.354-0.586-58.798-10.417c-9-4.795-16.597-11.192-21.292-20.518
		c-0.777-1.543-1.966-2.538-3.428-3.481c-17.511-11.292-26.543-27.968-30.002-48.021c-2.893-16.762-0.289-32.839,6.619-48.292
		c2.228-2.367,5.171-1.686,7.863-1.694c19.658-0.075,39.319,0.135,58.975-0.085c25.432-0.285,45.364-21.212,44.116-46.048
		c-0.252-5.038-1.567-9.861-3.135-14.641C414.664,27.127,413.115,25.031,415.118,22.921z"/>
	<path fill-rule="evenodd" clip-rule="evenodd" fill="#7F7F7F" d="M415.118,22.921c0.606,5.302,3.257,9.986,4.327,15.233
		c3.426,16.816-5.357,36.443-19.718,45.607c-8.131,5.188-16.963,7.762-26.689,7.714c-21.85-0.107-43.699,0.042-65.548,0.086
		c-26.911-0.045-53.819-0.087-80.728-0.137c-26.248-0.049-46.563-20.593-46.206-46.719c0.328-23.997,20.35-44.318,44.43-44.561
		c26.165-0.263,52.335-0.082,78.504-0.087c22.829-0.005,45.657,0.167,68.483-0.055c17.321-0.169,30.801,6.698,40.699,20.804
		C413.315,21.726,413.957,22.615,415.118,22.921z"/>
	<path fill-rule="evenodd" clip-rule="evenodd" fill="#1C1C1C" d="M1474.239,517.095c-95.077,0-190.152,0-285.228,0
		c-0.93,0-1.856,0.007-2.784-0.002c-5.657-0.059-5.046,0.674-5.046-5.007c-0.011-78.735-0.011-157.47,0-236.205
		c0-5.663-0.667-5.039,5.005-5.039c95.448-0.009,190.895-0.012,286.342,0c5.657,0,5.038-0.673,5.041,5.005
		c0.016,36.395,0.009,72.792,0.009,109.189c0,1.299,0.065,2.602-0.012,3.898c-0.098,1.66,0.6,2.344,2.258,2.258
		c1.48-0.079,2.97-0.013,4.455-0.013c91.733,0,183.468,0,275.199,0c1.116,0,2.253,0.147,3.339-0.025
		c3.639-0.579,4.579,0.856,4.565,4.497c-0.136,38.623-0.07,77.248-0.097,115.872c-0.007,6.444,0.865,5.556-5.594,5.556
		C1665.874,517.1,1570.055,517.095,1474.239,517.095z"/>
	<path fill-rule="evenodd" clip-rule="evenodd" fill="#424242" d="M859.777,415.641c-14.626-7.294-28.629-14.276-43.476-21.68
		c14.56-7.297,28.475-14.271,42.993-21.544c0.859,3.697,0.532,7,0.401,10.21c-0.124,3.008,0.631,4.518,3.931,4.135
		c1.831-0.213,3.708-0.039,5.564-0.039c45.848,0,91.697,0,137.545,0c1.299,0,2.608,0.1,3.897-0.018
		c2.407-0.222,3.094,0.773,3.215,3.173c0.572,11.333,0.651,11.328-10.64,11.328c-45.664,0-91.328,0-136.989,0
		c-1.299,0-2.604,0.068-3.898-0.007c-1.909-0.109-2.607,0.75-2.567,2.62C859.832,407.473,859.777,411.129,859.777,415.641z"/>
	<path fill-rule="evenodd" clip-rule="evenodd" fill="#424242" d="M970.33,313.262c14.669,7.333,28.653,14.324,43.384,21.688
		c-14.65,7.331-28.515,14.27-42.978,21.508c-0.741-3.999-0.406-7.605-0.352-11.153c0.039-2.425-0.799-3.397-3.206-3.176
		c-1.284,0.118-2.593,0.019-3.893,0.019c-47.123,0-94.246,0.009-141.371-0.009c-6.154-0.004-5.729,0.879-5.752-5.556
		c-0.031-8.918-0.029-8.918,9.08-8.918c46.009,0,92.021,0,138.032,0c1.298,0,2.604-0.098,3.895,0.021
		c2.389,0.218,3.315-0.716,3.202-3.165C970.207,321.03,970.33,317.53,970.33,313.262z"/>
	<path fill-rule="evenodd" clip-rule="evenodd" fill="#FEFEFE" d="M487.57,511.523c-50.693,0-101.388,0-152.081,0
		c-1.3,0-2.608-0.096-3.897,0.022c-2.096,0.192-3.168-0.504-2.882-2.762c0.093-0.73,0.013-1.484,0.013-2.226
		c0-37.139-0.009-74.277,0.009-111.415c0.003-5.652-0.717-5.074,4.972-5.074c102.5-0.009,205-0.009,307.502,0.002
		c5.651,0,5.087-0.735,5.089,4.958c0.012,37.139,0.014,74.276-0.002,111.412c-0.003,5.656,0.713,5.074-4.973,5.076
		C590.069,511.53,538.819,511.523,487.57,511.523z"/>
	<path fill-rule="evenodd" clip-rule="evenodd" fill="#FEFEFE" d="M164.381,511.523c-50.879,0-101.758,0-152.637,0
		c-1.3,0-2.604-0.063-3.899,0.011c-1.632,0.095-2.401-0.546-2.28-2.23c0.068-0.923,0.008-1.854,0.008-2.784
		c0-37.139-0.008-74.273,0.008-111.412c0.002-5.663-0.664-5.035,5.011-5.037c102.5-0.009,205.002-0.009,307.502,0.002
		c5.657,0,5.048-0.684,5.051,4.997c0.014,37.135,0.015,74.273-0.001,111.412c-0.002,5.663,0.663,5.035-5.011,5.035
		C266.881,511.53,215.631,511.523,164.381,511.523z"/>
	<path fill-rule="evenodd" clip-rule="evenodd" fill="#FDFEFE" d="M530.43,128.847c4.916,4.616,6.037,11.028,8.528,16.741
		c0.517,1.184,1.498,3.098-0.765,3.613c-1.675,0.383-3.738,0.842-4.658-1.642c-1.346-3.633-2.736-7.251-4.228-10.826
		c-1.524-3.653-3.948-6.205-8.268-6.315c-1.969-0.05-3.106,0.328-3.012,2.719c0.169,4.257-0.014,8.529,0.064,12.792
		c0.041,2.144-0.315,3.527-2.974,3.489c-2.726-0.041-2.888-1.663-2.886-3.667c0.014-11.126,0.02-22.251,0-33.378
		c-0.006-2.821,0.804-4.549,4.15-4.282c3.134,0.25,6.303-0.009,9.453,0.089c5.445,0.169,9.904,2.989,11.055,6.866
		c1.536,5.173-0.09,9.324-5.062,12.896C531.418,128.235,530.983,128.491,530.43,128.847z"/>
	<path fill-rule="evenodd" clip-rule="evenodd" fill="#FCFEFD" d="M462.437,120.975c0-4.006,0.015-7.896-0.007-11.785
		c-0.009-1.755-0.069-3.349,2.489-3.308c2.075,0.032,3.037,0.697,3.027,2.894c-0.049,12.611,0.026,25.223-0.063,37.835
		c-0.021,2.725-2.502,4.099-4.396,2.12c-2.003-2.094-2.809-0.956-4.393-0.033c-7.17,4.172-14.097,1.451-16.672-6.476
		c-1.655-5.09-1.528-10.201,0.027-15.293c2.556-8.359,9.981-11.224,17.459-6.761C460.517,120.529,460.979,121.229,462.437,120.975z"
		/>
	<path fill-rule="evenodd" clip-rule="evenodd" fill="#FDFEFE" d="M411.18,129.031c0-5.553,0.101-11.107-0.04-16.656
		c-0.076-2.979,0.785-4.508,4.065-4.277c2.947,0.208,5.921-0.017,8.879,0.068c7.245,0.211,12.145,4.687,12.574,11.401
		c0.451,7.069-4.447,13.057-11.375,14.123c-2.803,0.432-6.681-1.401-8.17,1.267c-1.269,2.271-0.327,5.777-0.357,8.738
		c-0.013,1.109-0.046,2.222-0.008,3.331c0.071,2.066-1.181,2.36-2.867,2.362c-1.823,0.003-2.718-0.679-2.705-2.59
		c0.041-5.922,0.015-11.845,0.015-17.768C411.188,129.031,411.184,129.031,411.18,129.031z"/>
	<path fill-rule="evenodd" clip-rule="evenodd" fill="#FAFDFD" d="M482.849,122.051c1.625-1.075,2.213-1.504,2.836-1.872
		c7.752-4.575,14.674-1.781,16.233,6.958c1.173,6.581,0.281,13.317,0.397,19.984c0.037,2.081-1.441,2.215-3.054,2.261
		c-1.975,0.058-2.611-1.001-2.614-2.742c-0.007-4.082-0.013-8.161-0.019-12.242c-0.002-1.299,0.059-2.6-0.015-3.895
		c-0.292-5.152-2.512-8.009-6.021-7.817c-3.44,0.188-7.619,4.504-7.709,8.225c-0.118,4.819-0.037,9.644-0.028,14.467
		c0.003,2.092,0.206,4.138-2.99,4.04c-2.793-0.085-2.742-1.819-2.74-3.765c0.014-12.056,0.021-24.113-0.007-36.171
		c-0.004-2.05,0.179-3.604,2.897-3.617c2.779-0.012,2.861,1.639,2.843,3.635C482.828,113.349,482.849,117.198,482.849,122.051z"/>
	<path fill-rule="evenodd" clip-rule="evenodd" fill="#FDFDFD" d="M205.032,46.91c0.001-4.81,0.106-9.623-0.039-14.427
		c-0.082-2.677,0.969-3.64,3.572-3.488c2.58,0.15,5.182-0.063,7.765,0.066c6.482,0.327,9.981,3.843,10.15,10.051
		c0.18,6.608-3.586,11.301-9.584,12.151c-2.288,0.323-5.416-1.167-6.669,1.117c-1.028,1.875-0.371,4.672-0.457,7.062
		c-0.013,0.369,0.033,0.744-0.008,1.109c-0.187,1.684,0.682,3.955-2.295,4.093c-3.109,0.144-2.387-2.169-2.412-3.862
		C204.987,56.159,205.031,51.533,205.032,46.91z"/>
	<path fill-rule="evenodd" clip-rule="evenodd" fill="#FBFBFB" d="M350.831,54.688c-0.005,2.591,0.013,5.182-0.009,7.773
		c-0.019,2.087-2.125,2.955-2.887,2.02c-2.103-2.575-3.676-0.603-5.567-0.162c-1.591,0.371-3.305,0.417-4.95,0.324
		c-3.81-0.214-6.882-2.97-7.334-6.371c-0.393-2.966,1.957-6.219,5.465-7.512c2.118-0.782,4.36-0.71,6.563-0.83
		c1.68-0.09,3.465,0.169,3.479-2.374c0.011-2.039-0.603-3.451-2.711-4.276c-2.879-1.126-5.452,0.067-8.085,0.684
		c-1.3,0.304-2.597,1.097-3.237-0.637c-0.679-1.838,0.671-2.563,2.148-3.166c3.748-1.529,7.66-1.586,11.443-0.679
		c3.636,0.872,5.334,3.854,5.642,7.437C351.012,49.49,350.832,52.097,350.831,54.688z"/>
	<path fill-rule="evenodd" clip-rule="evenodd" fill="#FAFAFA" d="M299.57,51.97c0,3.516,0.154,7.042-0.055,10.547
		c-0.132,2.219-3.222,3.228-3.744,1.5c-1.105-3.657-2.311-1.292-3.648-0.616c-6.904,3.483-12.353,0.794-13.937-6.76
		c-1.042-4.962-0.337-9.958-0.548-14.934c-0.078-1.858,0.832-2.65,2.673-2.668c1.854-0.017,2.684,0.756,2.665,2.636
		c-0.043,4.256-0.088,8.516,0.025,12.77c0.111,4.211,1.639,5.925,4.951,5.921c3.549-0.002,6.265-2.519,6.361-6.128
		c0.108-4.069,0.078-8.145,0.011-12.215c-0.034-2.065,0.683-3.069,2.896-2.988c2.074,0.077,2.383,1.288,2.373,2.941
		c-0.025,3.331-0.008,6.664-0.008,9.995C299.58,51.97,299.575,51.97,299.57,51.97z"/>
	<path fill-rule="evenodd" clip-rule="evenodd" fill="#FCFCFC" d="M379.531,52.431c0.982,7.569,3.811,9.565,10.515,7.992
		c0.719-0.169,1.45-0.302,2.142-0.545c1.163-0.411,2.575-1.559,3.375,0.025c0.802,1.588-0.429,2.699-1.842,3.509
		c-5.948,3.41-15.25,1.131-18.099-4.468c-3.439-6.763-0.906-15.872,5.262-18.918c7.416-3.664,15.565,0.682,16.06,8.454
		c0.18,2.823-0.655,4.105-3.666,3.993C388.851,52.309,384.415,52.431,379.531,52.431z"/>
	<path fill-rule="evenodd" clip-rule="evenodd" fill="#FCFCFC" d="M230.161,39.599c3.174-1.298,4.897-0.389,6,2.756
		c1.809,5.156,3.279,10.472,6.126,16.008c1.93-5.545,3.604-10.372,5.292-15.191c0.367-1.048,0.636-2.17,1.212-3.096
		c0.983-1.578,2.69-1.239,4.005-0.781c1.591,0.555,0.566,1.842,0.221,2.786c-3.49,9.531-7.035,19.042-10.504,28.58
		c-1.038,2.853-2.894,3.567-5.597,2.572c-0.143-0.355-0.471-0.798-0.366-0.97c3.115-5.019,2.422-9.757,0.032-15.021
		C234.016,51.588,231.642,45.746,230.161,39.599z"/>
	<path fill-rule="evenodd" clip-rule="evenodd" fill="#FCFCFC" d="M315.877,58.726c2.761-4.978,3.76-10.256,5.722-15.157
		c0.478-1.19,0.771-2.484,1.422-3.568c0.809-1.349,2.323-1.125,3.513-0.763c1.45,0.442,1.051,1.725,0.671,2.767
		c-2.466,6.749-5.005,13.471-7.413,20.24c-0.68,1.912-1.892,2.451-3.773,2.481c-2.171,0.036-3.312-0.792-4.037-2.902
		c-2.213-6.445-4.643-12.816-6.986-19.216c-0.425-1.161-1.468-2.647,0.231-3.315c1.489-0.587,3.435-0.67,4.254,1.366
		c0.962,2.391,1.749,4.851,2.606,7.283C313.309,51.407,314.525,54.876,315.877,58.726z"/>
	<path fill-rule="evenodd" clip-rule="evenodd" fill="#FCFCFC" d="M366.383,64.693c-4.933-0.048-7.265-2.203-7.472-6.763
		c-0.149-3.333-0.003-6.676-0.043-10.016c-0.029-2.466,0.78-5.184-3.313-5.685c-1.525-0.186-1.652-2.772,0.363-2.945
		c3.043-0.26,3.082-1.941,2.969-4.101c-0.091-1.704,0.34-2.886,2.426-2.8c1.723,0.071,2.378,1.04,2.183,2.51
		c-0.479,3.614,1.256,4.583,4.501,4.191c1.262-0.151,2.851-0.135,2.849,1.724c-0.001,1.778-1.513,1.994-2.819,1.834
		c-3.947-0.485-4.787,1.566-4.519,4.966c0.203,2.581,0.011,5.191,0.053,7.788c0.051,3.141,0.867,5.557,4.833,4.92
		c1.125-0.18,2.363-0.125,2.475,1.411c0.11,1.493-0.762,2.457-2.191,2.767C367.783,64.69,366.836,64.659,366.383,64.693z"/>
	<path fill-rule="evenodd" clip-rule="evenodd" fill="#FBFBFB" d="M258.592,51.594c0.004-3.329-0.1-6.661,0.041-9.985
		c0.097-2.297,2.821-3.668,3.476-2.139c1.656,3.869,2.884,1.229,4.369,0.239c1.332-0.889,2.835-0.633,4.301-0.607
		c1.642,0.028,2.234,0.927,2.21,2.495c-0.023,1.458-0.787,1.682-2.078,1.873c-6.117,0.907-7.592,2.718-7.643,9.042
		c-0.024,2.958-0.013,5.917-0.005,8.875c0.004,1.757-0.022,3.387-2.538,3.28c-2.208-0.094-2.129-1.583-2.133-3.088
		C258.583,58.25,258.589,54.921,258.592,51.594z"/>
	<path fill-rule="evenodd" clip-rule="evenodd" fill="#FEFEFE" d="M1619.365,511.523c-45.495,0-90.986,0.002-136.479,0
		c-5.294,0-5.305-0.012-5.305-5.312c-0.005-34.725-0.003-69.448,0-104.17c0-5.28,0.011-5.291,5.325-5.291
		c91.171-0.002,182.345-0.002,273.517,0c5.293,0,5.305,0.011,5.305,5.312c0.004,34.724,0.004,69.447,0,104.17
		c0,5.279-0.012,5.291-5.328,5.291C1710.721,511.525,1665.042,511.523,1619.365,511.523z"/>
	<path fill-rule="evenodd" clip-rule="evenodd" fill="#FEFEFE" d="M1328.816,511.523c-45.305,0-90.613,0-135.922,0
		c-1.299,0-2.602-0.063-3.899,0.011c-1.651,0.097-2.377-0.585-2.258-2.249c0.063-0.925,0.007-1.856,0.007-2.786
		c0-34.907-0.009-69.816,0.007-104.728c0.003-5.674-0.633-5.014,5.03-5.014c91.73-0.012,183.458-0.012,275.188,0
		c5.665,0,5.027-0.658,5.03,5.016c0.016,34.911,0.016,69.818,0,104.727c-0.003,5.672,0.633,5.013-5.03,5.016
		C1420.917,511.53,1374.868,511.523,1328.816,511.523z"/>
	<path fill-rule="evenodd" clip-rule="evenodd" fill="#FEFEFE" d="M1329.95,276.405c45.308,0,90.614,0,135.923,0
		c1.298,0,2.602,0.065,3.896-0.012c1.668-0.098,2.361,0.619,2.246,2.267c-0.066,0.925-0.007,1.856-0.007,2.784
		c0,34.91,0.007,69.82-0.009,104.728c-0.003,5.679,0.611,4.999-5.046,4.999c-91.729,0.012-183.459,0.012-275.19,0.002
		c-5.672-0.002-5.01,0.63-5.013-5.035c-0.016-34.908-0.014-69.818,0-104.728c0.003-5.678-0.609-4.996,5.046-4.999
		C1237.848,276.398,1283.897,276.405,1329.95,276.405z"/>
	<path fill-rule="evenodd" clip-rule="evenodd" fill="#1E1E1E" d="M468.807,437.747c-3.038-1.027-5.472-1.904-7.939-2.666
		c-1.981-0.611-4.045-0.659-6.051-0.192c-2.799,0.655-5.405,1.738-5.891,5.051c-0.504,3.446,1.832,4.859,4.503,6.12
		c3.69,1.739,7.82,2.223,11.42,4.212c3.011,1.667,5.584,3.622,6.371,7.227c1.381,6.339-1.171,10.928-7.418,12.882
		c-5.264,1.646-10.607,1.42-15.9,0.056c-4.842-1.249-4.888-1.433-2.958-7.154c2.299,1.126,4.452,2.534,6.972,3.117
		c2.943,0.683,5.845,0.834,8.767-0.016c2.685-0.78,4.698-2.258,5.031-5.239c0.308-2.749-1.218-4.565-3.43-5.847
		c-1.272-0.736-2.641-1.327-4.015-1.858c-2.756-1.059-5.565-1.99-8.322-3.051c-4.105-1.582-6.991-4.2-6.996-8.963
		c-0.004-4.521,2.755-8.377,7.338-10.124c5.67-2.163,11.311-1.143,16.874,0.541C470.474,432.844,468.729,435.372,468.807,437.747z"
		/>
	<path fill-rule="evenodd" clip-rule="evenodd" fill="#1D1D1D" d="M524.26,468.327c-2.185,1.037-3.519,1.646-4.83,2.299
		c-1.549,0.771-3.205,0.887-4.874,0.767c-4.897-0.356-8.635-3.609-10.209-8.818c-1.989-6.58-0.025-14.313,4.516-17.783
		c3.987-3.049,8.593-3.266,13.39-0.288c1.709,1.062,2.66,1.879,3.139-0.921c0.236-1.38,1.673-1.184,2.762-1.079
		c1.327,0.129,1.134,1.22,1.135,2.079c0.015,12.209-0.021,24.418,0.042,36.628c0.01,1.932-0.659,2.525-2.555,2.507
		c-1.957-0.018-2.572-0.804-2.54-2.647C524.311,477.03,524.26,472.988,524.26,468.327z"/>
	<path fill-rule="evenodd" clip-rule="evenodd" fill="#1E1E1E" d="M480.388,456.928c1.365,7.848,4.108,10.216,11.19,9.997
		c1.471-0.045,2.957-0.248,4.398-0.556c1.179-0.255,2.12-0.465,2.636,1.013c0.465,1.333,0.013,2.211-1.188,2.63
		c-5.463,1.909-10.867,2.28-16.041-0.923c-4.753-2.944-6.474-7.591-6.419-12.801c0.093-8.781,6.938-14.798,15.261-13.787
		c3.72,0.453,6.685,2.206,8.524,5.511c3.392,6.089,1.738,8.914-5.121,8.916C489.376,456.929,485.125,456.928,480.388,456.928z"/>
	<path fill-rule="evenodd" clip-rule="evenodd" fill="#1F1F1F" d="M197.751,450.795c-0.001-5.377,0.138-10.76-0.059-16.13
		c-0.101-2.748,0.858-3.565,3.504-3.428c3.885,0.201,7.798-0.107,11.678,0.136c7.59,0.474,11.203,4.626,11.107,12.41
		c-0.093,7.663-4.426,12.632-11.485,13.122c-1.292,0.088-2.595,0.014-3.894,0.026c-5.845,0.072-5.13-0.685-5.198,5.459
		c-0.018,1.671-0.1,3.346,0.02,5.005c0.149,2.102-0.561,2.984-2.805,2.968c-2.14-0.016-2.947-0.691-2.904-2.877
		C197.826,461.923,197.752,456.361,197.751,450.795z"/>
	<path fill-rule="evenodd" clip-rule="evenodd" fill="#1F1F1F" d="M106.376,450.54c0-5.377,0.094-10.759-0.042-16.134
		c-0.063-2.417,0.769-3.267,3.188-3.162c4.072,0.174,8.171-0.13,12.232,0.154c7.322,0.507,10.827,4.554,10.854,12.084
		c0.026,7.442-4.04,12.563-10.629,13.386c-0.184,0.023-0.371,0.019-0.554,0.041c-3.064,0.374-7.27-1.426-8.918,0.953
		c-1.493,2.152-0.539,6.09-0.438,9.234c0.074,2.298-0.527,3.325-3.08,3.28c-2.434-0.044-2.653-1.251-2.633-3.146
		C106.416,461.668,106.376,456.103,106.376,450.54z"/>
	<path fill-rule="evenodd" clip-rule="evenodd" fill="#1D1D1D" d="M155.794,445.04c0-5.005,0.015-9.623-0.007-14.241
		c-0.007-1.56-0.028-2.835,2.206-2.903c2.348-0.072,2.716,0.995,2.707,2.985c-0.059,12.204-0.102,24.411,0.017,36.615
		c0.033,3.325-2.482,3.715-3.739,2.392c-1.847-1.947-2.639-0.962-4.202-0.134c-5.684,3.005-10.728,1.845-14.745-3.183
		c-4.583-5.738-4.179-15.177,0.872-20.463C143.066,441.751,147.93,441.338,155.794,445.04z"/>
	<path fill-rule="evenodd" clip-rule="evenodd" fill="#212121" d="M172.542,444.797c1.452-0.609,2.438-1.065,3.452-1.446
		c7.702-2.89,13.926,0.631,14.824,8.848c0.562,5.133,0.213,10.36,0.349,15.542c0.05,1.886-0.665,2.589-2.586,2.616
		c-1.938,0.029-2.568-0.642-2.532-2.545c0.091-4.819,0.221-9.65-0.042-14.457c-0.287-5.2-3.848-7.601-8.819-6.188
		c-2.886,0.82-4.853,2.387-4.696,5.905c0.207,4.627,0.049,9.268,0.051,13.902c0,1.662,0.319,3.297-2.342,3.395
		c-2.756,0.102-2.912-1.314-2.903-3.421c0.055-11.865,0.047-23.729,0.007-35.595c-0.008-2.036,0.008-3.582,2.839-3.478
		c2.605,0.094,2.412,1.625,2.404,3.339C172.526,435.635,172.542,440.053,172.542,444.797z"/>
	<path fill-rule="evenodd" clip-rule="evenodd" fill="#01CB99" d="M521.993,112.6c6.173-0.034,9.662,2.472,9.506,6.834
		c-0.141,4.015-3.733,6.521-9.377,6.539c-4.037,0.012-4.084,0.012-4.043-5.511C518.141,112.031,517.199,112.77,521.993,112.6z"/>
	<path fill-rule="evenodd" clip-rule="evenodd" fill="#00CB99" d="M462.422,134.993c1.084,4.012-1.115,7.22-4.732,9.655
		c-3.8,2.559-7.77,1.338-9.378-3.015c-1.56-4.225-1.951-8.581-0.481-13.01c1.235-3.721,3.551-6.01,6.382-5.953
		c2.956,0.062,7.801,4.264,8.177,7.25C462.574,131.376,462.422,132.874,462.422,134.993z"/>
	<path fill-rule="evenodd" clip-rule="evenodd" fill="#01CB99" d="M420.345,112.599c7.507,0.037,10.434,2.844,9.981,9.139
		c-0.384,5.336-7.571,9.635-12.452,7.485c-1.366-0.601-1.092-1.749-1.104-2.786c-0.038-3.332,0.165-6.675-0.068-9.991
		C416.477,113.241,417.586,111.921,420.345,112.599z"/>
	<path fill-rule="evenodd" clip-rule="evenodd" fill="#828282" d="M209.75,40.004c0-0.185-0.029-0.376,0.005-0.555
		c0.474-2.482-1.717-6.322,3.632-6.212c5.011,0.102,7.877,1.99,8.277,6.206c0.346,3.635-2.283,7.035-5.835,7.524
		c-0.549,0.076-1.118,0.001-1.665,0.08c-3.326,0.489-4.937-0.74-4.433-4.264C209.859,41.874,209.75,40.932,209.75,40.004z"/>
	<path fill-rule="evenodd" clip-rule="evenodd" fill="#7F7F7F" d="M342.468,53.547c1.583-0.105,3.376-0.087,3.137,2.73
		c-0.201,2.368-3.001,4.821-5.832,4.599c-1.975-0.155-4.156-0.54-4.367-3.236C335.214,55.192,337.845,53.605,342.468,53.547z"/>
	<path fill-rule="evenodd" clip-rule="evenodd" fill="#8A8A8A" d="M379.919,46.845c0.843-2.719,3.158-3.757,5.77-4.127
		c2.641-0.375,6.111,1.961,6.431,4.101c0.107,0.72,0.093,1.647-0.797,1.781c-3.447,0.514-6.918,0.385-10.375,0.058
		C380.111,48.577,379.865,47.805,379.919,46.845z"/>
	<path fill-rule="evenodd" clip-rule="evenodd" fill="#1D1D1D" d="M1571.555,466.301c4.304,3.008,8.814,4.534,13.822,3.883
		c3.219-0.419,6.347-1.371,7.031-5.195c0.682-3.815-1.687-5.862-4.817-7.151c-3.418-1.41-6.93-2.59-10.368-3.949
		c-5.386-2.131-7.447-4.763-7.358-9.225c0.096-4.833,2.902-8.571,7.925-10.248c5.534-1.847,11.021-0.93,16.352,0.857
		c3.232,1.083,1.249,3.677,1.345,5.773c-2.438-0.826-4.719-1.545-6.958-2.371c-1.788-0.659-3.638-0.866-5.477-0.643
		c-3.232,0.397-6.317,1.293-7.309,4.938c-0.783,2.888,0.83,4.821,5.229,6.741c3.557,1.553,7.43,2.188,10.927,3.976
		c4.668,2.387,6.814,6.033,6.387,11.224c-0.397,4.834-2.791,7.429-8.393,9.004c-4.754,1.336-9.544,1.161-14.303,0.068
		C1570.357,472.78,1569.475,472.106,1571.555,466.301z"/>
	<path fill-rule="evenodd" clip-rule="evenodd" fill="#1D1D1D" d="M1651.207,471.662c-1.044,0.458-1.711,0.714-2.343,1.034
		c-8.984,4.524-16.717,0.575-18.271-9.358c-0.496-3.169-0.164-6.295,0.936-9.29c2.825-7.691,10.367-10.428,17.497-6.313
		c1.525,0.879,2.754,2.275,3.293-0.784c0.266-1.503,1.625-1.229,2.685-1.055c1.264,0.209,1.061,1.319,1.063,2.183
		c0.014,12.21-0.007,24.422,0.025,36.631c0.002,1.585-0.504,2.317-2.208,2.332c-1.764,0.015-2.76-0.341-2.707-2.407
		C1651.282,480.439,1651.207,476.236,1651.207,471.662z"/>
	<path fill-rule="evenodd" clip-rule="evenodd" fill="#1E1E1E" d="M1607.3,460.812c1.478,7.46,4.401,9.851,11.706,9.452
		c1.469-0.082,2.932-0.397,4.382-0.678c1.038-0.205,1.82-0.053,2.129,1.086c0.253,0.945,0.199,1.772-0.674,2.461
		c-3.921,3.092-14.51,1.784-18.771-2.351c-5.013-4.857-5.608-14.115-1.288-19.957c3.63-4.908,11.093-6.636,16.512-3.701
		c3.973,2.15,5.525,5.693,5.684,10.112c0.089,2.457-0.805,3.12-3.166,3.087c-5.365-0.079-10.731,0.117-16.099,0.218
		C1607.574,460.543,1607.436,460.718,1607.3,460.812z"/>
	<path fill-rule="evenodd" clip-rule="evenodd" fill="#1F1F1F" d="M1320.646,448.089c0-4.822,0.03-9.064-0.016-13.309
		c-0.02-1.957-0.146-3.639,2.743-3.557c2.521,0.07,2.491,1.469,2.486,3.253c-0.026,12.027,0.019,24.054-0.035,36.081
		c-0.014,2.944-2.125,4.464-3.934,2.601c-1.889-1.944-2.609-0.766-3.99-0.086c-6.778,3.348-13.322,0.999-16.487-5.894
		c-1.942-4.24-2.032-8.595-0.405-12.922C1304.024,446.234,1310.776,444.007,1320.646,448.089z"/>
	<path fill-rule="evenodd" clip-rule="evenodd" fill="#1E1E1E" d="M1362.992,453.758c0-5.197,0.113-10.399-0.048-15.593
		c-0.078-2.537,0.492-3.748,3.338-3.584c4.07,0.23,8.178-0.119,12.242,0.174c7.229,0.524,10.866,4.771,10.829,12.203
		c-0.033,7.396-4.219,12.457-10.857,13.279c-3.229,0.398-7.529-1.558-9.417,1.097c-1.506,2.115-0.48,6.076-0.467,9.215
		c0.007,1.823,0.009,3.184-2.547,3.167c-2.468-0.016-3.18-0.87-3.119-3.25C1363.089,464.9,1362.992,459.328,1362.992,453.758z"/>
	<path fill-rule="evenodd" clip-rule="evenodd" fill="#1C1C1C" d="M1280.259,434.717c2.22,0,4.452-0.163,6.651,0.032
		c7.22,0.636,10.695,4.683,10.664,12.209c-0.03,7.489-4.04,12.506-10.693,13.225c-1.829,0.197-3.733,0.311-5.536,0.034
		c-3.881-0.594-4.771,1.228-4.379,4.632c0.211,1.824-0.053,3.698,0.062,5.539c0.128,2.141-0.206,3.321-2.894,3.351
		c-2.948,0.034-2.718-1.609-2.713-3.513c0.019-10.357,0.154-20.718-0.072-31.068c-0.075-3.504,0.716-5.157,4.479-4.56
		c1.442,0.23,2.951,0.037,4.432,0.037C1280.259,434.662,1280.259,434.688,1280.259,434.717z"/>
	<path fill-rule="evenodd" clip-rule="evenodd" fill="#1F1F1F" d="M1337.766,448.168c1.877-0.789,3.025-1.366,4.237-1.766
		c7.172-2.362,13.384,1.333,14.084,8.822c0.495,5.335,0.162,10.745,0.255,16.12c0.027,1.601-0.521,2.312-2.223,2.33
		c-1.782,0.021-2.744-0.369-2.7-2.428c0.1-4.633,0.213-9.282-0.029-13.907c-0.309-5.885-4.065-8.482-9.349-6.701
		c-2.667,0.9-4.393,2.508-4.306,5.681c0.135,4.819-0.045,9.646,0.066,14.465c0.05,2.152-0.683,2.897-2.866,2.921
		c-2.286,0.022-2.237-1.254-2.232-2.832c0.017-12.24,0.01-24.482,0.007-36.726c-0.002-1.493-0.213-2.934,2.139-2.912
		c2.087,0.018,3.017,0.582,2.953,2.821C1337.679,438.484,1337.766,442.916,1337.766,448.168z"/>
	<path fill-rule="evenodd" clip-rule="evenodd" fill="#1F1F1F" d="M1390.036,352.749c-4.253,1.458-6.135-0.136-7.56-3.28
		c-1.447-3.19-3.419-6.137-5.063-9.24c-0.826-1.564-1.686-2.512-3.738-2.603c-5.753-0.254-5.8-0.344-5.818,5.465
		c-0.005,1.855,0.149,3.723-0.043,5.556c-0.195,1.868,1.338,4.636-2.656,4.725c-3.844,0.088-2.91-2.458-2.924-4.478
		c-0.056-7.596-0.114-15.194,0.015-22.791c0.064-3.84-1.672-8.782,0.866-11.21c2.243-2.145,7.079-0.479,10.771-0.596
		c1.478-0.045,2.983-0.077,4.437,0.146c4.418,0.673,8.268,2.169,9.566,7.116c1.286,4.892,0.579,9.521-3.47,12.574
		c-2.835,2.138-2.595,3.675-1.086,6.231C1385.669,344.318,1387.723,348.439,1390.036,352.749z"/>
	<path fill-rule="evenodd" clip-rule="evenodd" fill="#1E1E1E" d="M1319.455,327.504c0.86-4.42,0.313-8.843,0.374-13.229
		c0.031-2.128,0.24-3.461,2.942-3.396c2.86,0.068,2.124,1.973,2.129,3.448c0.04,12.019-0.071,24.042,0.083,36.062
		c0.043,3.189-2.179,3.89-3.608,2.593c-2.063-1.868-3.057-0.914-4.798-0.029c-5.266,2.675-10.041,1.603-13.929-2.852
		c-5.015-5.742-4.682-16.061,0.691-21.338C1307.258,324.916,1311.603,324.551,1319.455,327.504z"/>
	<path fill-rule="evenodd" clip-rule="evenodd" fill="#1E1E1E" d="M1270.505,333.321c0-5.384,0.075-10.77-0.036-16.151
		c-0.045-2.147,0.675-2.981,2.855-2.914c4.266,0.134,8.553-0.149,12.802,0.166c7.185,0.531,10.827,4.867,10.74,12.28
		c-0.086,7.406-4.272,12.513-10.955,13.144c-2.395,0.227-4.824,0.136-7.236,0.063c-1.879-0.056-2.687,0.646-2.596,2.589
		c0.111,2.407,0.019,4.826,0.023,7.24c0.002,1.832,0.414,3.591-2.615,3.654c-3.282,0.068-3.007-1.807-2.996-3.919
		C1270.525,344.089,1270.503,338.705,1270.505,333.321z"/>
	<path fill-rule="evenodd" clip-rule="evenodd" fill="#212121" d="M1336.998,327.443c1.9,0.066,3.005-1.084,4.385-1.512
		c6.706-2.083,12.449,1.195,13.743,8.075c1.072,5.688,0.278,11.463,0.47,17.197c0.074,2.269-1.518,2.029-3.02,2.117
		c-1.877,0.112-2.059-0.972-2.05-2.42c0.027-4.82,0.205-9.65-0.054-14.456c-0.291-5.424-4.138-7.857-9.27-6.137
		c-2.676,0.896-4.373,2.46-4.25,5.672c0.181,4.813-0.056,9.641,0.087,14.458c0.067,2.201-0.7,2.931-2.851,2.909
		c-2.041-0.021-2.438-0.975-2.431-2.752c0.046-12.236,0.055-24.47-0.007-36.705c-0.011-2.036,0.459-3.015,2.755-3.008
		c2.523,0.007,2.525,1.444,2.507,3.242C1336.965,318.553,1336.998,322.986,1336.998,327.443z"/>
	<path fill-rule="evenodd" clip-rule="evenodd" fill="#FCFCFC" d="M508.618,456.847c0.221-1.296,0.332-2.794,0.75-4.201
		c0.912-3.065,2.888-5.25,6.142-5.676c3.24-0.425,5.72,1.088,7.417,3.857c2.455,4.005,2.282,8.133,0.188,12.146
		c-1.381,2.646-3.82,4.012-6.842,3.948c-3.088-0.063-5.08-1.788-6.413-4.514C509.014,460.681,509.106,458.809,508.618,456.847z"/>
	<path fill-rule="evenodd" clip-rule="evenodd" fill="#F9F9F9" d="M494.784,453.425c-4.839,0-9.213,0-13.636,0
		c1.455-4.923,3.463-6.644,7.482-6.533C492.472,446.998,493.909,448.444,494.784,453.425z"/>
	<path fill-rule="evenodd" clip-rule="evenodd" fill="#FAFAFA" d="M203.331,443.902c-0.003-0.185-0.033-0.374,0-0.554
		c0.457-2.447-1.401-6.211,0.998-7.136c3.271-1.261,7.34-1.137,10.798,0.654c3.382,1.751,3.404,5.058,3.181,8.236
		c-0.215,3.088-1.244,5.908-4.569,6.937c-2.875,0.889-5.885,0.375-8.834,0.375c-1.53-0.003-1.561-1.271-1.567-2.402
		C203.325,447.976,203.333,445.94,203.331,443.902z"/>
	<path fill-rule="evenodd" clip-rule="evenodd" fill="#FAFAFA" d="M111.953,443.589c0-0.184-0.001-0.369,0.001-0.556
		c0.077-7.757-0.799-7.175,3.966-7.282c8.138-0.189,10.808,1.6,11.103,7.446c0.299,5.964-2.199,8.973-7.696,9.265
		c-0.185,0.012-0.37,0.005-0.556,0.002c-8.398-0.096-6.613,0.738-6.815-6.653C111.937,445.071,111.953,444.33,111.953,443.589z"/>
	<path fill-rule="evenodd" clip-rule="evenodd" fill="#FDFDFD" d="M156.191,457.302c0.061,2.896-0.722,5.457-2.934,7.465
		c-2.879,2.615-6.758,2.929-9.608,0.757c-3.497-2.666-4.672-9.734-2.375-14.285c1.795-3.558,5.199-5.128,8.684-4.009
		C153.814,448.467,156.243,452.39,156.191,457.302z"/>
	<path fill-rule="evenodd" clip-rule="evenodd" fill="#FDFDFD" d="M1651.563,460.333c0.066,2.135-0.544,4.091-1.534,5.872
		c-1.449,2.605-3.757,4.059-6.778,4.063c-3.114,0.007-5.11-1.728-6.458-4.418c-1.308-2.607-1.343-5.358-0.959-8.12
		c0.591-4.287,3.411-7.229,6.952-7.472c3.534-0.24,6.875,2.278,8.134,6.281C1651.3,457.753,1651.36,459.065,1651.563,460.333z"/>
	<path fill-rule="evenodd" clip-rule="evenodd" fill="#FAFAFA" d="M1621.777,456.77c-4.774,0-9.149,0-13.543,0
		c0.928-4.657,3.029-6.572,7.077-6.533C1619.18,450.271,1620.518,451.535,1621.777,456.77z"/>
	<path fill-rule="evenodd" clip-rule="evenodd" fill="#FBFBFB" d="M1305.068,460.148c0.032-5.758,3.079-9.765,7.529-9.902
		c4.71-0.145,8.757,4.569,8.766,10.208c0.012,5.548-3.609,9.788-8.392,9.832C1308.353,470.326,1305.037,466.074,1305.068,460.148z"
		/>
	<path fill-rule="evenodd" clip-rule="evenodd" fill="#FBFBFB" d="M1368.58,447.243c0-0.371-0.005-0.74,0-1.113
		c0.084-7.498-0.897-6.937,4.23-7.036c8.067-0.156,10.708,1.707,10.948,7.691c0.245,6.01-2.473,8.873-8.582,9.022
		c-1.11,0.027-2.242-0.116-3.337,0.027c-2.874,0.374-3.519-1.082-3.29-3.584C1368.702,450.596,1368.58,448.913,1368.58,447.243z"/>
	<path fill-rule="evenodd" clip-rule="evenodd" fill="#FDFDFD" d="M1281.93,455.808c-5.689-0.059-4.857,0.551-4.924-5.121
		c-0.021-1.671-0.441-3.502,0.098-4.973c0.82-2.234-2.843-6.377,2.812-6.649c8.301-0.397,11.189,1.093,11.925,6.515
		C1292.821,452.798,1289.89,455.821,1281.93,455.808z"/>
	<path fill-rule="evenodd" clip-rule="evenodd" fill="#FAFAFA" d="M1367.779,325.67c0.003-7.517,0.003-7.517,7.7-6.907
		c4.796,0.378,7.457,3.021,7.366,7.311c-0.093,4.468-2.654,6.93-7.445,7.161C1367.779,333.604,1367.779,333.604,1367.779,325.67z"/>
	<path fill-rule="evenodd" clip-rule="evenodd" fill="#FDFDFD" d="M1320.467,340.188c-0.016,2.872-0.771,5.457-2.932,7.497
		c-2.99,2.823-7.093,3.054-10.044,0.565c-3.371-2.845-4.285-9.965-1.841-14.388c1.899-3.443,5.413-4.817,8.892-3.478
		C1318.134,331.768,1320.474,335.643,1320.467,340.188z"/>
	<path fill-rule="evenodd" clip-rule="evenodd" fill="#FBFBFB" d="M1281.273,335.466c-5.837-0.037-5.153,0.394-5.182-4.974
		c-0.01-1.671-0.401-3.473,0.093-4.98c0.755-2.294-2.668-6.375,2.77-6.778c7.897-0.587,11.495,1.116,12.09,6.359
		C1291.8,331.741,1289.342,336.315,1281.273,335.466z"/>
</g>
</svg>
