<?xml version="1.0" encoding="utf-8"?>
<!-- Generator: Adobe Illustrator 16.0.3, SVG Export Plug-In . SVG Version: 6.00 Build 0)  -->
<!DOCTYPE svg PUBLIC "-//W3C//DTD SVG 1.1//EN" "http://www.w3.org/Graphics/SVG/1.1/DTD/svg11.dtd">
<svg version="1.1" id="Capa_1" xmlns="http://www.w3.org/2000/svg" xmlns:xlink="http://www.w3.org/1999/xlink" x="0px" y="0px"
	 width="1438.429px" height="94.538px" viewBox="0 0 1438.429 94.538" enable-background="new 0 0 1438.429 94.538"
	 xml:space="preserve">
<g>
	<path fill-rule="evenodd" clip-rule="evenodd" d="M0,94.538C0,63.126,0,31.583,0,0c479.41,0,958.856,0,1438.429,0
		c0,31.44,0,62.924,0,94.538C959.047,94.538,479.542,94.538,0,94.538z"/>
	<path fill-rule="evenodd" clip-rule="evenodd" fill="#FEFEFE" d="M1345.996,91.081c-28.102,0-56.201,0-84.303,0
		c-0.838,0-1.678-0.043-2.51,0.009c-1.072,0.068-1.522-0.375-1.448-1.447c0.051-0.714,0.008-1.434,0.008-2.151
		c0-26.786,0-53.571,0-80.356c0-0.718,0.043-1.438-0.008-2.151c-0.074-1.073,0.377-1.514,1.449-1.446
		c0.834,0.053,1.673,0.009,2.509,0.009c56.441,0,112.883,0,169.323,0c0.479,0,0.965,0.06,1.434-0.011
		c2.007-0.303,2.563,0.519,2.559,2.525c-0.063,27.502-0.088,55.005,0.03,82.508c0.012,2.579-1.087,2.54-2.946,2.538
		C1403.393,91.07,1374.695,91.081,1345.996,91.081z"/>
	<path fill-rule="evenodd" clip-rule="evenodd" fill="#FEFEFE" d="M91.445,3.546c27.981,0,55.962,0,83.943,0
		c0.837,0,1.678,0.044,2.511-0.009c1.071-0.067,1.521,0.375,1.447,1.447c-0.05,0.715-0.008,1.435-0.008,2.152
		c0,26.785,0,53.57,0,80.355c0,0.718-0.042,1.438,0.008,2.152c0.075,1.073-0.377,1.514-1.448,1.446
		c-0.833-0.052-1.673-0.009-2.51-0.009c-55.962,0-111.924,0-167.887,0c-0.479,0-0.966-0.061-1.434,0.01
		c-2.007,0.303-2.564-0.518-2.559-2.523C3.572,61.064,3.596,33.562,3.478,6.059C3.467,3.48,4.565,3.519,6.426,3.521
		C34.766,3.557,63.106,3.546,91.445,3.546z"/>
	<path fill-rule="evenodd" clip-rule="evenodd" fill="#FEFEFE" d="M807.869,91.081c-27.863,0-55.724,0-83.585,0
		c-0.837,0-1.677-0.043-2.51,0.009c-1.073,0.068-1.521-0.377-1.446-1.448c0.05-0.714,0.008-1.435,0.008-2.151
		c0-26.786,0-53.571,0-80.357c0-0.717,0.042-1.438-0.008-2.152c-0.075-1.073,0.38-1.511,1.449-1.444
		c0.833,0.053,1.673,0.009,2.51,0.009c55.963,0,111.925,0,167.887,0c0.479,0,0.967,0.06,1.434-0.011
		c2.009-0.303,2.562,0.521,2.558,2.525c-0.063,27.503-0.086,55.006,0.032,82.508c0.01,2.582-1.091,2.539-2.95,2.537
		C864.787,91.07,836.328,91.081,807.869,91.081z"/>
	<path fill-rule="evenodd" clip-rule="evenodd" fill="#FEFEFE" d="M628.853,3.546c27.981,0,55.962,0,83.943,0
		c0.838,0,1.678,0.044,2.511-0.009c1.07-0.067,1.523,0.373,1.449,1.445c-0.049,0.714-0.008,1.435-0.008,2.152
		c0,26.785,0,53.571,0,80.356c0,0.718-0.041,1.438,0.008,2.151c0.074,1.072-0.375,1.515-1.447,1.447
		c-0.833-0.052-1.673-0.009-2.511-0.009c-55.962,0-111.925,0-167.887,0c-0.478,0-0.965-0.061-1.433,0.01
		c-2.005,0.303-2.564-0.515-2.56-2.523c0.063-27.502,0.087-55.006-0.031-82.508c-0.011-2.578,1.083-2.542,2.947-2.54
		C572.173,3.557,600.513,3.546,628.853,3.546z"/>
	<path fill-rule="evenodd" clip-rule="evenodd" fill="#FEFEFE" d="M449.479,91.081c-27.981,0-55.962,0-83.943,0
		c-0.837,0-1.677-0.043-2.511,0.009c-1.07,0.067-1.523-0.372-1.448-1.446c0.05-0.714,0.007-1.434,0.007-2.151
		c0-26.786,0-53.571,0-80.356c0-0.717,0.042-1.438-0.007-2.151c-0.075-1.073,0.375-1.515,1.446-1.448
		c0.834,0.053,1.674,0.009,2.511,0.009c55.962,0,111.925,0,167.887,0c0.479,0,0.966,0.06,1.434-0.011
		c2.005-0.302,2.564,0.515,2.56,2.523c-0.063,27.503-0.087,55.006,0.032,82.509c0.011,2.576-1.083,2.542-2.947,2.54
		C506.159,91.07,477.819,91.081,449.479,91.081z"/>
	<path fill-rule="evenodd" clip-rule="evenodd" fill="#FEFEFE" d="M270.459,3.546c27.861,0,55.723,0,83.585,0
		c0.837,0,1.676,0.044,2.511-0.009c1.068-0.067,1.524,0.37,1.449,1.444c-0.05,0.714-0.007,1.435-0.007,2.152
		c0,26.786,0,53.57,0,80.356c0,0.717-0.042,1.438,0.007,2.151c0.075,1.071-0.372,1.517-1.445,1.449
		c-0.833-0.052-1.673-0.009-2.51-0.009c-55.724,0-111.446,0-167.17,0c-0.479,0-0.966-0.06-1.433,0.01
		c-2.003,0.302-2.567-0.511-2.562-2.521c0.063-27.502,0.086-55.005-0.031-82.508c-0.012-2.575,1.079-2.543,2.945-2.541
		C214.019,3.557,242.239,3.546,270.459,3.546z"/>
	<path fill-rule="evenodd" clip-rule="evenodd" fill="#FEFEFE" d="M987.246,91.081c-27.862,0-55.723,0-83.586,0
		c-0.837,0-1.676-0.043-2.51,0.009c-1.069,0.068-1.523-0.374-1.448-1.447c0.051-0.713,0.008-1.434,0.008-2.151
		c0-26.786,0-53.571,0-80.356c0-0.717,0.043-1.438-0.008-2.151c-0.075-1.072,0.377-1.514,1.447-1.447
		c0.833,0.053,1.674,0.009,2.511,0.009c55.723,0,111.447,0,167.171,0c0.477,0,0.964,0.06,1.433-0.011
		c2.006-0.302,2.564,0.517,2.561,2.523c-0.064,27.503-0.088,55.006,0.03,82.509c0.01,2.578-1.086,2.541-2.947,2.539
		C1043.686,91.07,1015.466,91.081,987.246,91.081z"/>
	<path fill-rule="evenodd" clip-rule="evenodd" fill="#FEFEFE" d="M1166.262,91.081c-27.982,0-55.963,0-83.944,0
		c-0.838,0-1.678-0.043-2.51,0.009c-1.073,0.068-1.522-0.377-1.447-1.448c0.05-0.714,0.007-1.435,0.007-2.151
		c0-26.786,0-53.571,0-80.357c0-0.717,0.043-1.438-0.007-2.151c-0.075-1.074,0.38-1.512,1.449-1.445
		c0.833,0.053,1.673,0.009,2.512,0.009c55.96,0,111.923,0,167.884,0c0.479,0,0.967,0.06,1.436-0.011
		c2.007-0.303,2.563,0.521,2.558,2.525c-0.063,27.503-0.088,55.006,0.031,82.508c0.011,2.581-1.09,2.539-2.948,2.537
		C1222.94,91.07,1194.601,91.081,1166.262,91.081z"/>
	<path fill-rule="evenodd" clip-rule="evenodd" fill="#020202" d="M1343.801,51.621c0.75,5.307,3.17,6.93,8.635,6.415
		c0.921-0.087,2.384-1.524,2.898,0.297c0.661,2.34-1.625,1.968-2.75,2.25c-3.85,0.966-7.464,0.293-10.108-2.841
		c-2.514-2.978-2.831-6.503-1.44-10.118c1.737-4.518,6.789-6.563,11.242-4.648c1.869,0.804,3.14,2.146,3.739,4.08
		c1.16,3.741,0.546,4.562-3.364,4.564C1349.791,51.622,1346.93,51.621,1343.801,51.621z"/>
	<path fill-rule="evenodd" clip-rule="evenodd" fill="#030303" d="M1330.924,48.753c0-2.983-0.059-5.968,0.026-8.95
		c0.039-1.374-0.371-1.939-1.801-1.836c-1.426,0.104-2.862-0.001-4.294,0.022c-0.903,0.016-1.218-0.375-1.226-1.272
		c-0.008-0.954,0.1-1.615,1.289-1.61c5.13,0.022,10.263,0.027,15.395-0.008c1.105-0.007,1.405,0.437,1.408,1.488
		c0.005,1.117-0.454,1.451-1.482,1.413c-1.311-0.047-2.634,0.086-3.936-0.034c-1.641-0.151-1.962,0.604-1.946,2.067
		c0.063,5.966,0.044,11.934,0.004,17.9c-0.004,0.833,0.514,2.081-0.972,2.253c-1.281,0.15-2.612,0.414-2.506-1.769
		C1331.042,55.204,1330.925,51.975,1330.924,48.753z"/>
	<path fill-rule="evenodd" clip-rule="evenodd" fill="#010101" d="M1368.948,41.706c-0.401,1.883-0.298,3.511-2.909,3.708
		c-1.807,0.136-3.042,1.505-2.874,3.812c0.214,2.974-0.008,5.977,0.078,8.964c0.041,1.452-0.249,2.069-1.925,2.108
		c-2.013,0.046-1.687-1.155-1.688-2.317c-0.006-4.424-0.052-8.85,0.039-13.272c0.016-0.843-0.796-2.237,1.089-2.436
		c1.874-0.2,1.717,1.144,1.936,2.469C1364.727,43.78,1365.938,41.383,1368.948,41.706z"/>
	<path fill-rule="evenodd" clip-rule="evenodd" fill="#020202" d="M90.078,56.025c1.714-3.829,2.253-7.474,3.355-10.937
		c0.231-0.728,0.12-1.923,1.146-2.009c1.282-0.11,2.769-0.658,3.257,1.584c0.776,3.565,1.952,7.042,3.177,11.318
		c1.525-3.957,2.091-7.405,2.814-10.771c0.656-3.059,1.014-3.36,4.386-2.685c-1.631,5.535-3.308,11.032-4.845,16.568
		c-0.391,1.411-1.333,1.063-2.217,1.133c-1.033,0.082-1.829-0.106-2.143-1.336c-0.647-2.537-1.417-5.042-2.128-7.563
		c-0.323-1.141-0.628-2.287-1.05-3.826c-1.583,3.665-2.237,7.22-3.302,10.641c-0.315,1.013-0.383,2.093-1.91,2.12
		c-1.422,0.026-2.368-0.098-2.823-1.793c-1.417-5.284-3.031-10.515-4.57-15.772c3.585-0.656,3.585-0.656,4.316,2.473
		C88.346,48.604,89.146,52.04,90.078,56.025z"/>
	<path fill-rule="evenodd" clip-rule="evenodd" fill="#010101" d="M67.949,44.571c4.813-3.094,8.097-3.008,11.078,0.148
		c3.142,3.327,3.47,9.448,0.712,13.282c-2.415,3.359-5.693,3.67-11.611,1.037c0,2.56-0.002,5.063,0.002,7.567
		c0.002,1.19,0.267,2.394-1.717,2.282c-1.745-0.099-1.456-1.183-1.457-2.211c-0.009-7.411-0.017-14.823,0.011-22.235
		c0.003-0.845-0.432-1.961,1.105-2.159C67.844,42.053,67.288,43.619,67.949,44.571z"/>
	<path fill-rule="evenodd" clip-rule="evenodd" fill="#030303" d="M115.486,37.407c0,0.959,0.082,1.676-0.016,2.368
		c-0.283,1.998,0.494,2.798,2.516,2.535c0.915-0.118,1.872-0.222,1.961,1.294c0.104,1.75-0.989,1.684-2.046,1.537
		c-2.167-0.303-2.554,0.757-2.448,2.629c0.136,2.379,0.102,4.774,0.012,7.159c-0.074,1.957,0.321,3.355,2.687,3.141
		c1.12-0.101,1.735,0.113,1.687,1.519c-0.052,1.506-0.932,1.33-1.894,1.37c-4.077,0.167-5.697-1.214-5.889-5.349
		c-0.132-2.858-0.033-5.728-0.027-8.592c0.002-0.974,0.117-1.958-1.385-1.875c-0.636,0.035-1.601,0.143-1.396-0.999
		c0.134-0.739-0.02-1.924,1.211-1.817c1.755,0.153,1.691-0.986,1.542-2.045C111.645,37.719,113.013,37.153,115.486,37.407z"/>
	<path fill-rule="evenodd" clip-rule="evenodd" fill="#020202" d="M851.671,59.959c-2.556,0.76-3.703,0.005-4.387-2.306
		c-1.374-4.637-1.506-4.598-6.481-4.598c-4.607,0-4.607,0-6.193,4.593c-0.9,2.606-0.9,2.606-4.293,2.333
		c2.814-7.839,5.65-15.597,8.355-23.401c0.475-1.371,1.295-1.366,2.408-1.505c1.59-0.2,2.036,0.827,2.43,1.927
		C846.229,44.599,848.918,52.206,851.671,59.959z"/>
	<path fill-rule="evenodd" clip-rule="evenodd" fill="#030303" d="M767.823,47.794c0-3.453,0.12-6.913-0.046-10.357
		c-0.095-1.973,0.656-2.446,2.446-2.353c2.495,0.13,5.008-0.083,7.497,0.104c4.688,0.35,7.001,2.976,7.054,7.731
		c0.055,4.855-2.731,8.261-7.176,8.661c-1.418,0.128-2.865,0.138-4.283,0.017c-1.654-0.141-2.033,0.627-1.947,2.081
		c0.09,1.541,0.017,3.091,0.047,4.636c0.022,1.167-0.03,2.009-1.673,1.976c-1.639-0.033-1.98-0.672-1.945-2.137
		C767.878,54.701,767.823,51.247,767.823,47.794z"/>
	<path fill-rule="evenodd" clip-rule="evenodd" fill="#020202" d="M790.652,44.062c1.111-0.549,1.919-1.051,2.795-1.365
		c4.039-1.442,7.78,0.545,8.815,4.692c0.939,3.766,0.238,7.609,0.458,11.411c0.083,1.453-0.842,1.419-1.859,1.443
		c-1.061,0.025-1.5-0.39-1.479-1.469c0.043-2.268,0.02-4.537,0.007-6.807c-0.006-1.073,0.036-2.157-0.096-3.218
		c-0.339-2.713-1.567-3.69-4.345-3.583c-2.774,0.107-4.242,1.463-4.285,4.092c-0.049,3.104-0.049,6.21,0.006,9.314
		c0.022,1.18-0.273,1.722-1.588,1.693c-1.246-0.027-1.632-0.48-1.626-1.688c0.037-8.001,0.038-16.003-0.002-24.004
		c-0.006-1.257,0.468-1.609,1.672-1.646c1.367-0.041,1.558,0.611,1.541,1.737C790.623,37.732,790.652,40.802,790.652,44.062z"/>
	<path fill-rule="evenodd" clip-rule="evenodd" fill="#020202" d="M816.137,49.218c-0.717-3.631-1.9-4.524-5.076-3.965
		c-0.579,0.102-1.123,0.384-1.693,0.546c-0.61,0.173-1.319,0.856-1.766-0.216c-0.334-0.804-0.527-1.502,0.551-2.053
		c2.566-1.313,5.168-1.709,7.928-0.738c1.648,0.58,2.285,1.903,2.782,3.453c0.827,2.584,0.326,5.219,0.497,7.825
		c0.097,1.491-0.306,3.181,1.564,4.006c1.122,0.495,0.611,1.495,0.404,2.17c-0.332,1.081-1.361,0.731-2.134,0.57
		c-0.564-0.118-1.306-0.339-1.573-0.764c-1.049-1.66-1.961-0.959-3.084-0.104c-0.85,0.648-1.912,0.936-3.016,1.004
		c-2.618,0.163-4.912-1.244-5.647-3.496c-0.744-2.282,0.232-4.651,2.487-6.118C810.64,49.854,813.312,49.792,816.137,49.218z"/>
	<path fill-rule="evenodd" clip-rule="evenodd" fill="#010101" d="M635.159,47.081c2.573,1.075,3.962,2.942,4.005,5.772
		c0.059,3.898-1.756,6.375-5.607,7.098c-3.417,0.642-6.902,0.158-10.354,0.28c-1.211,0.043-1.285-0.687-1.282-1.619
		c0.019-7.263,0.032-14.525-0.007-21.788c-0.005-1.163,0.245-1.778,1.553-1.723c2.5,0.102,5.029-0.09,7.502,0.204
		c5.32,0.63,7.628,4.989,5.385,9.897C636.069,45.829,635.613,46.377,635.159,47.081z"/>
	<path fill-rule="evenodd" clip-rule="evenodd" fill="#010101" d="M600.209,35.233c3.599,0,7.047-0.206,10.458,0.063
		c2.862,0.226,5.268,1.488,6.033,4.691c0.759,3.182,0.237,6.178-2.453,8.011c-1.94,1.321-1.395,2.35-0.635,3.736
		c1.472,2.691,3.095,5.304,4.27,8.161c-2.291,0.87-3.629,0.225-4.575-1.951c-0.942-2.171-2.325-4.146-3.419-6.259
		c-0.555-1.073-1.241-1.495-2.489-1.54c-3.704-0.134-3.703-0.205-3.71,3.564c-0.003,1.552-0.049,3.105,0.013,4.654
		c0.05,1.289-0.253,1.914-1.769,1.92c-1.558,0.006-1.741-0.705-1.736-1.951C600.223,50.709,600.209,43.085,600.209,35.233z"/>
	<path fill-rule="evenodd" clip-rule="evenodd" fill="#020202" d="M658.375,39.244c-1.708-0.591-3.255-1.221-4.854-1.656
		c-2.129-0.58-4.278-0.584-6.219,0.646c-2.404,1.524-2.379,4.234,0.05,5.764c1.413,0.89,2.977,1.479,4.606,1.86
		c1.757,0.409,3.382,1.138,4.916,2.055c2.664,1.591,3.528,4.028,3.223,7.022c-0.295,2.891-2.118,4.443-4.649,5.267
		c-3.372,1.097-6.804,1.016-10.229,0.156c-3.258-0.818-3.258-0.816-2.307-4.599c1.551,0.501,2.853,1.566,4.447,1.924
		c2.271,0.509,4.497,0.695,6.653-0.274c3.013-1.354,3.334-4.468,0.711-6.511c-1.532-1.194-3.397-1.665-5.181-2.313
		c-1.448-0.527-2.955-0.958-4.305-1.676c-4.358-2.32-4.647-8.122-0.489-10.827c4.216-2.74,8.694-1.933,13.038-0.344
		C659.5,36.364,658.312,37.94,658.375,39.244z"/>
	<path fill-rule="evenodd" clip-rule="evenodd" fill="#010101" d="M409.656,47.514c0-3.456,0.057-6.913-0.027-10.367
		c-0.036-1.465,0.286-2.153,1.937-2.066c2.614,0.139,5.25-0.082,7.858,0.102c4.732,0.332,7.007,2.906,7.036,7.672
		c0.031,5.015-2.579,8.277-7.039,8.723c-1.062,0.106-2.143,0.034-3.215,0.041c-3.415,0.024-2.921-0.322-2.958,3.121
		c-0.013,1.191-0.051,2.385,0.011,3.575c0.064,1.225-0.093,1.958-1.667,1.97c-1.605,0.012-2.006-0.536-1.965-2.048
		C409.72,54.665,409.656,51.089,409.656,47.514z"/>
	<path fill-rule="evenodd" clip-rule="evenodd" fill="#050505" d="M432.488,43.84c1.348-0.56,2.295-1.075,3.308-1.352
		c3.994-1.095,7.594,1.067,8.319,5.128c0.675,3.782,0.183,7.627,0.289,11.442c0.036,1.302-0.901,1.118-1.726,1.183
		c-1.064,0.083-1.483-0.343-1.47-1.422c0.041-3.106,0.106-6.215-0.014-9.317c-0.134-3.434-2.189-4.945-5.491-4.24
		c-2.19,0.469-3.167,1.625-3.203,3.983c-0.045,2.986-0.034,5.973,0,8.958c0.013,1.172-0.009,2.066-1.625,2.071
		c-1.519,0.003-1.739-0.697-1.733-1.97c0.036-7.764,0.026-15.529,0.009-23.293c-0.002-1.148-0.038-2.054,1.598-2.099
		c1.889-0.05,1.759,1.065,1.749,2.308C432.472,37.961,432.488,40.702,432.488,43.84z"/>
	<path fill-rule="evenodd" clip-rule="evenodd" fill="#020202" d="M483.265,56.795c1.069,1.989,0.574,2.973-1.644,3.565
		c-5.979,1.597-11.732-0.069-14.723-4.501c-3.246-4.808-3.132-12.375,0.348-16.841c3.909-5.018,10.297-5.531,15.607-3.626
		c0.974,0.349,0.968,0.688,0.528,3.123c-4.784-1.523-9.618-2.646-13.228,2.241c-2.583,3.497-2.591,10.507,0.055,13.927
		C473.811,59.342,478.524,58.414,483.265,56.795z"/>
	<path fill-rule="evenodd" clip-rule="evenodd" fill="#030303" d="M457.72,49.249c-0.271-3.479-1.491-4.523-4.696-4.014
		c-0.812,0.129-1.594,0.471-2.377,0.748c-0.66,0.233-1.176,0.155-1.379-0.585c-0.156-0.571-0.327-1.261,0.262-1.636
		c2.212-1.409,4.673-1.796,7.213-1.331c2.201,0.404,3.449,1.816,3.992,4.042c0.605,2.484,0.323,4.981,0.473,7.47
		c0.094,1.556-0.479,3.366,1.743,4.204c0.999,0.376,0.332,1.497,0.072,2.197c-0.318,0.858-1.484,0.856-1.816,0.493
		c-2.506-2.741-4.798-0.746-7.307-0.019c-2.645,0.767-5.331-0.841-6.117-3.118c-0.912-2.643,0.127-5.196,2.755-6.646
		C452.764,49.827,455.318,49.78,457.72,49.249z"/>
	<path fill-rule="evenodd" clip-rule="evenodd" fill="#0C0C0C" d="M487.262,45.518c-0.001-3.337-0.01-6.675,0.003-10.012
		c0.005-1.251-0.414-2.677,1.794-2.602c2.005,0.067,1.547,1.383,1.55,2.479c0.023,6.198-0.013,12.395,0.026,18.593
		c0.011,1.693-0.487,3.668,2.111,4.204c1.105,0.228,0.237,1.166,0.25,1.777c0.016,0.746-0.435,0.95-1.128,1.016
		c-2.609,0.251-4.479-1.54-4.58-4.729C487.176,52.672,487.263,49.093,487.262,45.518z"/>
	<path fill-rule="evenodd" clip-rule="evenodd" fill="#020202" d="M276.863,46.983c3.603,2.454,4.605,5.008,3.583,8.651
		c-0.712,2.535-3.123,4.299-6.636,4.509c-2.97,0.178-5.956,0.053-8.935,0.092c-1.048,0.014-1.468-0.424-1.464-1.486
		c0.024-7.389,0.024-14.779,0-22.168c-0.003-1.073,0.44-1.494,1.479-1.469c2.501,0.059,5.023-0.111,7.499,0.164
		c5.582,0.618,7.84,4.898,5.445,10.048C277.584,45.859,277.237,46.35,276.863,46.983z"/>
	<path fill-rule="evenodd" clip-rule="evenodd" fill="#010101" d="M259.681,59.957c-2.494,0.711-3.938,0.094-4.824-2.085
		c-0.668-1.644-1.695-3.143-2.56-4.705c-1.738-3.143-2.179-3.323-5.54-3.015c-1.08,0.099-1.441,0.445-1.42,1.489
		c0.045,2.27-0.069,4.545,0.042,6.81c0.071,1.44-0.438,1.82-1.829,1.826c-1.41,0.006-1.832-0.419-1.819-1.835
		c0.065-7.17,0.06-14.34,0.004-21.51c-0.011-1.374,0.374-1.898,1.804-1.841c2.625,0.104,5.265-0.089,7.882,0.088
		c2.973,0.202,5.82,1.081,6.736,4.324c0.928,3.287,0.552,6.539-2.486,8.684c-1.413,0.998-1.497,1.705-0.694,3.085
		C256.592,54.042,258.044,56.908,259.681,59.957z"/>
	<path fill-rule="evenodd" clip-rule="evenodd" fill="#020202" d="M300.066,39.263c-1.981-0.676-3.443-1.172-4.904-1.674
		c-1.397-0.479-2.859-0.486-4.239-0.163c-1.773,0.413-3.511,1.18-3.788,3.285c-0.286,2.175,1.202,3.208,2.983,3.887
		c2.329,0.887,4.729,1.607,6.993,2.632c3.617,1.64,4.983,3.89,4.697,7.214c-0.28,3.249-2.11,5.128-6.025,6.087
		c-2.832,0.695-5.67,0.573-8.5-0.072c-3.41-0.778-3.411-0.773-3.04-4.721c1.479,0.009,2.421,1.263,3.719,1.649
		c2.465,0.733,4.88,1.036,7.36,0.171c1.628-0.568,2.645-1.711,2.736-3.402c0.083-1.519-0.682-2.708-2.035-3.524
		c-1.65-0.995-3.475-1.544-5.258-2.204c-1.115-0.412-2.283-0.702-3.354-1.202c-2.277-1.063-4.049-2.61-4.021-5.377
		c0.027-2.701,1.186-4.845,3.594-6.156c4.007-2.182,8.091-1.405,12.124-0.097C301.101,36.244,299.728,37.772,300.066,39.263z"/>
	<path fill-rule="evenodd" clip-rule="evenodd" fill="#020202" d="M993.592,47.144c2.861,1.163,4.037,3.171,3.844,6.197
		c-0.238,3.736-1.646,5.827-5.272,6.568c-3.526,0.72-7.13,0.206-10.697,0.313c-1.184,0.037-1.27-0.743-1.269-1.666
		c0.018-7.27,0.032-14.541-0.01-21.811c-0.008-1.263,0.491-1.679,1.68-1.64c2.5,0.081,5.026-0.109,7.496,0.19
		c5.366,0.649,7.587,4.886,5.347,9.894C994.433,45.806,994.039,46.371,993.592,47.144z"/>
	<path fill-rule="evenodd" clip-rule="evenodd" fill="#010101" d="M976.415,59.92c-2.574,1.003-3.918-0.06-4.887-2.225
		c-0.774-1.734-1.821-3.346-2.745-5.015c-1.268-2.286-3.411-3.152-5.814-2.494c-1.038,0.284-0.816,1.01-0.824,1.665
		c-0.026,2.271-0.1,4.545,0.018,6.81c0.085,1.686-0.914,1.532-2.038,1.595c-1.296,0.072-1.606-0.463-1.6-1.667
		c0.042-7.29,0.046-14.579-0.003-21.867c-0.008-1.266,0.415-1.664,1.649-1.626c2.745,0.084,5.505-0.084,8.24,0.106
		c2.846,0.197,5.413,1.148,6.521,4.148c1.11,3.009,0.283,6.779-2.384,8.713c-1.608,1.168-1.464,1.966-0.664,3.38
		C973.461,54.23,974.912,57.091,976.415,59.92z"/>
	<path fill-rule="evenodd" clip-rule="evenodd" fill="#020202" d="M1016.564,39.149c-1.553-0.519-3.006-1.041-4.48-1.493
		c-1.87-0.573-3.716-0.589-5.58,0.176c-1.449,0.596-2.469,1.503-2.61,3.082c-0.15,1.641,0.83,2.709,2.22,3.331
		c1.405,0.627,2.863,1.164,4.34,1.601c1.611,0.477,3.108,1.164,4.584,1.948c2.779,1.476,3.721,3.919,3.491,6.852
		c-0.231,2.944-2.016,4.729-4.774,5.587c-3.773,1.172-7.549,0.931-11.276-0.159c-1.888-0.551-1.856-0.656-1.384-4.415
		c1.63,0.416,2.872,1.651,4.533,2.006c2.263,0.483,4.461,0.679,6.67-0.183c1.475-0.575,2.384-1.635,2.527-3.177
		c0.144-1.538-0.523-2.817-1.906-3.562c-1.252-0.675-2.555-1.271-3.879-1.793c-1.656-0.655-3.418-1.068-5.03-1.815
		c-4.729-2.19-5.209-7.9-0.987-11.007c2.84-2.088,10.031-2.329,13.068-0.468C1017.728,36.661,1016.622,37.924,1016.564,39.149z"/>
	<path fill-rule="evenodd" clip-rule="evenodd" fill="#010101" d="M1198.477,47.155c3.446,1.397,4.285,4.101,3.824,7.334
		c-0.364,2.542-1.732,4.399-4.331,5.134c-0.571,0.162-1.146,0.427-1.723,0.441c-3.337,0.084-7.278,1.234-9.854-0.144
		c-3.019-1.617-0.943-5.918-1.152-9.019c-0.305-4.502-0.016-9.042-0.112-13.563c-0.034-1.637,0.294-2.413,2.139-2.258
		c2.371,0.199,4.789-0.058,7.139,0.249c4.878,0.636,7.067,4.356,5.479,9.05C1199.586,45.266,1199.038,46.066,1198.477,47.155z"/>
	<path fill-rule="evenodd" clip-rule="evenodd" fill="#030303" d="M1120.118,47.68c0-3.573,0.048-7.146-0.025-10.717
		c-0.027-1.374,0.417-1.916,1.822-1.871c2.735,0.088,5.487-0.102,8.21,0.109c4.543,0.354,6.746,2.843,6.938,7.474
		c0.193,4.632-2.431,8.174-6.575,8.855c-0.467,0.077-0.952,0.037-1.423,0.095c-1.729,0.211-4.073-0.873-5.037,0.543
		c-0.842,1.235-0.217,3.428-0.364,5.187c-0.101,1.194,0.847,3.036-1.742,2.919c-1.394-0.064-1.855-0.496-1.828-1.879
		C1120.166,54.826,1120.118,51.251,1120.118,47.68z"/>
	<path fill-rule="evenodd" clip-rule="evenodd" fill="#020202" d="M1142.946,43.777c0.824,0.223,1.165-0.388,1.668-0.625
		c4.913-2.302,9.204-0.186,10.143,5.146c0.622,3.542,0.14,7.145,0.24,10.719c0.034,1.246-0.839,1.202-1.702,1.218
		c-0.932,0.018-1.625-0.136-1.615-1.321c0.03-3.105,0.098-6.214-0.021-9.314c-0.143-3.744-2.628-5.443-6.031-4.182
		c-1.651,0.613-2.806,1.618-2.716,3.7c0.133,3.099,0.021,6.208,0.04,9.313c0.008,1.021,0.01,1.804-1.434,1.843
		c-1.52,0.042-1.776-0.624-1.771-1.916c0.036-7.882,0.03-15.763,0.006-23.645c-0.005-1.104,0.185-1.735,1.523-1.792
		c1.578-0.066,1.71,0.722,1.688,1.958C1142.909,37.859,1142.946,40.84,1142.946,43.777z"/>
	<path fill-rule="evenodd" clip-rule="evenodd" fill="#020202" d="M1168.368,49.186c-0.583-3.535-1.751-4.467-4.918-3.943
		c-0.695,0.115-1.376,0.381-2.031,0.66c-0.75,0.32-1.338,0.425-1.625-0.563c-0.214-0.732-0.3-1.302,0.566-1.762
		c2.548-1.354,5.176-1.787,7.923-0.815c2.748,0.973,3.056,3.48,3.314,5.843c0.207,1.888,0.019,3.816,0.059,5.726
		c0.028,1.403-0.224,2.958,1.487,3.687c1.14,0.487,0.671,1.433,0.503,2.142c-0.275,1.162-1.319,0.836-2.069,0.67
		c-0.673-0.148-1.555-0.434-1.864-0.948c-0.847-1.408-1.589-0.953-2.503-0.182c-0.744,0.626-1.653,0.956-2.594,1.146
		c-2.844,0.575-5.546-0.835-6.406-3.311c-0.838-2.411,0.187-4.893,2.661-6.351c1.139-0.671,2.373-1.072,3.69-1.269
		C1165.841,49.729,1167.105,49.434,1168.368,49.186z"/>
	<path fill-rule="evenodd" clip-rule="evenodd" d="M1209.368,40.837c-1.746-0.116-2.423,1.383-3.761,1.09
		c-0.543-1.363-0.778-2.608,1.089-3.414c1.316-0.569,2.292-1.685,3.203-2.805c0.623-0.764,1.513-0.726,2.306-0.481
		c0.898,0.277,0.629,1.161,0.629,1.826c0.016,7.042,0.004,14.085,0.016,21.128c0.001,1.12,0.077,2.061-1.576,2.094
		c-1.669,0.034-1.942-0.686-1.93-2.12C1209.401,52.442,1209.368,46.728,1209.368,40.837z"/>
	<path fill-rule="evenodd" clip-rule="evenodd" fill="#FBFBFB" d="M1353.172,49.37c-3.153,0-6.078,0-9.033,0
		c1.105-3.266,2.233-4.237,4.819-4.208C1351.444,45.19,1352.284,45.97,1353.172,49.37z"/>
	<path fill-rule="evenodd" clip-rule="evenodd" fill="#FDFDFD" d="M78.165,51.787c0.041,1.194-0.056,2.345-0.632,3.446
		c-1.834,3.507-6.089,3.835-8.399,0.62c-1.608-2.239-1.478-6.507,0.266-8.702c2.39-3.009,6.362-2.577,8.135,0.832
		C78.175,49.213,78.17,50.485,78.165,51.787z"/>
	<path fill-rule="evenodd" clip-rule="evenodd" fill="#F9F9F9" d="M837.272,50.147c1.371-3.442,2.107-6.677,3.899-9.827
		c1.184,3.26,2.259,6.222,3.492,9.615C842.23,50.411,839.956,50.109,837.272,50.147z"/>
	<path fill-rule="evenodd" clip-rule="evenodd" fill="#FCFCFC" d="M771.376,43.267c0-0.237-0.005-0.474,0.001-0.711
		c0.114-5.092-0.552-4.493,2.619-4.563c5.418-0.121,7.135,1.107,7.212,5.086c0.07,3.616-1.53,5.462-4.913,5.668
		C771.408,49.044,771.408,49.044,771.376,43.267z"/>
	<path fill-rule="evenodd" clip-rule="evenodd" fill="#F4F4F4" d="M811.836,58.085c-1.672,0.054-2.776-0.689-2.87-2.399
		c-0.104-1.877,2.271-3.187,5.433-3.343c1.451-0.072,1.845,0.433,1.822,1.787C816.183,56.483,814.47,58.092,811.836,58.085z"/>
	<path fill-rule="evenodd" clip-rule="evenodd" fill="#FAFAFA" d="M625.201,53.058c0-0.596,0.07-1.201-0.012-1.785
		c-0.286-2.035,0.563-2.782,2.578-2.554c1.296,0.146,2.628-0.052,3.927,0.082c2.504,0.257,3.846,1.793,3.869,4.238
		c0.022,2.426-1.007,3.677-3.512,4.141c-0.813,0.151-1.66,0.184-2.49,0.174C624.263,57.291,625.326,57.944,625.201,53.058z"/>
	<path fill-rule="evenodd" clip-rule="evenodd" fill="#F8F8F8" d="M625.198,41.933c0.057-4.134-0.582-3.928,2.869-3.953
		c4.149-0.028,5.412,0.851,5.456,3.779c0.048,3.148-1.156,4.141-5.098,4.121C624.614,45.86,625.26,46.228,625.198,41.933z"/>
	<path fill-rule="evenodd" clip-rule="evenodd" fill="#FAFAFA" d="M607.449,37.981c4.391,0.049,6.509,2.044,5.892,5.548
		c-0.432,2.448-1.788,3.613-4.408,3.788c-5.256,0.35-5.256,0.35-5.256-4.817c0-0.238-0.003-0.476,0-0.714
		C603.744,37.565,603.035,38.035,607.449,37.981z"/>
	<path fill-rule="evenodd" clip-rule="evenodd" fill="#FDFDFD" d="M413.245,43.395c0-0.238-0.045-0.486,0.007-0.711
		c0.353-1.535-0.971-4.001,0.695-4.481c2.258-0.65,5.028-0.809,7.244,0.679c1.925,1.292,1.833,3.423,1.618,5.474
		c-0.216,2.042-1.066,3.623-3.175,4.252c-0.225,0.067-0.468,0.069-0.702,0.104C413.551,49.519,413.245,49.232,413.245,43.395z"/>
	<path fill-rule="evenodd" clip-rule="evenodd" fill="#F8F8F8" d="M453.552,58.076c-1.683,0.122-2.714-0.797-2.843-2.437
		c-0.136-1.758,2.672-3.161,5.646-3.294c1.844-0.082,1.517,1.03,1.508,2.046C457.845,56.677,456.209,58.08,453.552,58.076z"/>
	<path fill-rule="evenodd" clip-rule="evenodd" fill="#FDFDFD" d="M266.884,53.025c-0.009-4.622-0.009-4.622,5.72-4.274
		c3.35,0.204,4.717,1.801,4.463,5.05c-0.127,1.636-0.883,2.636-2.427,3.125c-2.214,0.7-4.487,0.351-6.735,0.415
		c-0.741,0.021-1.026-0.409-1.023-1.103C266.888,55.167,266.884,54.095,266.884,53.025z"/>
	<path fill-rule="evenodd" clip-rule="evenodd" fill="#FDFDFD" d="M266.877,41.681c0.002-0.836-0.027-1.674,0.017-2.508
		c0.018-0.325,0.149-0.89,0.317-0.926c1.985-0.415,4.017-0.537,5.947,0.125c1.75,0.6,2.077,2.185,1.997,3.82
		c-0.116,2.426-1.12,3.435-3.513,3.673c-0.119,0.012-0.239,0.003-0.358,0.011C266.872,46.16,266.872,46.16,266.877,41.681z"/>
	<path fill-rule="evenodd" clip-rule="evenodd" fill="#FDFDFD" d="M245.349,42.696c0-5.23,0-5.23,5.281-4.697
		c2.732,0.276,4.462,2.086,4.433,4.636c-0.033,2.821-1.729,4.511-4.698,4.678C245.349,47.596,245.349,47.596,245.349,42.696z"/>
	<path fill-rule="evenodd" clip-rule="evenodd" fill="#FDFDFD" d="M983.668,53.035c-0.01-4.626-0.01-4.626,5.707-4.284
		c3.356,0.201,4.723,1.791,4.477,5.039c-0.125,1.635-0.873,2.64-2.419,3.132c-2.214,0.704-4.485,0.353-6.734,0.419
		c-0.735,0.022-1.036-0.395-1.031-1.093C983.671,55.177,983.668,54.106,983.668,53.035z"/>
	<path fill-rule="evenodd" clip-rule="evenodd" fill="#FDFDFD" d="M983.66,42.038c-0.002-4.466-0.002-4.466,4.552-4.039
		c2.572,0.241,3.741,1.437,3.745,3.836c0.006,2.711-1.1,3.861-3.891,4.039c-0.12,0.009-0.239-0.002-0.358,0.002
		C983.66,46.034,983.66,46.034,983.66,42.038z"/>
	<path fill-rule="evenodd" clip-rule="evenodd" fill="#FDFDFD" d="M965.548,47.313c-3.973-0.072-3.347,0.531-3.413-3.365
		c-0.011-0.595-0.107-1.212,0.019-1.779c0.306-1.379-1.015-3.671,0.826-4.003c2.432-0.439,5.264-0.938,7.483,1.087
		c1.387,1.264,1.727,3.703,0.867,5.63C970.478,46.794,969.251,47.31,965.548,47.313z"/>
	<path fill-rule="evenodd" clip-rule="evenodd" fill="#FAFAFA" d="M1188.44,52.765c0.001-4.028,0.001-4.036,3.928-4.016
		c1.069,0.006,2.168-0.07,3.205,0.132c2.061,0.401,3.181,1.922,3.224,4.095c0.046,2.299-0.895,3.608-3.094,4.135
		c-0.803,0.192-1.652,0.214-2.484,0.245C1188.438,57.535,1188.438,57.527,1188.44,52.765z"/>
	<path fill-rule="evenodd" clip-rule="evenodd" fill="#F8F8F8" d="M1188.436,41.961c0.07-4.288-0.635-3.964,3.195-3.975
		c3.854-0.01,5.073,0.91,5.131,3.743c0.063,3.158-1.146,4.171-5.069,4.149C1187.88,45.858,1188.49,46.253,1188.436,41.961z"/>
	<path fill-rule="evenodd" clip-rule="evenodd" fill="#FCFCFC" d="M1123.684,43.373c0-0.355,0-0.712,0-1.068
		c0.002-4.45,0.003-4.312,4.284-4.355c4.899-0.049,6,3.208,5.314,6.783c-0.548,2.858-1.708,3.819-4.588,4.008
		c-0.593,0.038-1.189,0.009-1.783,0.007c-3.909-0.017-3.118,0.153-3.237-3.237c-0.026-0.712-0.005-1.425-0.005-2.137
		C1123.675,43.373,1123.68,43.373,1123.684,43.373z"/>
	<path fill-rule="evenodd" clip-rule="evenodd" fill="#F4F4F4" d="M1164.268,58.079c-1.627,0.085-2.82-0.509-2.99-2.256
		c-0.19-1.949,1.984-3.258,5.277-3.451c1.29-0.074,1.971,0.095,1.967,1.619C1168.515,56.396,1166.94,58.006,1164.268,58.079z"/>
</g>
</svg>
