<?xml version="1.0" encoding="utf-8"?>
<!-- Generator: Adobe Illustrator 16.0.3, SVG Export Plug-In . SVG Version: 6.00 Build 0)  -->
<!DOCTYPE svg PUBLIC "-//W3C//DTD SVG 1.1//EN" "http://www.w3.org/Graphics/SVG/1.1/DTD/svg11.dtd">
<svg version="1.1" id="Capa_1" xmlns="http://www.w3.org/2000/svg" xmlns:xlink="http://www.w3.org/1999/xlink" x="0px" y="0px"
	 width="1274.289px" height="889.332px" viewBox="0 0 1274.289 889.332" enable-background="new 0 0 1274.289 889.332"
	 xml:space="preserve">
<g>
	<path fill-rule="evenodd" clip-rule="evenodd" fill="#FEFEFE" d="M0,889.332C0,592.887,0,296.444,0,0.001
		C424.763,0,849.526,0,1274.289,0c0,296.443,0,592.887,0,889.33C849.526,889.332,424.763,889.332,0,889.332z"/>
	<path fill-rule="evenodd" clip-rule="evenodd" fill="#3841F7" d="M347.723,245.635c-1.356-0.042-2.713-0.118-4.07-0.118
		c-21.004-0.007-42.009-0.001-63.014-0.009c-3.279-0.001-3.251,0.487-3.233-3.154c0.001-0.124,0-0.248,0-0.371
		c0-37.685-0.004-75.371,0.007-113.056c0.001-3.968-0.467-3.57,3.55-3.57c70.552-0.006,141.103-0.007,211.655,0.002
		c3.931,0.001,3.593-0.523,3.593,3.528c0.007,37.686,0.008,75.37-0.001,113.055c-0.001,3.984,0.445,3.562-3.557,3.564
		c-21.129,0.012-42.257,0.004-63.385,0.011c-1.357,0-2.714,0.077-4.07,0.118c-1.274,0.904-2.739,1.059-4.236,1.055
		c-7.277-0.021-14.554,0.139-21.83-0.077c-8.437,0.139-16.875,0.154-25.312,0c-7.286,0.209-14.572,0.062-21.858,0.078
		C350.465,246.694,348.993,246.565,347.723,245.635z"/>
	<path fill-rule="evenodd" clip-rule="evenodd" fill="#3841F7" d="M838.005,245.635c-1.357-0.042-2.714-0.118-4.07-0.118
		c-21.251-0.007-42.504-0.001-63.755-0.009c-3.278-0.001-3.251,0.487-3.234-3.154c0.005-1.112,0-2.224,0-3.336
		c0-36.696-0.003-73.393,0.007-110.09c0.002-3.97-0.464-3.57,3.552-3.57c70.551-0.006,141.103-0.007,211.654,0.002
		c3.928,0.001,3.595-0.526,3.595,3.527c0.006,37.685,0.007,75.37-0.004,113.056c0,3.987,0.441,3.562-3.557,3.564
		c-20.882,0.012-41.763,0.003-62.644,0.011c-1.356,0-2.713,0.077-4.07,0.118c-1.274,0.904-2.739,1.059-4.235,1.055
		c-7.277-0.021-14.555,0.139-21.831-0.077c-8.437,0.139-16.874,0.154-25.312,0c-7.285,0.209-14.572,0.062-21.857,0.078
		C840.748,246.694,839.274,246.565,838.005,245.635z"/>
	<path fill-rule="evenodd" clip-rule="evenodd" fill="#EDA250" d="M347.723,245.635c8.74-0.202,17.479-0.205,26.218,0.001
		c1.262,1.46,1.007,3.252,1.028,4.956c0.057,4.819,0.064,9.641,0.006,14.46c-0.032,2.615,0.935,3.848,3.684,3.8
		c5.189-0.09,10.383-0.089,15.572,0c2.758,0.047,3.703-1.211,3.673-3.813c-0.055-4.819-0.051-9.641,0.007-14.461
		c0.021-1.704-0.231-3.498,1.06-4.942c8.742-0.204,17.484-0.201,26.226,0c-0.017,7.168,0.057,14.34-0.1,21.505
		c-0.052,2.334,0.717,2.982,2.961,2.895c4.072-0.159,8.156-0.076,12.235-0.035c18.958,0.191,33.639,15.042,33.667,34.061
		c0.019,12.855-0.179,25.713,0.046,38.564c0.335,19.093-15.867,34.391-34.318,34.251c-35.597-0.27-71.197-0.134-106.796-0.057
		c-18.446,0.041-33.932-14.701-33.969-33.799c-0.025-12.979-0.072-25.958,0.01-38.937c0.123-19.29,14.775-33.909,34.055-34.08
		c3.955-0.035,7.916-0.129,11.865,0.03c2.244,0.09,3.009-0.559,2.958-2.894C347.656,259.975,347.735,252.804,347.723,245.635z"/>
	<path fill-rule="evenodd" clip-rule="evenodd" fill="#EDA250" d="M838.005,245.635c8.739-0.202,17.479-0.205,26.219,0.001
		c1.184,1.338,1.006,2.999,1.025,4.585c0.056,4.697,0.064,9.395,0.007,14.091c-0.033,2.615,0.936,3.847,3.686,3.8
		c5.188-0.091,10.383-0.09,15.572-0.001c2.759,0.047,3.705-1.209,3.675-3.813c-0.057-4.696-0.051-9.394,0.007-14.09
		c0.02-1.586-0.153-3.248,1.058-4.573c8.742-0.204,17.484-0.201,26.226,0c-0.017,6.921,0.061,13.844-0.099,20.763
		c-0.055,2.333,0.715,2.983,2.96,2.896c4.072-0.159,8.156-0.076,12.234-0.035c18.934,0.189,33.65,15.079,33.667,34.082
		c0.02,22.99,0.005,45.979,0.005,68.97c0,1.091,0,2.183,0,3.688c-5.948-2.664-11.566-5.151-17.161-7.69
		c-21.784-9.889-43.568-19.782-65.338-29.704c-3.355-1.529-6.604-1.56-9.971-0.026c-25.481,11.606-50.976,23.182-76.471,34.757
		c-1.887,0.857-3.809,1.639-5.68,2.44c-0.634-0.995-0.417-1.873-0.418-2.706c-0.012-23.114-0.03-46.227,0.003-69.341
		c0.017-11.791,4.781-21.281,14.282-28.249c5.293-3.882,11.361-5.92,17.926-6.175c4.566-0.178,9.148-0.159,13.717-0.012
		c2.243,0.073,3.011-0.561,2.958-2.895C837.936,259.48,838.018,252.557,838.005,245.635z"/>
	<path fill-rule="evenodd" clip-rule="evenodd" fill="#1E1F5F" d="M404.173,851.612c-17,12.86-35.058,14.209-54.171,6.096
		c-3.208-1.361-6.099-3.322-8.484-5.85c-1.428-1.514-2.957-1.879-4.909-1.879c-3.447,0.001-6.907,0.332-10.344-0.365
		c-12.113-2.461-20.172-9.624-23.698-21.355c-3.52-11.714-0.757-22.216,7.756-31.049c1.651-1.712,2.995-3.362,3.765-5.721
		c1.504-4.606,4.731-8.047,8.708-10.74c10.204-6.906,21.584-8.666,33.589-7.492c4.063,0.398,8.059,1.229,11.857,2.765
		c1.187,0.479,1.94,0.386,2.942-0.459c10.286-8.673,22.472-10.804,35.406-9.846c7.341,0.545,14.274,2.729,20.586,6.632
		c1.891,1.168,3.949,2.337,5.17,4.145c2.275,3.373,5.405,4.562,9.232,5.126c5.294,0.779,10.194,2.831,14.672,5.81
		c1.049,0.697,2.165,0.991,3.438,1.135c13.141,1.484,23.586,10.413,26.72,22.744c3.242,12.752-1.706,26.101-12.462,33.607
		c-1.008,0.704-2.131,1.262-2.791,2.377c-4.495,7.602-11.613,11.554-19.756,13.915c-11.884,3.445-23.645,2.959-35.178-1.626
		C411.586,857.735,407.493,855.017,404.173,851.612z"/>
	<path fill-rule="evenodd" clip-rule="evenodd" fill="#1E1F5F" d="M935.98,783.097c7.19,2.399,13.519,6.02,17.624,12.68
		c0.83,1.345,2.157,1.987,3.305,2.896c9.724,7.711,14.076,17.753,12.068,30.004c-2.031,12.379-9.159,21.016-21.347,24.478
		c-5.213,1.479-10.227,3.042-15.055,5.534c-3.588,1.854-7.602,2.876-11.694,3.271c-1.248,0.118-2.439,0.284-3.247,1.449
		c-5.479,7.917-13.557,11.635-22.575,13.561c-11.544,2.467-22.825,1.534-33.637-3.474c-2.585-1.198-5.137-2.549-7.149-4.559
		c-1.658-1.655-3.12-1.539-5.201-0.885c-14.568,4.586-28.741,3.827-42.15-3.921c-5.619-3.247-9.843-7.827-11.421-14.371
		c-0.312-1.289-1.088-2.09-2.025-2.95c-16.863-15.448-12.109-42.949,8.902-51.783c4.922-2.068,10.078-2.316,15.274-2.077
		c2.742,0.125,4.734-0.581,6.855-2.561c5.956-5.557,13.402-8.101,21.352-9.389c10.663-1.729,20.886-0.199,30.797,3.896
		c1.729,0.378,2.1,1.959,2.788,3.214c6.074,11.103,15.452,16.964,28.07,16.341c12.279-0.607,20.933-7.18,26.119-18.323
		C934.172,784.965,934.278,783.387,935.98,783.097z"/>
	<path fill-rule="evenodd" clip-rule="evenodd" fill="#7F7F7F" d="M628.299,124.652c-1.01,3.574-2.955,6.563-6.05,8.591
		c-2.453,1.608-2.803,3.806-2.509,6.359c0.361,3.135,1.511,5.976,3.423,8.473c8.684,11.342,7.661,24.907-2.655,34.827
		c-0.208-0.119-0.451-0.202-0.613-0.366c-1.298-1.318-3.194-2.459-3.691-4.036c-0.472-1.499,1.625-2.779,2.505-4.21
		c1.779-2.892,2.924-6.011,3.43-9.313c0.623-4.069-0.175-7.85-3.042-11.033c-4.026-4.469-6.347-9.67-6.38-15.744
		c-0.009-1.614-0.873-1.737-2.098-1.833c-1.607-0.128-1.831,0.809-1.849,2.051c-0.058,3.904,1.532,7.188,3.859,10.172
		c8.184,10.492,6.872,24.945-3.129,34.177c-0.208-0.086-0.475-0.121-0.623-0.271c-1.296-1.318-3.176-2.465-3.679-4.045
		c-0.489-1.537,1.677-2.761,2.506-4.25c1.951-3.504,3.293-7.125,3.524-11.164c0.202-3.522-0.892-6.495-3.158-9.18
		c-4.721-5.595-7.665-11.772-5.8-19.362c0.261-1.063-0.073-1.838-0.869-2.628c-2.219-2.204-3.805-4.826-4.663-8.236
		c-1.698,1.542-1.511,3.963-2.925,5.074c-3.998,3.141-2.377,5.957-0.508,9.592c3.29,6.397,4.476,13.28,1.744,20.371
		c-0.73,1.895-1.931,3.435-3.173,4.955c-3.3,4.034-5.717,8.311-4.53,13.826c0.24,1.118-3.248,5.111-4.293,5.041
		c-1.003-0.068-1.384-0.987-1.774-1.7c-1.489-2.728-1.568-5.715-1.069-8.655c0.733-4.32,2.243-8.468,5.323-11.627
		c5.087-5.22,4.725-11.007,2.503-17.168c-0.673-1.866-1.691-3.557-2.737-5.232c-0.756-1.212-1.585-2.26-3.476-1.431
		c1.825,4.27,3.44,8.554,3.568,13.321c0.141,5.196-1.139,9.715-4.559,13.668c-2.452,2.835-4.37,5.984-4.703,9.861
		c-0.032,0.368-0.288,0.789-0.175,1.085c1.545,4.066-1.19,6.074-3.909,8.31c-3.031-2.925-3.471-6.509-2.928-10.276
		c0.701-4.875,2.655-9.261,5.994-12.907c3.419-3.734,4.008-7.958,2.936-12.738c-1.286-5.741-3.974-10.507-8.688-14.118
		c-2.884-2.209-4.811-5.157-6.004-9.017c-1.347,4.32-3.555,7.504-6.977,9.782c-2.458,1.636-2.5,4.136-2.069,6.581
		c0.54,3.063,1.686,6.006,3.868,8.281c9.25,9.642,5.545,23.025-0.033,31.03c-0.841,1.207-1.864,2.289-2.82,3.448
		c-0.409-0.244-0.767-0.374-1.011-0.618c-1.222-1.222-2.967-2.284-3.472-3.763c-0.576-1.688,1.63-2.757,2.424-4.227
		c2.51-4.645,4.308-9.393,3.231-14.837c-0.374-1.888-1.097-3.49-2.35-4.931c-4.075-4.685-6.936-9.911-6.782-16.335
		c0.039-1.588-0.75-1.788-2.017-1.877c-1.654-0.116-2.364,0.702-2.219,2.171c0.346,3.499,1.196,7.048,3.731,9.474
		c9.241,8.837,6.245,23.466,0.106,31.584c-0.868,1.149-1.543,2.537-3.007,3.278c-0.45-0.405-0.921-0.799-1.36-1.226
		c-3.172-3.086-3.151-3.076-0.673-6.891c2.118-3.261,3.372-6.864,3.876-10.702c0.569-4.337-1.015-7.932-3.898-11.138
		c-3.226-3.587-5.388-7.912-5.445-12.674c-0.055-4.554,0.285-8.88-3.822-12.044c-0.527-0.406-0.696-1.286-1.003-1.958
		c-0.305-0.667-0.575-1.349-0.912-2.146c-0.879,2.037-1.358,4.258-2.933,5.636c-2.587,2.266-2.748,4.213-0.673,7.047
		c2.353,3.214,3.314,7.174,3.79,11.105c0.708,5.86-0.49,11.22-4.498,15.875c-3.362,3.905-6.016,8.208-4.39,13.779
		c0.254,0.873-0.331,1.359-0.805,1.928c-1.029,1.23-2.025,2.489-3.162,3.893c-3.798-3.724-3.751-7.754-3.156-11.75
		c0.587-3.953,1.924-7.965,4.855-10.62c5.939-5.381,4.962-14.081,1.558-20.512c-0.688-1.298-1.571-2.508-2.479-3.669
		c-0.496-0.635-1.295-0.62-2.343-0.165c0.487,1.274,0.963,2.591,1.488,3.889c1.597,3.955,2.25,8.052,1.989,12.311
		c-0.252,4.101-1.768,7.67-4.499,10.703c-2.371,2.631-3.929,5.649-4.758,9.082c-0.235,0.976-0.616,2.064-0.217,2.909
		c1.261,2.677-0.429,4.087-2.079,5.601c-1.912,1.753-2.606,1.679-3.735-0.672c-1.395-2.903-1.416-6.043-0.816-9.077
		c0.773-3.903,2.142-7.769,4.958-10.623c5.866-5.945,5.012-12.488,2.065-19.164c-1.474-3.341-3.633-6.308-6.639-8.668
		c-5.862-4.605-7.818-11.134-5.681-17.809c1.953-6.1,8.14-10.832,14.717-11.255c6.834-0.439,13.262,3.312,16.263,9.514
		c0.421,0.871,0.755,1.783,1.18,2.796c2.817-7.51,7.909-12.134,16.003-12.266c8.375-0.137,13.684,4.498,16.632,12.189
		c3.869-10.249,11.763-12.723,17.921-12.188c6.95,0.604,12.747,5.615,14.421,12.407c0.437,0.661,0.871,0.666,1.302-0.005
		c1.913-7.481,8.372-12.562,15.866-12.477c7.375,0.082,13.699,5.172,15.485,12.464c0.422,0.687,0.85,0.677,1.284,0.013
		c1.924-7.092,7.687-11.933,14.823-12.442c6.155-0.44,14.012,2.459,17.543,12.276c2.938-7.741,8.258-12.234,16.637-12.271
		c7.286-0.031,12.658,4.195,16.014,12.248c2.854-7.586,8.068-12.22,16.314-12.218c8.229,0.002,13.444,4.62,16.292,12.186
		c3.752-8.618,9.313-12.568,17.147-12.231c6.755,0.291,12.978,4.962,15.056,11.303c2.15,6.563,0.067,13.533-5.73,17.741
		c-2.856,2.073-3.438,4.563-2.807,7.682c0.598,2.947,1.657,5.741,3.766,7.922c8.264,8.548,6.158,19.988,1.704,28.179
		c-1.243,2.286-2.85,4.316-4.63,6.241c-0.341-0.219-0.697-0.37-0.952-0.623c-1.222-1.221-2.918-2.276-3.49-3.759
		c-0.69-1.786,1.618-2.75,2.418-4.208c2.551-4.65,4.229-9.403,3.291-14.82c-0.329-1.901-1.095-3.492-2.35-4.922
		c-4.102-4.674-6.964-9.895-6.79-16.329c0.043-1.564-0.709-1.817-1.997-1.904c-1.635-0.111-2.341,0.643-2.245,2.148
		c0.217,3.417,1.248,6.695,3.5,9.196c4.468,4.966,6.765,10.501,5.987,17.227c-0.793,6.85-3.585,12.741-8.183,17.772
		c-1.141,0.042-1.536-0.842-2.111-1.396c-2.926-2.83-2.908-2.84-0.562-6.335c2.245-3.344,3.588-7.054,4.017-11.026
		c0.383-3.543-0.388-6.8-2.854-9.631c-3.986-4.575-6.657-9.77-6.645-16.037c0.001-0.371-0.082-0.782,0.047-1.106
		c1.161-2.935,0.142-5.052-2.193-6.976c-1.803-1.485-2.379-3.873-3.441-6.161c-0.936,2.988-2.227,5.556-4.356,7.479
		c-1.362,1.23-1.162,2.03-0.28,3.382c2.946,4.518,4.632,9.5,4.992,14.905c0.343,5.174-1.174,9.743-4.483,13.726
		c-3.401,4.093-6.171,8.392-4.554,14.104c0.253,0.893-0.418,1.336-0.893,1.878c-1.054,1.204-2.108,2.407-3.289,3.754
		c-3.923-4.193-3.592-8.694-2.621-13.158c0.82-3.772,2.689-7.109,5.214-10.096c5.095-6.024,4.352-17.608-1.376-23.038
		c-0.704-0.667-1.45-0.869-2.495-0.339c0.605,2.818,2.151,5.342,2.772,8.199c1.561,7.18,0.641,13.615-4.344,19.381
		c-3.2,3.701-5.508,7.945-4.063,13.188c0.242,0.879-0.178,1.398-0.697,1.947c-1.099,1.163-2.191,2.333-3.504,3.732
		c-3.694-3.71-3.454-7.978-2.751-12.182c0.64-3.824,2.176-7.541,4.946-10.208c6.006-5.78,4.676-13.705,1.391-20.194
		c-1.548-3.056-3.584-5.782-6.423-7.912c-2.804-2.104-3.644-3.633-5.858-8.442c-1.269,4.126-3.593,7.386-7.172,9.655
		c-1.551,0.981-1.951,2.444-2.023,4.085c-0.174,3.898,1.194,7.384,3.636,10.24c3.848,4.503,6.306,9.438,5.885,15.445
		c-0.479,6.842-2.89,12.955-7.486,18.13c-0.322,0.362-0.634,0.732-0.939,1.084c-0.29-0.099-0.586-0.112-0.741-0.267
		c-1.309-1.303-3.119-2.425-3.737-4.008c-0.664-1.698,1.662-2.737,2.417-4.248c1.385-2.77,2.819-5.51,3.208-8.622
		c0.585-4.699-0.08-8.879-3.584-12.657c-3.579-3.858-5.664-8.702-5.455-14.155c0.081-2.108-0.857-2.518-2.62-2.498
		c-2.008,0.023-1.73,1.475-1.633,2.62c0.265,3.129,1.153,6.167,3.224,8.522c4.257,4.841,6.968,10.157,6.284,16.788
		c-0.732,7.097-3.446,13.301-8.344,18.488c-1.018-0.129-1.494-0.907-2.1-1.491c-2.885-2.778-2.79-2.725-0.677-6.015
		c3.073-4.786,4.89-9.93,3.872-15.756c-0.326-1.867-1.045-3.492-2.303-4.943c-5.071-5.851-8.149-12.351-6.237-20.341
		c0.257-1.075-0.313-1.626-0.966-2.192c-2.4-2.079-3.892-4.739-4.988-7.954c-1.124,2.514-1.803,5.151-3.875,6.678
		c-2.518,1.853-1.519,3.344-0.334,5.403c3.396,5.906,5.153,12.2,3.86,19.127c-0.612,3.287-2.187,5.996-4.263,8.486
		c-3.359,4.03-5.752,8.367-4.423,13.864c0.225,0.929-0.317,1.342-0.779,1.893c-1.031,1.23-2.049,2.472-3.194,3.856
		c-2.94-3.042-3.744-6.204-3.405-9.565c0.518-5.136,2.468-9.712,5.815-13.749c5.203-6.275,4.612-16.822-1.074-22.706
		c-0.633-0.656-1.341-1.342-2.227-0.9c-1.329,0.662-0.079,1.494,0.146,2.139c0.845,2.439,1.81,4.818,2.332,7.378
		c1.369,6.713,0.077,12.663-4.368,17.99c-3.224,3.865-5.712,8.104-4.2,13.498c0.25,0.895-0.277,1.375-0.779,1.917
		c-1.09,1.173-2.176,2.35-3.264,3.526c-3.175-3.225-4.176-7.369-2.918-12.388c0.937-3.739,2.354-7.365,5.13-10.128
		c4.074-4.055,4.516-8.876,3.324-14.044c-1.245-5.4-3.948-9.977-8.277-13.558c-2.813-2.328-5.028-5.093-5.654-8.845
		C628.263,122.403,628.892,124.714,628.299,124.652z"/>
	<path fill-rule="evenodd" clip-rule="evenodd" fill="#7F7F7F" d="M627.557,252.971c-2.768,7.732-8.734,12.05-16.308,11.801
		c-7.12-0.233-13.069-5.168-15.021-12.46c-1.344-1.588-0.715,0.751-1.309,0.658c-2.618,7.335-8.25,11.695-15.249,11.804
		c-6.885,0.106-13.084-4.042-15.522-10.434c-0.257-0.673-0.296-1.428-0.437-2.146c-1.259-1.509-1.079-3.297-0.99-5.069
		c0.028-0.919,0.368-1.724,0.899-2.458c0.44-3.228,2.252-5.721,4.475-7.903c0.903-0.887,1.202-1.585,0.898-2.846
		c-1.599-6.63,0.533-12.448,4.423-17.661c5.898-7.906,5.918-15.955-0.232-23.876c-0.527-0.679-1.096-1.325-1.731-2.089
		c0.421-0.502,0.776-0.985,1.189-1.409c3.808-3.899,4.181-3.941,7.05,0.634c3.964,6.32,6.204,13.09,4.864,20.714
		c-0.624,3.549-2.391,6.42-4.679,9.072c-2.659,3.082-4.306,6.592-4.371,10.724c-0.017,1.089-0.139,2.33,1.613,2.259
		c1.349-0.054,2.259-0.187,2.312-2.004c0.178-6.009,2.426-11.197,6.381-15.772c5.327-6.159,3.264-12.637,0.354-19.018
		c-0.871-1.914-2.229-3.545-3.631-5.155c1.243-1.815,2.889-3.119,4.549-4.794c3.683,2.974,5.739,6.941,7.184,11.25
		c1.924,5.741,2.46,11.529,0.075,17.323c-0.912,2.215-2.51,3.931-3.958,5.759c-2.884,3.64-4.456,7.655-3.631,12.379
		c0.207,1.185,0.606,2.088,1.723,2.888c3.28,2.35,5.808,5.333,6.494,9.511c0.421,0.687,0.85,0.677,1.283,0.013
		c0.628-3.74,2.87-6.409,5.584-8.89c5.047-4.611,8.293-10.186,8.748-17.206c0.254-3.924-0.861-7.165-3.504-10.134
		c-4.173-4.69-6.299-10.203-5.716-16.616c0.209-2.306,0.962-4.31,2.808-6.376c1.286,1.273,2.554,2.521,3.812,3.78
		c0.535,0.535,0.872,1.048,0.609,1.943c-1.356,4.614,0.27,8.757,3.174,12.002c7.246,8.096,7.174,16.833,3.284,26.183
		c-0.189,0.455-0.421,0.894-0.592,1.355c-0.155,0.425-0.58,0.886-0.046,1.311c0.556,0.443,1.19,0.352,1.694-0.054
		c0.472-0.38,0.895-0.857,1.235-1.362c3.059-4.534,4.664-9.471,4.268-15.011c-0.207-2.907-1.746-5.089-3.544-7.152
		c-3.346-3.839-5.252-8.31-5.87-13.323c-0.441-3.575,0.391-6.806,3.329-10.148c1.116,1.4,1.989,2.609,2.983,3.708
		c0.771,0.854,1.213,1.513,0.933,2.883c-0.901,4.414,0.419,8.606,3.427,11.662c8.366,8.5,6.444,20.931,1.582,29.11
		c-0.189,0.319-0.329,0.685-0.577,0.948c-1.711,1.815-1.154,3.267,0.462,4.873c1.771,1.76,2.953,3.945,3.271,6.5
		c0.421,0.687,0.849,0.677,1.284,0.013c0.533-3.196,2.317-5.674,4.57-7.859c0.812-0.787,1.639-1.424,1.276-2.797
		c-1.795-6.804,0.181-12.953,4.599-17.892c6.132-6.855,4.867-13.66,1.334-20.86c-0.107-0.22-0.295-0.403-0.392-0.627
		c-0.72-1.677-3.101-2.989-2.645-4.558c0.537-1.849,2.626-3.149,4.409-4.59c6.364,6.981,9.374,15.024,8.29,24.422
		c-0.393,3.41-2.179,6.245-4.387,8.823c-2.712,3.167-4.518,6.777-4.964,10.956c-0.242,2.265,0.584,2.872,2.805,2.546
		c1.095-0.161,1.468-0.645,1.429-1.686c-0.249-6.588,2.609-11.899,6.799-16.704c3.277-3.757,2.96-8.209,1.988-12.627
		c-0.72-3.267-1.966-6.42-4.314-8.889c-1.644-1.728-1.161-2.808,0.406-4.182c3.197-2.804,2.439-3.88,5.474,0.392
		c5.071,7.139,7.5,14.95,5.154,23.729c-0.683,2.556-2.163,4.702-3.914,6.643c-2.377,2.635-3.982,5.67-4.588,9.148
		c-0.502,2.881-0.211,5.464,2.583,7.433c3.474,2.448,4.515,4.234,6.486,9.084c1.461-4.366,4.504-7.188,7.621-10.213
		c4.762-4.623,7.644-10.545,7.465-17.463c-0.075-2.876-1.075-5.452-3.09-7.726c-4.127-4.661-6.668-10.048-6.442-16.463
		c0.093-2.66,0.836-5.053,3.062-7.238c1.163,1.149,2.275,2.254,3.395,3.352c0.64,0.628,1.125,1.28,0.871,2.276
		c-1.254,4.911,0.82,8.877,3.595,12.658c1.379,1.878,3.045,3.547,3.946,5.776c2.343,5.804,1.893,11.578-0.078,17.34
		c-0.585,1.709-1.338,3.36-2.014,5.035c1.428,0.752,2.275,0.212,2.976-0.821c3.42-5.037,5.635-10.358,4.433-16.664
		c-0.444-2.324-1.744-4.011-3.169-5.729c-3.822-4.604-6.165-9.774-5.971-15.906c0.085-2.669,0.799-5.06,2.725-7.065
		c1.642,0.753,2.556,2.305,3.855,3.411c0.734,0.625,0.917,1.357,0.668,2.313c-1.25,4.806,0.705,8.928,3.655,12.256
		c7.688,8.669,6.45,17.763,2.098,27.215c-0.309,0.671-0.644,1.366-1.124,1.913c-1.687,1.918-1.723,3.491,0.417,5.223
		c1.957,1.586,2.771,4.023,3.683,6.645c1.214-3.298,2.681-6.112,5.229-8.197c0.964-0.789,1.274-1.709,0.955-2.941
		c-1.666-6.429,0.083-12.595,4.397-16.849c7.345-7.244,4.616-17.621-0.166-24.35c-0.498-0.701-1.077-1.344-1.726-2.145
		c1.62-1.531,3.203-3.029,4.976-4.706c6.833,7.8,10.066,16.517,7.516,26.902c-0.702,2.858-2.533,5.054-4.353,7.225
		c-2.289,2.729-3.679,5.828-4.122,9.342c-0.181,1.432-0.63,3.063,1.704,3.288c2.141,0.208,2.3-0.987,2.317-2.7
		c0.055-5.271,1.854-10.102,5.385-13.864c6.144-6.542,4.503-13.278,1.258-20.186c-0.881-1.874-2.278-3.505-3.513-5.363
		c1.351-1.644,2.903-3.188,4.734-4.708c6.469,7.009,9.367,15.093,8.284,24.483c-0.378,3.277-2.075,6.026-4.172,8.534
		c-2.239,2.677-4.019,5.574-4.771,9.077c-0.728,3.393-0.328,6.134,2.757,8.354c2.956,2.127,5.107,4.998,5.683,8.776
		c0.437,0.661,0.871,0.666,1.302-0.004c0.549-3.472,2.502-6.11,5.02-8.401c4.233-3.852,7.226-8.461,8.597-14.055
		c1.204-4.917,0.936-9.438-2.818-13.435c-3.366-3.584-5.244-8.04-5.979-12.904c-0.572-3.795-0.037-7.345,3.363-10.79
		c0.933,1.212,1.647,2.401,2.613,3.329c1.073,1.03,1.44,1.959,1.153,3.529c-0.725,3.98,0.324,7.858,2.959,10.725
		c8.169,8.888,7.468,18.424,2.813,28.461c-0.102,0.219-0.135,0.471-0.211,0.748c1.605,1.047,2.516-0.018,3.288-1.166
		c2.589-3.849,4.27-8.031,4.472-12.727c0.145-3.354-0.781-6.288-3.096-8.816c-3.232-3.531-5.349-7.701-6.204-12.405
		c-0.723-3.985-0.404-7.841,2.735-11.356c1.196,1.144,2.31,2.231,3.448,3.291c0.777,0.724,1.142,1.494,0.875,2.622
		c-1.084,4.603,0.724,8.479,3.388,11.987c6.96,9.167,7.579,18.89,1.685,28.787c-0.253,0.425-0.446,0.901-0.769,1.263
		c-1.42,1.587-1.135,2.805,0.344,4.337c3.771,3.91,5.037,8.73,3.996,14.016c-1.368,6.947-7.546,12.434-14.357,13.025
		c-7.176,0.623-13.708-3.311-16.65-9.933c-0.372-0.839-0.234-1.965-1.484-2.692c-3.022,8.283-8.699,13.155-17.729,12.584
		c-7.542-0.477-12.373-4.932-15.059-12.199c-3.082,8.03-8.622,12.623-17.232,12.22c-7.729-0.362-12.655-4.842-15.459-12.345
		c-1.352,4.005-3.424,7.176-6.721,9.44c-3.397,2.333-7.144,3.304-11.222,2.922c-6.968-0.652-12.604-5.545-14.414-12.442
		C627.521,250.722,628.15,253.034,627.557,252.971z"/>
	<path fill-rule="evenodd" clip-rule="evenodd" fill="#7F7F7F" d="M238.465,244.785c1.419-4.485,4.342-7.306,7.419-10.251
		c5.026-4.811,7.904-10.924,7.642-18.097c-0.106-2.9-1.402-5.362-3.374-7.621c-4.01-4.595-6.431-9.905-6.133-16.195
		c0.101-2.143,0.657-4.097,1.874-5.9c0.76-1.126,1.384-1.194,2.287-0.215c1.686,1.828,3.575,3.083,2.879,6.482
		c-0.773,3.778,1.01,7.684,3.656,10.525c7.269,7.807,6.789,16.413,3.279,25.497c-0.354,0.917-0.78,1.805-1.197,2.763
		c1.19,0.962,1.964,0.304,2.786-0.533c5.794-5.896,6.276-16.675,1.11-22.973c-3.622-4.416-5.82-9.402-5.625-15.27
		c0.09-2.675,0.736-5.104,2.637-7.375c1.657,0.842,2.689,2.399,4.011,3.596c0.57,0.517,0.864,1.079,0.605,1.954
		c-1.427,4.809,0.565,8.949,3.493,12.282c8.218,9.353,6.615,18.953,1.439,28.804c-1.781,3.392-1.896,3.332,0.462,6.077
		c4.451,5.18,4.988,12.674,1.335,18.63c-3.57,5.822-11.066,8.958-17.621,7.481c-6.585-1.486-10.645-5.688-12.949-11.961
		c-3.359,8.197-8.905,12.335-16.431,12.299c-6.337-0.031-13.113-3.608-16.173-12.293c-3.083,8.04-8.635,12.629-17.251,12.219
		c-7.733-0.369-12.657-4.862-15.454-12.375c-1.315,4.061-3.448,7.193-6.736,9.498c-6.228,4.365-14.922,3.873-20.554-1.224
		c-6.048-5.474-7.909-13.688-3.252-19.985c2.932-3.965,3.752-7.594,3.481-12.229c-0.278-4.733,2.145-8.813,4.945-12.499
		c4.982-6.558,5.507-13.216,1.433-20.522c-0.3-0.538-0.677-1.034-1.01-1.554c-2.475-3.863-2.477-3.865,1.003-7.191
		c0.351-0.335,0.744-0.625,1.393-1.164c6.654,8.21,10.561,16.902,7.273,27.617c-0.796,2.592-2.607,4.432-4.157,6.485
		c-2.343,3.107-4.15,6.422-4.215,10.45c-0.022,1.376,0.127,2.425,1.981,2.289c1.44-0.105,1.987-0.34,2.038-2.087
		c0.16-5.441,1.765-10.587,5.533-14.58c5.11-5.416,4.608-11.344,2.381-17.571c-0.785-2.199-1.794-4.392-3.485-6.059
		c-1.469-1.448-1.008-2.382,0.228-3.658c3.181-3.285,3.296-3.457,5.831,0.088c4.843,6.772,7.21,14.254,5.491,22.649
		c-0.663,3.237-2.54,5.825-4.621,8.32c-2.585,3.101-4.31,6.608-4.295,10.768c0.007,2.053,0.609,3.708,2.482,4.985
		c3.237,2.208,5.578,5.208,6.766,9.59c1.634-4.494,4.702-7.255,7.596-10.337c5.04-5.366,8.374-11.798,7.08-19.7
		c-0.402-2.454-1.711-4.3-3.244-6.107c-3.976-4.687-6.198-10.002-5.875-16.273c0.132-2.563,0.896-4.773,2.66-6.643
		c1.372,0.638,2.117,1.834,3.132,2.72c1.17,1.02,1.569,1.982,1.194,3.792c-0.853,4.119,0.744,8.053,3.415,10.962
		c7.762,8.459,7.174,17.542,2.906,27.146c-0.199,0.444-0.396,0.89-0.644,1.444c1.426,1.019,2.335,0.256,3.086-0.762
		c3.773-5.115,5.29-10.834,4.27-17.123c-0.39-2.406-2.22-4.062-3.652-5.913c-3.657-4.724-5.877-9.922-5.302-16.08
		c0.227-2.427,1.013-4.515,2.671-6.297c1.328,0.687,2.101,1.85,3.102,2.753c1.125,1.016,1.626,1.911,1.235,3.771
		c-0.89,4.237,0.699,8.341,3.57,11.252c8.46,8.582,6.484,20.987,1.342,29.086c-1.547,2.437-1.663,3.871,0.573,5.704
		c1.91,1.567,2.66,3.988,3.626,6.517c1.179-3.382,2.746-6.148,5.287-8.265c0.86-0.717,0.978-1.499,0.709-2.617
		c-1.596-6.653,0.061-12.924,4.642-17.519c6.77-6.789,4.269-16.434,0.474-22.493c-2.459-3.926-2.538-3.88,0.878-7.161
		c0.351-0.337,0.738-0.636,1.095-0.942c6.688,5.304,11.241,19.491,7.411,28.049c-1.139,2.546-2.923,4.551-4.547,6.702
		c-2.147,2.844-3.36,6.003-3.664,9.534c-0.181,2.099,0.952,2.476,2.764,2.286c1.393-0.146,1.509-0.95,1.495-2.03
		c-0.084-6.274,2.471-11.471,6.552-16.053c3.428-3.847,3.154-8.385,2.188-12.948c-0.697-3.286-2.013-6.408-4.303-8.9
		c-1.454-1.583-1.292-2.565,0.202-3.908c0.993-0.893,1.665-2.142,2.707-3.534c6.893,8.014,10.367,16.136,8.49,26.026
		c-0.6,3.167-2.306,5.688-4.307,8.057c-2.025,2.397-3.603,5.028-4.333,8.085c-0.817,3.421-0.606,6.463,2.767,8.724
		C235.409,237.809,237.282,240.888,238.465,244.785z"/>
	<path fill-rule="evenodd" clip-rule="evenodd" fill="#7F7F7F" d="M1007.799,183.224c-3.961-4.324-3.66-8.999-2.382-13.79
		c0.937-3.509,2.754-6.559,5.059-9.371c5.112-6.235,4.511-17.021-1.171-22.735c-0.734-0.739-1.47-1.343-2.737-0.537
		c1.102,3.307,2.653,6.498,3.213,10.02c0.935,5.886,0.119,11.296-3.748,16.032c-2.117,2.591-4.05,5.28-4.934,8.597
		c-0.29,1.086-0.794,2.233-0.479,3.259c1.228,3.993-1.278,6.031-4.12,8.179c-3.52-3.605-3.173-8.035-2.379-12.354
		c0.624-3.399,2.19-6.537,4.34-9.318c5.592-7.233,6.024-14.392,1.138-22.056c-1.561-2.447-3.318-4.743-5.626-6.681
		c-5.442-4.567-7.222-10.447-5.118-17.311c1.835-5.986,7.871-10.647,14.335-11.239c6.627-0.607,13.184,2.944,16.276,8.851
		c0.562,1.072,1.01,2.202,1.552,3.396c2.804-7.476,7.9-12.098,15.994-12.222c8.358-0.127,13.685,4.484,16.635,12.247
		c2.932-7.717,8.175-12.175,16.445-12.285c7.349-0.098,12.93,4.222,16.171,12.323c1.23-3.113,2.707-5.808,5.07-7.975
		c7.111-6.516,17.901-5.694,24.333,1.934c5.827,6.914,4.556,17.171-3.052,22.859c-2.664,1.991-3.363,4.401-2.769,7.365
		c0.587,2.926,1.796,5.576,3.656,7.991c7.087,9.195,7.598,18.379,1.777,28.496c-1.238,2.156-2.82,4.031-4.321,5.897
		c-1.115-0.026-1.564-0.845-2.158-1.421c-2.91-2.824-2.865-2.807-0.582-6.326c2.967-4.573,4.637-9.476,3.793-15.045
		c-0.347-2.286-1.258-4.189-2.799-5.898c-3.931-4.358-6.403-9.406-6.306-15.366c0.038-2.294-1.146-2.384-2.738-2.344
		c-1.979,0.049-1.646,1.58-1.516,2.706c0.378,3.243,1.406,6.361,3.546,8.816c3.881,4.453,6.33,9.273,6,15.39
		c-0.36,6.665-2.689,12.474-6.766,17.661c-0.531,0.677-1.12,1.307-1.773,2.063c-1.838-1.375-3.275-3.027-4.874-4.754
		c3.034-3.721,5.313-7.732,6.181-12.501c0.8-4.391,0.234-8.251-2.802-11.735c-3.817-4.381-6.35-9.389-6.378-15.377
		c-0.007-1.229-0.121-2.501,0.385-3.663c0.53-1.222,0.192-2.1-0.783-2.915c-2.438-2.036-3.957-4.689-5.076-8.081
		c-1.229,3.25-2.574,6.079-5.057,8.075c-1.193,0.961-0.534,1.532,0.025,2.39c2.386,3.648,3.99,7.611,4.813,11.917
		c1.26,6.583-0.02,12.428-4.409,17.629c-3.257,3.858-5.721,8.11-4.222,13.5c0.252,0.909-0.239,1.363-0.717,1.925
		c-1.118,1.313-2.214,2.646-3.393,4.059c-3.906-4.286-3.573-8.74-2.727-13.127c0.732-3.795,2.569-7.151,5.11-10.139
		c5.147-6.047,4.688-16.845-0.866-22.691c-0.775-0.815-1.535-1.685-3.005-0.723c1.19,3.149,2.647,6.224,3.23,9.641
		c1.102,6.454,0.095,12.209-4.268,17.303c-3.374,3.939-5.88,8.271-4.379,13.804c0.24,0.882-0.335,1.356-0.809,1.923
		c-1.03,1.23-2.028,2.487-3.158,3.877c-3.784-3.718-3.739-7.766-3.155-11.753c0.58-3.95,2.04-7.801,4.838-10.653
		c6.082-6.198,5.076-12.936,1.945-19.819c-1.463-3.214-3.523-6.131-6.506-8.317c-2.854-2.093-4.739-4.987-5.916-8.87
		c-1.562,4.476-3.97,7.825-7.682,10.164c-1.38,0.868-1.63,2.365-1.688,3.878c-0.159,4.037,1.198,7.74,3.858,10.521
		c8.063,8.427,6.309,19.065,2.133,27.511c-0.601,1.214-1.234,2.465-2.109,3.478c-3.837,4.445-2.268,4.344-6.541,0.391
		c-1.364-1.262-0.943-2.151,0.05-3.416c3.554-4.523,5.389-9.634,5.007-15.482c-0.16-2.45-0.911-4.581-2.517-6.411
		c-4.185-4.772-7.075-10.07-6.745-16.658c0.077-1.536-0.978-1.419-1.954-1.522c-1.229-0.129-2.194-0.028-2.268,1.593
		c-0.151,3.375,1.161,6.267,2.874,9.017c0.717,1.148,1.583,2.214,2.471,3.241c3.932,4.551,4.766,9.947,4.066,15.638
		c-0.782,6.361-3.64,11.803-8.511,16.945c-0.374-0.286-0.786-0.549-1.138-0.877c-3.532-3.299-3.496-3.281-0.883-7.448
		c2.765-4.407,4.162-9.152,3.493-14.424c-0.293-2.3-1.202-4.204-2.732-5.923c-5.021-5.642-7.579-12.086-5.984-19.719
		c0.217-1.035,0.034-1.653-0.672-2.248c-2.527-2.131-4.087-4.895-5.231-8.27c-1.197,3.772-3.081,6.759-6.038,9.115
		c3.424,4.917,5.556,10.216,6.049,16.126c0.382,4.561-0.344,8.826-3.123,12.596c-1.317,1.787-2.688,3.542-3.904,5.396
		c-1.44,2.198-2.362,4.618-2.323,7.298c0.021,1.443,0.695,3.157,0.128,4.263C1010.908,180.417,1009.222,181.685,1007.799,183.224z"
		/>
	<path fill-rule="evenodd" clip-rule="evenodd" fill="#7F7F7F" d="M1020.275,244.755c1.408-4.525,4.406-7.306,7.468-10.282
		c4.976-4.835,7.958-10.917,7.575-18.129c-0.152-2.89-1.417-5.352-3.415-7.599c-3.97-4.467-6.26-9.712-6.091-15.833
		c0.021-0.74-0.079-1.549,0.184-2.203c0.728-1.809,0.672-4.553,3.183-4.707c1.78-0.109,3.879,4.213,3.618,6.315
		c-0.416,3.336,0.78,6.301,2.305,9.161c0.286,0.54,0.657,1.057,1.077,1.503c7.792,8.268,7.322,17.481,3.131,27.128
		c-0.243,0.56-0.489,1.118-0.738,1.688c1.248,0.868,2.14,0.491,2.879-0.555c3.53-4.992,5.657-10.362,4.559-16.634
		c-0.424-2.417-1.771-4.261-3.297-6.089c-3.571-4.278-5.827-9.108-5.866-14.819c-0.02-2.939,0.567-5.636,2.735-8.027
		c1.644,0.792,2.652,2.383,3.988,3.582c0.591,0.532,0.734,1.124,0.515,1.976c-1.234,4.776,0.613,8.962,3.568,12.295
		c7.905,8.919,6.627,18.201,1.935,27.85c-0.053,0.111-0.113,0.219-0.174,0.327c-2.085,3.744-2.078,3.738,0.642,7.253
		c1.218,1.576,1.996,3.386,2.804,5.651c1.304-3.284,2.772-6.135,5.34-8.22c0.845-0.687,1.126-1.49,0.834-2.608
		c-1.698-6.549,0.634-12.221,4.318-17.35c6.015-8.368,6.211-14.947,0.24-23.602c-1.955-2.832-1.933-2.811,0.354-5.166
		c0.686-0.707,1.21-1.573,2.021-2.647c7.243,7.785,10.111,16.29,8.437,26.181c-0.572,3.378-2.716,6.035-4.885,8.601
		c-2.381,2.817-3.691,6.105-4.114,9.745c-0.169,1.449-0.074,2.703,1.979,2.743c1.877,0.037,2.221-0.8,2.189-2.473
		c-0.098-5.301,1.616-10.295,5.275-13.853c6.24-6.064,4.469-14.772,1.113-20.874c-0.939-1.709-2.15-3.27-3.353-5.072
		c1.483-1.422,2.987-2.864,4.781-4.584c4.915,5.194,7.747,11.249,8.475,18.303c0.596,5.807-0.78,10.97-4.824,15.393
		c-2.453,2.683-3.978,5.951-4.522,9.584c-0.399,2.672,0.002,4.991,2.521,6.737c3.115,2.161,5.255,5.173,6.445,9.301
		c1.549-4.524,4.532-7.369,7.666-10.351c5.468-5.205,8.36-11.827,7.413-19.628c-0.257-2.113-1.438-3.883-2.875-5.488
		c-3.104-3.473-5.155-7.526-6.168-12.065c-0.93-4.163-0.383-8.052,2.615-11.79c1.254,1.199,2.345,2.297,3.497,3.326
		c0.913,0.814,1.146,1.604,0.882,2.908c-0.833,4.125,0.217,8.089,2.96,11.083c8.047,8.777,7.417,18.219,2.861,28.165
		c-0.146,0.317-0.213,0.671-0.317,1.01c1.476,0.92,2.424,0.098,3.145-0.971c2.959-4.39,4.88-9.142,4.616-14.552
		c-0.136-2.813-1.295-5.172-3.163-7.318c-4.092-4.704-6.604-10.083-6.375-16.491c0.077-2.149,0.717-4.091,1.891-5.905
		c0.719-1.113,1.295-1.254,2.275-0.289c1.92,1.89,3.705,3.389,2.831,6.849c-0.738,2.927,0.993,5.986,2.644,8.652
		c0.453,0.733,0.93,1.468,1.498,2.112c7.637,8.625,6.194,17.832,1.752,27.221c-0.474,1-1.05,1.973-1.713,2.859
		c-0.882,1.18-0.816,2.004,0.271,3.128c5.076,5.246,6.378,11.384,3.252,18.015c-3.014,6.389-8.368,9.683-15.438,9.514
		c-7.408-0.177-12.462-4.089-15.388-10.831c-0.189-0.439-0.336-0.898-0.564-1.513c-2.788,7.624-7.887,12.194-15.993,12.326
		c-8.407,0.137-13.72-4.487-16.659-12.204c-3.391,8.18-8.886,12.288-16.395,12.269c-6.519-0.017-13.265-3.821-16.221-12.374
		c-1.399,3.636-3.151,6.681-6.137,8.917c-7.163,5.37-16.591,4.494-22.719-2.229c-5.813-6.377-5.553-15.502,0.782-22.002
		c1.264-1.297,1.554-2.277,1.208-4.135c-1.179-6.343,1.024-11.895,4.805-16.929c5.614-7.48,5.757-14.579,0.471-22.378
		c-2.47-3.646-2.474-3.648,0.557-6.602c0.525-0.512,1.087-0.989,1.808-1.644c6.799,8.208,10.515,17.019,7.279,27.73
		c-0.781,2.587-2.585,4.467-4.146,6.513c-2.294,3.008-3.928,6.262-4.265,10.083c-0.163,1.859,0.495,2.786,2.544,2.523
		c1.185-0.152,1.766-0.507,1.729-1.804c-0.192-6.569,2.691-11.836,6.83-16.704c4.07-4.786,2.704-10.192,1.035-15.452
		c-0.707-2.234-1.791-4.373-3.464-6.064c-1.513-1.527-1.154-2.62,0.306-3.917c0.998-0.886,1.718-2.086,2.783-3.425
		c6.578,7.952,10.192,15.945,8.388,25.741c-0.608,3.295-2.286,5.947-4.413,8.403c-2.223,2.567-3.8,5.461-4.426,8.828
		c-0.572,3.081-0.224,5.728,2.696,7.718C1017.048,237.705,1019.028,240.808,1020.275,244.755z"/>
	<path fill-rule="evenodd" clip-rule="evenodd" fill="#7F7F7F" d="M205.514,124.652c-0.986,3.428-2.774,6.38-5.769,8.338
		c-2.01,1.314-2.547,3.071-2.604,5.233c-0.11,4.186,1.563,7.679,4.194,10.771c2.86,3.36,4.937,7.036,5.117,11.571
		c0.345,8.672-2.438,16.122-8.517,22.486c-0.581-0.483-0.967-0.77-1.312-1.098c-3.407-3.257-3.427-3.273-0.884-7.13
		c1.722-2.612,2.951-5.453,3.507-8.496c0.849-4.653,0.411-9.01-3.078-12.762c-3.905-4.2-6.013-9.293-6.13-15.068
		c-0.035-1.684-0.716-2.078-2.201-2.136c-1.673-0.065-1.75,0.947-1.75,2.138c0,3.891,1.337,7.506,3.964,10.109
		c9.792,9.7,4.788,25.654-1.794,33c-1.014,1.132-1.82,1.573-2.903,0.16c-0.447-0.584-0.99-1.116-1.568-1.572
		c-1.64-1.293-1.403-2.391-0.15-3.974c3.309-4.181,4.984-8.987,4.901-14.4c-0.046-2.985-0.921-5.54-2.943-7.734
		c-3.619-3.927-5.756-8.55-6.409-13.856c-0.061-0.486-0.356-1.039-0.21-1.44c1.481-4.067,0.024-7.17-2.844-10.072
		c-1.173-1.188-1.737-2.966-1.947-4.727c-1.344-1.587-0.716,0.751-1.31,0.658c-0.588,2.463-1.748,4.745-3.565,6.377
		c-1.776,1.594-1.286,2.69-0.237,4.281c3.276,4.974,4.78,10.47,4.687,16.446c-0.07,4.516-1.493,8.411-4.477,11.826
		c-3.361,3.848-5.501,8.157-4.657,13.524c0.49,3.114-2.724,3.774-4.06,6c-3.037-2.882-3.622-6.328-3.144-9.959
		c0.622-4.729,2.187-9.277,5.522-12.709c4.498-4.628,4.588-9.833,3.047-15.455c-0.686-2.501-1.866-4.828-3.341-6.973
		c-0.946-1.378-0.991-1.347-3.485-1.346c1.706,3.975,3.182,7.912,3.542,12.272c0.427,5.177-0.623,9.741-3.828,13.833
		c-1.292,1.647-2.723,3.2-3.663,5.106c-1.164,2.358-2.285,4.873-1.705,7.45c0.648,2.89-0.53,4.61-2.538,6.237
		c-0.464,0.375-0.713,1.015-1.165,1.684c-3.294-3.017-3.823-6.446-3.395-10.048c0.564-4.749,2.19-9.204,5.507-12.702
		c5.1-5.381,4.729-11.378,2.28-17.547c-1.625-4.096-4.075-7.702-7.586-10.609c-5.505-4.559-7.089-11.846-4.36-18.482
		c2.604-6.332,9.327-10.428,16.3-9.93c6.857,0.49,12.686,5.521,14.374,12.41c0.421,0.687,0.85,0.677,1.284,0.013
		c1.914-7.482,8.373-12.562,15.867-12.477c7.375,0.082,13.699,5.172,15.485,12.464c0.422,0.687,0.85,0.677,1.284,0.013
		c1.924-7.092,7.686-11.932,14.821-12.442c6.171-0.441,14.022,2.477,17.571,12.353c1.665-4.712,4.361-8.369,8.76-10.578
		c7.754-3.892,17.278-1.248,21.788,6.055c4.463,7.226,2.825,16.212-4.312,21.34c-3.123,2.242-3.339,4.966-2.703,8.083
		c0.57,2.797,1.719,5.521,3.712,7.557c7.925,8.091,6.183,19.142,1.915,27.504c-1.065,2.085-2.381,4.025-4.028,5.74
		c-0.894,0.931-1.55,1.024-2.395,0.03c-0.559-0.658-1.17-1.285-1.834-1.833c-1.411-1.166-1.482-2.158-0.25-3.681
		c3.446-4.26,5.155-9.171,5.059-14.729c-0.055-3.15-1.175-5.692-3.241-8.011c-4.322-4.852-6.376-10.572-6.254-16.863
		c-3.948-0.821-4.529-0.378-3.923,3.333c0.528,3.229,1.873,6.202,4.044,8.612c7.621,8.458,6.413,17.535,2.064,26.842
		c-1.252,2.677-2.968,5.092-5.156,7.121c-1.867-0.885-3.387-2.386-4.259-4.008c-1.052-1.953,1.534-2.974,2.319-4.517
		c1.698-3.337,3.029-6.678,3.345-10.474c0.328-3.937-0.71-7.175-3.302-10.181c-4.734-5.491-7.078-11.813-5.482-19.146
		c0.226-1.035,0.037-1.653-0.67-2.249c-2.526-2.13-4.087-4.892-5.216-8.23c-1.257,3.702-3.03,6.757-6.058,9.018
		c3,4.723,5.259,9.53,5.908,15.073c0.686,5.847-0.483,11.042-4.297,15.513c-3.517,4.124-5.896,8.542-4.539,14.171
		c0.229,0.948-0.388,1.34-0.858,1.862c-1.071,1.19-2.167,2.36-3.336,3.629c-4.155-4.248-3.634-8.978-2.437-13.714
		c0.885-3.502,2.66-6.583,5.001-9.394c5.206-6.249,4.664-16.766-1.019-22.726c-0.624-0.654-1.304-1.36-2.214-0.93
		c-1.355,0.642-0.169,1.472,0.088,2.121c2.118,5.334,3.611,10.693,2.43,16.565c-0.714,3.55-2.51,6.386-4.691,9.09
		c-3.128,3.879-5.31,8.044-3.979,13.236c0.235,0.922-0.209,1.415-0.751,1.902c-1.267,1.14-2.231,2.624-3.941,3.521
		c-3.928-5.207-2.994-10.682-1.017-16.167c0.882-2.447,2.205-4.748,4.072-6.571c3.687-3.599,4.198-8.073,3.374-12.697
		c-1.013-5.689-3.744-10.591-8.188-14.412c-2.865-2.464-5.268-5.207-5.925-9.098C205.479,122.402,206.107,124.714,205.514,124.652z"
		/>
	<path fill-rule="evenodd" clip-rule="evenodd" fill="#BF0000" d="M935.98,783.097c-2.054,4.877-4.315,9.58-8.18,13.407
		c-14.876,14.734-39.471,10.914-49.103-7.701c-0.675-1.306-1.36-2.604-2.042-3.907c-1.048-5.323-1.932-10.586-0.814-16.091
		c3.333-16.43,19.101-27.321,35.52-24.314c16.834,3.082,27.848,18.644,24.997,35.3C936.17,780.882,936.103,781.993,935.98,783.097z"
		/>
	<path fill-rule="evenodd" clip-rule="evenodd" fill="#7F7F7F" d="M529.616,252.251c-0.446,5.277-6.184,11.196-13.161,12.364
		c-7.038,1.179-14.157-2.348-17.475-8.538c-3.216-6.002-2.577-12.99,1.979-17.895c1.877-2.02,2.678-3.669,2.232-6.706
		c-0.793-5.411,1.254-10.473,4.521-14.855c6.208-8.327,6.399-15.017,0.488-23.549c-2.098-3.028-2.101-3.032,0.616-5.71
		c0.604-0.596,1.234-1.166,1.839-1.734c7.332,5.75,11.179,20.629,7.267,28.438c-1.066,2.128-2.448,3.981-3.924,5.8
		c-2.317,2.857-3.837,6.04-3.868,9.789c-0.01,1.167-0.354,2.554,1.648,2.613c1.778,0.053,2.308-0.606,2.291-2.378
		c-0.049-5.134,1.47-10.076,5.027-13.572c6.2-6.093,5.21-14.271,1.274-21.488c-0.895-1.639-2.086-3.046-3.267-4.649
		c1.596-1.526,3.176-3.038,4.936-4.722c6.93,7.958,10.184,16.799,7.42,27.306c-0.713,2.714-2.57,4.758-4.281,6.86
		c-2.151,2.644-3.593,5.561-4.044,8.983c-0.375,2.842,0,5.177,2.581,7.045c3.052,2.209,5.363,5.097,5.964,9.018
		c0.455,0.633,0.8,1.311,0.872,2.104C530.781,248.691,530.997,250.609,529.616,252.251z"/>
	<path fill-rule="evenodd" clip-rule="evenodd" fill="#7F7F7F" d="M529.616,252.251c-0.214-1.774,0.634-3.548,0.005-5.323
		c0.76-0.569,0.761-1.596,1.363-2.261c0.548-3.47,2.475-6.133,5.02-8.39c4.2-3.724,7.083-8.24,8.529-13.677
		c1.378-5.179,1.058-9.948-2.829-14.121c-3.28-3.521-5.12-7.825-5.874-12.542c-0.607-3.797,0.125-7.311,2.746-10.331
		c1.606,0.923,2.504,2.292,3.705,3.323c0.835,0.716,0.942,1.455,0.726,2.585c-0.816,4.264,0.311,8.345,3.121,11.396
		c7.713,8.371,7.225,17.478,3.281,27.129c-0.264,0.646-0.945,1.13-0.783,1.972c1.436,0.751,2.293-0.028,3.07-1.118
		c3.095-4.351,4.791-9.151,4.571-14.528c-0.104-2.528-0.958-4.787-2.692-6.716c-3.188-3.546-5.449-7.619-6.444-12.306
		c-0.899-4.235-0.718-8.283,2.487-11.712c1.557,0.715,2.313,2.05,3.43,2.969c0.948,0.783,1.208,1.726,0.959,2.959
		c-0.869,4.306,0.652,8.039,3.127,11.404c7.433,10.104,8.041,19.541,1.458,29.967c-1.396,2.211-1.404,3.488,0.471,5.243
		c1.815,1.698,2.957,3.929,3.273,6.48c0.588,0.704,0.615,1.736,1.375,2.337c0,1.734-0.001,3.469-0.001,5.204
		c-2.116-0.097-1.625,1.878-2.115,2.896c-4.961,10.309-17.755,12.962-25.997,5.279c-2.007-1.871-3.523-4.107-4.372-6.74
		C530.958,252.797,530.903,251.841,529.616,252.251z"/>
	<path fill-rule="evenodd" clip-rule="evenodd" fill="#010101" d="M317.477,66.756c-1.242,0-2.223-0.065-3.191,0.016
		c-1.305,0.109-2.11-0.331-2.344-1.682c-0.062-0.355-0.276-0.682-0.408-1.028c-2.364-6.207-2.364-6.222-8.825-6.199
		c-2.211,0.008-4.825-0.595-6.518,0.371c-1.733,0.989-2.065,3.809-2.573,5.93c-0.819,3.424-3.237,2.591-5.755,2.494
		c0.59-2.83,1.762-5.343,2.677-7.934c2.827-7.999,5.667-15.992,8.487-23.993c0.581-1.65,0.994-3.031,3.425-2.955
		c2.195,0.068,2.917,0.918,3.563,2.766C309.737,45.205,313.574,55.828,317.477,66.756z"/>
	<path fill-rule="evenodd" clip-rule="evenodd" fill="#010101" d="M773.567,62.121c-4.773,0.296-4.773,0.296-6.173-3.413
		c-2.001-5.303-2.001-5.314-7.628-5.297c-2.465,0.007-5.313-0.682-7.287,0.322c-2.042,1.039-2.211,4.221-2.934,6.522
		c-1.067,3.396-3.506,1.64-5.773,2.061c4.053-11.296,8.053-22.256,11.876-33.277c0.662-1.907,1.892-1.524,3.18-1.6
		c1.431-0.082,2.443,0.046,3.049,1.815c3.104,9.072,6.399,18.079,9.629,27.108C772.167,58.209,772.828,60.056,773.567,62.121z"/>
	<path fill-rule="evenodd" clip-rule="evenodd" d="M392.375,44.146c7.129-4.195,13.151-3.061,16.576,2.842
		c3.934,6.784,1.944,15.704-4.268,19.204c-4.405,2.48-8.281,1.169-11.901-1.645c-0.854,0.39-0.522,1.406-1.106,1.836
		c-0.981,0.722-2.192,0.525-3.177,0.256c-1.031-0.281-0.553-1.474-0.555-2.257c-0.029-10.733,0.009-21.467-0.048-32.2
		c-0.01-1.735,0.188-2.562,2.322-2.612c2.418-0.058,2.172,1.244,2.165,2.752C392.361,36.144,392.375,39.965,392.375,44.146z"/>
	<path fill-rule="evenodd" clip-rule="evenodd" d="M900.458,39.697c7.13-4.196,13.151-3.062,16.576,2.841
		c3.936,6.783,1.949,15.712-4.271,19.2c-3.835,2.151-7.047,1.721-11.97-1.606c-0.782,0.354-0.45,1.37-1.034,1.8
		c-0.98,0.722-2.193,0.525-3.178,0.256c-1.031-0.281-0.553-1.473-0.555-2.257c-0.029-10.733,0.009-21.467-0.049-32.2
		c-0.01-1.735,0.188-2.561,2.322-2.612c2.418-0.057,2.172,1.244,2.165,2.752C900.445,31.693,900.458,35.515,900.458,39.697z"/>
	<path fill-rule="evenodd" clip-rule="evenodd" fill="#404040" d="M895.097,418.198c0-3.944,0.053-7.89-0.027-11.833
		c-0.031-1.544,0.39-2.239,2.057-2.15c2.458,0.132,4.936-0.043,7.39,0.128c6.713,0.468,9.618,5.318,6.654,11.371
		c-0.783,1.598-0.637,2.052,0.72,3.103c4.359,3.373,3.291,10.835-1.84,12.765c-4.503,1.693-9.28,0.656-13.938,0.78
		c-1.32,0.035-0.996-1.177-1.001-1.959C895.08,426.334,895.097,422.266,895.097,418.198z"/>
	<path fill-rule="evenodd" clip-rule="evenodd" fill="#404040" d="M405.557,418.292c-0.001-3.945,0.037-7.889-0.021-11.833
		c-0.021-1.429,0.173-2.343,1.956-2.245c2.582,0.143,5.185-0.053,7.759,0.151c6.271,0.499,9.206,5.262,6.609,10.948
		c-0.772,1.689-1.192,2.502,0.713,3.68c2.695,1.667,2.641,4.612,2.209,7.324c-0.436,2.741-2.106,4.71-4.876,5.484
		c-4.359,1.217-8.823,0.444-13.239,0.58c-1.33,0.04-1.097-1.074-1.101-1.885C405.546,426.429,405.557,422.36,405.557,418.292z"/>
	<path fill-rule="evenodd" clip-rule="evenodd" fill="#010101" d="M932.456,49.974c0.032-7.654,4.998-12.911,12.178-12.889
		c6.952,0.022,12.163,5.692,12.052,13.111c-0.114,7.658-5.135,12.916-12.267,12.852C937.238,62.984,932.423,57.721,932.456,49.974z"
		/>
	<path fill-rule="evenodd" clip-rule="evenodd" fill="#010101" d="M424.372,54.601c-0.03-7.689,4.853-13.003,12.001-13.065
		c6.987-0.061,12.187,5.439,12.229,12.934c0.043,7.545-5.031,13.013-12.091,13.028C429.292,67.515,424.401,62.318,424.372,54.601z"
		/>
	<path fill-rule="evenodd" clip-rule="evenodd" fill="#010101" d="M323.461,54.147c1.273,8.188,5.226,10.169,15.793,8.282
		c0.979,3.481,0.979,3.481-2.446,4.373c-6.962,1.814-12.877-0.072-16.034-5.113c-2.833-4.525-2.54-11.564,0.655-15.722
		c3.011-3.919,8.434-5.451,13.344-3.77c4.272,1.463,6.959,5.997,6.465,10.482c-0.197,1.795-1.307,1.455-2.343,1.459
		C333.844,54.159,328.791,54.147,323.461,54.147z"/>
	<path fill-rule="evenodd" clip-rule="evenodd" fill="#010101" d="M831.609,49.696c0.772,6.492,3.477,8.909,9.684,8.904
		c2.079-0.002,4.134-0.221,6.121-0.682c1.498,3.881,0.213,3.659-2.359,4.378c-6.943,1.944-12.876,0.074-16.085-4.928
		c-2.916-4.546-2.718-11.461,0.45-15.709c2.908-3.899,8.056-5.517,12.915-4.06c4.632,1.389,7.111,5.108,6.991,10.082
		c-0.041,1.68-0.643,2.062-2.174,2.042C841.98,49.653,836.807,49.696,831.609,49.696z"/>
	<path fill-rule="evenodd" clip-rule="evenodd" fill="#010101" d="M867.436,50.019c0.02-7.732,4.882-12.943,12.069-12.934
		c7.008,0.009,12.104,5.536,12.052,13.072c-0.054,7.646-5.044,12.929-12.18,12.891C872.171,63.009,867.417,57.822,867.436,50.019z"
		/>
	<path fill-rule="evenodd" clip-rule="evenodd" fill="#010101" d="M359.354,54.561c-0.017-7.748,4.805-12.993,11.977-13.025
		c7.028-0.033,12.142,5.435,12.144,12.979c0.001,7.636-4.975,12.98-12.089,12.982C364.152,67.5,359.371,62.36,359.354,54.561z"/>
	<path fill-rule="evenodd" clip-rule="evenodd" fill="#010101" d="M805.862,42.88c-0.877-3.67-0.783-3.926,2.271-4.956
		c1.635-0.55,3.317-0.874,5.074-0.854c4.919,0.054,7.17,1.882,8.224,6.7c0.722,3.298,0.194,6.638,0.43,9.947
		c0.155,2.177-0.712,4.822,2.581,5.76c0.958,0.273,0.319,1.528,0.23,2.331c-0.128,1.123-0.927,1.272-1.887,1.231
		c-2.337-0.101-3.938-1.24-4.882-3.586c-1.661,1.473-3.215,2.789-5.276,3.31c-3.862,0.976-7.691-0.558-9.114-3.736
		c-1.631-3.64-0.259-7.754,3.339-9.871c2.72-1.601,5.77-2.163,8.84-2.326c2-0.105,1.886-1.151,1.504-2.404
		c-0.568-1.863-1.983-2.706-3.883-2.869C810.8,41.34,808.422,41.863,805.862,42.88z"/>
	<path fill-rule="evenodd" clip-rule="evenodd" d="M281.114,561.222c0-4.318,0.118-8.642-0.051-12.955
		c-0.081-2.055,0.68-2.476,2.52-2.391c3.078,0.143,6.178-0.096,9.248,0.121c6.021,0.428,8.498,3.42,8.424,9.827
		c-0.068,6.067-3.368,9.789-8.969,10.109c-0.369,0.021-0.74,0.001-1.111,0.005c-5.61,0.069-5.61,0.07-5.61,5.872
		c0,0.741-0.076,1.491,0.015,2.22c0.208,1.684-0.259,2.423-2.169,2.358c-1.665-0.057-2.413-0.288-2.345-2.211
		C281.219,569.864,281.114,565.542,281.114,561.222z"/>
	<path fill-rule="evenodd" clip-rule="evenodd" fill="#010101" d="M373.832,574.859c0,3.181-0.076,6.493,0.032,9.801
		c0.053,1.597-0.423,2.125-2.059,2.102c-1.525-0.023-1.827-0.609-1.821-1.974c0.044-9.14,0.017-18.278,0.038-27.418
		c0.002-0.658-0.322-1.664,0.771-1.736c0.837-0.054,2.116-0.67,2.307,0.932c0.211,1.783,1.019,0.782,1.657,0.377
		c6.963-4.412,14.052-0.987,14.914,7.236c0.115,1.098,0.098,2.22,0.039,3.326c-0.465,8.748-8.86,12.122-14.687,7.566
		C374.734,574.846,374.453,574.583,373.832,574.859z"/>
	<path fill-rule="evenodd" clip-rule="evenodd" fill="#424242" d="M271.74,836.616c0-3.529,0.061-6.612-0.025-9.69
		c-0.043-1.564,0.437-2.199,2.093-2.17c1.512,0.027,1.869,0.658,1.864,2.02c-0.036,8.772,0.005,17.546-0.034,26.318
		c-0.009,2.001-1.514,3-3.037,1.808c-0.877-0.688-1.138-1.174-2.202-0.452c-2.942,1.988-6.03,2.173-8.992,0.093
		c-3.449-2.417-4.784-5.975-4.391-10.016C257.786,836.619,263.291,833.625,271.74,836.616z"/>
	<path fill-rule="evenodd" clip-rule="evenodd" fill="#414141" d="M1104.432,792.88c-0.001-3.832,0.126-7.669-0.05-11.492
		c-0.1-2.181,0.688-2.736,2.724-2.613c2.832,0.17,5.69-0.057,8.521,0.126c5.063,0.328,7.403,2.964,7.525,8.189
		c0.139,5.993-2.461,9.605-7.379,10.211c-0.731,0.089-1.479,0.05-2.221,0.056c-4.94,0.042-4.94,0.039-4.941,5.17
		c-0.002,0.864-0.074,1.736,0.01,2.592c0.186,1.871-0.978,1.854-2.328,1.913c-1.474,0.066-1.91-0.493-1.886-1.916
		C1104.479,801.039,1104.432,796.958,1104.432,792.88z"/>
	<path fill-rule="evenodd" clip-rule="evenodd" fill="#414141" d="M1148.025,836.9c0-3.59,0.052-6.913-0.024-10.232
		c-0.033-1.445,0.5-1.907,1.923-1.905c1.453,0.003,1.902,0.544,1.896,1.957c-0.044,8.864,0.002,17.731-0.041,26.598
		c-0.009,1.824-1.888,2.843-3.147,1.46c-1.042-1.145-1.418-0.778-2.181-0.211c-4.178,3.111-10.669,1.174-12.767-5.408
		c-0.764-2.396-0.706-4.873,0.011-7.281C1135.535,835.696,1140.948,833.692,1148.025,836.9z"/>
	<path fill-rule="evenodd" clip-rule="evenodd" fill="#010101" d="M777.015,49.808c0-3.213-0.03-6.427,0.021-9.639
		c0.012-0.778-0.475-1.96,0.673-2.204c0.946-0.2,2.293-0.763,2.84,0.766c0.438,1.227,1.019,1.04,1.853,0.395
		c1.188-0.92,2.604-1.411,4.038-1.762c6.363-1.558,11.677,1.823,12.275,8.284c0.464,5.026,0.152,10.122,0.256,15.185
		c0.039,1.86-1.229,1.432-2.263,1.468c-1.13,0.04-2.227,0.149-2.197-1.598c0.066-4.076,0.113-8.158-0.021-12.231
		c-0.2-6.041-4.191-8.538-9.848-6.354c-2.202,0.851-3.383,2.204-3.318,4.712c0.113,4.445-0.07,8.899,0.077,13.343
		c0.064,1.958-0.774,2.161-2.395,2.186c-1.695,0.026-2.061-0.642-2.021-2.171C777.077,56.729,777.015,53.268,777.015,49.808z"/>
	<path fill-rule="evenodd" clip-rule="evenodd" fill="#404040" d="M277.393,806.688c-2.992,0.917-4.613,0.081-5.108-2.731
		c-0.126-0.718-0.554-1.379-0.713-2.096c-0.373-1.689-1.219-2.618-3.09-2.293c-0.599,0.104-1.25,0.113-1.846,0.001
		c-4.674-0.872-7.687,0.548-8.608,5.619c-0.342,1.887-0.71,1.82-4.151,1.63c-0.493-1.005,0.256-1.841,0.548-2.676
		c2.686-7.673,5.447-15.316,8.15-22.983c0.467-1.323,0.803-2.403,2.663-2.419c1.863-0.015,2.552,0.791,3.101,2.366
		C271.292,789.592,274.325,798.048,277.393,806.688z"/>
	<path fill-rule="evenodd" clip-rule="evenodd" fill="#404040" d="M1083.799,806.604c-3.292,1.225-4.362-0.269-5.156-2.765
		c-1.368-4.295-1.49-4.255-6.09-4.255c-0.247,0-0.495,0-0.741,0c-5.131,0-5.283-0.049-6.822,4.747
		c-0.849,2.641-2.341,3.135-4.862,2.423c0.484-2.748,1.704-5.266,2.612-7.875c2.104-6.049,4.296-12.068,6.403-18.117
		c0.451-1.295,1.027-2.064,2.59-1.992c1.333,0.063,2.299,0.188,2.818,1.681C1077.583,789.165,1080.696,797.852,1083.799,806.604z"/>
	<path fill-rule="evenodd" clip-rule="evenodd" fill="#404040" d="M213.034,806.633c-3.144,1.112-4.529-0.103-5.123-2.728
		c-0.216-0.955-0.708-1.844-0.95-2.795c-0.298-1.171-1.006-1.587-2.152-1.534c-0.986,0.047-1.975,0.008-2.963,0.008
		c-5.833-0.002-6.029-0.069-7.897,5.354c-0.92,2.671-2.62,1.956-4.282,2.029c-0.703-0.865-0.047-1.487,0.164-2.091
		c2.768-7.903,5.598-15.788,8.362-23.693c0.527-1.509,1.099-2.486,3.041-2.448c1.812,0.034,2.245,0.998,2.721,2.346
		C206.938,789.553,209.964,798.01,213.034,806.633z"/>
	<path fill-rule="evenodd" clip-rule="evenodd" fill="#404040" d="M861.295,432.076c-3.888,0.527-3.89,0.527-5.017-2.54
		c-0.255-0.693-0.565-1.38-0.713-2.097c-0.385-1.881-1.422-2.76-3.378-2.437c-0.36,0.06-0.746,0.055-1.109,0.002
		c-4.725-0.696-8.423,0.035-9.189,5.808c-0.364,2.733-2.647,1.271-4.621,1.693c3.283-9.176,6.467-17.924,9.513-26.721
		c0.567-1.637,1.634-1.47,2.866-1.569c1.373-0.11,1.979,0.541,2.396,1.73C855.103,414.649,858.198,423.34,861.295,432.076z"/>
	<path fill-rule="evenodd" clip-rule="evenodd" fill="#404040" d="M347.771,432.374c3.246-9.066,6.426-17.834,9.495-26.641
		c0.492-1.411,1.36-1.486,2.53-1.511c1.184-0.024,2.128,0.073,2.604,1.429c3.09,8.815,6.229,17.613,9.369,26.469
		c-3.921,0.445-3.923,0.446-5.053-2.638c-0.253-0.693-0.575-1.378-0.713-2.096c-0.373-1.936-1.496-2.671-3.412-2.389
		c-0.604,0.089-1.232,0.014-1.849,0.014c-5.926-0.001-6.1-0.065-8.15,5.543C351.585,433.306,349.814,432.218,347.771,432.374z"/>
	<path fill-rule="evenodd" clip-rule="evenodd" fill="#404040" d="M1019.491,806.627c-2.934,0.962-4.454,0.232-4.994-2.429
		c-0.218-1.071-0.872-2.05-1.123-3.119c-0.288-1.227-1.01-1.552-2.132-1.503c-0.985,0.044-1.974,0.008-2.961,0.008
		c-5.785,0-5.938-0.058-7.873,5.351c-0.912,2.544-2.538,2.137-4.723,1.889c0.267-0.911,0.479-1.793,0.781-2.641
		c2.721-7.656,5.488-15.294,8.165-22.966c0.535-1.536,1.081-2.522,3.025-2.475c1.777,0.042,2.227,0.927,2.72,2.335
		C1013.345,789.553,1016.401,797.997,1019.491,806.627z"/>
	<path fill-rule="evenodd" clip-rule="evenodd" fill="#404040" d="M995.579,854.901c3.114-8.712,6.263-17.384,9.286-26.1
		c0.516-1.491,1.331-1.827,2.723-1.803c1.205,0.02,2.088,0.169,2.561,1.516c3.043,8.711,6.151,17.399,9.243,26.114
		c-3.703,0.925-3.703,0.925-4.845-2.16c-1.729-4.671-1.729-4.673-6.57-4.673c-0.122,0-0.246,0-0.369,0
		c-5.245,0-5.419-0.056-7.049,4.941C999.641,855.546,997.99,855.574,995.579,854.901z"/>
	<path fill-rule="evenodd" clip-rule="evenodd" fill="#010101" d="M308.672,556.991c1.302-0.683,2.126-1.211,3.02-1.567
		c5.259-2.097,10.054,0.573,11.112,6.123c0.819,4.29,0.255,8.623,0.467,12.932c0.075,1.514-0.567,1.887-1.954,1.879
		c-1.342-0.007-2.044-0.289-1.975-1.832c0.106-2.342,0.054-4.692,0.015-7.038c-0.023-1.353-0.18-2.703-0.229-4.057
		c-0.078-2.124-0.677-4.005-2.908-4.661c-2.231-0.657-4.391-0.264-6.32,1.151c-1.149,0.844-1.247,2.012-1.237,3.292
		c0.031,3.705-0.068,7.412,0.047,11.113c0.053,1.682-0.586,2.029-2.127,2.05c-1.614,0.019-1.756-0.734-1.751-2.021
		c0.034-9.633,0.057-19.267-0.018-28.9c-0.012-1.598,0.651-1.779,1.97-1.806c1.413-0.028,1.955,0.382,1.919,1.866
		C308.614,549.216,308.672,552.922,308.672,556.991z"/>
	<path fill-rule="evenodd" clip-rule="evenodd" fill="#020202" d="M397.884,557.062c1.247-0.715,1.943-1.211,2.712-1.54
		c5.158-2.208,10.128,0.256,11.336,5.719c0.994,4.504,0.256,9.101,0.483,13.648c0.076,1.532-0.875,1.457-1.907,1.444
		c-1.005-0.013-1.989,0.127-1.95-1.419c0.066-2.59,0.045-5.182,0.004-7.772c-0.024-1.476-0.021-2.975-0.272-4.421
		c-0.582-3.334-2.342-4.547-5.762-4.167c-3.212,0.355-4.595,1.807-4.632,5.001c-0.042,3.578-0.039,7.157,0.004,10.733
		c0.015,1.251-0.078,2.116-1.724,2.077c-1.461-0.035-2.229-0.253-2.215-2.005c0.073-9.623,0.064-19.248,0.007-28.872
		c-0.01-1.557,0.663-1.823,1.998-1.838c1.378-0.014,1.983,0.353,1.947,1.857C397.825,549.193,397.884,552.88,397.884,557.062z"/>
	<path fill-rule="evenodd" clip-rule="evenodd" fill="#010101" d="M975.121,42.671c-2.097-1.438-4.379-2.195-6.885-1.823
		c-1.649,0.245-3.119,0.817-3.383,2.816c-0.265,1.999,0.925,2.938,2.549,3.532c1.731,0.633,3.535,1.092,5.224,1.82
		c3.056,1.316,4.946,4.113,4.816,6.838c-0.163,3.442-2.067,5.68-5.81,6.725c-3.457,0.964-6.846,0.594-10.114-0.786
		c-1.694-0.714-2.22-2.703-1.317-4.229c0.584-0.989,1.237-0.45,1.859-0.165c2.18,1.002,4.473,1.36,6.841,1.175
		c1.663-0.129,3.313-0.535,3.706-2.442c0.398-1.938-0.961-2.949-2.524-3.568c-1.477-0.586-3.05-0.931-4.552-1.464
		c-3.699-1.312-5.434-3.704-5.239-7.121c0.199-3.513,2.405-5.907,6.292-6.669c1.948-0.382,3.905-0.336,5.863,0.177
		C976.205,38.471,976.213,38.432,975.121,42.671z"/>
	<path fill-rule="evenodd" clip-rule="evenodd" fill="#010101" d="M467.125,47.207c-2.239-1.612-4.573-2.293-7.114-1.888
		c-1.645,0.263-3.072,0.907-3.252,2.938c-0.162,1.82,0.854,2.737,2.352,3.298c1.727,0.647,3.518,1.135,5.216,1.845
		c3.324,1.393,5.218,4.139,5.007,7.044c-0.253,3.493-2.11,5.605-5.922,6.628c-3.334,0.895-6.585,0.45-9.791-0.69
		c-1.499-0.533-2.131-1.402-1.82-3.077c0.278-1.496,0.558-2.326,2.318-1.422c2.006,1.031,4.221,1.304,6.473,1.155
		c1.809-0.12,3.632-0.497,3.96-2.592c0.331-2.112-1.369-3.012-3.009-3.666c-1.25-0.499-2.598-0.745-3.876-1.178
		c-3.947-1.336-5.701-3.721-5.431-7.314c0.265-3.515,2.479-5.835,6.404-6.554c1.952-0.357,3.903-0.295,5.859,0.244
		C468.026,42.951,468.041,42.9,467.125,47.207z"/>
	<path fill-rule="evenodd" clip-rule="evenodd" fill="#010101" d="M991.23,56.726c2.816,1.119,5.457,2.161,8.384,1.864
		c1.776-0.18,3.61-0.414,3.967-2.555c0.359-2.154-1.298-3.028-2.953-3.669c-1.599-0.619-3.295-0.994-4.88-1.641
		c-3.068-1.25-4.717-3.636-4.632-6.457c0.095-3.131,2.182-5.665,5.45-6.668c2.176-0.668,4.356-0.7,6.563-0.181
		c3.764,0.888,3.765,0.881,3.237,5.241c-2.077-1.031-4.088-2.101-6.466-1.883c-1.989,0.182-3.755,0.669-4.129,2.908
		c-0.365,2.176,1.262,3.019,2.942,3.647c1.611,0.601,3.3,1.009,4.868,1.698c3.316,1.455,4.908,4.017,4.661,7.2
		c-0.268,3.444-1.882,5.245-5.66,6.352c-2.557,0.749-5.107,0.623-7.661,0.008C990.706,61.577,990.637,61.476,991.23,56.726z"/>
	<path fill-rule="evenodd" clip-rule="evenodd" fill="#010101" d="M483.174,61.245c2.669,0.945,5.284,2.09,8.213,1.806
		c1.771-0.172,3.639-0.334,4.077-2.427c0.495-2.366-1.381-3.212-3.128-3.898c-1.368-0.537-2.847-0.786-4.226-1.297
		c-3.372-1.25-5.259-3.901-5.042-6.931c0.239-3.328,2.421-5.771,5.98-6.63c1.943-0.468,3.902-0.486,5.862-0.041
		c3.901,0.885,3.966,0.979,3.304,5.362c-2.151-1.394-4.432-2.213-6.991-1.91c-1.717,0.203-3.156,0.87-3.524,2.718
		c-0.387,1.943,0.836,2.972,2.462,3.589c1.722,0.653,3.514,1.13,5.203,1.853c3.353,1.438,5.019,3.978,4.828,7.104
		c-0.215,3.531-1.979,5.5-5.906,6.563c-2.436,0.659-4.878,0.54-7.31-0.022C482.605,66.071,482.486,65.881,483.174,61.245z"/>
	<path fill-rule="evenodd" clip-rule="evenodd" fill="#010101" d="M494.155,566.158c0.589,4.982,2.768,7.07,7.539,7.188
		c1.601,0.04,3.208,0.039,4.773-0.393c0.738-0.204,1.479-0.406,1.618,0.719c0.101,0.819,0.407,1.564-0.656,2.198
		c-3.322,1.979-10.068,1.467-13.362-1.155c-3.762-2.997-5.117-8.557-3.272-13.419c1.574-4.15,5.218-6.572,9.752-6.483
		c5.12,0.1,8.539,3.415,8.885,8.505c0.124,1.802-0.26,2.767-2.372,2.661c-3.074-0.152-6.162-0.063-9.244-0.027
		C496.596,565.966,495.354,565.736,494.155,566.158z"/>
	<path fill-rule="evenodd" clip-rule="evenodd" fill="#010101" d="M923.578,565.939c0.416,7.246,5.791,8.415,13.515,6.839
		c1.23,2.014,0.521,2.964-1.644,3.598c-6.986,2.041-13.205-0.523-15.285-6.455c-2.734-7.799,2.163-15.286,9.885-15.107
		c5.113,0.117,8.521,3.46,8.849,8.546c0.118,1.845-0.361,2.687-2.417,2.621C932.186,565.846,927.886,565.939,923.578,565.939z"/>
	<path fill-rule="evenodd" clip-rule="evenodd" fill="#010101" d="M347.872,566.058c-0.031,6.518-4.194,10.953-10.331,11.008
		c-6.299,0.056-10.492-4.441-10.452-11.21c0.039-6.552,4.172-10.989,10.29-11.045C343.552,554.754,347.903,559.417,347.872,566.058z
		"/>
	<path fill-rule="evenodd" clip-rule="evenodd" fill="#010101" d="M893.445,574.186c-1.558,0.866-2.582,1.962-4.039,2.441
		c-3.592,1.182-7.125-0.083-8.492-3.158c-1.456-3.276-0.281-6.538,3.075-8.505c2.729-1.6,5.885-1.62,8.866-2.241
		c-0.785-4.622-3.035-5.282-9.832-2.987c-1.28-2.328-0.32-3.569,1.99-4.229c1.432-0.408,2.857-0.729,4.365-0.706
		c4.188,0.063,6.139,1.545,7.025,5.622c0.66,3.037,0.388,6.144,0.477,9.224c0.049,1.767-0.501,3.815,2.075,4.526
		c1.175,0.324,0.22,1.217,0.198,1.839c-0.037,1.021-0.773,1.077-1.57,1.047C895.677,576.983,894.305,576.116,893.445,574.186z"/>
	<path fill-rule="evenodd" clip-rule="evenodd" fill="#010101" d="M463.92,574.113c-1.696,1.297-3.052,2.369-4.784,2.776
		c-3.298,0.774-6.545-0.695-7.738-3.517c-1.288-3.045-0.311-6.1,2.594-8.079c2.108-1.438,4.576-1.714,6.988-2.215
		c0.844-0.175,2.245,0.455,2.405-0.963c0.164-1.44-0.558-2.646-1.995-3.212c-1.55-0.607-3.166-0.496-4.742-0.156
		c-1.078,0.232-2.11,0.671-3.147,1.012c-1.211-2.411-0.203-3.623,2.158-4.293c1.688-0.479,3.373-0.767,5.113-0.646
		c3.381,0.237,5.108,1.675,6.019,4.995c0.863,3.146,0.46,6.38,0.625,9.574c0.096,1.865-0.59,4.045,2.184,4.83
		c0.998,0.282,0.101,1.252,0.071,1.9c-0.036,0.796-0.606,0.949-1.286,0.946C466.331,577.055,464.848,576.157,463.92,574.113z"/>
	<path fill-rule="evenodd" clip-rule="evenodd" fill="#020202" d="M428.893,574.036c-1.529,1.177-2.712,2.223-4.273,2.684
		c-3.46,1.02-6.892-0.26-8.186-3.151c-1.447-3.234-0.267-6.557,2.958-8.527c2.058-1.258,4.387-1.474,6.66-1.967
		c0.818-0.177,2.26,0.472,2.281-1.094c0.017-1.253-0.491-2.413-1.797-2.989c-1.664-0.732-3.383-0.557-5.077-0.222
		c-0.937,0.186-1.826,0.61-2.747,0.931c-1.624-2.077-0.772-3.324,1.384-4.053c1.634-0.552,3.305-0.92,5.067-0.85
		c3.988,0.16,5.782,1.624,6.678,5.511c0.756,3.276,0.508,6.608,0.592,9.922c0.04,1.561-0.31,3.299,1.838,3.899
		c1.143,0.32,0.407,1.194,0.428,1.825c0.034,1.036-0.682,1.131-1.482,1.11C431.216,577.014,429.713,576.133,428.893,574.036z"/>
	<path fill-rule="evenodd" clip-rule="evenodd" fill="#414141" d="M1116.494,845.863c0.759,4.496,2.709,6.297,7.07,6.355
		c1.348,0.02,2.709-0.175,4.042-0.39c0.921-0.147,1.748-0.368,1.937,0.915c0.133,0.893,0.078,1.593-0.895,2.151
		c-3.439,1.977-9.839,1.243-12.906-1.584c-3.209-2.958-4.182-8.452-2.247-12.693c1.747-3.836,5.616-5.927,10.036-5.389
		c3.069,0.373,5.301,1.934,6.478,4.833c1.713,4.215,0.855,5.505-3.591,5.511c-3.089,0.003-6.181,0.009-9.271,0.033
		C1116.927,845.608,1116.71,845.772,1116.494,845.863z"/>
	<path fill-rule="evenodd" clip-rule="evenodd" fill="#424242" d="M211.992,835.182c4.396-0.051,6.221,1.546,6.962,5.953
		c0.455,2.705,0.246,5.422,0.344,8.132c0.047,1.313-0.251,2.939,1.353,3.527c1.492,0.547,1.023,1.431,0.704,2.334
		c-0.398,1.125-1.686,1.129-2.15,0.699c-2.748-2.538-5.226-0.869-8.003-0.033c-3.246,0.975-6.317-0.905-7.149-3.692
		c-0.906-3.037,0.391-5.63,3.629-7.227c1.683-0.83,3.512-1.118,5.334-1.451c0.847-0.155,2.184,0.426,2.296-1.117
		c0.097-1.326-0.411-2.432-1.744-2.968c-1.824-0.734-3.603-0.484-5.416,0.152c-0.747,0.263-1.771,1.281-2.304-0.449
		c-0.408-1.322-0.019-2.101,1.153-2.689C208.577,835.563,210.226,835.14,211.992,835.182z"/>
	<path fill-rule="evenodd" clip-rule="evenodd" fill="#414141" d="M240.309,845.572c0.763,4.634,2.571,6.396,6.522,6.655
		c1.604,0.105,3.214,0.017,4.775-0.429c0.822-0.235,1.456-0.15,1.716,0.788c0.242,0.872,0.308,1.584-0.666,2.206
		c-3.018,1.919-9.573,1.412-12.658-1.084c-3.452-2.794-4.631-8.389-2.714-12.886c1.676-3.933,5.365-6.032,9.868-5.619
		c4.423,0.406,7.319,3.768,7.296,8.251c-0.008,1.551-0.386,2.248-2.058,2.146c-1.969-0.122-3.951-0.028-5.926-0.028
		C244.499,845.572,242.535,845.572,240.309,845.572z"/>
	<path fill-rule="evenodd" clip-rule="evenodd" fill="#020202" d="M857.577,565.71c0-2.59-0.032-5.18,0.009-7.77
		c0.039-2.492,1.19-3.337,2.979-1.859c1.063,0.879,1.457,0.703,2.337,0.166c1.95-1.191,4.106-1.67,6.372-1.395
		c3.321,0.403,5.829,1.938,6.757,5.357c1.351,4.973,0.505,10.057,0.644,15.09c0.043,1.605-1.411,0.884-2.252,1.012
		c-1.063,0.16-1.563-0.3-1.537-1.435c0.05-2.219,0.018-4.438,0.011-6.659c-0.005-1.355,0.078-2.721-0.055-4.065
		c-0.449-4.573-3.214-6.526-7.63-5.476c-2.646,0.628-3.689,1.866-3.732,4.656c-0.052,3.452-0.004,6.906-0.017,10.358
		c-0.006,1.287,0.429,2.688-1.845,2.7c-2.086,0.01-2.092-1.049-2.058-2.543C857.621,571.137,857.577,568.423,857.577,565.71z"/>
	<path fill-rule="evenodd" clip-rule="evenodd" fill="#414141" d="M1082.499,840.136c-1.142-2.259-0.546-3.484,1.539-4.215
		c1.668-0.582,3.344-0.826,5.084-0.729c3.288,0.186,4.907,1.52,5.769,4.703c0.82,3.03,0.445,6.13,0.543,9.202
		c0.045,1.448-0.255,3.092,1.541,3.793c1.241,0.486,0.772,1.385,0.587,2.148c-0.287,1.176-1.289,0.882-2.125,0.862
		c-0.122-0.002-0.291,0.007-0.359-0.063c-2.368-2.535-4.634-1.11-7.2-0.155c-3.305,1.229-6.568-0.493-7.605-3.411
		c-1.074-3.016,0.343-5.873,3.711-7.445c1.69-0.788,3.494-1.141,5.331-1.412c0.845-0.127,2.221,0.428,2.272-1.126
		c0.036-1.132-0.403-2.159-1.509-2.776c-1.386-0.774-2.856-0.752-4.315-0.44C1084.696,839.298,1083.677,839.743,1082.499,840.136z"
		/>
	<path fill-rule="evenodd" clip-rule="evenodd" fill="#414141" d="M127.211,840.078c-1.031-2.407-0.134-3.628,2.044-4.254
		c6.407-1.84,10.808-0.161,10.925,7.344c0.03,1.971-0.004,3.94,0.013,5.909c0.012,1.481-0.089,3.078,1.58,3.814
		c1.206,0.531,0.747,1.384,0.581,2.161c-0.266,1.244-1.291,0.884-2.09,0.836c-1.607-0.097-2.516-1.298-3.529-2.472
		c-1.913,1.785-4.059,2.818-6.707,2.522c-2.648-0.296-4.332-1.653-5.032-4.161c-0.675-2.418,0.103-4.594,2.311-6.101
		c2.72-1.859,5.916-2.214,9.091-2.458C135.809,838.544,134.131,837.992,127.211,840.078z"/>
	<path fill-rule="evenodd" clip-rule="evenodd" fill="#424242" d="M107.718,848.064c0,1.854-0.052,3.711,0.017,5.563
		c0.051,1.382-0.677,1.636-1.834,1.6c-1.05-0.033-1.973-0.009-1.963-1.495c0.036-5.438,0.033-10.878,0.001-16.317
		c-0.011-1.818,1.74-1.906,2.198-1.354c1.53,1.847,2.61,0.318,3.809-0.157c6.274-2.494,11.342,0.534,11.767,7.222
		c0.219,3.446,0.047,6.917,0.118,10.378c0.027,1.262-0.415,1.769-1.712,1.734c-1.242-0.035-2.146-0.116-2.101-1.752
		c0.085-3.089,0.031-6.181,0.017-9.271c-0.01-2.069-0.349-4.007-2.586-4.867c-2.225-0.857-4.373-0.572-6.385,0.673
		c-1.045,0.648-1.391,1.638-1.351,2.852c0.057,1.729,0.015,3.462,0.015,5.192C107.723,848.064,107.72,848.064,107.718,848.064z"/>
	<path fill-rule="evenodd" clip-rule="evenodd" fill="#020202" d="M363.992,559.459c-1.749-1-3.351-1.883-5.306-1.685
		c-1.712,0.173-3.218,0.575-3.504,2.595c-0.264,1.867,0.997,2.641,2.461,3.189c1.496,0.561,3.065,0.952,4.507,1.62
		c2.718,1.259,3.988,3.48,3.74,6.181c-0.259,2.821-1.75,4.535-4.823,5.341c-2.438,0.638-4.885,0.53-7.307-0.212
		c-3.046-0.933-3.051-0.919-2.5-4.678c2.358,0.454,4.5,1.886,7.025,1.565c1.53-0.195,3.153-0.321,3.563-2.045
		c0.473-1.988-1.082-2.863-2.628-3.467c-1.372-0.535-2.858-0.791-4.213-1.36c-2.697-1.132-3.887-3.069-3.737-5.767
		c0.147-2.637,1.613-4.498,4.293-5.414c2.305-0.788,4.573-0.561,6.915,0.017C364.838,555.923,365.129,557.163,363.992,559.459z"/>
	<path fill-rule="evenodd" clip-rule="evenodd" fill="#020202" d="M485.444,559.636c-2.047-1.453-4.091-2.208-6.398-1.763
		c-1.441,0.278-2.55,1.057-2.702,2.618c-0.137,1.412,0.71,2.301,1.973,2.783c1.491,0.568,3.022,1.035,4.493,1.649
		c3.178,1.325,4.773,3.691,4.454,6.46c-0.331,2.869-2.343,4.921-5.637,5.506c-1.942,0.345-3.919,0.324-5.865-0.193
		c-2.801-0.745-4.58-1.076-3-5.124c2.32,1.196,4.723,2.073,7.4,1.752c1.431-0.172,2.757-0.565,2.987-2.201
		c0.222-1.583-0.79-2.513-2.167-3.019c-1.495-0.55-3.056-0.93-4.527-1.532c-2.858-1.171-4.195-3.264-3.971-5.979
		c0.213-2.584,2.025-4.646,4.804-5.419c1.94-0.54,3.864-0.412,5.838-0.023C485.604,555.641,486.526,556.863,485.444,559.636z"/>
	<path fill-rule="evenodd" clip-rule="evenodd" fill="#020202" d="M902.107,571.474c2.529,1.397,4.958,2.168,7.629,1.837
		c1.282-0.159,2.488-0.517,2.824-1.94c0.374-1.586-0.52-2.61-1.887-3.162c-1.475-0.596-3.039-0.966-4.521-1.546
		c-2.969-1.163-4.323-3.088-4.211-5.813c0.113-2.748,1.975-4.921,4.915-5.711c1.822-0.491,3.661-0.477,5.483-0.04
		c3.03,0.724,3.116,0.889,2.653,4.464c-1.852-1.033-3.667-2.067-5.87-1.78c-1.582,0.206-2.938,0.755-3.271,2.463
		c-0.357,1.822,0.9,2.673,2.361,3.241c1.487,0.579,3.043,0.994,4.495,1.644c2.774,1.241,4.22,3.483,4.038,6.001
		c-0.205,2.813-1.938,4.79-5.061,5.601c-2.181,0.566-4.384,0.493-6.572-0.072C901.541,575.736,901.502,575.686,902.107,571.474z"/>
	<path fill-rule="evenodd" clip-rule="evenodd" fill="#424242" d="M1045.67,790.772c-5.249-0.582-8.011,1.414-8.254,5.97
		c-0.261,4.889,2.203,7.436,7.056,7.28c0.492-0.016,0.993-0.158,1.473-0.102c1.101,0.136,2.641-1.596,3.234,0.813
		c0.585,2.377-1.363,2.344-2.612,2.693c-4.603,1.284-9.184-0.383-11.403-3.979c-2.382-3.858-2.084-9.973,0.646-13.259
		c2.562-3.088,7.629-4.189,11.937-2.726c1.287,0.437,1.785,0.941,1.461,2.381c-0.37,1.648-1.287,1.478-2.444,1.117
		C1046.413,790.852,1046.036,790.83,1045.67,790.772z"/>
	<path fill-rule="evenodd" clip-rule="evenodd" fill="#454545" d="M1041.645,845.973c0-1.36-0.021-2.718,0.006-4.076
		c0.031-1.626,0.294-3.353-2.297-3.051c-0.85,0.1-0.889-0.628-0.851-1.271c0.037-0.609,0.031-1.497,0.742-1.481
		c2.253,0.048,2.633-1.171,2.411-3.028c-0.224-1.878,0.904-2.256,2.497-2.28c1.945-0.032,1.488,1.401,1.378,2.333
		c-0.273,2.329,0.642,3.129,2.896,2.827c0.938-0.127,1.981-0.214,2.048,1.339c0.075,1.758-1.052,1.762-2.169,1.595
		c-2.457-0.374-2.898,0.839-2.766,2.957c0.155,2.46,0.118,4.94,0.014,7.404c-0.097,2.283,0.288,3.977,3.13,3.747
		c0.897-0.072,1.684-0.052,1.643,1.298c-0.039,1.314-0.614,1.6-1.806,1.705c-4.78,0.421-6.812-1.393-6.873-6.313
		C1041.631,848.443,1041.645,847.207,1041.645,845.973z"/>
	<path fill-rule="evenodd" clip-rule="evenodd" fill="#010101" d="M443.387,549.898c0.412,0.4,0.262,0.923,0.274,1.396
		c0.093,3.885,0.084,3.928,3.939,4.234c1.15,0.091,1.83,0.264,1.774,1.654c-0.051,1.264-0.765,1.352-1.693,1.34
		c-0.616-0.008-1.242,0.073-1.845-0.013c-1.896-0.271-2.258,0.668-2.2,2.347c0.112,3.197,0.104,6.403,0.009,9.602
		c-0.071,2.399,0.695,3.812,3.346,3.649c0.956-0.057,1.976-0.228,1.901,1.39c-0.063,1.367-0.71,1.533-1.863,1.596
		c-4.047,0.219-7.591-0.685-7.219-6.737c0.188-3.066,0.008-6.154,0.043-9.232c0.018-1.539,0.164-3.041-2.191-2.631
		c-0.669,0.116-1.552,0.109-1.39-1.078c0.118-0.866,0.152-1.967,1.324-1.81c2.219,0.299,2.279-0.915,2.278-2.576
		C439.872,549.941,439.949,549.941,443.387,549.898z"/>
	<path fill-rule="evenodd" clip-rule="evenodd" fill="#454545" d="M225.743,845.778c0-1.604-0.039-3.211,0.011-4.813
		c0.041-1.266-0.135-2.212-1.753-2.076c-0.748,0.061-1.512-0.009-1.418-1.138c0.074-0.896,0.105-1.882,1.313-1.797
		c2.273,0.158,1.889-1.429,1.829-2.712c-0.081-1.723,0.592-2.412,2.354-2.462c2.196-0.061,1.651,1.496,1.552,2.534
		c-0.206,2.167,0.694,2.837,2.72,2.629c1.068-0.11,2.282-0.277,2.224,1.539c-0.061,1.854-1.391,1.497-2.36,1.383
		c-2.271-0.266-2.675,0.823-2.573,2.789c0.142,2.709,0.115,5.434,0.01,8.147c-0.082,2.151,0.675,3.306,2.95,3.181
		c1.044-0.058,1.927-0.047,1.822,1.496c-0.098,1.446-0.952,1.425-1.996,1.497c-4.687,0.329-6.601-1.397-6.681-6.12
		C225.725,848.498,225.744,847.136,225.743,845.778z"/>
	<path fill-rule="evenodd" clip-rule="evenodd" fill="#424242" d="M885.61,412.396c1.358,0.013,2.686,0.118,4.018,0.511
		c1.446,0.426,1.492,1.288,1.312,2.54c-0.227,1.572-1.117,1.236-2.118,0.999c-0.716-0.171-1.458-0.274-2.194-0.318
		c-4.82-0.286-7.426,1.99-7.501,6.524c-0.077,4.625,2.714,7.116,7.63,6.779c0.736-0.05,1.464-0.208,2.193-0.33
		c0.798-0.133,1.666-0.698,1.97,0.739c0.259,1.229,0.21,2.029-1.146,2.628c-3.402,1.505-8.848,0.697-11.476-1.867
		c-2.936-2.864-3.816-8.569-1.982-12.83C877.851,414.203,881.013,412.375,885.61,412.396z"/>
	<path fill-rule="evenodd" clip-rule="evenodd" fill="#424242" d="M242.271,791.192c-1.788-0.182-3.378-0.486-4.967-0.478
		c-4.258,0.021-6.55,2.508-6.448,6.823c0.096,4.096,2.391,6.429,6.464,6.472c1.1,0.011,2.204-0.194,3.304-0.322
		c0.778-0.091,1.694-0.774,2.003,0.671c0.25,1.171,0.392,2.149-1.08,2.648c-2.65,0.901-5.315,1.124-7.981,0.231
		c-4.589-1.536-7.168-6.297-6.378-11.622c0.811-5.462,4.089-8.505,9.355-8.634c1.107-0.027,2.234-0.027,3.324,0.14
		C242.698,787.556,242.877,787.891,242.271,791.192z"/>
	<path fill-rule="evenodd" clip-rule="evenodd" fill="#424242" d="M400.821,416.714c-1.813-0.324-3.623-0.76-5.491-0.592
		c-3.763,0.337-5.818,2.778-5.744,6.805c0.069,3.809,2.127,6.205,5.687,6.507c1.477,0.125,2.959,0.017,4.405-0.395
		c0.728-0.207,1.476-0.413,1.661,0.712c0.156,0.951,0.605,1.965-0.69,2.513c-2.595,1.098-5.29,1.286-7.969,0.534
		c-4.79-1.345-7.565-6.249-6.769-11.719c0.795-5.463,4.077-8.532,9.325-8.671c1.106-0.029,2.234-0.031,3.324,0.134
		C401.589,413.003,401.786,413.411,400.821,416.714z"/>
	<path fill-rule="evenodd" clip-rule="evenodd" fill="#424242" d="M1035.843,839.428c-1.752-0.199-3.217-0.493-4.684-0.507
		c-4.339-0.036-6.641,2.305-6.654,6.621c-0.016,4.246,2.37,6.688,6.625,6.679c1.101,0,2.211-0.175,3.297-0.377
		c0.891-0.166,1.663-0.465,1.887,0.887c0.172,1.051,0.315,1.973-0.927,2.405c-3.401,1.185-6.772,1.364-9.998-0.516
		c-3.867-2.253-5.527-7.232-4.198-12.397c1.172-4.542,4.287-6.95,9.162-7.028c1.108-0.019,2.236-0.019,3.321,0.166
		C1036.486,835.837,1036.61,836.121,1035.843,839.428z"/>
	<path fill-rule="evenodd" clip-rule="evenodd" fill="#010101" d="M349.689,46.166c4.991-4.189,4.991-4.189,8.352-4.43
		c0.484,0.984-0.221,1.864-0.264,2.79c-0.076,1.65-0.738,2.11-2.448,2.322c-3.938,0.487-5.112,2.128-5.117,6.144
		c-0.005,3.936-0.083,7.875,0.036,11.808c0.052,1.727-0.674,2.087-2.162,1.975c-1.305-0.098-2.642,0.322-2.599-1.912
		c0.126-6.764,0.03-13.53,0.061-20.295c0.004-0.977-0.504-2.288,1.39-2.322c1.586-0.029,2.67,0.192,2.492,2.125
		C349.389,44.807,349.551,45.264,349.689,46.166z"/>
	<path fill-rule="evenodd" clip-rule="evenodd" fill="#010101" d="M858.403,41.345c2.15-1.954,4.209-4.354,7.645-4.215
		c0.561,1.141-0.146,2.022-0.188,2.947c-0.075,1.652-0.742,2.108-2.449,2.319c-3.935,0.487-5.11,2.131-5.116,6.146
		c-0.004,3.937-0.083,7.876,0.036,11.808c0.053,1.729-0.679,2.083-2.164,1.973c-1.307-0.097-2.64,0.318-2.598-1.914
		c0.127-6.764,0.03-13.531,0.062-20.296c0.004-0.978-0.5-2.286,1.394-2.319c1.589-0.028,2.647,0.198,2.501,2.129
		C857.486,40.434,857.361,41.199,858.403,41.345z"/>
	<path fill-rule="evenodd" clip-rule="evenodd" fill="#414141" d="M154.81,835.182c1.362-0.014,2.683,0.176,4.016,0.506
		c1.49,0.37,1.526,1.269,1.37,2.497c-0.194,1.524-1.066,1.32-2.122,1.068c-0.832-0.199-1.7-0.311-2.556-0.341
		c-4.76-0.175-7.255,2.218-7.169,6.829c0.083,4.362,2.602,6.656,7.174,6.485c0.856-0.03,1.709-0.197,2.559-0.33
		c0.801-0.125,1.744-0.705,2.042,0.656c0.252,1.152,0.207,2.058-1.153,2.688c-3.289,1.53-8.801,0.722-11.458-1.861
		c-2.8-2.723-3.75-8.333-2.11-12.473C146.932,837.047,150.036,835.159,154.81,835.182z"/>
	<path fill-rule="evenodd" clip-rule="evenodd" fill="#414141" d="M1060,836.206c3.925-0.423,3.924-0.421,5.114,2.921
		c1.318,3.706,2.641,7.409,4.1,11.501c2.134-3.923,3.181-7.929,4.521-11.792c1.279-3.696,1.793-3.183,5.021-2.524
		c-2.275,5.877-4.59,11.694-6.76,17.567c-0.54,1.463-1.544,1.282-2.633,1.349c-1.196,0.072-2.098-0.116-2.597-1.442
		C1064.559,847.923,1062.275,842.093,1060,836.206z"/>
	<path fill-rule="evenodd" clip-rule="evenodd" fill="#414141" d="M202.611,836.273c-2.285,5.902-4.559,11.621-6.69,17.391
		c-0.5,1.355-1.306,1.571-2.518,1.569c-1.295-0.003-2.282-0.061-2.858-1.624c-2.125-5.772-4.426-11.479-6.674-17.243
		c3.857-0.691,3.858-0.691,5.065,2.691c1.362,3.814,2.722,7.628,4.29,12.023c1.567-4.406,3.08-8.183,4.233-12.067
		C198.236,836.399,199.486,835.218,202.611,836.273z"/>
	<path fill-rule="evenodd" clip-rule="evenodd" fill="#424242" d="M1102.032,846.038c0-1.605-0.035-3.213,0.012-4.816
		c0.038-1.34,0.022-2.517-1.863-2.347c-0.694,0.063-1.572,0.079-1.45-1.069c0.091-0.852,0.088-1.93,1.304-1.835
		c2.111,0.163,2.039-1.146,2.018-2.59c-0.014-0.926-0.288-1.994,1.017-2.468c1.655-0.598,2.833,0.078,2.69,1.988
		c-0.176,2.391,0.547,3.415,3.024,3.05c0.952-0.141,2.007-0.186,2.061,1.354c0.061,1.768-1.131,1.721-2.223,1.565
		c-2.314-0.331-3.034,0.564-2.853,2.85c0.202,2.578,0.143,5.188,0.017,7.775c-0.109,2.219,0.43,3.649,2.986,3.492
		c1.067-0.063,1.922,0.021,1.784,1.539c-0.131,1.441-1.015,1.382-2.047,1.445c-4.619,0.281-6.399-1.304-6.472-5.86
		C1102.015,848.753,1102.033,847.396,1102.032,846.038z"/>
	<path fill-rule="evenodd" clip-rule="evenodd" fill="#020202" d="M845.462,575.946c-2.652,0.958-4.284,0.252-5.684-1.923
		c-2.53-3.931-5.254-7.74-8.019-11.512c-1.101-1.501-1.292-2.573,0.024-4.134c2.776-3.291,5.428-6.706,7.892-10.237
		c1.476-2.115,3.143-2.754,5.772-1.882c-3.144,4.09-6.103,8.159-9.317,12.016c-1.381,1.657-1.199,2.769-0.031,4.364
		C839.286,566.988,842.316,571.451,845.462,575.946z"/>
	<path fill-rule="evenodd" clip-rule="evenodd" fill="#424242" d="M165.508,845.775c0-1.357,0.008-2.716-0.002-4.074
		c-0.011-1.437,0.419-3.178-2.077-2.843c-0.723,0.096-1.147-0.319-1.027-1.113c0.104-0.685-0.098-1.791,0.9-1.708
		c2.699,0.222,2.255-1.608,2.189-3.139c-0.073-1.71,0.879-2.018,2.304-2.107c1.92-0.123,1.562,1.247,1.457,2.222
		c-0.235,2.188,0.392,3.271,2.803,2.946c0.995-0.133,2.273-0.42,2.28,1.443c0.007,1.857-1.256,1.595-2.264,1.463
		c-2.383-0.317-2.982,0.716-2.825,2.932c0.182,2.581,0.132,5.188,0.017,7.775c-0.103,2.296,0.667,3.57,3.135,3.416
		c1.047-0.063,1.96-0.039,1.819,1.503c-0.13,1.417-1.012,1.406-2.057,1.481c-4.704,0.329-6.596-1.385-6.65-6.121
		C165.495,848.493,165.508,847.133,165.508,845.775z"/>
	<path fill-rule="evenodd" clip-rule="evenodd" d="M828.624,561.277c0,4.304-0.048,8.608,0.025,12.911
		c0.025,1.477-0.234,2.174-1.968,2.2c-1.849,0.027-2.247-0.607-2.23-2.336c0.08-8.606,0.071-17.215,0.006-25.821
		c-0.013-1.644,0.252-2.373,2.174-2.396c2.13-0.028,2.017,1.101,2.006,2.531C828.601,552.669,828.624,556.973,828.624,561.277z"/>
	<path fill-rule="evenodd" clip-rule="evenodd" d="M419.931,54.894c0,3.204-0.095,6.412,0.039,9.61
		c0.073,1.758-0.414,2.39-2.245,2.306c-1.553-0.072-2.451-0.108-2.41-2.134c0.139-6.775,0.14-13.555-0.001-20.331
		c-0.043-2.049,0.897-2.035,2.424-2.118c1.854-0.102,2.293,0.581,2.23,2.317C419.843,47.99,419.931,51.443,419.931,54.894z"/>
	<path fill-rule="evenodd" clip-rule="evenodd" fill="#050505" d="M981.724,49.972c-0.002-3.449,0.089-6.902-0.036-10.347
		c-0.071-1.931,1.049-1.824,2.339-1.816c1.282,0.007,2.397-0.127,2.372,1.818c-0.091,7.021-0.066,14.045-0.017,21.067
		c0.015,2.074-1.417,1.543-2.546,1.611c-1.149,0.07-2.188,0.127-2.141-1.615C981.792,57.12,981.724,53.545,981.724,49.972z"/>
	<path fill-rule="evenodd" clip-rule="evenodd" fill="#050505" d="M478,54.887c0,3.204-0.094,6.411,0.038,9.608
		c0.072,1.758-0.416,2.426-2.251,2.313c-1.502-0.093-2.516-0.081-2.478-2.127c0.125-6.773,0.125-13.553,0-20.327
		c-0.038-2.047,0.975-2.035,2.478-2.127c1.837-0.115,2.316,0.557,2.251,2.313C477.909,47.984,478,51.438,478,54.887z"/>
	<path fill-rule="evenodd" clip-rule="evenodd" d="M923.451,49.886c0-3.327,0.067-6.656-0.029-9.98
		c-0.045-1.545,0.337-2.285,2.024-2.101c1.288,0.14,2.653-0.34,2.613,1.907c-0.123,6.898-0.124,13.802,0.001,20.7
		c0.041,2.24-1.308,1.782-2.605,1.917c-1.671,0.173-2.079-0.531-2.033-2.092C923.52,56.79,923.451,53.336,923.451,49.886z"/>
	<path fill-rule="evenodd" clip-rule="evenodd" fill="#404040" d="M98.649,841.111c0,3.939-0.02,7.878,0.011,11.816
		c0.01,1.31,0.072,2.372-1.834,2.339c-1.627-0.03-2.093-0.564-2.082-2.14c0.061-7.999,0.06-16,0-24.001
		c-0.011-1.557,0.415-2.129,2.065-2.154c1.889-0.029,1.863,0.997,1.852,2.323C98.626,833.235,98.649,837.174,98.649,841.111z"/>
	<path fill-rule="evenodd" clip-rule="evenodd" fill="#474747" d="M1025.741,790.558c2.303-1.851,3.843-3.781,6.787-3.456
		c-0.134,1.968,0.024,3.562-2.765,3.836c-2.453,0.24-3.716,1.956-3.514,4.723c0.223,3.072-0.016,6.178,0.076,9.265
		c0.049,1.618-0.551,2.116-2.146,2.134c-1.725,0.021-2.035-0.736-2.014-2.237c0.067-4.818-0.014-9.641,0.057-14.46
		c0.016-0.938-0.674-2.342,1.093-2.638C1025.125,787.419,1025.736,788.478,1025.741,790.558z"/>
	<path fill-rule="evenodd" clip-rule="evenodd" fill="#414141" d="M874.32,412.555c0.171,2.461-0.704,3.472-2.982,3.863
		c-2.187,0.376-3.581,1.804-3.396,4.471c0.221,3.183-0.032,6.396,0.083,9.589c0.063,1.749-0.761,1.958-2.218,1.992
		c-1.652,0.038-1.718-0.848-1.709-2.08c0.032-4.92-0.021-9.839,0.047-14.758c0.012-0.831-0.642-2.074,0.82-2.44
		c1.462-0.366,2.314,0.226,2.53,1.747c0.025,0.174,0.338,0.31,0.558,0.497C869.942,414.233,871.447,412.167,874.32,412.555z"/>
	<path fill-rule="evenodd" clip-rule="evenodd" fill="#414141" d="M384.915,412.479c-0.229,2.139-0.374,3.586-2.964,3.896
		c-2.347,0.282-3.768,1.91-3.551,4.715c0.236,3.057-0.008,6.147,0.078,9.22c0.044,1.534-0.37,2.152-2.042,2.176
		c-1.854,0.026-1.892-0.936-1.881-2.296c0.04-4.919-0.014-9.839,0.043-14.758c0.01-0.825-0.601-2.133,1.022-2.267
		c0.976-0.081,1.934-0.187,2.17,1.264c0.242,1.49,1.016,0.93,1.755,0.275C380.94,413.469,382.414,412.376,384.915,412.479z"/>
	<path fill-rule="evenodd" clip-rule="evenodd" fill="#414141" d="M226.034,787.09c0.114,2.327-0.45,3.519-2.878,3.869
		c-2.394,0.349-3.694,2.019-3.482,4.773c0.226,2.934,0.006,5.9,0.069,8.852c0.032,1.527-0.062,2.538-2.109,2.483
		c-1.921-0.051-1.806-1.097-1.799-2.376c0.02-4.673-0.054-9.348,0.056-14.02c0.024-0.996-0.934-2.489,1.064-2.976
		c2.036-0.496,1.91,1.364,2.667,2.405C221.637,788.846,223.148,786.78,226.034,787.09z"/>
	<path fill-rule="evenodd" clip-rule="evenodd" fill="#4F4F4F" d="M1053.476,845.374c0-2.459,0.069-4.924-0.024-7.382
		c-0.06-1.599,0.527-2.163,2.131-2.13c1.442,0.03,1.932,0.552,1.916,1.966c-0.051,5.168-0.054,10.338,0.002,15.504
		c0.015,1.439-0.523,1.909-1.938,1.945c-1.626,0.044-2.164-0.575-2.11-2.15C1053.541,850.546,1053.476,847.958,1053.476,845.374z"/>
	<path fill-rule="evenodd" clip-rule="evenodd" d="M852.356,565.827c0.001,2.957-0.08,5.917,0.032,8.87
		c0.065,1.739-0.949,1.606-2.113,1.647c-1.198,0.042-1.773-0.251-1.761-1.608c0.056-5.913,0.057-11.828,0.001-17.741
		c-0.014-1.519,0.868-1.466,1.906-1.448c0.998,0.017,1.986-0.14,1.953,1.41C852.31,559.912,852.355,562.871,852.356,565.827z"/>
	<path fill-rule="evenodd" clip-rule="evenodd" fill="#404040" d="M180.98,845.57c0,2.586-0.061,5.176,0.023,7.759
		c0.047,1.419-0.413,1.927-1.876,1.927s-1.895-0.512-1.878-1.925c0.063-5.175,0.063-10.349,0-15.522
		c-0.017-1.414,0.414-1.924,1.878-1.924s1.923,0.509,1.876,1.925C180.92,840.394,180.98,842.984,180.98,845.57z"/>
	<path fill-rule="evenodd" clip-rule="evenodd" fill="#424242" d="M1092.583,797.36c-1.352,0-2.704-0.03-4.056,0.009
		c-1.215,0.036-2.085-0.057-2.111-1.695c-0.027-1.66,0.597-2.106,2.146-2.054c2.822,0.092,5.653,0.075,8.479,0.004
		c1.401-0.033,1.96,0.439,1.964,1.896c0.005,1.492-0.626,1.927-1.997,1.859C1095.536,797.304,1094.058,797.36,1092.583,797.36z"/>
	<path fill-rule="evenodd" clip-rule="evenodd" fill="#080808" d="M477.949,34.611c0.392,1.921-0.315,2.544-2.306,2.563
		c-2.126,0.019-2.283-0.926-2.353-2.643c-0.083-2.055,0.526-2.686,2.641-2.731C478.384,31.749,478.068,33.15,477.949,34.611z"/>
	<path fill-rule="evenodd" clip-rule="evenodd" d="M927.985,30.242c0.303,1.67-0.158,2.422-2.255,2.487
		c-2.574,0.082-2.183-1.341-2.327-2.958c-0.185-2.067,0.729-2.279,2.5-2.401C928.361,27.201,928.08,28.634,927.985,30.242z"/>
	<path fill-rule="evenodd" clip-rule="evenodd" d="M419.952,35.03c0.364,1.611-0.494,2.041-2.397,2.14
		c-2.336,0.122-2.115-1.131-2.23-2.676c-0.151-2.032,0.511-2.625,2.591-2.683C420.458,31.741,419.87,33.306,419.952,35.03z"/>
	<path fill-rule="evenodd" clip-rule="evenodd" fill="#080808" d="M981.772,30.449c-0.166-1.895-0.297-3.154,2.095-3.107
		c2.228,0.043,2.571,0.876,2.568,2.816c-0.006,1.853-0.437,2.564-2.436,2.558C981.962,32.709,981.181,32.121,981.772,30.449z"/>
	<path fill-rule="evenodd" clip-rule="evenodd" d="M850.341,545.936c1.495-0.294,2.182,0.263,2.047,1.942
		c-0.108,1.348,0.223,2.699-1.967,2.536c-1.344-0.1-2.106-0.325-1.887-1.833C848.704,547.419,847.851,545.605,850.341,545.936z"/>
	<path fill-rule="evenodd" clip-rule="evenodd" fill="#575757" d="M1057.489,829.72c0.214,1.591-0.724,1.811-2.017,1.822
		c-1.321,0.011-2.029-0.289-2.063-1.833c-0.037-1.746,0.791-2.018,2.261-2.018C1057.17,827.694,1057.667,828.341,1057.489,829.72z"
		/>
	<path fill-rule="evenodd" clip-rule="evenodd" fill="#404040" d="M179.004,827.813c1.593-0.277,2.008,0.393,2.018,1.811
		c0.01,1.434-0.46,1.896-1.895,1.896c-1.435,0-1.917-0.461-1.892-1.896C177.259,828.236,177.547,827.423,179.004,827.813z"/>
	<path fill-rule="evenodd" clip-rule="evenodd" fill="#AFAFAF" d="M530.984,244.667c0.081,1.076,0.423,2.31-1.363,2.261
		c0.02-0.752,0.04-1.504,0.061-2.256C530.115,244.67,530.549,244.669,530.984,244.667z"/>
	<path fill-rule="evenodd" clip-rule="evenodd" fill="#BCBCBC" d="M628.299,124.652c-0.012-0.363-0.06-0.729-0.028-1.088
		c0.055-0.615,0.239-1.479,0.879-1.368c0.975,0.171,0.422,1.135,0.478,1.772C629.185,124.196,628.742,124.424,628.299,124.652z"/>
	<path fill-rule="evenodd" clip-rule="evenodd" fill="#BCBCBC" d="M205.514,124.652c-0.012-0.363-0.059-0.729-0.027-1.088
		c0.054-0.615,0.24-1.479,0.878-1.368c0.976,0.171,0.423,1.135,0.479,1.772C206.4,124.196,205.958,124.424,205.514,124.652z"/>
	<path fill-rule="evenodd" clip-rule="evenodd" fill="#BBBBBB" d="M172.875,124.651c-0.011-0.365-0.06-0.734-0.026-1.095
		c0.058-0.618,0.25-1.491,0.894-1.362c0.966,0.193,0.401,1.154,0.442,1.799C173.748,124.212,173.312,124.432,172.875,124.651z"/>
	<path fill-rule="evenodd" clip-rule="evenodd" fill="#AFAFAF" d="M629.633,116.348c-0.024,0.742,0.516,1.964-0.639,1.961
		c-1.143-0.002-0.625-1.227-0.646-1.974C628.777,116.34,629.206,116.344,629.633,116.348z"/>
	<path fill-rule="evenodd" clip-rule="evenodd" fill="#AFAFAF" d="M596.998,116.348c-0.022,0.741,0.512,1.955-0.631,1.964
		c-1.146,0.01-0.629-1.218-0.671-1.958C596.129,116.352,596.563,116.35,596.998,116.348z"/>
	<path fill-rule="evenodd" clip-rule="evenodd" fill="#BCBCBC" d="M627.557,252.971c-0.011-0.363-0.059-0.729-0.027-1.088
		c0.055-0.614,0.239-1.479,0.878-1.368c0.976,0.171,0.423,1.135,0.479,1.772C628.443,252.515,628,252.743,627.557,252.971z"/>
	<path fill-rule="evenodd" clip-rule="evenodd" fill="#AFAFAF" d="M206.849,116.348c-0.024,0.742,0.516,1.964-0.639,1.961
		c-1.143-0.002-0.625-1.227-0.645-1.974C205.992,116.339,206.421,116.344,206.849,116.348z"/>
	<path fill-rule="evenodd" clip-rule="evenodd" fill="#AFAFAF" d="M174.212,116.348c-0.024,0.742,0.516,1.964-0.639,1.961
		c-1.143-0.001-0.625-1.226-0.645-1.974C173.356,116.339,173.784,116.344,174.212,116.348z"/>
	<path fill-rule="evenodd" clip-rule="evenodd" fill="#BBBBBB" d="M594.918,252.97c-0.011-0.365-0.06-0.734-0.026-1.095
		c0.058-0.619,0.25-1.492,0.894-1.363c0.967,0.194,0.401,1.155,0.441,1.8C595.791,252.531,595.354,252.75,594.918,252.97z"/>
	<path fill-rule="evenodd" clip-rule="evenodd" fill="#AFAFAF" d="M727.542,244.667c-0.022,0.74,0.512,1.954-0.631,1.964
		c-1.146,0.01-0.629-1.219-0.671-1.959C726.673,244.67,727.108,244.669,727.542,244.667z"/>
	<path fill-rule="evenodd" clip-rule="evenodd" fill="#AFAFAF" d="M628.892,244.667c-0.025,0.741,0.516,1.964-0.638,1.961
		c-1.143-0.002-0.625-1.226-0.646-1.974C628.035,244.658,628.464,244.663,628.892,244.667z"/>
	<path fill-rule="evenodd" clip-rule="evenodd" fill="#AFAFAF" d="M596.255,244.667c-0.024,0.741,0.517,1.964-0.638,1.961
		c-1.143-0.002-0.625-1.226-0.645-1.974C595.399,244.658,595.827,244.663,596.255,244.667z"/>
	<path fill-rule="evenodd" clip-rule="evenodd" fill="#AFAFAF" d="M563.711,246.992c-1.707-0.044-1.495-1.218-1.375-2.337
		c0.428,0.004,0.856,0.008,1.284,0.013C563.65,245.442,563.681,246.217,563.711,246.992z"/>
	<path fill-rule="evenodd" clip-rule="evenodd" fill="#FEFEFE" d="M398.972,245.635c0.005,7.17-0.036,14.339,0.048,21.507
		c0.022,1.9-0.237,2.942-2.553,2.894c-6.671-0.137-13.35-0.135-20.021,0c-2.306,0.047-2.584-0.988-2.561-2.893
		c0.086-7.168,0.048-14.338,0.056-21.507C382.285,245.43,390.628,245.432,398.972,245.635z"/>
	<path fill-rule="evenodd" clip-rule="evenodd" fill="#FEFEFE" d="M889.253,245.635c0.006,6.922-0.037,13.844,0.049,20.765
		c0.023,1.9-0.238,2.942-2.553,2.895c-6.672-0.137-13.35-0.136-20.021,0c-2.306,0.047-2.586-0.988-2.562-2.893
		c0.088-6.921,0.048-13.844,0.058-20.765C872.568,245.43,880.911,245.432,889.253,245.635z"/>
	<path fill-rule="evenodd" clip-rule="evenodd" fill="#FEFCFC" d="M897.226,775.236c0-4.188,0.012-8.376-0.004-12.563
		c-0.009-2.202,0.714-3.438,3.256-3.189c2.195,0.215,4.431-0.001,6.646,0.056c5.715,0.145,9.408,3.445,9.623,8.541
		c0.245,5.815-3.281,9.969-8.912,10.699c-1.99,0.257-4.729-1.035-5.792,0.809c-0.912,1.582-0.235,4.081-0.258,6.174
		c-0.007,0.615-0.022,1.232,0.003,1.847c0.066,1.697,0.112,3.158-2.379,3.128c-2.654-0.03-2.166-1.787-2.179-3.306
		c-0.034-4.063-0.013-8.129-0.013-12.194C897.221,775.236,897.224,775.236,897.226,775.236z"/>
	<path fill-rule="evenodd" clip-rule="evenodd" fill="#FBFBFB" d="M307.708,53.309c-3.505,0-6.704,0-10.269,0
		c1.626-4.727,3.19-9.271,4.754-13.816c0.213-0.026,0.427-0.052,0.641-0.078C304.437,43.983,306.04,48.553,307.708,53.309z"/>
	<path fill-rule="evenodd" clip-rule="evenodd" fill="#FBFBFB" d="M759.032,35.023c1.588,4.546,3.178,9.094,4.831,13.826
		c-3.443,0-6.609,0-10.236,0c1.597-4.686,3.141-9.208,4.683-13.73C758.55,35.087,758.791,35.055,759.032,35.023z"/>
	<path fill-rule="evenodd" clip-rule="evenodd" fill="#FDFDFD" d="M392.157,54.737c0.028-1.623,0.198-3.177,0.944-4.665
		c1.345-2.679,3.445-4.13,6.455-4.069c2.898,0.058,4.836,1.659,5.964,4.209c1.197,2.707,1.189,5.514,0.124,8.266
		c-1.192,3.08-3.823,4.786-6.851,4.566c-2.995-0.217-5.522-2.333-6.292-5.382C392.263,56.718,392.264,55.713,392.157,54.737z"/>
	<path fill-rule="evenodd" clip-rule="evenodd" fill="#FDFDFD" d="M900.256,49.815c-0.056-2.052,0.517-3.915,1.726-5.543
		c2.923-3.933,8.622-3.609,11.12,0.615c1.679,2.838,1.78,5.834,0.691,8.877c-1.188,3.319-3.833,5.096-7.015,4.822
		c-3.137-0.269-5.64-2.558-6.274-5.833C900.319,51.793,900.333,50.795,900.256,49.815z"/>
	<path fill-rule="evenodd" clip-rule="evenodd" fill="#FDFDFD" d="M898.973,424.235c0.001-4.429,0.001-4.437,4.458-4.414
		c1.34,0.007,2.677-0.079,4.003,0.351c2.245,0.729,2.947,2.359,2.936,4.527c-0.013,2.048-1.148,3.103-3.002,3.621
		c-1.315,0.368-2.654,0.393-4.003,0.403C898.973,428.754,898.973,428.76,898.973,424.235z"/>
	<path fill-rule="evenodd" clip-rule="evenodd" fill="#FDFDFD" d="M898.973,412.062c0.073-4.542-0.624-4.08,3.283-4.101
		c4.345-0.023,5.667,0.914,5.724,3.88c0.067,3.363-1.134,4.296-5.656,4.261C898.389,416.071,899.042,416.572,898.973,412.062z"/>
	<path fill-rule="evenodd" clip-rule="evenodd" fill="#FDFDFD" d="M413.757,419.815c1.339,0.051,2.679-0.088,4.008,0.315
		c2.232,0.678,3.043,2.242,3.071,4.434c0.029,2.242-1.243,3.336-3.232,3.822c-2.293,0.559-4.632,0.273-6.953,0.323
		c-0.971,0.021-1.229-0.553-1.217-1.399c0.015-1.102-0.001-2.205-0.001-3.308C409.435,419.81,409.435,419.81,413.757,419.815z"/>
	<path fill-rule="evenodd" clip-rule="evenodd" fill="#FDFDFD" d="M409.433,412.06c0.072-4.543-0.623-4.078,3.286-4.099
		c4.341-0.022,5.665,0.917,5.722,3.883c0.065,3.364-1.132,4.293-5.66,4.258C408.854,416.071,409.5,416.575,409.433,412.06z"/>
	<path fill-rule="evenodd" clip-rule="evenodd" fill="#FEFEFE" d="M944.595,58.595c-4.72,0.04-7.624-3.154-7.676-8.439
		c-0.051-5.264,2.831-8.576,7.496-8.617c4.752-0.041,7.597,3.1,7.644,8.438C952.105,55.313,949.297,58.555,944.595,58.595z"/>
	<path fill-rule="evenodd" clip-rule="evenodd" fill="#FEFEFE" d="M436.452,45.989c4.714,0.013,7.539,3.226,7.524,8.558
		c-0.015,5.342-2.843,8.512-7.583,8.498c-4.687-0.014-7.573-3.283-7.557-8.558C428.852,49.209,431.749,45.977,436.452,45.989z"/>
	<path fill-rule="evenodd" clip-rule="evenodd" fill="#FBFBFB" d="M336.668,51.067c-4.289,0-8.329,0-12.378,0
		c0.71-3.458,2.454-4.931,5.975-5.082C333.958,45.828,335.458,46.937,336.668,51.067z"/>
	<path fill-rule="evenodd" clip-rule="evenodd" fill="#FBFBFB" d="M844.601,46.559c-4.125,0-8.214,0-12.355,0
		c1.21-3.854,3.179-5.216,7.063-5.019C842.609,41.709,843.836,42.84,844.601,46.559z"/>
	<path fill-rule="evenodd" clip-rule="evenodd" fill="#FDFDFD" d="M886.992,49.973c0.043,5.337-2.752,8.567-7.464,8.623
		c-4.72,0.055-7.618-3.129-7.677-8.436c-0.058-5.266,2.834-8.596,7.49-8.623C884.101,41.51,886.949,44.648,886.992,49.973z"/>
	<path fill-rule="evenodd" clip-rule="evenodd" fill="#FDFDFD" d="M371.235,63.046c-4.652-0.038-7.539-3.379-7.468-8.645
		c0.073-5.306,2.976-8.479,7.699-8.413c4.705,0.065,7.496,3.306,7.442,8.644C378.854,59.957,376.002,63.085,371.235,63.046z"/>
	<path fill-rule="evenodd" clip-rule="evenodd" fill="#FCFCFC" d="M817.386,53.332c-0.001,4.051-3.627,6.876-7.369,5.918
		c-1.453-0.372-2.277-1.296-2.52-2.794c-0.306-1.882,0.278-3.411,1.882-4.39c2.036-1.244,4.376-1.56,6.697-1.568
		C818.548,50.488,816.839,52.546,817.386,53.332z"/>
	<path fill-rule="evenodd" clip-rule="evenodd" fill="#FDFDFD" d="M285.565,555.974c0-0.247-0.034-0.5,0.006-0.74
		c0.302-1.851-0.995-4.846,0.757-5.348c2.685-0.77,6.009-0.999,8.634,0.754c2.675,1.785,2.386,4.659,1.821,7.395
		c-0.544,2.632-1.926,3.848-4.49,4.16C285.565,563.015,285.565,563.015,285.565,555.974z"/>
	<path fill-rule="evenodd" clip-rule="evenodd" fill="#FDFDFD" d="M385.848,566.307c0.123,1.714-0.382,3.586-1.72,5.16
		c-1.646,1.938-4.354,2.438-6.725,1.319c-2.828-1.334-4.119-4.199-3.667-8.141c0.351-3.059,2.418-5.485,5.15-6.042
		c2.516-0.514,4.841,0.671,6.146,3.062C385.775,563.026,385.829,564.488,385.848,566.307z"/>
	<path fill-rule="evenodd" clip-rule="evenodd" fill="#FDFDFD" d="M260.823,845.523c-0.02-3.911,2.165-6.599,5.375-6.616
		c3.284-0.019,6.022,2.927,6.108,6.566c0.091,3.933-2.58,6.866-6.159,6.76C262.966,852.143,260.842,849.464,260.823,845.523z"/>
	<path fill-rule="evenodd" clip-rule="evenodd" fill="#FDFDFD" d="M1108.608,787.855c0-6.034,0-6.034,5.853-5.265
		c3.542,0.468,4.985,2.179,4.802,5.698c-0.185,3.537-1.755,5.138-5.261,5.356C1108.608,793.983,1108.608,793.983,1108.608,787.855z"
		/>
	<path fill-rule="evenodd" clip-rule="evenodd" fill="#FDFDFD" d="M1136.966,845.619c-0.049-3.905,2.096-6.625,5.295-6.712
		c3.414-0.097,6.224,3.012,6.188,6.841c-0.037,3.772-2.625,6.546-6.051,6.488C1139.206,852.182,1137.016,849.514,1136.966,845.619z"
		/>
	<path fill-rule="evenodd" clip-rule="evenodd" fill="#FAFAFA" d="M269.521,795.729c-1.133,0.067-1.856,0.137-2.579,0.146
		c-1.702,0.018-3.404,0.004-5.354,0.004c0.83-3.873,2.403-7.223,3.7-11.236C267.223,788.46,268.103,792.073,269.521,795.729z"/>
	<path fill-rule="evenodd" clip-rule="evenodd" fill="#FAFAFA" d="M1067.835,795.666c1.477-3.811,2.299-7.35,4.22-10.956
		c1.36,3.858,2.563,7.27,3.861,10.956C1073.165,795.666,1070.678,795.666,1067.835,795.666z"/>
	<path fill-rule="evenodd" clip-rule="evenodd" fill="#FAFAFA" d="M201.205,784.439c1.472,4.243,2.664,7.679,3.926,11.32
		c-2.738,0-5.16,0-7.864,0C198.124,791.998,199.521,788.596,201.205,784.439z"/>
	<path fill-rule="evenodd" clip-rule="evenodd" fill="#FAFAFA" d="M845.402,421.154c1.174-3.707,2.268-7.243,4.104-11.079
		c1.383,3.91,2.584,7.307,3.908,11.048C850.668,421.441,848.189,421.339,845.402,421.154z"/>
	<path fill-rule="evenodd" clip-rule="evenodd" fill="#FAFAFA" d="M363.885,421.21c-2.98,0-5.288,0-7.878,0
		c0.818-3.79,2.27-7.169,3.889-11.335C361.366,414.054,362.584,417.515,363.885,421.21z"/>
	<path fill-rule="evenodd" clip-rule="evenodd" fill="#FAFAFA" d="M1011.575,795.718c-2.786,0.217-5.307,0.274-8.024-0.006
		c1.248-3.778,2.381-7.373,4.104-11.175C1009.028,788.458,1010.276,792.012,1011.575,795.718z"/>
	<path fill-rule="evenodd" clip-rule="evenodd" fill="#FAFAFA" d="M1011.61,843.983c-2.973,0-5.409,0-8.029,0
		c1.118-3.772,2.375-7.318,4.047-11.257C1009.022,836.667,1010.262,840.174,1011.61,843.983z"/>
	<path fill-rule="evenodd" clip-rule="evenodd" fill="#FAFAFA" d="M494.765,562.701c1.241-3.927,5.75-5.6,8.946-3.326
		c0.954,0.68,1.677,1.617,1.468,2.779c-0.264,1.462-1.588,0.756-2.425,0.787c-2.451,0.092-4.909,0.028-7.363,0.005
		C495.182,562.944,494.974,562.786,494.765,562.701z"/>
	<path fill-rule="evenodd" clip-rule="evenodd" fill="#FAFAFA" d="M924.225,562.7c1.244-3.926,5.751-5.598,8.945-3.323
		c0.953,0.68,1.677,1.612,1.466,2.777c-0.265,1.464-1.588,0.756-2.424,0.787c-2.451,0.092-4.907,0.028-7.361,0.005
		C924.641,562.944,924.433,562.785,924.225,562.7z"/>
	<path fill-rule="evenodd" clip-rule="evenodd" fill="#FDFDFD" d="M337.144,573.353c-4.047-0.135-6.408-3.129-6.217-7.89
		c0.179-4.492,2.717-7.082,6.8-6.941c3.882,0.136,6.377,3.108,6.316,7.526C343.978,570.676,341.321,573.49,337.144,573.353z"/>
	<path fill-rule="evenodd" clip-rule="evenodd" fill="#F7F7F7" d="M892.935,568.43c0.051,3.337-1.137,4.968-4.119,5.557
		c-1.8,0.355-3.5,0.193-4.285-1.826c-0.707-1.819-0.194-3.425,1.316-4.577c1.729-1.319,3.85-1.597,5.934-1.588
		C893.624,566.003,892.658,567.609,892.935,568.43z"/>
	<path fill-rule="evenodd" clip-rule="evenodd" fill="#F7F7F7" d="M463.477,568.743c-0.015,3.087-1.243,4.671-4.107,5.241
		c-1.797,0.357-3.498,0.209-4.293-1.81c-0.716-1.818-0.206-3.424,1.298-4.582c1.725-1.327,3.852-1.648,5.93-1.584
		C464.391,566.072,463.086,567.893,463.477,568.743z"/>
	<path fill-rule="evenodd" clip-rule="evenodd" fill="#F7F7F7" d="M428.417,568.779c-0.009,3.049-1.468,4.814-4.383,5.258
		c-1.697,0.259-3.286,0.014-3.965-1.791c-0.651-1.731-0.323-3.381,1.174-4.633c1.175-0.982,2.667-1.203,4.089-1.473
		C428.242,565.587,428.426,565.794,428.417,568.779z"/>
	<path fill-rule="evenodd" clip-rule="evenodd" fill="#FAFAFA" d="M1126.74,843.15c-3.363,0-6.505,0-9.708,0
		c1.068-3.154,2.563-4.322,5.26-4.254C1124.886,838.96,1125.923,839.887,1126.74,843.15z"/>
	<path fill-rule="evenodd" clip-rule="evenodd" fill="#F9F9F9" d="M215.387,848.443c-0.029,3.189-3.655,5.505-6.25,4.269
		c-1.911-0.91-2.108-3.457-0.359-4.869c1.205-0.97,2.731-0.999,4.148-1.346C214.85,846.029,215.735,846.69,215.387,848.443z"/>
	<path fill-rule="evenodd" clip-rule="evenodd" fill="#FBFBFB" d="M250.539,843.104c-0.343,0.079-0.687,0.221-1.032,0.224
		c-2.816,0.018-5.634,0.011-8.474,0.011c0.562-3.181,2.091-4.492,5.044-4.444C248.82,838.94,249.923,839.968,250.539,843.104z"/>
	<path fill-rule="evenodd" clip-rule="evenodd" fill="#F7F7F7" d="M1091.668,848.455c0.034,2.991-3.335,5.375-6.073,4.367
		c-0.984-0.362-1.642-1.057-1.846-2.088c-0.233-1.195,0.229-2.186,1.184-2.872c1.653-1.188,3.629-1.385,5.568-1.478
		C1092.101,846.309,1091.519,847.676,1091.668,848.455z"/>
	<path fill-rule="evenodd" clip-rule="evenodd" fill="#F9F9F9" d="M136.481,848.247c0.044,3.178-3.285,5.586-6.026,4.593
		c-0.984-0.355-1.677-1.059-1.851-2.091c-0.226-1.331,0.332-2.378,1.473-3.091c1.611-1.005,3.463-1.154,5.273-1.297
		C137.079,846.226,136.156,847.743,136.481,848.247z"/>
	<path fill-rule="evenodd" clip-rule="evenodd" fill="#BF0101" d="M901.783,769.039c0-0.245-0.09-0.543,0.015-0.729
		c0.938-1.663-2.161-5.042,2.241-5.234c5.254-0.229,7.755,1.335,8.242,5.224c0.393,3.14-1.806,6.265-4.823,6.854
		c-4.962,0.971-5.674,0.392-5.675-4.637C901.783,770.023,901.783,769.531,901.783,769.039z"/>
</g>
<g>
	<path fill-rule="evenodd" clip-rule="evenodd" fill="#424242" d="M599.771,174.739c-10.221-5.112-19.534-9.771-29.426-14.718
		c9.892-4.946,19.208-9.603,29.18-14.587c0,3.539,0,6.349,0,9.632c34.739,0,69.038,0,103.598,0c0,3.402,0,6.332,0,9.767
		c-34.367,0-68.651,0-103.352,0C599.771,168.131,599.771,170.949,599.771,174.739z"/>
	<path fill-rule="evenodd" clip-rule="evenodd" fill="#424242" d="M674.108,204.697c-34.855,0-69.085,0-103.586,0
		c0-3.324,0-6.374,0-9.705c34.48,0,68.706,0,103.465,0c0-3.181,0-6.095,0-9.809c10.063,5.032,19.375,9.689,29.354,14.68
		c-9.988,4.998-19.304,9.657-29.233,14.625C674.108,210.903,674.108,208.075,674.108,204.697z"/>
	<path fill-rule="evenodd" clip-rule="evenodd" fill="#424242" d="M388.518,742.96c-2.753-5.533-5.506-11.066-8.411-16.906
		c2.153-0.162,3.746-0.281,5.783-0.434c0-38.119,0-76.186,0-114.494c2.128,0,3.817,0,5.972,0c0,38.057,0,76.119,0,114.404
		c2.104,0.193,3.783,0.348,6.011,0.555c-2.904,5.836-5.656,11.365-8.407,16.895C389.15,742.974,388.833,742.968,388.518,742.96z"/>
	<path fill-rule="evenodd" clip-rule="evenodd" fill="#424242" d="M876.321,726.046c2.321-0.182,3.907-0.305,5.806-0.451
		c0-38.129,0-76.1,0-114.389c2.091,0,3.857,0,6.099,0c0,38.104,0,76.168,0,114.379c2.026,0.156,3.612,0.277,5.956,0.457
		c-2.937,5.879-5.711,11.439-8.916,17.855C882.082,737.541,879.324,732.035,876.321,726.046z"/>
</g>
</svg>
